G04 #@! TF.GenerationSoftware,KiCad,Pcbnew,(5.0.2)-1*
G04 #@! TF.CreationDate,2019-08-15T12:32:10+02:00*
G04 #@! TF.ProjectId,ADS1298_FINAL,41445331-3239-4385-9f46-494e414c2e6b,rev?*
G04 #@! TF.SameCoordinates,Original*
G04 #@! TF.FileFunction,Soldermask,Bot*
G04 #@! TF.FilePolarity,Negative*
%FSLAX46Y46*%
G04 Gerber Fmt 4.6, Leading zero omitted, Abs format (unit mm)*
G04 Created by KiCad (PCBNEW (5.0.2)-1) date 15-8-2019 12:32:10*
%MOMM*%
%LPD*%
G01*
G04 APERTURE LIST*
%ADD10C,0.100000*%
G04 APERTURE END LIST*
D10*
G36*
X85111801Y-116960244D02*
X85149488Y-116971677D01*
X85184227Y-116990245D01*
X85214672Y-117015231D01*
X85239658Y-117045676D01*
X85258226Y-117080415D01*
X85269659Y-117118102D01*
X85274124Y-117163440D01*
X85274124Y-118250118D01*
X85269659Y-118295456D01*
X85258226Y-118333143D01*
X85239658Y-118367882D01*
X85214672Y-118398327D01*
X85184227Y-118423313D01*
X85149488Y-118441881D01*
X85111801Y-118453314D01*
X85066463Y-118457779D01*
X84229785Y-118457779D01*
X84184447Y-118453314D01*
X84146760Y-118441881D01*
X84112021Y-118423313D01*
X84081576Y-118398327D01*
X84056590Y-118367882D01*
X84038022Y-118333143D01*
X84026589Y-118295456D01*
X84022124Y-118250118D01*
X84022124Y-117163440D01*
X84026589Y-117118102D01*
X84038022Y-117080415D01*
X84056590Y-117045676D01*
X84081576Y-117015231D01*
X84112021Y-116990245D01*
X84146760Y-116971677D01*
X84184447Y-116960244D01*
X84229785Y-116955779D01*
X85066463Y-116955779D01*
X85111801Y-116960244D01*
X85111801Y-116960244D01*
G37*
G36*
X83061801Y-116960244D02*
X83099488Y-116971677D01*
X83134227Y-116990245D01*
X83164672Y-117015231D01*
X83189658Y-117045676D01*
X83208226Y-117080415D01*
X83219659Y-117118102D01*
X83224124Y-117163440D01*
X83224124Y-118250118D01*
X83219659Y-118295456D01*
X83208226Y-118333143D01*
X83189658Y-118367882D01*
X83164672Y-118398327D01*
X83134227Y-118423313D01*
X83099488Y-118441881D01*
X83061801Y-118453314D01*
X83016463Y-118457779D01*
X82179785Y-118457779D01*
X82134447Y-118453314D01*
X82096760Y-118441881D01*
X82062021Y-118423313D01*
X82031576Y-118398327D01*
X82006590Y-118367882D01*
X81988022Y-118333143D01*
X81976589Y-118295456D01*
X81972124Y-118250118D01*
X81972124Y-117163440D01*
X81976589Y-117118102D01*
X81988022Y-117080415D01*
X82006590Y-117045676D01*
X82031576Y-117015231D01*
X82062021Y-116990245D01*
X82096760Y-116971677D01*
X82134447Y-116960244D01*
X82179785Y-116955779D01*
X83016463Y-116955779D01*
X83061801Y-116960244D01*
X83061801Y-116960244D01*
G37*
G36*
X88136801Y-117135244D02*
X88174488Y-117146677D01*
X88209227Y-117165245D01*
X88239672Y-117190231D01*
X88264658Y-117220676D01*
X88283226Y-117255415D01*
X88294659Y-117293102D01*
X88299124Y-117338440D01*
X88299124Y-118175118D01*
X88294659Y-118220456D01*
X88283226Y-118258143D01*
X88264658Y-118292882D01*
X88239672Y-118323327D01*
X88209227Y-118348313D01*
X88174488Y-118366881D01*
X88136801Y-118378314D01*
X88091463Y-118382779D01*
X87004785Y-118382779D01*
X86959447Y-118378314D01*
X86921760Y-118366881D01*
X86887021Y-118348313D01*
X86856576Y-118323327D01*
X86831590Y-118292882D01*
X86813022Y-118258143D01*
X86801589Y-118220456D01*
X86797124Y-118175118D01*
X86797124Y-117338440D01*
X86801589Y-117293102D01*
X86813022Y-117255415D01*
X86831590Y-117220676D01*
X86856576Y-117190231D01*
X86887021Y-117165245D01*
X86921760Y-117146677D01*
X86959447Y-117135244D01*
X87004785Y-117130779D01*
X88091463Y-117130779D01*
X88136801Y-117135244D01*
X88136801Y-117135244D01*
G37*
G36*
X90286801Y-117135244D02*
X90324488Y-117146677D01*
X90359227Y-117165245D01*
X90389672Y-117190231D01*
X90414658Y-117220676D01*
X90433226Y-117255415D01*
X90444659Y-117293102D01*
X90449124Y-117338440D01*
X90449124Y-118175118D01*
X90444659Y-118220456D01*
X90433226Y-118258143D01*
X90414658Y-118292882D01*
X90389672Y-118323327D01*
X90359227Y-118348313D01*
X90324488Y-118366881D01*
X90286801Y-118378314D01*
X90241463Y-118382779D01*
X89154785Y-118382779D01*
X89109447Y-118378314D01*
X89071760Y-118366881D01*
X89037021Y-118348313D01*
X89006576Y-118323327D01*
X88981590Y-118292882D01*
X88963022Y-118258143D01*
X88951589Y-118220456D01*
X88947124Y-118175118D01*
X88947124Y-117338440D01*
X88951589Y-117293102D01*
X88963022Y-117255415D01*
X88981590Y-117220676D01*
X89006576Y-117190231D01*
X89037021Y-117165245D01*
X89071760Y-117146677D01*
X89109447Y-117135244D01*
X89154785Y-117130779D01*
X90241463Y-117130779D01*
X90286801Y-117135244D01*
X90286801Y-117135244D01*
G37*
G36*
X96357590Y-116260344D02*
X96396261Y-116272075D01*
X96431903Y-116291127D01*
X96463141Y-116316762D01*
X96488776Y-116348000D01*
X96507828Y-116383642D01*
X96519559Y-116422313D01*
X96524124Y-116468667D01*
X96524124Y-117544891D01*
X96519559Y-117591245D01*
X96507828Y-117629916D01*
X96488776Y-117665558D01*
X96463141Y-117696796D01*
X96431903Y-117722431D01*
X96396261Y-117741483D01*
X96357590Y-117753214D01*
X96311236Y-117757779D01*
X95660012Y-117757779D01*
X95613658Y-117753214D01*
X95574987Y-117741483D01*
X95539345Y-117722431D01*
X95508107Y-117696796D01*
X95482472Y-117665558D01*
X95463420Y-117629916D01*
X95451689Y-117591245D01*
X95447124Y-117544891D01*
X95447124Y-116468667D01*
X95451689Y-116422313D01*
X95463420Y-116383642D01*
X95482472Y-116348000D01*
X95508107Y-116316762D01*
X95539345Y-116291127D01*
X95574987Y-116272075D01*
X95613658Y-116260344D01*
X95660012Y-116255779D01*
X96311236Y-116255779D01*
X96357590Y-116260344D01*
X96357590Y-116260344D01*
G37*
G36*
X98232590Y-116260344D02*
X98271261Y-116272075D01*
X98306903Y-116291127D01*
X98338141Y-116316762D01*
X98363776Y-116348000D01*
X98382828Y-116383642D01*
X98394559Y-116422313D01*
X98399124Y-116468667D01*
X98399124Y-117544891D01*
X98394559Y-117591245D01*
X98382828Y-117629916D01*
X98363776Y-117665558D01*
X98338141Y-117696796D01*
X98306903Y-117722431D01*
X98271261Y-117741483D01*
X98232590Y-117753214D01*
X98186236Y-117757779D01*
X97535012Y-117757779D01*
X97488658Y-117753214D01*
X97449987Y-117741483D01*
X97414345Y-117722431D01*
X97383107Y-117696796D01*
X97357472Y-117665558D01*
X97338420Y-117629916D01*
X97326689Y-117591245D01*
X97322124Y-117544891D01*
X97322124Y-116468667D01*
X97326689Y-116422313D01*
X97338420Y-116383642D01*
X97357472Y-116348000D01*
X97383107Y-116316762D01*
X97414345Y-116291127D01*
X97449987Y-116272075D01*
X97488658Y-116260344D01*
X97535012Y-116255779D01*
X98186236Y-116255779D01*
X98232590Y-116260344D01*
X98232590Y-116260344D01*
G37*
G36*
X80836801Y-115185244D02*
X80874488Y-115196677D01*
X80909227Y-115215245D01*
X80939672Y-115240231D01*
X80964658Y-115270676D01*
X80983226Y-115305415D01*
X80994659Y-115343102D01*
X80999124Y-115388440D01*
X80999124Y-116225118D01*
X80994659Y-116270456D01*
X80983226Y-116308143D01*
X80964658Y-116342882D01*
X80939672Y-116373327D01*
X80909227Y-116398313D01*
X80874488Y-116416881D01*
X80836801Y-116428314D01*
X80791463Y-116432779D01*
X79704785Y-116432779D01*
X79659447Y-116428314D01*
X79621760Y-116416881D01*
X79587021Y-116398313D01*
X79556576Y-116373327D01*
X79531590Y-116342882D01*
X79513022Y-116308143D01*
X79501589Y-116270456D01*
X79497124Y-116225118D01*
X79497124Y-115388440D01*
X79501589Y-115343102D01*
X79513022Y-115305415D01*
X79531590Y-115270676D01*
X79556576Y-115240231D01*
X79587021Y-115215245D01*
X79621760Y-115196677D01*
X79659447Y-115185244D01*
X79704785Y-115180779D01*
X80791463Y-115180779D01*
X80836801Y-115185244D01*
X80836801Y-115185244D01*
G37*
G36*
X88136801Y-115085244D02*
X88174488Y-115096677D01*
X88209227Y-115115245D01*
X88239672Y-115140231D01*
X88264658Y-115170676D01*
X88283226Y-115205415D01*
X88294659Y-115243102D01*
X88299124Y-115288440D01*
X88299124Y-116125118D01*
X88294659Y-116170456D01*
X88283226Y-116208143D01*
X88264658Y-116242882D01*
X88239672Y-116273327D01*
X88209227Y-116298313D01*
X88174488Y-116316881D01*
X88136801Y-116328314D01*
X88091463Y-116332779D01*
X87004785Y-116332779D01*
X86959447Y-116328314D01*
X86921760Y-116316881D01*
X86887021Y-116298313D01*
X86856576Y-116273327D01*
X86831590Y-116242882D01*
X86813022Y-116208143D01*
X86801589Y-116170456D01*
X86797124Y-116125118D01*
X86797124Y-115288440D01*
X86801589Y-115243102D01*
X86813022Y-115205415D01*
X86831590Y-115170676D01*
X86856576Y-115140231D01*
X86887021Y-115115245D01*
X86921760Y-115096677D01*
X86959447Y-115085244D01*
X87004785Y-115080779D01*
X88091463Y-115080779D01*
X88136801Y-115085244D01*
X88136801Y-115085244D01*
G37*
G36*
X90286801Y-115085244D02*
X90324488Y-115096677D01*
X90359227Y-115115245D01*
X90389672Y-115140231D01*
X90414658Y-115170676D01*
X90433226Y-115205415D01*
X90444659Y-115243102D01*
X90449124Y-115288440D01*
X90449124Y-116125118D01*
X90444659Y-116170456D01*
X90433226Y-116208143D01*
X90414658Y-116242882D01*
X90389672Y-116273327D01*
X90359227Y-116298313D01*
X90324488Y-116316881D01*
X90286801Y-116328314D01*
X90241463Y-116332779D01*
X89154785Y-116332779D01*
X89109447Y-116328314D01*
X89071760Y-116316881D01*
X89037021Y-116298313D01*
X89006576Y-116273327D01*
X88981590Y-116242882D01*
X88963022Y-116208143D01*
X88951589Y-116170456D01*
X88947124Y-116125118D01*
X88947124Y-115288440D01*
X88951589Y-115243102D01*
X88963022Y-115205415D01*
X88981590Y-115170676D01*
X89006576Y-115140231D01*
X89037021Y-115115245D01*
X89071760Y-115096677D01*
X89109447Y-115085244D01*
X89154785Y-115080779D01*
X90241463Y-115080779D01*
X90286801Y-115085244D01*
X90286801Y-115085244D01*
G37*
G36*
X83429124Y-116082779D02*
X81767124Y-116082779D01*
X81767124Y-115330779D01*
X83429124Y-115330779D01*
X83429124Y-116082779D01*
X83429124Y-116082779D01*
G37*
G36*
X86129124Y-116082779D02*
X84467124Y-116082779D01*
X84467124Y-113430779D01*
X86129124Y-113430779D01*
X86129124Y-116082779D01*
X86129124Y-116082779D01*
G37*
G36*
X111701000Y-115881000D02*
X108599000Y-115881000D01*
X108599000Y-112779000D01*
X111701000Y-112779000D01*
X111701000Y-115881000D01*
X111701000Y-115881000D01*
G37*
G36*
X78151000Y-115601000D02*
X76349000Y-115601000D01*
X76349000Y-113799000D01*
X78151000Y-113799000D01*
X78151000Y-115601000D01*
X78151000Y-115601000D01*
G37*
G36*
X100674124Y-114772779D02*
X98822124Y-114772779D01*
X98822124Y-114120779D01*
X100674124Y-114120779D01*
X100674124Y-114772779D01*
X100674124Y-114772779D01*
G37*
G36*
X93274124Y-114772779D02*
X91422124Y-114772779D01*
X91422124Y-114120779D01*
X93274124Y-114120779D01*
X93274124Y-114772779D01*
X93274124Y-114772779D01*
G37*
G36*
X90282590Y-113447844D02*
X90321261Y-113459575D01*
X90356903Y-113478627D01*
X90388141Y-113504262D01*
X90413776Y-113535500D01*
X90432828Y-113571142D01*
X90444559Y-113609813D01*
X90449124Y-113656167D01*
X90449124Y-114307391D01*
X90444559Y-114353745D01*
X90432828Y-114392416D01*
X90413776Y-114428058D01*
X90388141Y-114459296D01*
X90356903Y-114484931D01*
X90321261Y-114503983D01*
X90282590Y-114515714D01*
X90236236Y-114520279D01*
X89160012Y-114520279D01*
X89113658Y-114515714D01*
X89074987Y-114503983D01*
X89039345Y-114484931D01*
X89008107Y-114459296D01*
X88982472Y-114428058D01*
X88963420Y-114392416D01*
X88951689Y-114353745D01*
X88947124Y-114307391D01*
X88947124Y-113656167D01*
X88951689Y-113609813D01*
X88963420Y-113571142D01*
X88982472Y-113535500D01*
X89008107Y-113504262D01*
X89039345Y-113478627D01*
X89074987Y-113459575D01*
X89113658Y-113447844D01*
X89160012Y-113443279D01*
X90236236Y-113443279D01*
X90282590Y-113447844D01*
X90282590Y-113447844D01*
G37*
G36*
X80836801Y-113135244D02*
X80874488Y-113146677D01*
X80909227Y-113165245D01*
X80939672Y-113190231D01*
X80964658Y-113220676D01*
X80983226Y-113255415D01*
X80994659Y-113293102D01*
X80999124Y-113338440D01*
X80999124Y-114175118D01*
X80994659Y-114220456D01*
X80983226Y-114258143D01*
X80964658Y-114292882D01*
X80939672Y-114323327D01*
X80909227Y-114348313D01*
X80874488Y-114366881D01*
X80836801Y-114378314D01*
X80791463Y-114382779D01*
X79704785Y-114382779D01*
X79659447Y-114378314D01*
X79621760Y-114366881D01*
X79587021Y-114348313D01*
X79556576Y-114323327D01*
X79531590Y-114292882D01*
X79513022Y-114258143D01*
X79501589Y-114220456D01*
X79497124Y-114175118D01*
X79497124Y-113338440D01*
X79501589Y-113293102D01*
X79513022Y-113255415D01*
X79531590Y-113220676D01*
X79556576Y-113190231D01*
X79587021Y-113165245D01*
X79621760Y-113146677D01*
X79659447Y-113135244D01*
X79704785Y-113130779D01*
X80791463Y-113130779D01*
X80836801Y-113135244D01*
X80836801Y-113135244D01*
G37*
G36*
X83429124Y-114182779D02*
X81767124Y-114182779D01*
X81767124Y-113430779D01*
X83429124Y-113430779D01*
X83429124Y-114182779D01*
X83429124Y-114182779D01*
G37*
G36*
X103236801Y-112435244D02*
X103274488Y-112446677D01*
X103309227Y-112465245D01*
X103339672Y-112490231D01*
X103364658Y-112520676D01*
X103383226Y-112555415D01*
X103394659Y-112593102D01*
X103399124Y-112638440D01*
X103399124Y-113475118D01*
X103394659Y-113520456D01*
X103383226Y-113558143D01*
X103364658Y-113592882D01*
X103339672Y-113623327D01*
X103309227Y-113648313D01*
X103274488Y-113666881D01*
X103236801Y-113678314D01*
X103191463Y-113682779D01*
X102104785Y-113682779D01*
X102059447Y-113678314D01*
X102021760Y-113666881D01*
X101987021Y-113648313D01*
X101956576Y-113623327D01*
X101931590Y-113592882D01*
X101913022Y-113558143D01*
X101901589Y-113520456D01*
X101897124Y-113475118D01*
X101897124Y-112638440D01*
X101901589Y-112593102D01*
X101913022Y-112555415D01*
X101931590Y-112520676D01*
X101956576Y-112490231D01*
X101987021Y-112465245D01*
X102021760Y-112446677D01*
X102059447Y-112435244D01*
X102104785Y-112430779D01*
X103191463Y-112430779D01*
X103236801Y-112435244D01*
X103236801Y-112435244D01*
G37*
G36*
X93274124Y-113502779D02*
X91422124Y-113502779D01*
X91422124Y-112850779D01*
X93274124Y-112850779D01*
X93274124Y-113502779D01*
X93274124Y-113502779D01*
G37*
G36*
X100674124Y-113502779D02*
X98822124Y-113502779D01*
X98822124Y-112850779D01*
X100674124Y-112850779D01*
X100674124Y-113502779D01*
X100674124Y-113502779D01*
G37*
G36*
X90282590Y-111572844D02*
X90321261Y-111584575D01*
X90356903Y-111603627D01*
X90388141Y-111629262D01*
X90413776Y-111660500D01*
X90432828Y-111696142D01*
X90444559Y-111734813D01*
X90449124Y-111781167D01*
X90449124Y-112432391D01*
X90444559Y-112478745D01*
X90432828Y-112517416D01*
X90413776Y-112553058D01*
X90388141Y-112584296D01*
X90356903Y-112609931D01*
X90321261Y-112628983D01*
X90282590Y-112640714D01*
X90236236Y-112645279D01*
X89160012Y-112645279D01*
X89113658Y-112640714D01*
X89074987Y-112628983D01*
X89039345Y-112609931D01*
X89008107Y-112584296D01*
X88982472Y-112553058D01*
X88963420Y-112517416D01*
X88951689Y-112478745D01*
X88947124Y-112432391D01*
X88947124Y-111781167D01*
X88951689Y-111734813D01*
X88963420Y-111696142D01*
X88982472Y-111660500D01*
X89008107Y-111629262D01*
X89039345Y-111603627D01*
X89074987Y-111584575D01*
X89113658Y-111572844D01*
X89160012Y-111568279D01*
X90236236Y-111568279D01*
X90282590Y-111572844D01*
X90282590Y-111572844D01*
G37*
G36*
X93274124Y-112232779D02*
X91422124Y-112232779D01*
X91422124Y-111580779D01*
X93274124Y-111580779D01*
X93274124Y-112232779D01*
X93274124Y-112232779D01*
G37*
G36*
X100674124Y-112232779D02*
X98822124Y-112232779D01*
X98822124Y-111580779D01*
X100674124Y-111580779D01*
X100674124Y-112232779D01*
X100674124Y-112232779D01*
G37*
G36*
X103236801Y-110385244D02*
X103274488Y-110396677D01*
X103309227Y-110415245D01*
X103339672Y-110440231D01*
X103364658Y-110470676D01*
X103383226Y-110505415D01*
X103394659Y-110543102D01*
X103399124Y-110588440D01*
X103399124Y-111425118D01*
X103394659Y-111470456D01*
X103383226Y-111508143D01*
X103364658Y-111542882D01*
X103339672Y-111573327D01*
X103309227Y-111598313D01*
X103274488Y-111616881D01*
X103236801Y-111628314D01*
X103191463Y-111632779D01*
X102104785Y-111632779D01*
X102059447Y-111628314D01*
X102021760Y-111616881D01*
X101987021Y-111598313D01*
X101956576Y-111573327D01*
X101931590Y-111542882D01*
X101913022Y-111508143D01*
X101901589Y-111470456D01*
X101897124Y-111425118D01*
X101897124Y-110588440D01*
X101901589Y-110543102D01*
X101913022Y-110505415D01*
X101931590Y-110470676D01*
X101956576Y-110440231D01*
X101987021Y-110415245D01*
X102021760Y-110396677D01*
X102059447Y-110385244D01*
X102104785Y-110380779D01*
X103191463Y-110380779D01*
X103236801Y-110385244D01*
X103236801Y-110385244D01*
G37*
G36*
X100674124Y-110962779D02*
X98822124Y-110962779D01*
X98822124Y-110310779D01*
X100674124Y-110310779D01*
X100674124Y-110962779D01*
X100674124Y-110962779D01*
G37*
G36*
X93274124Y-110962779D02*
X91422124Y-110962779D01*
X91422124Y-110310779D01*
X93274124Y-110310779D01*
X93274124Y-110962779D01*
X93274124Y-110962779D01*
G37*
G36*
X70610442Y-109045518D02*
X70676627Y-109052037D01*
X70789853Y-109086384D01*
X70846467Y-109103557D01*
X70985087Y-109177652D01*
X71002991Y-109187222D01*
X71038729Y-109216552D01*
X71140186Y-109299814D01*
X71223448Y-109401271D01*
X71252778Y-109437009D01*
X71252779Y-109437011D01*
X71336443Y-109593533D01*
X71336443Y-109593534D01*
X71387963Y-109763373D01*
X71405359Y-109940000D01*
X71387963Y-110116627D01*
X71353616Y-110229853D01*
X71336443Y-110286467D01*
X71286031Y-110380779D01*
X71252778Y-110442991D01*
X71243137Y-110454738D01*
X71140186Y-110580186D01*
X71051519Y-110652952D01*
X71002991Y-110692778D01*
X71002989Y-110692779D01*
X70846467Y-110776443D01*
X70789853Y-110793616D01*
X70676627Y-110827963D01*
X70610443Y-110834481D01*
X70544260Y-110841000D01*
X70455740Y-110841000D01*
X70389557Y-110834481D01*
X70323373Y-110827963D01*
X70210147Y-110793616D01*
X70153533Y-110776443D01*
X69997011Y-110692779D01*
X69997009Y-110692778D01*
X69948481Y-110652952D01*
X69859814Y-110580186D01*
X69756863Y-110454738D01*
X69747222Y-110442991D01*
X69713969Y-110380779D01*
X69663557Y-110286467D01*
X69646384Y-110229853D01*
X69612037Y-110116627D01*
X69594641Y-109940000D01*
X69612037Y-109763373D01*
X69663557Y-109593534D01*
X69663557Y-109593533D01*
X69747221Y-109437011D01*
X69747222Y-109437009D01*
X69776552Y-109401271D01*
X69859814Y-109299814D01*
X69961271Y-109216552D01*
X69997009Y-109187222D01*
X70014913Y-109177652D01*
X70153533Y-109103557D01*
X70210147Y-109086384D01*
X70323373Y-109052037D01*
X70389558Y-109045518D01*
X70455740Y-109039000D01*
X70544260Y-109039000D01*
X70610442Y-109045518D01*
X70610442Y-109045518D01*
G37*
G36*
X110502527Y-107738736D02*
X110602410Y-107758604D01*
X110884674Y-107875521D01*
X111138705Y-108045259D01*
X111354741Y-108261295D01*
X111524479Y-108515326D01*
X111633624Y-108778827D01*
X111641396Y-108797591D01*
X111701000Y-109097238D01*
X111701000Y-109402762D01*
X111694187Y-109437011D01*
X111641396Y-109702410D01*
X111524479Y-109984674D01*
X111354741Y-110238705D01*
X111138705Y-110454741D01*
X110884674Y-110624479D01*
X110602410Y-110741396D01*
X110502527Y-110761264D01*
X110302762Y-110801000D01*
X109997238Y-110801000D01*
X109797473Y-110761264D01*
X109697590Y-110741396D01*
X109415326Y-110624479D01*
X109161295Y-110454741D01*
X108945259Y-110238705D01*
X108775521Y-109984674D01*
X108658604Y-109702410D01*
X108605813Y-109437011D01*
X108599000Y-109402762D01*
X108599000Y-109097238D01*
X108658604Y-108797591D01*
X108666376Y-108778827D01*
X108775521Y-108515326D01*
X108945259Y-108261295D01*
X109161295Y-108045259D01*
X109415326Y-107875521D01*
X109697590Y-107758604D01*
X109797473Y-107738736D01*
X109997238Y-107699000D01*
X110302762Y-107699000D01*
X110502527Y-107738736D01*
X110502527Y-107738736D01*
G37*
G36*
X51201000Y-109101000D02*
X49399000Y-109101000D01*
X49399000Y-107299000D01*
X51201000Y-107299000D01*
X51201000Y-109101000D01*
X51201000Y-109101000D01*
G37*
G36*
X63763677Y-107553465D02*
X63801364Y-107564898D01*
X63836103Y-107583466D01*
X63866548Y-107608452D01*
X63891534Y-107638897D01*
X63910102Y-107673636D01*
X63921535Y-107711323D01*
X63926000Y-107756661D01*
X63926000Y-108843339D01*
X63921535Y-108888677D01*
X63910102Y-108926364D01*
X63891534Y-108961103D01*
X63866548Y-108991548D01*
X63836103Y-109016534D01*
X63801364Y-109035102D01*
X63763677Y-109046535D01*
X63718339Y-109051000D01*
X62881661Y-109051000D01*
X62836323Y-109046535D01*
X62798636Y-109035102D01*
X62763897Y-109016534D01*
X62733452Y-108991548D01*
X62708466Y-108961103D01*
X62689898Y-108926364D01*
X62678465Y-108888677D01*
X62674000Y-108843339D01*
X62674000Y-107756661D01*
X62678465Y-107711323D01*
X62689898Y-107673636D01*
X62708466Y-107638897D01*
X62733452Y-107608452D01*
X62763897Y-107583466D01*
X62798636Y-107564898D01*
X62836323Y-107553465D01*
X62881661Y-107549000D01*
X63718339Y-107549000D01*
X63763677Y-107553465D01*
X63763677Y-107553465D01*
G37*
G36*
X65813677Y-107553465D02*
X65851364Y-107564898D01*
X65886103Y-107583466D01*
X65916548Y-107608452D01*
X65941534Y-107638897D01*
X65960102Y-107673636D01*
X65971535Y-107711323D01*
X65976000Y-107756661D01*
X65976000Y-108843339D01*
X65971535Y-108888677D01*
X65960102Y-108926364D01*
X65941534Y-108961103D01*
X65916548Y-108991548D01*
X65886103Y-109016534D01*
X65851364Y-109035102D01*
X65813677Y-109046535D01*
X65768339Y-109051000D01*
X64931661Y-109051000D01*
X64886323Y-109046535D01*
X64848636Y-109035102D01*
X64813897Y-109016534D01*
X64783452Y-108991548D01*
X64758466Y-108961103D01*
X64739898Y-108926364D01*
X64728465Y-108888677D01*
X64724000Y-108843339D01*
X64724000Y-107756661D01*
X64728465Y-107711323D01*
X64739898Y-107673636D01*
X64758466Y-107638897D01*
X64783452Y-107608452D01*
X64813897Y-107583466D01*
X64848636Y-107564898D01*
X64886323Y-107553465D01*
X64931661Y-107549000D01*
X65768339Y-107549000D01*
X65813677Y-107553465D01*
X65813677Y-107553465D01*
G37*
G36*
X98532590Y-107272844D02*
X98571261Y-107284575D01*
X98606903Y-107303627D01*
X98638141Y-107329262D01*
X98663776Y-107360500D01*
X98682828Y-107396142D01*
X98694559Y-107434813D01*
X98699124Y-107481167D01*
X98699124Y-108132391D01*
X98694559Y-108178745D01*
X98682828Y-108217416D01*
X98663776Y-108253058D01*
X98638141Y-108284296D01*
X98606903Y-108309931D01*
X98571261Y-108328983D01*
X98532590Y-108340714D01*
X98486236Y-108345279D01*
X97410012Y-108345279D01*
X97363658Y-108340714D01*
X97324987Y-108328983D01*
X97289345Y-108309931D01*
X97258107Y-108284296D01*
X97232472Y-108253058D01*
X97213420Y-108217416D01*
X97201689Y-108178745D01*
X97197124Y-108132391D01*
X97197124Y-107481167D01*
X97201689Y-107434813D01*
X97213420Y-107396142D01*
X97232472Y-107360500D01*
X97258107Y-107329262D01*
X97289345Y-107303627D01*
X97324987Y-107284575D01*
X97363658Y-107272844D01*
X97410012Y-107268279D01*
X98486236Y-107268279D01*
X98532590Y-107272844D01*
X98532590Y-107272844D01*
G37*
G36*
X96482590Y-107272844D02*
X96521261Y-107284575D01*
X96556903Y-107303627D01*
X96588141Y-107329262D01*
X96613776Y-107360500D01*
X96632828Y-107396142D01*
X96644559Y-107434813D01*
X96649124Y-107481167D01*
X96649124Y-108132391D01*
X96644559Y-108178745D01*
X96632828Y-108217416D01*
X96613776Y-108253058D01*
X96588141Y-108284296D01*
X96556903Y-108309931D01*
X96521261Y-108328983D01*
X96482590Y-108340714D01*
X96436236Y-108345279D01*
X95360012Y-108345279D01*
X95313658Y-108340714D01*
X95274987Y-108328983D01*
X95239345Y-108309931D01*
X95208107Y-108284296D01*
X95182472Y-108253058D01*
X95163420Y-108217416D01*
X95151689Y-108178745D01*
X95147124Y-108132391D01*
X95147124Y-107481167D01*
X95151689Y-107434813D01*
X95163420Y-107396142D01*
X95182472Y-107360500D01*
X95208107Y-107329262D01*
X95239345Y-107303627D01*
X95274987Y-107284575D01*
X95313658Y-107272844D01*
X95360012Y-107268279D01*
X96436236Y-107268279D01*
X96482590Y-107272844D01*
X96482590Y-107272844D01*
G37*
G36*
X71401000Y-108301000D02*
X69599000Y-108301000D01*
X69599000Y-106499000D01*
X71401000Y-106499000D01*
X71401000Y-108301000D01*
X71401000Y-108301000D01*
G37*
G36*
X96482590Y-105397844D02*
X96521261Y-105409575D01*
X96556903Y-105428627D01*
X96588141Y-105454262D01*
X96613776Y-105485500D01*
X96632828Y-105521142D01*
X96644559Y-105559813D01*
X96649124Y-105606167D01*
X96649124Y-106257391D01*
X96644559Y-106303745D01*
X96632828Y-106342416D01*
X96613776Y-106378058D01*
X96588141Y-106409296D01*
X96556903Y-106434931D01*
X96521261Y-106453983D01*
X96482590Y-106465714D01*
X96436236Y-106470279D01*
X95360012Y-106470279D01*
X95313658Y-106465714D01*
X95274987Y-106453983D01*
X95239345Y-106434931D01*
X95208107Y-106409296D01*
X95182472Y-106378058D01*
X95163420Y-106342416D01*
X95151689Y-106303745D01*
X95147124Y-106257391D01*
X95147124Y-105606167D01*
X95151689Y-105559813D01*
X95163420Y-105521142D01*
X95182472Y-105485500D01*
X95208107Y-105454262D01*
X95239345Y-105428627D01*
X95274987Y-105409575D01*
X95313658Y-105397844D01*
X95360012Y-105393279D01*
X96436236Y-105393279D01*
X96482590Y-105397844D01*
X96482590Y-105397844D01*
G37*
G36*
X98532590Y-105397844D02*
X98571261Y-105409575D01*
X98606903Y-105428627D01*
X98638141Y-105454262D01*
X98663776Y-105485500D01*
X98682828Y-105521142D01*
X98694559Y-105559813D01*
X98699124Y-105606167D01*
X98699124Y-106257391D01*
X98694559Y-106303745D01*
X98682828Y-106342416D01*
X98663776Y-106378058D01*
X98638141Y-106409296D01*
X98606903Y-106434931D01*
X98571261Y-106453983D01*
X98532590Y-106465714D01*
X98486236Y-106470279D01*
X97410012Y-106470279D01*
X97363658Y-106465714D01*
X97324987Y-106453983D01*
X97289345Y-106434931D01*
X97258107Y-106409296D01*
X97232472Y-106378058D01*
X97213420Y-106342416D01*
X97201689Y-106303745D01*
X97197124Y-106257391D01*
X97197124Y-105606167D01*
X97201689Y-105559813D01*
X97213420Y-105521142D01*
X97232472Y-105485500D01*
X97258107Y-105454262D01*
X97289345Y-105428627D01*
X97324987Y-105409575D01*
X97363658Y-105397844D01*
X97410012Y-105393279D01*
X98486236Y-105393279D01*
X98532590Y-105397844D01*
X98532590Y-105397844D01*
G37*
G36*
X91401000Y-105101000D02*
X89599000Y-105101000D01*
X89599000Y-103299000D01*
X91401000Y-103299000D01*
X91401000Y-105101000D01*
X91401000Y-105101000D01*
G37*
G36*
X112650443Y-101805519D02*
X112716627Y-101812037D01*
X112829853Y-101846384D01*
X112886467Y-101863557D01*
X113025087Y-101937652D01*
X113042991Y-101947222D01*
X113078729Y-101976552D01*
X113180186Y-102059814D01*
X113263448Y-102161271D01*
X113292778Y-102197009D01*
X113292779Y-102197011D01*
X113376443Y-102353533D01*
X113376443Y-102353534D01*
X113427963Y-102523373D01*
X113445359Y-102700000D01*
X113427963Y-102876627D01*
X113393616Y-102989853D01*
X113376443Y-103046467D01*
X113302348Y-103185087D01*
X113292778Y-103202991D01*
X113263448Y-103238729D01*
X113180186Y-103340186D01*
X113078729Y-103423448D01*
X113042991Y-103452778D01*
X113042989Y-103452779D01*
X112886467Y-103536443D01*
X112829853Y-103553616D01*
X112716627Y-103587963D01*
X112650442Y-103594482D01*
X112584260Y-103601000D01*
X112495740Y-103601000D01*
X112429558Y-103594482D01*
X112363373Y-103587963D01*
X112250147Y-103553616D01*
X112193533Y-103536443D01*
X112037011Y-103452779D01*
X112037009Y-103452778D01*
X112001271Y-103423448D01*
X111899814Y-103340186D01*
X111816552Y-103238729D01*
X111787222Y-103202991D01*
X111777652Y-103185087D01*
X111703557Y-103046467D01*
X111686384Y-102989853D01*
X111652037Y-102876627D01*
X111634641Y-102700000D01*
X111652037Y-102523373D01*
X111703557Y-102353534D01*
X111703557Y-102353533D01*
X111787221Y-102197011D01*
X111787222Y-102197009D01*
X111816552Y-102161271D01*
X111899814Y-102059814D01*
X112001271Y-101976552D01*
X112037009Y-101947222D01*
X112054913Y-101937652D01*
X112193533Y-101863557D01*
X112250147Y-101846384D01*
X112363373Y-101812037D01*
X112429557Y-101805519D01*
X112495740Y-101799000D01*
X112584260Y-101799000D01*
X112650443Y-101805519D01*
X112650443Y-101805519D01*
G37*
G36*
X110901000Y-103601000D02*
X109099000Y-103601000D01*
X109099000Y-101799000D01*
X110901000Y-101799000D01*
X110901000Y-103601000D01*
X110901000Y-103601000D01*
G37*
G36*
X34301000Y-102701000D02*
X32699000Y-102701000D01*
X32699000Y-101099000D01*
X34301000Y-101099000D01*
X34301000Y-102701000D01*
X34301000Y-102701000D01*
G37*
G36*
X36901000Y-102701000D02*
X35299000Y-102701000D01*
X35299000Y-101099000D01*
X36901000Y-101099000D01*
X36901000Y-102701000D01*
X36901000Y-102701000D01*
G37*
G36*
X86101000Y-102601000D02*
X84299000Y-102601000D01*
X84299000Y-100799000D01*
X86101000Y-100799000D01*
X86101000Y-102601000D01*
X86101000Y-102601000D01*
G37*
G36*
X110110443Y-99265519D02*
X110176627Y-99272037D01*
X110289853Y-99306384D01*
X110346467Y-99323557D01*
X110485087Y-99397652D01*
X110502991Y-99407222D01*
X110538729Y-99436552D01*
X110640186Y-99519814D01*
X110723448Y-99621271D01*
X110752778Y-99657009D01*
X110752779Y-99657011D01*
X110836443Y-99813533D01*
X110836443Y-99813534D01*
X110887963Y-99983373D01*
X110905359Y-100160000D01*
X110887963Y-100336627D01*
X110853616Y-100449853D01*
X110836443Y-100506467D01*
X110762348Y-100645087D01*
X110752778Y-100662991D01*
X110723448Y-100698729D01*
X110640186Y-100800186D01*
X110538729Y-100883448D01*
X110502991Y-100912778D01*
X110502989Y-100912779D01*
X110346467Y-100996443D01*
X110331444Y-101001000D01*
X110176627Y-101047963D01*
X110110443Y-101054481D01*
X110044260Y-101061000D01*
X109955740Y-101061000D01*
X109889557Y-101054481D01*
X109823373Y-101047963D01*
X109668556Y-101001000D01*
X109653533Y-100996443D01*
X109497011Y-100912779D01*
X109497009Y-100912778D01*
X109461271Y-100883448D01*
X109359814Y-100800186D01*
X109276552Y-100698729D01*
X109247222Y-100662991D01*
X109237652Y-100645087D01*
X109163557Y-100506467D01*
X109146384Y-100449853D01*
X109112037Y-100336627D01*
X109094641Y-100160000D01*
X109112037Y-99983373D01*
X109163557Y-99813534D01*
X109163557Y-99813533D01*
X109247221Y-99657011D01*
X109247222Y-99657009D01*
X109276552Y-99621271D01*
X109359814Y-99519814D01*
X109461271Y-99436552D01*
X109497009Y-99407222D01*
X109514913Y-99397652D01*
X109653533Y-99323557D01*
X109710147Y-99306384D01*
X109823373Y-99272037D01*
X109889557Y-99265519D01*
X109955740Y-99259000D01*
X110044260Y-99259000D01*
X110110443Y-99265519D01*
X110110443Y-99265519D01*
G37*
G36*
X112650443Y-99265519D02*
X112716627Y-99272037D01*
X112829853Y-99306384D01*
X112886467Y-99323557D01*
X113025087Y-99397652D01*
X113042991Y-99407222D01*
X113078729Y-99436552D01*
X113180186Y-99519814D01*
X113263448Y-99621271D01*
X113292778Y-99657009D01*
X113292779Y-99657011D01*
X113376443Y-99813533D01*
X113376443Y-99813534D01*
X113427963Y-99983373D01*
X113445359Y-100160000D01*
X113427963Y-100336627D01*
X113393616Y-100449853D01*
X113376443Y-100506467D01*
X113302348Y-100645087D01*
X113292778Y-100662991D01*
X113263448Y-100698729D01*
X113180186Y-100800186D01*
X113078729Y-100883448D01*
X113042991Y-100912778D01*
X113042989Y-100912779D01*
X112886467Y-100996443D01*
X112871444Y-101001000D01*
X112716627Y-101047963D01*
X112650443Y-101054481D01*
X112584260Y-101061000D01*
X112495740Y-101061000D01*
X112429557Y-101054481D01*
X112363373Y-101047963D01*
X112208556Y-101001000D01*
X112193533Y-100996443D01*
X112037011Y-100912779D01*
X112037009Y-100912778D01*
X112001271Y-100883448D01*
X111899814Y-100800186D01*
X111816552Y-100698729D01*
X111787222Y-100662991D01*
X111777652Y-100645087D01*
X111703557Y-100506467D01*
X111686384Y-100449853D01*
X111652037Y-100336627D01*
X111634641Y-100160000D01*
X111652037Y-99983373D01*
X111703557Y-99813534D01*
X111703557Y-99813533D01*
X111787221Y-99657011D01*
X111787222Y-99657009D01*
X111816552Y-99621271D01*
X111899814Y-99519814D01*
X112001271Y-99436552D01*
X112037009Y-99407222D01*
X112054913Y-99397652D01*
X112193533Y-99323557D01*
X112250147Y-99306384D01*
X112363373Y-99272037D01*
X112429557Y-99265519D01*
X112495740Y-99259000D01*
X112584260Y-99259000D01*
X112650443Y-99265519D01*
X112650443Y-99265519D01*
G37*
G36*
X42701000Y-101001000D02*
X40899000Y-101001000D01*
X40899000Y-99199000D01*
X42701000Y-99199000D01*
X42701000Y-101001000D01*
X42701000Y-101001000D01*
G37*
G36*
X32153952Y-97452653D02*
X32207819Y-97457958D01*
X32284518Y-97481225D01*
X32311498Y-97489409D01*
X32407039Y-97540476D01*
X32490790Y-97609210D01*
X32559524Y-97692961D01*
X32610591Y-97788502D01*
X32610592Y-97788506D01*
X32642042Y-97892181D01*
X32652661Y-98000000D01*
X32642042Y-98107819D01*
X32618775Y-98184518D01*
X32610591Y-98211498D01*
X32559524Y-98307039D01*
X32490790Y-98390790D01*
X32407039Y-98459524D01*
X32311498Y-98510591D01*
X32284518Y-98518775D01*
X32207819Y-98542042D01*
X32153952Y-98547347D01*
X32127019Y-98550000D01*
X31072981Y-98550000D01*
X31046048Y-98547347D01*
X30992181Y-98542042D01*
X30915482Y-98518775D01*
X30888502Y-98510591D01*
X30792961Y-98459524D01*
X30709210Y-98390790D01*
X30640476Y-98307039D01*
X30589409Y-98211498D01*
X30581225Y-98184518D01*
X30557958Y-98107819D01*
X30547339Y-98000000D01*
X30557958Y-97892181D01*
X30589408Y-97788506D01*
X30589409Y-97788502D01*
X30640476Y-97692961D01*
X30709210Y-97609210D01*
X30792961Y-97540476D01*
X30888502Y-97489409D01*
X30915482Y-97481225D01*
X30992181Y-97457958D01*
X31046048Y-97452653D01*
X31072981Y-97450000D01*
X32127019Y-97450000D01*
X32153952Y-97452653D01*
X32153952Y-97452653D01*
G37*
G36*
X24153952Y-97452653D02*
X24207819Y-97457958D01*
X24284518Y-97481225D01*
X24311498Y-97489409D01*
X24407039Y-97540476D01*
X24490790Y-97609210D01*
X24559524Y-97692961D01*
X24610591Y-97788502D01*
X24610592Y-97788506D01*
X24642042Y-97892181D01*
X24652661Y-98000000D01*
X24642042Y-98107819D01*
X24618775Y-98184518D01*
X24610591Y-98211498D01*
X24559524Y-98307039D01*
X24490790Y-98390790D01*
X24407039Y-98459524D01*
X24311498Y-98510591D01*
X24284518Y-98518775D01*
X24207819Y-98542042D01*
X24153952Y-98547347D01*
X24127019Y-98550000D01*
X23072981Y-98550000D01*
X23046048Y-98547347D01*
X22992181Y-98542042D01*
X22915482Y-98518775D01*
X22888502Y-98510591D01*
X22792961Y-98459524D01*
X22709210Y-98390790D01*
X22640476Y-98307039D01*
X22589409Y-98211498D01*
X22581225Y-98184518D01*
X22557958Y-98107819D01*
X22547339Y-98000000D01*
X22557958Y-97892181D01*
X22589408Y-97788506D01*
X22589409Y-97788502D01*
X22640476Y-97692961D01*
X22709210Y-97609210D01*
X22792961Y-97540476D01*
X22888502Y-97489409D01*
X22915482Y-97481225D01*
X22992181Y-97457958D01*
X23046048Y-97452653D01*
X23072981Y-97450000D01*
X24127019Y-97450000D01*
X24153952Y-97452653D01*
X24153952Y-97452653D01*
G37*
G36*
X117003952Y-96402653D02*
X117057819Y-96407958D01*
X117134518Y-96431225D01*
X117161498Y-96439409D01*
X117257039Y-96490476D01*
X117340790Y-96559210D01*
X117409524Y-96642961D01*
X117460591Y-96738502D01*
X117460592Y-96738506D01*
X117492042Y-96842181D01*
X117502661Y-96950000D01*
X117492042Y-97057819D01*
X117468775Y-97134518D01*
X117460591Y-97161498D01*
X117409524Y-97257039D01*
X117340790Y-97340790D01*
X117257039Y-97409524D01*
X117161498Y-97460591D01*
X117134518Y-97468775D01*
X117057819Y-97492042D01*
X117003952Y-97497347D01*
X116977019Y-97500000D01*
X115922981Y-97500000D01*
X115896048Y-97497347D01*
X115842181Y-97492042D01*
X115765482Y-97468775D01*
X115738502Y-97460591D01*
X115642961Y-97409524D01*
X115559210Y-97340790D01*
X115490476Y-97257039D01*
X115439409Y-97161498D01*
X115431225Y-97134518D01*
X115407958Y-97057819D01*
X115397339Y-96950000D01*
X115407958Y-96842181D01*
X115439408Y-96738506D01*
X115439409Y-96738502D01*
X115490476Y-96642961D01*
X115559210Y-96559210D01*
X115642961Y-96490476D01*
X115738502Y-96439409D01*
X115765482Y-96431225D01*
X115842181Y-96407958D01*
X115896048Y-96402653D01*
X115922981Y-96400000D01*
X116977019Y-96400000D01*
X117003952Y-96402653D01*
X117003952Y-96402653D01*
G37*
G36*
X109003952Y-96402653D02*
X109057819Y-96407958D01*
X109134518Y-96431225D01*
X109161498Y-96439409D01*
X109257039Y-96490476D01*
X109340790Y-96559210D01*
X109409524Y-96642961D01*
X109460591Y-96738502D01*
X109460592Y-96738506D01*
X109492042Y-96842181D01*
X109502661Y-96950000D01*
X109492042Y-97057819D01*
X109468775Y-97134518D01*
X109460591Y-97161498D01*
X109409524Y-97257039D01*
X109340790Y-97340790D01*
X109257039Y-97409524D01*
X109161498Y-97460591D01*
X109134518Y-97468775D01*
X109057819Y-97492042D01*
X109003952Y-97497347D01*
X108977019Y-97500000D01*
X107922981Y-97500000D01*
X107896048Y-97497347D01*
X107842181Y-97492042D01*
X107765482Y-97468775D01*
X107738502Y-97460591D01*
X107642961Y-97409524D01*
X107559210Y-97340790D01*
X107490476Y-97257039D01*
X107439409Y-97161498D01*
X107431225Y-97134518D01*
X107407958Y-97057819D01*
X107397339Y-96950000D01*
X107407958Y-96842181D01*
X107439408Y-96738506D01*
X107439409Y-96738502D01*
X107490476Y-96642961D01*
X107559210Y-96559210D01*
X107642961Y-96490476D01*
X107738502Y-96439409D01*
X107765482Y-96431225D01*
X107842181Y-96407958D01*
X107896048Y-96402653D01*
X107922981Y-96400000D01*
X108977019Y-96400000D01*
X109003952Y-96402653D01*
X109003952Y-96402653D01*
G37*
G36*
X22282303Y-94199018D02*
X22282305Y-94199019D01*
X22282306Y-94199019D01*
X22396048Y-94246132D01*
X22396049Y-94246133D01*
X22498417Y-94314533D01*
X22585467Y-94401583D01*
X22585469Y-94401586D01*
X22653868Y-94503952D01*
X22700981Y-94617694D01*
X22725000Y-94738443D01*
X22725000Y-94861557D01*
X22700981Y-94982306D01*
X22653868Y-95096048D01*
X22653867Y-95096049D01*
X22585467Y-95198417D01*
X22498417Y-95285467D01*
X22498414Y-95285469D01*
X22396048Y-95353868D01*
X22282306Y-95400981D01*
X22282305Y-95400981D01*
X22282303Y-95400982D01*
X22161559Y-95425000D01*
X22038441Y-95425000D01*
X21917697Y-95400982D01*
X21917695Y-95400981D01*
X21917694Y-95400981D01*
X21803952Y-95353868D01*
X21701586Y-95285469D01*
X21701583Y-95285467D01*
X21614533Y-95198417D01*
X21546133Y-95096049D01*
X21546132Y-95096048D01*
X21499019Y-94982306D01*
X21475000Y-94861557D01*
X21475000Y-94738443D01*
X21499019Y-94617694D01*
X21546132Y-94503952D01*
X21614531Y-94401586D01*
X21614533Y-94401583D01*
X21701583Y-94314533D01*
X21803951Y-94246133D01*
X21803952Y-94246132D01*
X21917694Y-94199019D01*
X21917695Y-94199019D01*
X21917697Y-94199018D01*
X22038441Y-94175000D01*
X22161559Y-94175000D01*
X22282303Y-94199018D01*
X22282303Y-94199018D01*
G37*
G36*
X29282303Y-94199018D02*
X29282305Y-94199019D01*
X29282306Y-94199019D01*
X29396048Y-94246132D01*
X29396049Y-94246133D01*
X29498417Y-94314533D01*
X29585467Y-94401583D01*
X29585469Y-94401586D01*
X29653868Y-94503952D01*
X29700981Y-94617694D01*
X29725000Y-94738443D01*
X29725000Y-94861557D01*
X29700981Y-94982306D01*
X29653868Y-95096048D01*
X29653867Y-95096049D01*
X29585467Y-95198417D01*
X29498417Y-95285467D01*
X29498414Y-95285469D01*
X29396048Y-95353868D01*
X29282306Y-95400981D01*
X29282305Y-95400981D01*
X29282303Y-95400982D01*
X29161559Y-95425000D01*
X29038441Y-95425000D01*
X28917697Y-95400982D01*
X28917695Y-95400981D01*
X28917694Y-95400981D01*
X28803952Y-95353868D01*
X28701586Y-95285469D01*
X28701583Y-95285467D01*
X28614533Y-95198417D01*
X28546133Y-95096049D01*
X28546132Y-95096048D01*
X28499019Y-94982306D01*
X28475000Y-94861557D01*
X28475000Y-94738443D01*
X28499019Y-94617694D01*
X28546132Y-94503952D01*
X28614531Y-94401586D01*
X28614533Y-94401583D01*
X28701583Y-94314533D01*
X28803951Y-94246133D01*
X28803952Y-94246132D01*
X28917694Y-94199019D01*
X28917695Y-94199019D01*
X28917697Y-94199018D01*
X29038441Y-94175000D01*
X29161559Y-94175000D01*
X29282303Y-94199018D01*
X29282303Y-94199018D01*
G37*
G36*
X118132303Y-93149018D02*
X118132305Y-93149019D01*
X118132306Y-93149019D01*
X118246048Y-93196132D01*
X118246049Y-93196133D01*
X118348417Y-93264533D01*
X118435467Y-93351583D01*
X118435469Y-93351586D01*
X118503868Y-93453952D01*
X118550981Y-93567694D01*
X118575000Y-93688443D01*
X118575000Y-93811557D01*
X118550981Y-93932306D01*
X118503868Y-94046048D01*
X118503867Y-94046049D01*
X118435467Y-94148417D01*
X118348417Y-94235467D01*
X118348414Y-94235469D01*
X118246048Y-94303868D01*
X118132306Y-94350981D01*
X118132305Y-94350981D01*
X118132303Y-94350982D01*
X118011559Y-94375000D01*
X117888441Y-94375000D01*
X117767697Y-94350982D01*
X117767695Y-94350981D01*
X117767694Y-94350981D01*
X117653952Y-94303868D01*
X117551586Y-94235469D01*
X117551583Y-94235467D01*
X117464533Y-94148417D01*
X117396133Y-94046049D01*
X117396132Y-94046048D01*
X117349019Y-93932306D01*
X117325000Y-93811557D01*
X117325000Y-93688443D01*
X117349019Y-93567694D01*
X117396132Y-93453952D01*
X117464531Y-93351586D01*
X117464533Y-93351583D01*
X117551583Y-93264533D01*
X117653951Y-93196133D01*
X117653952Y-93196132D01*
X117767694Y-93149019D01*
X117767695Y-93149019D01*
X117767697Y-93149018D01*
X117888441Y-93125000D01*
X118011559Y-93125000D01*
X118132303Y-93149018D01*
X118132303Y-93149018D01*
G37*
G36*
X111132303Y-93149018D02*
X111132305Y-93149019D01*
X111132306Y-93149019D01*
X111246048Y-93196132D01*
X111246049Y-93196133D01*
X111348417Y-93264533D01*
X111435467Y-93351583D01*
X111435469Y-93351586D01*
X111503868Y-93453952D01*
X111550981Y-93567694D01*
X111575000Y-93688443D01*
X111575000Y-93811557D01*
X111550981Y-93932306D01*
X111503868Y-94046048D01*
X111503867Y-94046049D01*
X111435467Y-94148417D01*
X111348417Y-94235467D01*
X111348414Y-94235469D01*
X111246048Y-94303868D01*
X111132306Y-94350981D01*
X111132305Y-94350981D01*
X111132303Y-94350982D01*
X111011559Y-94375000D01*
X110888441Y-94375000D01*
X110767697Y-94350982D01*
X110767695Y-94350981D01*
X110767694Y-94350981D01*
X110653952Y-94303868D01*
X110551586Y-94235469D01*
X110551583Y-94235467D01*
X110464533Y-94148417D01*
X110396133Y-94046049D01*
X110396132Y-94046048D01*
X110349019Y-93932306D01*
X110325000Y-93811557D01*
X110325000Y-93688443D01*
X110349019Y-93567694D01*
X110396132Y-93453952D01*
X110464531Y-93351586D01*
X110464533Y-93351583D01*
X110551583Y-93264533D01*
X110653951Y-93196133D01*
X110653952Y-93196132D01*
X110767694Y-93149019D01*
X110767695Y-93149019D01*
X110767697Y-93149018D01*
X110888441Y-93125000D01*
X111011559Y-93125000D01*
X111132303Y-93149018D01*
X111132303Y-93149018D01*
G37*
G36*
X32153952Y-91052653D02*
X32207819Y-91057958D01*
X32284518Y-91081225D01*
X32311498Y-91089409D01*
X32407039Y-91140476D01*
X32490790Y-91209210D01*
X32559524Y-91292961D01*
X32610591Y-91388502D01*
X32610592Y-91388506D01*
X32642042Y-91492181D01*
X32652661Y-91600000D01*
X32642042Y-91707819D01*
X32618775Y-91784518D01*
X32610591Y-91811498D01*
X32559524Y-91907039D01*
X32490790Y-91990790D01*
X32407039Y-92059524D01*
X32311498Y-92110591D01*
X32284518Y-92118775D01*
X32207819Y-92142042D01*
X32153952Y-92147347D01*
X32127019Y-92150000D01*
X31072981Y-92150000D01*
X31046048Y-92147347D01*
X30992181Y-92142042D01*
X30915482Y-92118775D01*
X30888502Y-92110591D01*
X30792961Y-92059524D01*
X30709210Y-91990790D01*
X30640476Y-91907039D01*
X30589409Y-91811498D01*
X30581225Y-91784518D01*
X30557958Y-91707819D01*
X30547339Y-91600000D01*
X30557958Y-91492181D01*
X30589408Y-91388506D01*
X30589409Y-91388502D01*
X30640476Y-91292961D01*
X30709210Y-91209210D01*
X30792961Y-91140476D01*
X30888502Y-91089409D01*
X30915482Y-91081225D01*
X30992181Y-91057958D01*
X31046048Y-91052653D01*
X31072981Y-91050000D01*
X32127019Y-91050000D01*
X32153952Y-91052653D01*
X32153952Y-91052653D01*
G37*
G36*
X24153952Y-91052653D02*
X24207819Y-91057958D01*
X24284518Y-91081225D01*
X24311498Y-91089409D01*
X24407039Y-91140476D01*
X24490790Y-91209210D01*
X24559524Y-91292961D01*
X24610591Y-91388502D01*
X24610592Y-91388506D01*
X24642042Y-91492181D01*
X24652661Y-91600000D01*
X24642042Y-91707819D01*
X24618775Y-91784518D01*
X24610591Y-91811498D01*
X24559524Y-91907039D01*
X24490790Y-91990790D01*
X24407039Y-92059524D01*
X24311498Y-92110591D01*
X24284518Y-92118775D01*
X24207819Y-92142042D01*
X24153952Y-92147347D01*
X24127019Y-92150000D01*
X23072981Y-92150000D01*
X23046048Y-92147347D01*
X22992181Y-92142042D01*
X22915482Y-92118775D01*
X22888502Y-92110591D01*
X22792961Y-92059524D01*
X22709210Y-91990790D01*
X22640476Y-91907039D01*
X22589409Y-91811498D01*
X22581225Y-91784518D01*
X22557958Y-91707819D01*
X22547339Y-91600000D01*
X22557958Y-91492181D01*
X22589408Y-91388506D01*
X22589409Y-91388502D01*
X22640476Y-91292961D01*
X22709210Y-91209210D01*
X22792961Y-91140476D01*
X22888502Y-91089409D01*
X22915482Y-91081225D01*
X22992181Y-91057958D01*
X23046048Y-91052653D01*
X23072981Y-91050000D01*
X24127019Y-91050000D01*
X24153952Y-91052653D01*
X24153952Y-91052653D01*
G37*
G36*
X117003952Y-90002653D02*
X117057819Y-90007958D01*
X117134518Y-90031225D01*
X117161498Y-90039409D01*
X117257039Y-90090476D01*
X117340790Y-90159210D01*
X117409524Y-90242961D01*
X117460591Y-90338502D01*
X117460592Y-90338506D01*
X117492042Y-90442181D01*
X117502661Y-90550000D01*
X117492042Y-90657819D01*
X117468775Y-90734518D01*
X117460591Y-90761498D01*
X117409524Y-90857039D01*
X117340790Y-90940790D01*
X117257039Y-91009524D01*
X117161498Y-91060591D01*
X117134518Y-91068775D01*
X117057819Y-91092042D01*
X117003952Y-91097347D01*
X116977019Y-91100000D01*
X115922981Y-91100000D01*
X115896048Y-91097347D01*
X115842181Y-91092042D01*
X115765482Y-91068775D01*
X115738502Y-91060591D01*
X115642961Y-91009524D01*
X115559210Y-90940790D01*
X115490476Y-90857039D01*
X115439409Y-90761498D01*
X115431225Y-90734518D01*
X115407958Y-90657819D01*
X115397339Y-90550000D01*
X115407958Y-90442181D01*
X115439408Y-90338506D01*
X115439409Y-90338502D01*
X115490476Y-90242961D01*
X115559210Y-90159210D01*
X115642961Y-90090476D01*
X115738502Y-90039409D01*
X115765482Y-90031225D01*
X115842181Y-90007958D01*
X115896048Y-90002653D01*
X115922981Y-90000000D01*
X116977019Y-90000000D01*
X117003952Y-90002653D01*
X117003952Y-90002653D01*
G37*
G36*
X109003952Y-90002653D02*
X109057819Y-90007958D01*
X109134518Y-90031225D01*
X109161498Y-90039409D01*
X109257039Y-90090476D01*
X109340790Y-90159210D01*
X109409524Y-90242961D01*
X109460591Y-90338502D01*
X109460592Y-90338506D01*
X109492042Y-90442181D01*
X109502661Y-90550000D01*
X109492042Y-90657819D01*
X109468775Y-90734518D01*
X109460591Y-90761498D01*
X109409524Y-90857039D01*
X109340790Y-90940790D01*
X109257039Y-91009524D01*
X109161498Y-91060591D01*
X109134518Y-91068775D01*
X109057819Y-91092042D01*
X109003952Y-91097347D01*
X108977019Y-91100000D01*
X107922981Y-91100000D01*
X107896048Y-91097347D01*
X107842181Y-91092042D01*
X107765482Y-91068775D01*
X107738502Y-91060591D01*
X107642961Y-91009524D01*
X107559210Y-90940790D01*
X107490476Y-90857039D01*
X107439409Y-90761498D01*
X107431225Y-90734518D01*
X107407958Y-90657819D01*
X107397339Y-90550000D01*
X107407958Y-90442181D01*
X107439408Y-90338506D01*
X107439409Y-90338502D01*
X107490476Y-90242961D01*
X107559210Y-90159210D01*
X107642961Y-90090476D01*
X107738502Y-90039409D01*
X107765482Y-90031225D01*
X107842181Y-90007958D01*
X107896048Y-90002653D01*
X107922981Y-90000000D01*
X108977019Y-90000000D01*
X109003952Y-90002653D01*
X109003952Y-90002653D01*
G37*
G36*
X65651000Y-88951000D02*
X63849000Y-88951000D01*
X63849000Y-87149000D01*
X65651000Y-87149000D01*
X65651000Y-88951000D01*
X65651000Y-88951000D01*
G37*
G36*
X49201000Y-87351000D02*
X47599000Y-87351000D01*
X47599000Y-85749000D01*
X49201000Y-85749000D01*
X49201000Y-87351000D01*
X49201000Y-87351000D01*
G37*
G36*
X46551000Y-87351000D02*
X44949000Y-87351000D01*
X44949000Y-85749000D01*
X46551000Y-85749000D01*
X46551000Y-87351000D01*
X46551000Y-87351000D01*
G37*
G36*
X114451000Y-83501000D02*
X112849000Y-83501000D01*
X112849000Y-81899000D01*
X114451000Y-81899000D01*
X114451000Y-83501000D01*
X114451000Y-83501000D01*
G37*
G36*
X106538677Y-81128465D02*
X106576364Y-81139898D01*
X106611103Y-81158466D01*
X106641548Y-81183452D01*
X106666534Y-81213897D01*
X106685102Y-81248636D01*
X106696535Y-81286323D01*
X106701000Y-81331661D01*
X106701000Y-82168339D01*
X106696535Y-82213677D01*
X106685102Y-82251364D01*
X106666534Y-82286103D01*
X106641548Y-82316548D01*
X106611103Y-82341534D01*
X106576364Y-82360102D01*
X106538677Y-82371535D01*
X106493339Y-82376000D01*
X105406661Y-82376000D01*
X105361323Y-82371535D01*
X105323636Y-82360102D01*
X105288897Y-82341534D01*
X105258452Y-82316548D01*
X105233466Y-82286103D01*
X105214898Y-82251364D01*
X105203465Y-82213677D01*
X105199000Y-82168339D01*
X105199000Y-81331661D01*
X105203465Y-81286323D01*
X105214898Y-81248636D01*
X105233466Y-81213897D01*
X105258452Y-81183452D01*
X105288897Y-81158466D01*
X105323636Y-81139898D01*
X105361323Y-81128465D01*
X105406661Y-81124000D01*
X106493339Y-81124000D01*
X106538677Y-81128465D01*
X106538677Y-81128465D01*
G37*
G36*
X104588677Y-81128465D02*
X104626364Y-81139898D01*
X104661103Y-81158466D01*
X104691548Y-81183452D01*
X104716534Y-81213897D01*
X104735102Y-81248636D01*
X104746535Y-81286323D01*
X104751000Y-81331661D01*
X104751000Y-82168339D01*
X104746535Y-82213677D01*
X104735102Y-82251364D01*
X104716534Y-82286103D01*
X104691548Y-82316548D01*
X104661103Y-82341534D01*
X104626364Y-82360102D01*
X104588677Y-82371535D01*
X104543339Y-82376000D01*
X103456661Y-82376000D01*
X103411323Y-82371535D01*
X103373636Y-82360102D01*
X103338897Y-82341534D01*
X103308452Y-82316548D01*
X103283466Y-82286103D01*
X103264898Y-82251364D01*
X103253465Y-82213677D01*
X103249000Y-82168339D01*
X103249000Y-81331661D01*
X103253465Y-81286323D01*
X103264898Y-81248636D01*
X103283466Y-81213897D01*
X103308452Y-81183452D01*
X103338897Y-81158466D01*
X103373636Y-81139898D01*
X103411323Y-81128465D01*
X103456661Y-81124000D01*
X104543339Y-81124000D01*
X104588677Y-81128465D01*
X104588677Y-81128465D01*
G37*
G36*
X33736245Y-81231200D02*
X31334245Y-81231200D01*
X31334245Y-79629200D01*
X33736245Y-79629200D01*
X33736245Y-81231200D01*
X33736245Y-81231200D01*
G37*
G36*
X27201000Y-80901000D02*
X25399000Y-80901000D01*
X25399000Y-79099000D01*
X27201000Y-79099000D01*
X27201000Y-80901000D01*
X27201000Y-80901000D01*
G37*
G36*
X28950442Y-79105518D02*
X29016627Y-79112037D01*
X29129853Y-79146384D01*
X29186467Y-79163557D01*
X29252094Y-79198636D01*
X29342991Y-79247222D01*
X29378729Y-79276552D01*
X29480186Y-79359814D01*
X29563448Y-79461271D01*
X29592778Y-79497009D01*
X29592779Y-79497011D01*
X29676443Y-79653533D01*
X29676443Y-79653534D01*
X29727963Y-79823373D01*
X29745359Y-80000000D01*
X29727963Y-80176627D01*
X29709921Y-80236103D01*
X29676443Y-80346467D01*
X29602348Y-80485087D01*
X29592778Y-80502991D01*
X29563448Y-80538729D01*
X29480186Y-80640186D01*
X29378729Y-80723448D01*
X29342991Y-80752778D01*
X29342989Y-80752779D01*
X29186467Y-80836443D01*
X29129853Y-80853616D01*
X29016627Y-80887963D01*
X28950442Y-80894482D01*
X28884260Y-80901000D01*
X28795740Y-80901000D01*
X28729558Y-80894482D01*
X28663373Y-80887963D01*
X28550147Y-80853616D01*
X28493533Y-80836443D01*
X28337011Y-80752779D01*
X28337009Y-80752778D01*
X28301271Y-80723448D01*
X28199814Y-80640186D01*
X28116552Y-80538729D01*
X28087222Y-80502991D01*
X28077652Y-80485087D01*
X28003557Y-80346467D01*
X27970079Y-80236103D01*
X27952037Y-80176627D01*
X27934641Y-80000000D01*
X27952037Y-79823373D01*
X28003557Y-79653534D01*
X28003557Y-79653533D01*
X28087221Y-79497011D01*
X28087222Y-79497009D01*
X28116552Y-79461271D01*
X28199814Y-79359814D01*
X28301271Y-79276552D01*
X28337009Y-79247222D01*
X28427906Y-79198636D01*
X28493533Y-79163557D01*
X28550147Y-79146384D01*
X28663373Y-79112037D01*
X28729558Y-79105518D01*
X28795740Y-79099000D01*
X28884260Y-79099000D01*
X28950442Y-79105518D01*
X28950442Y-79105518D01*
G37*
G36*
X106538677Y-79078465D02*
X106576364Y-79089898D01*
X106611103Y-79108466D01*
X106641548Y-79133452D01*
X106666534Y-79163897D01*
X106685102Y-79198636D01*
X106696535Y-79236323D01*
X106701000Y-79281661D01*
X106701000Y-80118339D01*
X106696535Y-80163677D01*
X106685102Y-80201364D01*
X106666534Y-80236103D01*
X106641548Y-80266548D01*
X106611103Y-80291534D01*
X106576364Y-80310102D01*
X106538677Y-80321535D01*
X106493339Y-80326000D01*
X105406661Y-80326000D01*
X105361323Y-80321535D01*
X105323636Y-80310102D01*
X105288897Y-80291534D01*
X105258452Y-80266548D01*
X105233466Y-80236103D01*
X105214898Y-80201364D01*
X105203465Y-80163677D01*
X105199000Y-80118339D01*
X105199000Y-79281661D01*
X105203465Y-79236323D01*
X105214898Y-79198636D01*
X105233466Y-79163897D01*
X105258452Y-79133452D01*
X105288897Y-79108466D01*
X105323636Y-79089898D01*
X105361323Y-79078465D01*
X105406661Y-79074000D01*
X106493339Y-79074000D01*
X106538677Y-79078465D01*
X106538677Y-79078465D01*
G37*
G36*
X104588677Y-79078465D02*
X104626364Y-79089898D01*
X104661103Y-79108466D01*
X104691548Y-79133452D01*
X104716534Y-79163897D01*
X104735102Y-79198636D01*
X104746535Y-79236323D01*
X104751000Y-79281661D01*
X104751000Y-80118339D01*
X104746535Y-80163677D01*
X104735102Y-80201364D01*
X104716534Y-80236103D01*
X104691548Y-80266548D01*
X104661103Y-80291534D01*
X104626364Y-80310102D01*
X104588677Y-80321535D01*
X104543339Y-80326000D01*
X103456661Y-80326000D01*
X103411323Y-80321535D01*
X103373636Y-80310102D01*
X103338897Y-80291534D01*
X103308452Y-80266548D01*
X103283466Y-80236103D01*
X103264898Y-80201364D01*
X103253465Y-80163677D01*
X103249000Y-80118339D01*
X103249000Y-79281661D01*
X103253465Y-79236323D01*
X103264898Y-79198636D01*
X103283466Y-79163897D01*
X103308452Y-79133452D01*
X103338897Y-79108466D01*
X103373636Y-79089898D01*
X103411323Y-79078465D01*
X103456661Y-79074000D01*
X104543339Y-79074000D01*
X104588677Y-79078465D01*
X104588677Y-79078465D01*
G37*
G36*
X33736245Y-78481200D02*
X31334245Y-78481200D01*
X31334245Y-76879200D01*
X33736245Y-76879200D01*
X33736245Y-78481200D01*
X33736245Y-78481200D01*
G37*
G36*
X28950442Y-76565518D02*
X29016627Y-76572037D01*
X29129853Y-76606384D01*
X29186467Y-76623557D01*
X29325087Y-76697652D01*
X29342991Y-76707222D01*
X29378729Y-76736552D01*
X29480186Y-76819814D01*
X29563448Y-76921271D01*
X29592778Y-76957009D01*
X29592779Y-76957011D01*
X29676443Y-77113533D01*
X29676443Y-77113534D01*
X29727963Y-77283373D01*
X29745359Y-77460000D01*
X29727963Y-77636627D01*
X29693616Y-77749853D01*
X29676443Y-77806467D01*
X29602348Y-77945087D01*
X29592778Y-77962991D01*
X29563448Y-77998729D01*
X29480186Y-78100186D01*
X29378729Y-78183448D01*
X29342991Y-78212778D01*
X29342989Y-78212779D01*
X29186467Y-78296443D01*
X29129853Y-78313616D01*
X29016627Y-78347963D01*
X28950443Y-78354481D01*
X28884260Y-78361000D01*
X28795740Y-78361000D01*
X28729557Y-78354481D01*
X28663373Y-78347963D01*
X28550147Y-78313616D01*
X28493533Y-78296443D01*
X28337011Y-78212779D01*
X28337009Y-78212778D01*
X28301271Y-78183448D01*
X28199814Y-78100186D01*
X28116552Y-77998729D01*
X28087222Y-77962991D01*
X28077652Y-77945087D01*
X28003557Y-77806467D01*
X27986384Y-77749853D01*
X27952037Y-77636627D01*
X27934641Y-77460000D01*
X27952037Y-77283373D01*
X28003557Y-77113534D01*
X28003557Y-77113533D01*
X28087221Y-76957011D01*
X28087222Y-76957009D01*
X28116552Y-76921271D01*
X28199814Y-76819814D01*
X28301271Y-76736552D01*
X28337009Y-76707222D01*
X28354913Y-76697652D01*
X28493533Y-76623557D01*
X28550147Y-76606384D01*
X28663373Y-76572037D01*
X28729558Y-76565518D01*
X28795740Y-76559000D01*
X28884260Y-76559000D01*
X28950442Y-76565518D01*
X28950442Y-76565518D01*
G37*
G36*
X26410442Y-76565518D02*
X26476627Y-76572037D01*
X26589853Y-76606384D01*
X26646467Y-76623557D01*
X26785087Y-76697652D01*
X26802991Y-76707222D01*
X26838729Y-76736552D01*
X26940186Y-76819814D01*
X27023448Y-76921271D01*
X27052778Y-76957009D01*
X27052779Y-76957011D01*
X27136443Y-77113533D01*
X27136443Y-77113534D01*
X27187963Y-77283373D01*
X27205359Y-77460000D01*
X27187963Y-77636627D01*
X27153616Y-77749853D01*
X27136443Y-77806467D01*
X27062348Y-77945087D01*
X27052778Y-77962991D01*
X27023448Y-77998729D01*
X26940186Y-78100186D01*
X26838729Y-78183448D01*
X26802991Y-78212778D01*
X26802989Y-78212779D01*
X26646467Y-78296443D01*
X26589853Y-78313616D01*
X26476627Y-78347963D01*
X26410443Y-78354481D01*
X26344260Y-78361000D01*
X26255740Y-78361000D01*
X26189557Y-78354481D01*
X26123373Y-78347963D01*
X26010147Y-78313616D01*
X25953533Y-78296443D01*
X25797011Y-78212779D01*
X25797009Y-78212778D01*
X25761271Y-78183448D01*
X25659814Y-78100186D01*
X25576552Y-77998729D01*
X25547222Y-77962991D01*
X25537652Y-77945087D01*
X25463557Y-77806467D01*
X25446384Y-77749853D01*
X25412037Y-77636627D01*
X25394641Y-77460000D01*
X25412037Y-77283373D01*
X25463557Y-77113534D01*
X25463557Y-77113533D01*
X25547221Y-76957011D01*
X25547222Y-76957009D01*
X25576552Y-76921271D01*
X25659814Y-76819814D01*
X25761271Y-76736552D01*
X25797009Y-76707222D01*
X25814913Y-76697652D01*
X25953533Y-76623557D01*
X26010147Y-76606384D01*
X26123373Y-76572037D01*
X26189558Y-76565518D01*
X26255740Y-76559000D01*
X26344260Y-76559000D01*
X26410442Y-76565518D01*
X26410442Y-76565518D01*
G37*
G36*
X65201000Y-78051000D02*
X63599000Y-78051000D01*
X63599000Y-76449000D01*
X65201000Y-76449000D01*
X65201000Y-78051000D01*
X65201000Y-78051000D01*
G37*
G36*
X67901000Y-78051000D02*
X66299000Y-78051000D01*
X66299000Y-76449000D01*
X67901000Y-76449000D01*
X67901000Y-78051000D01*
X67901000Y-78051000D01*
G37*
G36*
X82951000Y-77751000D02*
X81149000Y-77751000D01*
X81149000Y-75949000D01*
X82951000Y-75949000D01*
X82951000Y-77751000D01*
X82951000Y-77751000D01*
G37*
G36*
X45101000Y-77051000D02*
X43499000Y-77051000D01*
X43499000Y-75449000D01*
X45101000Y-75449000D01*
X45101000Y-77051000D01*
X45101000Y-77051000D01*
G37*
G36*
X47701000Y-77051000D02*
X46099000Y-77051000D01*
X46099000Y-75449000D01*
X47701000Y-75449000D01*
X47701000Y-77051000D01*
X47701000Y-77051000D01*
G37*
G36*
X101651000Y-75851000D02*
X100049000Y-75851000D01*
X100049000Y-74249000D01*
X101651000Y-74249000D01*
X101651000Y-75851000D01*
X101651000Y-75851000D01*
G37*
G36*
X33736245Y-75831200D02*
X31334245Y-75831200D01*
X31334245Y-74229200D01*
X33736245Y-74229200D01*
X33736245Y-75831200D01*
X33736245Y-75831200D01*
G37*
G36*
X26410443Y-74025519D02*
X26476627Y-74032037D01*
X26589853Y-74066384D01*
X26646467Y-74083557D01*
X26785087Y-74157652D01*
X26802991Y-74167222D01*
X26838729Y-74196552D01*
X26940186Y-74279814D01*
X27023448Y-74381271D01*
X27052778Y-74417009D01*
X27052779Y-74417011D01*
X27136443Y-74573533D01*
X27136443Y-74573534D01*
X27187963Y-74743373D01*
X27205359Y-74920000D01*
X27187963Y-75096627D01*
X27153616Y-75209853D01*
X27136443Y-75266467D01*
X27062348Y-75405087D01*
X27052778Y-75422991D01*
X27031433Y-75449000D01*
X26940186Y-75560186D01*
X26838729Y-75643448D01*
X26802991Y-75672778D01*
X26802989Y-75672779D01*
X26646467Y-75756443D01*
X26589853Y-75773616D01*
X26476627Y-75807963D01*
X26410442Y-75814482D01*
X26344260Y-75821000D01*
X26255740Y-75821000D01*
X26189558Y-75814482D01*
X26123373Y-75807963D01*
X26010147Y-75773616D01*
X25953533Y-75756443D01*
X25797011Y-75672779D01*
X25797009Y-75672778D01*
X25761271Y-75643448D01*
X25659814Y-75560186D01*
X25568567Y-75449000D01*
X25547222Y-75422991D01*
X25537652Y-75405087D01*
X25463557Y-75266467D01*
X25446384Y-75209853D01*
X25412037Y-75096627D01*
X25394641Y-74920000D01*
X25412037Y-74743373D01*
X25463557Y-74573534D01*
X25463557Y-74573533D01*
X25547221Y-74417011D01*
X25547222Y-74417009D01*
X25576552Y-74381271D01*
X25659814Y-74279814D01*
X25761271Y-74196552D01*
X25797009Y-74167222D01*
X25814913Y-74157652D01*
X25953533Y-74083557D01*
X26010147Y-74066384D01*
X26123373Y-74032037D01*
X26189557Y-74025519D01*
X26255740Y-74019000D01*
X26344260Y-74019000D01*
X26410443Y-74025519D01*
X26410443Y-74025519D01*
G37*
G36*
X28950443Y-74025519D02*
X29016627Y-74032037D01*
X29129853Y-74066384D01*
X29186467Y-74083557D01*
X29325087Y-74157652D01*
X29342991Y-74167222D01*
X29378729Y-74196552D01*
X29480186Y-74279814D01*
X29563448Y-74381271D01*
X29592778Y-74417009D01*
X29592779Y-74417011D01*
X29676443Y-74573533D01*
X29676443Y-74573534D01*
X29727963Y-74743373D01*
X29745359Y-74920000D01*
X29727963Y-75096627D01*
X29693616Y-75209853D01*
X29676443Y-75266467D01*
X29602348Y-75405087D01*
X29592778Y-75422991D01*
X29571433Y-75449000D01*
X29480186Y-75560186D01*
X29378729Y-75643448D01*
X29342991Y-75672778D01*
X29342989Y-75672779D01*
X29186467Y-75756443D01*
X29129853Y-75773616D01*
X29016627Y-75807963D01*
X28950442Y-75814482D01*
X28884260Y-75821000D01*
X28795740Y-75821000D01*
X28729558Y-75814482D01*
X28663373Y-75807963D01*
X28550147Y-75773616D01*
X28493533Y-75756443D01*
X28337011Y-75672779D01*
X28337009Y-75672778D01*
X28301271Y-75643448D01*
X28199814Y-75560186D01*
X28108567Y-75449000D01*
X28087222Y-75422991D01*
X28077652Y-75405087D01*
X28003557Y-75266467D01*
X27986384Y-75209853D01*
X27952037Y-75096627D01*
X27934641Y-74920000D01*
X27952037Y-74743373D01*
X28003557Y-74573534D01*
X28003557Y-74573533D01*
X28087221Y-74417011D01*
X28087222Y-74417009D01*
X28116552Y-74381271D01*
X28199814Y-74279814D01*
X28301271Y-74196552D01*
X28337009Y-74167222D01*
X28354913Y-74157652D01*
X28493533Y-74083557D01*
X28550147Y-74066384D01*
X28663373Y-74032037D01*
X28729557Y-74025519D01*
X28795740Y-74019000D01*
X28884260Y-74019000D01*
X28950443Y-74025519D01*
X28950443Y-74025519D01*
G37*
G36*
X115951000Y-74001000D02*
X114349000Y-74001000D01*
X114349000Y-72399000D01*
X115951000Y-72399000D01*
X115951000Y-74001000D01*
X115951000Y-74001000D01*
G37*
G36*
X28950443Y-71485519D02*
X29016627Y-71492037D01*
X29129853Y-71526384D01*
X29186467Y-71543557D01*
X29253149Y-71579200D01*
X29342991Y-71627222D01*
X29378729Y-71656552D01*
X29480186Y-71739814D01*
X29563448Y-71841271D01*
X29592778Y-71877009D01*
X29592779Y-71877011D01*
X29676443Y-72033533D01*
X29676443Y-72033534D01*
X29727963Y-72203373D01*
X29745359Y-72380000D01*
X29727963Y-72556627D01*
X29693616Y-72669853D01*
X29676443Y-72726467D01*
X29602348Y-72865087D01*
X29592778Y-72882991D01*
X29563448Y-72918729D01*
X29480186Y-73020186D01*
X29378729Y-73103448D01*
X29342991Y-73132778D01*
X29342989Y-73132779D01*
X29186467Y-73216443D01*
X29129853Y-73233616D01*
X29016627Y-73267963D01*
X28950443Y-73274481D01*
X28884260Y-73281000D01*
X28795740Y-73281000D01*
X28729557Y-73274481D01*
X28663373Y-73267963D01*
X28550147Y-73233616D01*
X28493533Y-73216443D01*
X28337011Y-73132779D01*
X28337009Y-73132778D01*
X28301271Y-73103448D01*
X28199814Y-73020186D01*
X28116552Y-72918729D01*
X28087222Y-72882991D01*
X28077652Y-72865087D01*
X28003557Y-72726467D01*
X27986384Y-72669853D01*
X27952037Y-72556627D01*
X27934641Y-72380000D01*
X27952037Y-72203373D01*
X28003557Y-72033534D01*
X28003557Y-72033533D01*
X28087221Y-71877011D01*
X28087222Y-71877009D01*
X28116552Y-71841271D01*
X28199814Y-71739814D01*
X28301271Y-71656552D01*
X28337009Y-71627222D01*
X28426851Y-71579200D01*
X28493533Y-71543557D01*
X28550147Y-71526384D01*
X28663373Y-71492037D01*
X28729557Y-71485519D01*
X28795740Y-71479000D01*
X28884260Y-71479000D01*
X28950443Y-71485519D01*
X28950443Y-71485519D01*
G37*
G36*
X26410443Y-71485519D02*
X26476627Y-71492037D01*
X26589853Y-71526384D01*
X26646467Y-71543557D01*
X26713149Y-71579200D01*
X26802991Y-71627222D01*
X26838729Y-71656552D01*
X26940186Y-71739814D01*
X27023448Y-71841271D01*
X27052778Y-71877009D01*
X27052779Y-71877011D01*
X27136443Y-72033533D01*
X27136443Y-72033534D01*
X27187963Y-72203373D01*
X27205359Y-72380000D01*
X27187963Y-72556627D01*
X27153616Y-72669853D01*
X27136443Y-72726467D01*
X27062348Y-72865087D01*
X27052778Y-72882991D01*
X27023448Y-72918729D01*
X26940186Y-73020186D01*
X26838729Y-73103448D01*
X26802991Y-73132778D01*
X26802989Y-73132779D01*
X26646467Y-73216443D01*
X26589853Y-73233616D01*
X26476627Y-73267963D01*
X26410443Y-73274481D01*
X26344260Y-73281000D01*
X26255740Y-73281000D01*
X26189557Y-73274481D01*
X26123373Y-73267963D01*
X26010147Y-73233616D01*
X25953533Y-73216443D01*
X25797011Y-73132779D01*
X25797009Y-73132778D01*
X25761271Y-73103448D01*
X25659814Y-73020186D01*
X25576552Y-72918729D01*
X25547222Y-72882991D01*
X25537652Y-72865087D01*
X25463557Y-72726467D01*
X25446384Y-72669853D01*
X25412037Y-72556627D01*
X25394641Y-72380000D01*
X25412037Y-72203373D01*
X25463557Y-72033534D01*
X25463557Y-72033533D01*
X25547221Y-71877011D01*
X25547222Y-71877009D01*
X25576552Y-71841271D01*
X25659814Y-71739814D01*
X25761271Y-71656552D01*
X25797009Y-71627222D01*
X25886851Y-71579200D01*
X25953533Y-71543557D01*
X26010147Y-71526384D01*
X26123373Y-71492037D01*
X26189557Y-71485519D01*
X26255740Y-71479000D01*
X26344260Y-71479000D01*
X26410443Y-71485519D01*
X26410443Y-71485519D01*
G37*
G36*
X33736245Y-73181200D02*
X31334245Y-73181200D01*
X31334245Y-71579200D01*
X33736245Y-71579200D01*
X33736245Y-73181200D01*
X33736245Y-73181200D01*
G37*
G36*
X115601000Y-70601000D02*
X113799000Y-70601000D01*
X113799000Y-68799000D01*
X115601000Y-68799000D01*
X115601000Y-70601000D01*
X115601000Y-70601000D01*
G37*
G36*
X106051000Y-69501000D02*
X104249000Y-69501000D01*
X104249000Y-67699000D01*
X106051000Y-67699000D01*
X106051000Y-69501000D01*
X106051000Y-69501000D01*
G37*
G36*
X51101000Y-69301000D02*
X49499000Y-69301000D01*
X49499000Y-67699000D01*
X51101000Y-67699000D01*
X51101000Y-69301000D01*
X51101000Y-69301000D01*
G37*
G36*
X58851000Y-68801000D02*
X57049000Y-68801000D01*
X57049000Y-66999000D01*
X58851000Y-66999000D01*
X58851000Y-68801000D01*
X58851000Y-68801000D01*
G37*
G36*
X105260442Y-65165518D02*
X105326627Y-65172037D01*
X105439853Y-65206384D01*
X105496467Y-65223557D01*
X105635087Y-65297652D01*
X105652991Y-65307222D01*
X105688729Y-65336552D01*
X105790186Y-65419814D01*
X105873448Y-65521271D01*
X105902778Y-65557009D01*
X105902779Y-65557011D01*
X105986443Y-65713533D01*
X105986443Y-65713534D01*
X106037963Y-65883373D01*
X106055359Y-66060000D01*
X106037963Y-66236627D01*
X106003616Y-66349853D01*
X105986443Y-66406467D01*
X105912348Y-66545087D01*
X105902778Y-66562991D01*
X105873448Y-66598729D01*
X105790186Y-66700186D01*
X105688729Y-66783448D01*
X105652991Y-66812778D01*
X105652989Y-66812779D01*
X105496467Y-66896443D01*
X105439853Y-66913616D01*
X105326627Y-66947963D01*
X105260442Y-66954482D01*
X105194260Y-66961000D01*
X105105740Y-66961000D01*
X105039558Y-66954482D01*
X104973373Y-66947963D01*
X104860147Y-66913616D01*
X104803533Y-66896443D01*
X104647011Y-66812779D01*
X104647009Y-66812778D01*
X104611271Y-66783448D01*
X104509814Y-66700186D01*
X104426552Y-66598729D01*
X104397222Y-66562991D01*
X104387652Y-66545087D01*
X104313557Y-66406467D01*
X104296384Y-66349853D01*
X104262037Y-66236627D01*
X104244641Y-66060000D01*
X104262037Y-65883373D01*
X104313557Y-65713534D01*
X104313557Y-65713533D01*
X104397221Y-65557011D01*
X104397222Y-65557009D01*
X104426552Y-65521271D01*
X104509814Y-65419814D01*
X104611271Y-65336552D01*
X104647009Y-65307222D01*
X104664913Y-65297652D01*
X104803533Y-65223557D01*
X104860147Y-65206384D01*
X104973373Y-65172037D01*
X105039558Y-65165518D01*
X105105740Y-65159000D01*
X105194260Y-65159000D01*
X105260442Y-65165518D01*
X105260442Y-65165518D01*
G37*
G36*
X111251000Y-66351000D02*
X109649000Y-66351000D01*
X109649000Y-64749000D01*
X111251000Y-64749000D01*
X111251000Y-66351000D01*
X111251000Y-66351000D01*
G37*
G36*
X95601000Y-64801000D02*
X93799000Y-64801000D01*
X93799000Y-62999000D01*
X95601000Y-62999000D01*
X95601000Y-64801000D01*
X95601000Y-64801000D01*
G37*
G36*
X114851000Y-64401000D02*
X113049000Y-64401000D01*
X113049000Y-62599000D01*
X114851000Y-62599000D01*
X114851000Y-64401000D01*
X114851000Y-64401000D01*
G37*
G36*
X111522004Y-57100544D02*
X111609059Y-57117860D01*
X111745732Y-57174472D01*
X111745733Y-57174473D01*
X111868738Y-57256662D01*
X111973338Y-57361262D01*
X111973340Y-57361265D01*
X112055528Y-57484268D01*
X112112140Y-57620941D01*
X112141000Y-57766033D01*
X112141000Y-57913967D01*
X112112140Y-58059059D01*
X112055528Y-58195732D01*
X112055527Y-58195733D01*
X111973338Y-58318738D01*
X111868738Y-58423338D01*
X111868735Y-58423340D01*
X111745732Y-58505528D01*
X111609059Y-58562140D01*
X111522004Y-58579456D01*
X111463969Y-58591000D01*
X111316031Y-58591000D01*
X111257996Y-58579456D01*
X111170941Y-58562140D01*
X111034268Y-58505528D01*
X110911265Y-58423340D01*
X110911262Y-58423338D01*
X110806662Y-58318738D01*
X110724473Y-58195733D01*
X110724472Y-58195732D01*
X110667860Y-58059059D01*
X110639000Y-57913967D01*
X110639000Y-57766033D01*
X110667860Y-57620941D01*
X110724472Y-57484268D01*
X110806660Y-57361265D01*
X110806662Y-57361262D01*
X110911262Y-57256662D01*
X111034267Y-57174473D01*
X111034268Y-57174472D01*
X111170941Y-57117860D01*
X111257996Y-57100544D01*
X111316031Y-57089000D01*
X111463969Y-57089000D01*
X111522004Y-57100544D01*
X111522004Y-57100544D01*
G37*
G36*
X114062004Y-57100544D02*
X114149059Y-57117860D01*
X114285732Y-57174472D01*
X114285733Y-57174473D01*
X114408738Y-57256662D01*
X114513338Y-57361262D01*
X114513340Y-57361265D01*
X114595528Y-57484268D01*
X114652140Y-57620941D01*
X114681000Y-57766033D01*
X114681000Y-57913967D01*
X114652140Y-58059059D01*
X114595528Y-58195732D01*
X114595527Y-58195733D01*
X114513338Y-58318738D01*
X114408738Y-58423338D01*
X114408735Y-58423340D01*
X114285732Y-58505528D01*
X114149059Y-58562140D01*
X114062004Y-58579456D01*
X114003969Y-58591000D01*
X113856031Y-58591000D01*
X113797996Y-58579456D01*
X113710941Y-58562140D01*
X113574268Y-58505528D01*
X113451265Y-58423340D01*
X113451262Y-58423338D01*
X113346662Y-58318738D01*
X113264473Y-58195733D01*
X113264472Y-58195732D01*
X113207860Y-58059059D01*
X113179000Y-57913967D01*
X113179000Y-57766033D01*
X113207860Y-57620941D01*
X113264472Y-57484268D01*
X113346660Y-57361265D01*
X113346662Y-57361262D01*
X113451262Y-57256662D01*
X113574267Y-57174473D01*
X113574268Y-57174472D01*
X113710941Y-57117860D01*
X113797996Y-57100544D01*
X113856031Y-57089000D01*
X114003969Y-57089000D01*
X114062004Y-57100544D01*
X114062004Y-57100544D01*
G37*
G36*
X50601000Y-56801000D02*
X48799000Y-56801000D01*
X48799000Y-54999000D01*
X50601000Y-54999000D01*
X50601000Y-56801000D01*
X50601000Y-56801000D01*
G37*
G36*
X69901000Y-56451000D02*
X68099000Y-56451000D01*
X68099000Y-54649000D01*
X69901000Y-54649000D01*
X69901000Y-56451000D01*
X69901000Y-56451000D01*
G37*
G36*
X112792004Y-54560544D02*
X112879059Y-54577860D01*
X113015732Y-54634472D01*
X113137079Y-54715554D01*
X113138738Y-54716662D01*
X113243338Y-54821262D01*
X113243340Y-54821265D01*
X113325528Y-54944268D01*
X113382140Y-55080941D01*
X113411000Y-55226033D01*
X113411000Y-55373967D01*
X113382140Y-55519059D01*
X113325528Y-55655732D01*
X113325527Y-55655733D01*
X113243338Y-55778738D01*
X113138738Y-55883338D01*
X113138735Y-55883340D01*
X113015732Y-55965528D01*
X112879059Y-56022140D01*
X112792004Y-56039456D01*
X112733969Y-56051000D01*
X112586031Y-56051000D01*
X112527996Y-56039456D01*
X112440941Y-56022140D01*
X112304268Y-55965528D01*
X112181265Y-55883340D01*
X112181262Y-55883338D01*
X112076662Y-55778738D01*
X111994473Y-55655733D01*
X111994472Y-55655732D01*
X111937860Y-55519059D01*
X111909000Y-55373967D01*
X111909000Y-55226033D01*
X111937860Y-55080941D01*
X111994472Y-54944268D01*
X112076660Y-54821265D01*
X112076662Y-54821262D01*
X112181262Y-54716662D01*
X112182921Y-54715554D01*
X112304268Y-54634472D01*
X112440941Y-54577860D01*
X112527996Y-54560544D01*
X112586031Y-54549000D01*
X112733969Y-54549000D01*
X112792004Y-54560544D01*
X112792004Y-54560544D01*
G37*
G36*
X115332004Y-54560544D02*
X115419059Y-54577860D01*
X115555732Y-54634472D01*
X115677079Y-54715554D01*
X115678738Y-54716662D01*
X115783338Y-54821262D01*
X115783340Y-54821265D01*
X115865528Y-54944268D01*
X115922140Y-55080941D01*
X115951000Y-55226033D01*
X115951000Y-55373967D01*
X115922140Y-55519059D01*
X115865528Y-55655732D01*
X115865527Y-55655733D01*
X115783338Y-55778738D01*
X115678738Y-55883338D01*
X115678735Y-55883340D01*
X115555732Y-55965528D01*
X115419059Y-56022140D01*
X115332004Y-56039456D01*
X115273969Y-56051000D01*
X115126031Y-56051000D01*
X115067996Y-56039456D01*
X114980941Y-56022140D01*
X114844268Y-55965528D01*
X114721265Y-55883340D01*
X114721262Y-55883338D01*
X114616662Y-55778738D01*
X114534473Y-55655733D01*
X114534472Y-55655732D01*
X114477860Y-55519059D01*
X114449000Y-55373967D01*
X114449000Y-55226033D01*
X114477860Y-55080941D01*
X114534472Y-54944268D01*
X114616660Y-54821265D01*
X114616662Y-54821262D01*
X114721262Y-54716662D01*
X114722921Y-54715554D01*
X114844268Y-54634472D01*
X114980941Y-54577860D01*
X115067996Y-54560544D01*
X115126031Y-54549000D01*
X115273969Y-54549000D01*
X115332004Y-54560544D01*
X115332004Y-54560544D01*
G37*
G36*
X69110442Y-52115518D02*
X69176627Y-52122037D01*
X69287705Y-52155732D01*
X69346467Y-52173557D01*
X69485087Y-52247652D01*
X69502991Y-52257222D01*
X69529204Y-52278735D01*
X69640186Y-52369814D01*
X69718734Y-52465527D01*
X69752778Y-52507009D01*
X69752779Y-52507011D01*
X69836443Y-52663533D01*
X69836443Y-52663534D01*
X69887963Y-52833373D01*
X69905359Y-53010000D01*
X69887963Y-53186627D01*
X69853616Y-53299853D01*
X69836443Y-53356467D01*
X69762348Y-53495087D01*
X69752778Y-53512991D01*
X69723448Y-53548729D01*
X69640186Y-53650186D01*
X69538729Y-53733448D01*
X69502991Y-53762778D01*
X69502989Y-53762779D01*
X69346467Y-53846443D01*
X69289853Y-53863616D01*
X69176627Y-53897963D01*
X69110443Y-53904481D01*
X69044260Y-53911000D01*
X68955740Y-53911000D01*
X68889557Y-53904481D01*
X68823373Y-53897963D01*
X68710147Y-53863616D01*
X68653533Y-53846443D01*
X68497011Y-53762779D01*
X68497009Y-53762778D01*
X68461271Y-53733448D01*
X68359814Y-53650186D01*
X68276552Y-53548729D01*
X68247222Y-53512991D01*
X68237652Y-53495087D01*
X68163557Y-53356467D01*
X68146384Y-53299853D01*
X68112037Y-53186627D01*
X68094641Y-53010000D01*
X68112037Y-52833373D01*
X68163557Y-52663534D01*
X68163557Y-52663533D01*
X68247221Y-52507011D01*
X68247222Y-52507009D01*
X68281266Y-52465527D01*
X68359814Y-52369814D01*
X68470796Y-52278735D01*
X68497009Y-52257222D01*
X68514913Y-52247652D01*
X68653533Y-52173557D01*
X68712295Y-52155732D01*
X68823373Y-52122037D01*
X68889557Y-52115519D01*
X68955740Y-52109000D01*
X69044260Y-52109000D01*
X69110442Y-52115518D01*
X69110442Y-52115518D01*
G37*
G36*
X113932004Y-51060544D02*
X114019059Y-51077860D01*
X114155732Y-51134472D01*
X114155733Y-51134473D01*
X114278738Y-51216662D01*
X114383338Y-51321262D01*
X114383340Y-51321265D01*
X114465528Y-51444268D01*
X114522140Y-51580941D01*
X114551000Y-51726033D01*
X114551000Y-51873967D01*
X114522140Y-52019059D01*
X114465528Y-52155732D01*
X114384446Y-52277079D01*
X114383338Y-52278738D01*
X114278738Y-52383338D01*
X114278735Y-52383340D01*
X114155732Y-52465528D01*
X114019059Y-52522140D01*
X113932004Y-52539456D01*
X113873969Y-52551000D01*
X113726031Y-52551000D01*
X113667996Y-52539456D01*
X113580941Y-52522140D01*
X113444268Y-52465528D01*
X113321265Y-52383340D01*
X113321262Y-52383338D01*
X113216662Y-52278738D01*
X113215554Y-52277079D01*
X113134472Y-52155732D01*
X113077860Y-52019059D01*
X113049000Y-51873967D01*
X113049000Y-51726033D01*
X113077860Y-51580941D01*
X113134472Y-51444268D01*
X113216660Y-51321265D01*
X113216662Y-51321262D01*
X113321262Y-51216662D01*
X113444267Y-51134473D01*
X113444268Y-51134472D01*
X113580941Y-51077860D01*
X113667996Y-51060544D01*
X113726031Y-51049000D01*
X113873969Y-51049000D01*
X113932004Y-51060544D01*
X113932004Y-51060544D01*
G37*
G36*
X111392004Y-51060544D02*
X111479059Y-51077860D01*
X111615732Y-51134472D01*
X111615733Y-51134473D01*
X111738738Y-51216662D01*
X111843338Y-51321262D01*
X111843340Y-51321265D01*
X111925528Y-51444268D01*
X111982140Y-51580941D01*
X112011000Y-51726033D01*
X112011000Y-51873967D01*
X111982140Y-52019059D01*
X111925528Y-52155732D01*
X111844446Y-52277079D01*
X111843338Y-52278738D01*
X111738738Y-52383338D01*
X111738735Y-52383340D01*
X111615732Y-52465528D01*
X111479059Y-52522140D01*
X111392004Y-52539456D01*
X111333969Y-52551000D01*
X111186031Y-52551000D01*
X111127996Y-52539456D01*
X111040941Y-52522140D01*
X110904268Y-52465528D01*
X110781265Y-52383340D01*
X110781262Y-52383338D01*
X110676662Y-52278738D01*
X110675554Y-52277079D01*
X110594472Y-52155732D01*
X110537860Y-52019059D01*
X110509000Y-51873967D01*
X110509000Y-51726033D01*
X110537860Y-51580941D01*
X110594472Y-51444268D01*
X110676660Y-51321265D01*
X110676662Y-51321262D01*
X110781262Y-51216662D01*
X110904267Y-51134473D01*
X110904268Y-51134472D01*
X111040941Y-51077860D01*
X111127996Y-51060544D01*
X111186031Y-51049000D01*
X111333969Y-51049000D01*
X111392004Y-51060544D01*
X111392004Y-51060544D01*
G37*
G36*
X69110442Y-49575518D02*
X69176627Y-49582037D01*
X69287705Y-49615732D01*
X69346467Y-49633557D01*
X69485087Y-49707652D01*
X69502991Y-49717222D01*
X69529204Y-49738735D01*
X69640186Y-49829814D01*
X69718734Y-49925527D01*
X69752778Y-49967009D01*
X69752779Y-49967011D01*
X69836443Y-50123533D01*
X69836443Y-50123534D01*
X69887963Y-50293373D01*
X69905359Y-50470000D01*
X69887963Y-50646627D01*
X69853616Y-50759853D01*
X69836443Y-50816467D01*
X69762348Y-50955087D01*
X69752778Y-50972991D01*
X69723448Y-51008729D01*
X69640186Y-51110186D01*
X69538729Y-51193448D01*
X69502991Y-51222778D01*
X69502989Y-51222779D01*
X69346467Y-51306443D01*
X69297614Y-51321262D01*
X69176627Y-51357963D01*
X69110442Y-51364482D01*
X69044260Y-51371000D01*
X68955740Y-51371000D01*
X68889558Y-51364482D01*
X68823373Y-51357963D01*
X68702386Y-51321262D01*
X68653533Y-51306443D01*
X68497011Y-51222779D01*
X68497009Y-51222778D01*
X68461271Y-51193448D01*
X68359814Y-51110186D01*
X68276552Y-51008729D01*
X68247222Y-50972991D01*
X68237652Y-50955087D01*
X68163557Y-50816467D01*
X68146384Y-50759853D01*
X68112037Y-50646627D01*
X68094641Y-50470000D01*
X68112037Y-50293373D01*
X68163557Y-50123534D01*
X68163557Y-50123533D01*
X68247221Y-49967011D01*
X68247222Y-49967009D01*
X68281266Y-49925527D01*
X68359814Y-49829814D01*
X68470796Y-49738735D01*
X68497009Y-49717222D01*
X68514913Y-49707652D01*
X68653533Y-49633557D01*
X68712295Y-49615732D01*
X68823373Y-49582037D01*
X68889557Y-49575519D01*
X68955740Y-49569000D01*
X69044260Y-49569000D01*
X69110442Y-49575518D01*
X69110442Y-49575518D01*
G37*
G36*
X115202004Y-48520544D02*
X115289059Y-48537860D01*
X115425732Y-48594472D01*
X115425733Y-48594473D01*
X115548738Y-48676662D01*
X115653338Y-48781262D01*
X115653340Y-48781265D01*
X115735528Y-48904268D01*
X115792140Y-49040941D01*
X115821000Y-49186033D01*
X115821000Y-49333967D01*
X115792140Y-49479059D01*
X115735528Y-49615732D01*
X115654446Y-49737079D01*
X115653338Y-49738738D01*
X115548738Y-49843338D01*
X115548735Y-49843340D01*
X115425732Y-49925528D01*
X115289059Y-49982140D01*
X115202004Y-49999456D01*
X115143969Y-50011000D01*
X114996031Y-50011000D01*
X114937996Y-49999456D01*
X114850941Y-49982140D01*
X114714268Y-49925528D01*
X114591265Y-49843340D01*
X114591262Y-49843338D01*
X114486662Y-49738738D01*
X114485554Y-49737079D01*
X114404472Y-49615732D01*
X114347860Y-49479059D01*
X114319000Y-49333967D01*
X114319000Y-49186033D01*
X114347860Y-49040941D01*
X114404472Y-48904268D01*
X114486660Y-48781265D01*
X114486662Y-48781262D01*
X114591262Y-48676662D01*
X114714267Y-48594473D01*
X114714268Y-48594472D01*
X114850941Y-48537860D01*
X114937996Y-48520544D01*
X114996031Y-48509000D01*
X115143969Y-48509000D01*
X115202004Y-48520544D01*
X115202004Y-48520544D01*
G37*
G36*
X112662004Y-48520544D02*
X112749059Y-48537860D01*
X112885732Y-48594472D01*
X112885733Y-48594473D01*
X113008738Y-48676662D01*
X113113338Y-48781262D01*
X113113340Y-48781265D01*
X113195528Y-48904268D01*
X113252140Y-49040941D01*
X113281000Y-49186033D01*
X113281000Y-49333967D01*
X113252140Y-49479059D01*
X113195528Y-49615732D01*
X113114446Y-49737079D01*
X113113338Y-49738738D01*
X113008738Y-49843338D01*
X113008735Y-49843340D01*
X112885732Y-49925528D01*
X112749059Y-49982140D01*
X112662004Y-49999456D01*
X112603969Y-50011000D01*
X112456031Y-50011000D01*
X112397996Y-49999456D01*
X112310941Y-49982140D01*
X112174268Y-49925528D01*
X112051265Y-49843340D01*
X112051262Y-49843338D01*
X111946662Y-49738738D01*
X111945554Y-49737079D01*
X111864472Y-49615732D01*
X111807860Y-49479059D01*
X111779000Y-49333967D01*
X111779000Y-49186033D01*
X111807860Y-49040941D01*
X111864472Y-48904268D01*
X111946660Y-48781265D01*
X111946662Y-48781262D01*
X112051262Y-48676662D01*
X112174267Y-48594473D01*
X112174268Y-48594472D01*
X112310941Y-48537860D01*
X112397996Y-48520544D01*
X112456031Y-48509000D01*
X112603969Y-48509000D01*
X112662004Y-48520544D01*
X112662004Y-48520544D01*
G37*
G36*
X69110442Y-47035518D02*
X69176627Y-47042037D01*
X69289853Y-47076384D01*
X69346467Y-47093557D01*
X69485087Y-47167652D01*
X69502991Y-47177222D01*
X69538729Y-47206552D01*
X69640186Y-47289814D01*
X69723448Y-47391271D01*
X69752778Y-47427009D01*
X69752779Y-47427011D01*
X69836443Y-47583533D01*
X69836443Y-47583534D01*
X69887963Y-47753373D01*
X69905359Y-47930000D01*
X69887963Y-48106627D01*
X69853616Y-48219853D01*
X69836443Y-48276467D01*
X69762348Y-48415087D01*
X69752778Y-48432991D01*
X69723448Y-48468729D01*
X69640186Y-48570186D01*
X69538729Y-48653448D01*
X69502991Y-48682778D01*
X69502989Y-48682779D01*
X69346467Y-48766443D01*
X69297614Y-48781262D01*
X69176627Y-48817963D01*
X69110443Y-48824481D01*
X69044260Y-48831000D01*
X68955740Y-48831000D01*
X68889557Y-48824481D01*
X68823373Y-48817963D01*
X68702386Y-48781262D01*
X68653533Y-48766443D01*
X68497011Y-48682779D01*
X68497009Y-48682778D01*
X68461271Y-48653448D01*
X68359814Y-48570186D01*
X68276552Y-48468729D01*
X68247222Y-48432991D01*
X68237652Y-48415087D01*
X68163557Y-48276467D01*
X68146384Y-48219853D01*
X68112037Y-48106627D01*
X68094641Y-47930000D01*
X68112037Y-47753373D01*
X68163557Y-47583534D01*
X68163557Y-47583533D01*
X68247221Y-47427011D01*
X68247222Y-47427009D01*
X68276552Y-47391271D01*
X68359814Y-47289814D01*
X68461271Y-47206552D01*
X68497009Y-47177222D01*
X68514913Y-47167652D01*
X68653533Y-47093557D01*
X68710147Y-47076384D01*
X68823373Y-47042037D01*
X68889558Y-47035518D01*
X68955740Y-47029000D01*
X69044260Y-47029000D01*
X69110442Y-47035518D01*
X69110442Y-47035518D01*
G37*
G36*
X116951000Y-40801000D02*
X115149000Y-40801000D01*
X115149000Y-38999000D01*
X116951000Y-38999000D01*
X116951000Y-40801000D01*
X116951000Y-40801000D01*
G37*
G36*
X111663677Y-39203465D02*
X111701364Y-39214898D01*
X111736103Y-39233466D01*
X111766548Y-39258452D01*
X111791534Y-39288897D01*
X111810102Y-39323636D01*
X111821535Y-39361323D01*
X111826000Y-39406661D01*
X111826000Y-40493339D01*
X111821535Y-40538677D01*
X111810102Y-40576364D01*
X111791534Y-40611103D01*
X111766548Y-40641548D01*
X111736103Y-40666534D01*
X111701364Y-40685102D01*
X111663677Y-40696535D01*
X111618339Y-40701000D01*
X110781661Y-40701000D01*
X110736323Y-40696535D01*
X110698636Y-40685102D01*
X110663897Y-40666534D01*
X110633452Y-40641548D01*
X110608466Y-40611103D01*
X110589898Y-40576364D01*
X110578465Y-40538677D01*
X110574000Y-40493339D01*
X110574000Y-39406661D01*
X110578465Y-39361323D01*
X110589898Y-39323636D01*
X110608466Y-39288897D01*
X110633452Y-39258452D01*
X110663897Y-39233466D01*
X110698636Y-39214898D01*
X110736323Y-39203465D01*
X110781661Y-39199000D01*
X111618339Y-39199000D01*
X111663677Y-39203465D01*
X111663677Y-39203465D01*
G37*
G36*
X113713677Y-39203465D02*
X113751364Y-39214898D01*
X113786103Y-39233466D01*
X113816548Y-39258452D01*
X113841534Y-39288897D01*
X113860102Y-39323636D01*
X113871535Y-39361323D01*
X113876000Y-39406661D01*
X113876000Y-40493339D01*
X113871535Y-40538677D01*
X113860102Y-40576364D01*
X113841534Y-40611103D01*
X113816548Y-40641548D01*
X113786103Y-40666534D01*
X113751364Y-40685102D01*
X113713677Y-40696535D01*
X113668339Y-40701000D01*
X112831661Y-40701000D01*
X112786323Y-40696535D01*
X112748636Y-40685102D01*
X112713897Y-40666534D01*
X112683452Y-40641548D01*
X112658466Y-40611103D01*
X112639898Y-40576364D01*
X112628465Y-40538677D01*
X112624000Y-40493339D01*
X112624000Y-39406661D01*
X112628465Y-39361323D01*
X112639898Y-39323636D01*
X112658466Y-39288897D01*
X112683452Y-39258452D01*
X112713897Y-39233466D01*
X112748636Y-39214898D01*
X112786323Y-39203465D01*
X112831661Y-39199000D01*
X113668339Y-39199000D01*
X113713677Y-39203465D01*
X113713677Y-39203465D01*
G37*
G36*
X116160443Y-36465519D02*
X116226627Y-36472037D01*
X116339853Y-36506384D01*
X116396467Y-36523557D01*
X116535087Y-36597652D01*
X116552991Y-36607222D01*
X116562344Y-36614898D01*
X116690186Y-36719814D01*
X116773448Y-36821271D01*
X116802778Y-36857009D01*
X116802779Y-36857011D01*
X116886443Y-37013533D01*
X116886443Y-37013534D01*
X116937963Y-37183373D01*
X116955359Y-37360000D01*
X116937963Y-37536627D01*
X116903616Y-37649853D01*
X116886443Y-37706467D01*
X116821039Y-37828827D01*
X116802778Y-37862991D01*
X116787239Y-37881925D01*
X116690186Y-38000186D01*
X116592587Y-38080282D01*
X116552991Y-38112778D01*
X116552989Y-38112779D01*
X116396467Y-38196443D01*
X116339853Y-38213616D01*
X116226627Y-38247963D01*
X116160443Y-38254481D01*
X116094260Y-38261000D01*
X116005740Y-38261000D01*
X115939557Y-38254481D01*
X115873373Y-38247963D01*
X115760147Y-38213616D01*
X115703533Y-38196443D01*
X115547011Y-38112779D01*
X115547009Y-38112778D01*
X115507413Y-38080282D01*
X115409814Y-38000186D01*
X115312761Y-37881925D01*
X115297222Y-37862991D01*
X115278961Y-37828827D01*
X115213557Y-37706467D01*
X115196384Y-37649853D01*
X115162037Y-37536627D01*
X115144641Y-37360000D01*
X115162037Y-37183373D01*
X115213557Y-37013534D01*
X115213557Y-37013533D01*
X115297221Y-36857011D01*
X115297222Y-36857009D01*
X115326552Y-36821271D01*
X115409814Y-36719814D01*
X115537656Y-36614898D01*
X115547009Y-36607222D01*
X115564913Y-36597652D01*
X115703533Y-36523557D01*
X115760147Y-36506384D01*
X115873373Y-36472037D01*
X115939557Y-36465519D01*
X116005740Y-36459000D01*
X116094260Y-36459000D01*
X116160443Y-36465519D01*
X116160443Y-36465519D01*
G37*
G36*
X111613677Y-36603465D02*
X111651364Y-36614898D01*
X111686103Y-36633466D01*
X111716548Y-36658452D01*
X111741534Y-36688897D01*
X111760102Y-36723636D01*
X111771535Y-36761323D01*
X111776000Y-36806661D01*
X111776000Y-37893339D01*
X111771535Y-37938677D01*
X111760102Y-37976364D01*
X111741534Y-38011103D01*
X111716548Y-38041548D01*
X111686103Y-38066534D01*
X111651364Y-38085102D01*
X111613677Y-38096535D01*
X111568339Y-38101000D01*
X110731661Y-38101000D01*
X110686323Y-38096535D01*
X110648636Y-38085102D01*
X110613897Y-38066534D01*
X110583452Y-38041548D01*
X110558466Y-38011103D01*
X110539898Y-37976364D01*
X110528465Y-37938677D01*
X110524000Y-37893339D01*
X110524000Y-36806661D01*
X110528465Y-36761323D01*
X110539898Y-36723636D01*
X110558466Y-36688897D01*
X110583452Y-36658452D01*
X110613897Y-36633466D01*
X110648636Y-36614898D01*
X110686323Y-36603465D01*
X110731661Y-36599000D01*
X111568339Y-36599000D01*
X111613677Y-36603465D01*
X111613677Y-36603465D01*
G37*
G36*
X113663677Y-36603465D02*
X113701364Y-36614898D01*
X113736103Y-36633466D01*
X113766548Y-36658452D01*
X113791534Y-36688897D01*
X113810102Y-36723636D01*
X113821535Y-36761323D01*
X113826000Y-36806661D01*
X113826000Y-37893339D01*
X113821535Y-37938677D01*
X113810102Y-37976364D01*
X113791534Y-38011103D01*
X113766548Y-38041548D01*
X113736103Y-38066534D01*
X113701364Y-38085102D01*
X113663677Y-38096535D01*
X113618339Y-38101000D01*
X112781661Y-38101000D01*
X112736323Y-38096535D01*
X112698636Y-38085102D01*
X112663897Y-38066534D01*
X112633452Y-38041548D01*
X112608466Y-38011103D01*
X112589898Y-37976364D01*
X112578465Y-37938677D01*
X112574000Y-37893339D01*
X112574000Y-36806661D01*
X112578465Y-36761323D01*
X112589898Y-36723636D01*
X112608466Y-36688897D01*
X112633452Y-36658452D01*
X112663897Y-36633466D01*
X112698636Y-36614898D01*
X112736323Y-36603465D01*
X112781661Y-36599000D01*
X113618339Y-36599000D01*
X113663677Y-36603465D01*
X113663677Y-36603465D01*
G37*
G36*
X116160443Y-33925519D02*
X116226627Y-33932037D01*
X116339853Y-33966384D01*
X116396467Y-33983557D01*
X116518900Y-34049000D01*
X116552991Y-34067222D01*
X116556032Y-34069718D01*
X116690186Y-34179814D01*
X116762619Y-34268075D01*
X116802778Y-34317009D01*
X116802779Y-34317011D01*
X116886443Y-34473533D01*
X116886443Y-34473534D01*
X116937963Y-34643373D01*
X116955359Y-34820000D01*
X116937963Y-34996627D01*
X116903616Y-35109853D01*
X116886443Y-35166467D01*
X116826384Y-35278827D01*
X116802778Y-35322991D01*
X116773448Y-35358729D01*
X116690186Y-35460186D01*
X116598899Y-35535102D01*
X116552991Y-35572778D01*
X116552989Y-35572779D01*
X116396467Y-35656443D01*
X116382789Y-35660592D01*
X116226627Y-35707963D01*
X116160443Y-35714481D01*
X116094260Y-35721000D01*
X116005740Y-35721000D01*
X115939557Y-35714481D01*
X115873373Y-35707963D01*
X115717211Y-35660592D01*
X115703533Y-35656443D01*
X115547011Y-35572779D01*
X115547009Y-35572778D01*
X115501101Y-35535102D01*
X115409814Y-35460186D01*
X115326552Y-35358729D01*
X115297222Y-35322991D01*
X115273616Y-35278827D01*
X115213557Y-35166467D01*
X115196384Y-35109853D01*
X115162037Y-34996627D01*
X115144641Y-34820000D01*
X115162037Y-34643373D01*
X115213557Y-34473534D01*
X115213557Y-34473533D01*
X115297221Y-34317011D01*
X115297222Y-34317009D01*
X115337381Y-34268075D01*
X115409814Y-34179814D01*
X115543968Y-34069718D01*
X115547009Y-34067222D01*
X115581100Y-34049000D01*
X115703533Y-33983557D01*
X115760147Y-33966384D01*
X115873373Y-33932037D01*
X115939557Y-33925519D01*
X116005740Y-33919000D01*
X116094260Y-33919000D01*
X116160443Y-33925519D01*
X116160443Y-33925519D01*
G37*
G36*
X32253952Y-34602653D02*
X32307819Y-34607958D01*
X32384518Y-34631225D01*
X32411498Y-34639409D01*
X32507039Y-34690476D01*
X32590790Y-34759210D01*
X32659524Y-34842961D01*
X32710591Y-34938502D01*
X32710592Y-34938506D01*
X32742042Y-35042181D01*
X32752661Y-35150000D01*
X32742042Y-35257819D01*
X32722272Y-35322991D01*
X32710591Y-35361498D01*
X32659524Y-35457039D01*
X32590790Y-35540790D01*
X32507039Y-35609524D01*
X32411498Y-35660591D01*
X32384518Y-35668775D01*
X32307819Y-35692042D01*
X32253952Y-35697347D01*
X32227019Y-35700000D01*
X31172981Y-35700000D01*
X31146048Y-35697347D01*
X31092181Y-35692042D01*
X31015482Y-35668775D01*
X30988502Y-35660591D01*
X30892961Y-35609524D01*
X30809210Y-35540790D01*
X30740476Y-35457039D01*
X30689409Y-35361498D01*
X30677728Y-35322991D01*
X30657958Y-35257819D01*
X30647339Y-35150000D01*
X30657958Y-35042181D01*
X30689408Y-34938506D01*
X30689409Y-34938502D01*
X30740476Y-34842961D01*
X30809210Y-34759210D01*
X30892961Y-34690476D01*
X30988502Y-34639409D01*
X31015482Y-34631225D01*
X31092181Y-34607958D01*
X31146048Y-34602653D01*
X31172981Y-34600000D01*
X32227019Y-34600000D01*
X32253952Y-34602653D01*
X32253952Y-34602653D01*
G37*
G36*
X24253952Y-34602653D02*
X24307819Y-34607958D01*
X24384518Y-34631225D01*
X24411498Y-34639409D01*
X24507039Y-34690476D01*
X24590790Y-34759210D01*
X24659524Y-34842961D01*
X24710591Y-34938502D01*
X24710592Y-34938506D01*
X24742042Y-35042181D01*
X24752661Y-35150000D01*
X24742042Y-35257819D01*
X24722272Y-35322991D01*
X24710591Y-35361498D01*
X24659524Y-35457039D01*
X24590790Y-35540790D01*
X24507039Y-35609524D01*
X24411498Y-35660591D01*
X24384518Y-35668775D01*
X24307819Y-35692042D01*
X24253952Y-35697347D01*
X24227019Y-35700000D01*
X23172981Y-35700000D01*
X23146048Y-35697347D01*
X23092181Y-35692042D01*
X23015482Y-35668775D01*
X22988502Y-35660591D01*
X22892961Y-35609524D01*
X22809210Y-35540790D01*
X22740476Y-35457039D01*
X22689409Y-35361498D01*
X22677728Y-35322991D01*
X22657958Y-35257819D01*
X22647339Y-35150000D01*
X22657958Y-35042181D01*
X22689408Y-34938506D01*
X22689409Y-34938502D01*
X22740476Y-34842961D01*
X22809210Y-34759210D01*
X22892961Y-34690476D01*
X22988502Y-34639409D01*
X23015482Y-34631225D01*
X23092181Y-34607958D01*
X23146048Y-34602653D01*
X23172981Y-34600000D01*
X24227019Y-34600000D01*
X24253952Y-34602653D01*
X24253952Y-34602653D01*
G37*
G36*
X111613677Y-34053465D02*
X111651364Y-34064898D01*
X111686103Y-34083466D01*
X111716548Y-34108452D01*
X111741534Y-34138897D01*
X111760102Y-34173636D01*
X111771535Y-34211323D01*
X111776000Y-34256661D01*
X111776000Y-35343339D01*
X111771535Y-35388677D01*
X111760102Y-35426364D01*
X111741534Y-35461103D01*
X111716548Y-35491548D01*
X111686103Y-35516534D01*
X111651364Y-35535102D01*
X111613677Y-35546535D01*
X111568339Y-35551000D01*
X110731661Y-35551000D01*
X110686323Y-35546535D01*
X110648636Y-35535102D01*
X110613897Y-35516534D01*
X110583452Y-35491548D01*
X110558466Y-35461103D01*
X110539898Y-35426364D01*
X110528465Y-35388677D01*
X110524000Y-35343339D01*
X110524000Y-34256661D01*
X110528465Y-34211323D01*
X110539898Y-34173636D01*
X110558466Y-34138897D01*
X110583452Y-34108452D01*
X110613897Y-34083466D01*
X110648636Y-34064898D01*
X110686323Y-34053465D01*
X110731661Y-34049000D01*
X111568339Y-34049000D01*
X111613677Y-34053465D01*
X111613677Y-34053465D01*
G37*
G36*
X113663677Y-34053465D02*
X113701364Y-34064898D01*
X113736103Y-34083466D01*
X113766548Y-34108452D01*
X113791534Y-34138897D01*
X113810102Y-34173636D01*
X113821535Y-34211323D01*
X113826000Y-34256661D01*
X113826000Y-35343339D01*
X113821535Y-35388677D01*
X113810102Y-35426364D01*
X113791534Y-35461103D01*
X113766548Y-35491548D01*
X113736103Y-35516534D01*
X113701364Y-35535102D01*
X113663677Y-35546535D01*
X113618339Y-35551000D01*
X112781661Y-35551000D01*
X112736323Y-35546535D01*
X112698636Y-35535102D01*
X112663897Y-35516534D01*
X112633452Y-35491548D01*
X112608466Y-35461103D01*
X112589898Y-35426364D01*
X112578465Y-35388677D01*
X112574000Y-35343339D01*
X112574000Y-34256661D01*
X112578465Y-34211323D01*
X112589898Y-34173636D01*
X112608466Y-34138897D01*
X112633452Y-34108452D01*
X112663897Y-34083466D01*
X112698636Y-34064898D01*
X112736323Y-34053465D01*
X112781661Y-34049000D01*
X113618339Y-34049000D01*
X113663677Y-34053465D01*
X113663677Y-34053465D01*
G37*
G36*
X116160442Y-31385518D02*
X116226627Y-31392037D01*
X116307429Y-31416548D01*
X116396467Y-31443557D01*
X116535087Y-31517652D01*
X116552991Y-31527222D01*
X116582675Y-31551583D01*
X116690186Y-31639814D01*
X116773448Y-31741271D01*
X116802778Y-31777009D01*
X116802779Y-31777011D01*
X116886443Y-31933533D01*
X116886443Y-31933534D01*
X116937963Y-32103373D01*
X116955359Y-32280000D01*
X116937963Y-32456627D01*
X116909341Y-32550981D01*
X116886443Y-32626467D01*
X116812348Y-32765087D01*
X116802778Y-32782991D01*
X116773448Y-32818729D01*
X116690186Y-32920186D01*
X116588729Y-33003448D01*
X116552991Y-33032778D01*
X116552989Y-33032779D01*
X116396467Y-33116443D01*
X116339853Y-33133616D01*
X116226627Y-33167963D01*
X116160443Y-33174481D01*
X116094260Y-33181000D01*
X116005740Y-33181000D01*
X115939557Y-33174481D01*
X115873373Y-33167963D01*
X115760147Y-33133616D01*
X115703533Y-33116443D01*
X115547011Y-33032779D01*
X115547009Y-33032778D01*
X115511271Y-33003448D01*
X115409814Y-32920186D01*
X115326552Y-32818729D01*
X115297222Y-32782991D01*
X115287652Y-32765087D01*
X115213557Y-32626467D01*
X115190659Y-32550981D01*
X115162037Y-32456627D01*
X115144641Y-32280000D01*
X115162037Y-32103373D01*
X115213557Y-31933534D01*
X115213557Y-31933533D01*
X115297221Y-31777011D01*
X115297222Y-31777009D01*
X115326552Y-31741271D01*
X115409814Y-31639814D01*
X115517325Y-31551583D01*
X115547009Y-31527222D01*
X115564913Y-31517652D01*
X115703533Y-31443557D01*
X115792571Y-31416548D01*
X115873373Y-31392037D01*
X115939558Y-31385518D01*
X116005740Y-31379000D01*
X116094260Y-31379000D01*
X116160442Y-31385518D01*
X116160442Y-31385518D01*
G37*
G36*
X22382303Y-31349018D02*
X22382305Y-31349019D01*
X22382306Y-31349019D01*
X22496048Y-31396132D01*
X22546931Y-31430131D01*
X22598417Y-31464533D01*
X22685467Y-31551583D01*
X22685469Y-31551586D01*
X22753868Y-31653952D01*
X22800981Y-31767694D01*
X22800982Y-31767697D01*
X22825000Y-31888441D01*
X22825000Y-32011559D01*
X22806737Y-32103373D01*
X22800981Y-32132306D01*
X22753868Y-32246048D01*
X22753867Y-32246049D01*
X22685467Y-32348417D01*
X22598417Y-32435467D01*
X22598414Y-32435469D01*
X22496048Y-32503868D01*
X22382306Y-32550981D01*
X22382305Y-32550981D01*
X22382303Y-32550982D01*
X22261559Y-32575000D01*
X22138441Y-32575000D01*
X22017697Y-32550982D01*
X22017695Y-32550981D01*
X22017694Y-32550981D01*
X21903952Y-32503868D01*
X21801586Y-32435469D01*
X21801583Y-32435467D01*
X21714533Y-32348417D01*
X21646133Y-32246049D01*
X21646132Y-32246048D01*
X21599019Y-32132306D01*
X21593264Y-32103373D01*
X21575000Y-32011559D01*
X21575000Y-31888441D01*
X21599018Y-31767697D01*
X21599019Y-31767694D01*
X21646132Y-31653952D01*
X21714531Y-31551586D01*
X21714533Y-31551583D01*
X21801583Y-31464533D01*
X21853069Y-31430131D01*
X21903952Y-31396132D01*
X22017694Y-31349019D01*
X22017695Y-31349019D01*
X22017697Y-31349018D01*
X22138441Y-31325000D01*
X22261559Y-31325000D01*
X22382303Y-31349018D01*
X22382303Y-31349018D01*
G37*
G36*
X29382303Y-31349018D02*
X29382305Y-31349019D01*
X29382306Y-31349019D01*
X29496048Y-31396132D01*
X29546931Y-31430131D01*
X29598417Y-31464533D01*
X29685467Y-31551583D01*
X29685469Y-31551586D01*
X29753868Y-31653952D01*
X29800981Y-31767694D01*
X29800982Y-31767697D01*
X29825000Y-31888441D01*
X29825000Y-32011559D01*
X29806737Y-32103373D01*
X29800981Y-32132306D01*
X29753868Y-32246048D01*
X29753867Y-32246049D01*
X29685467Y-32348417D01*
X29598417Y-32435467D01*
X29598414Y-32435469D01*
X29496048Y-32503868D01*
X29382306Y-32550981D01*
X29382305Y-32550981D01*
X29382303Y-32550982D01*
X29261559Y-32575000D01*
X29138441Y-32575000D01*
X29017697Y-32550982D01*
X29017695Y-32550981D01*
X29017694Y-32550981D01*
X28903952Y-32503868D01*
X28801586Y-32435469D01*
X28801583Y-32435467D01*
X28714533Y-32348417D01*
X28646133Y-32246049D01*
X28646132Y-32246048D01*
X28599019Y-32132306D01*
X28593264Y-32103373D01*
X28575000Y-32011559D01*
X28575000Y-31888441D01*
X28599018Y-31767697D01*
X28599019Y-31767694D01*
X28646132Y-31653952D01*
X28714531Y-31551586D01*
X28714533Y-31551583D01*
X28801583Y-31464533D01*
X28853069Y-31430131D01*
X28903952Y-31396132D01*
X29017694Y-31349019D01*
X29017695Y-31349019D01*
X29017697Y-31349018D01*
X29138441Y-31325000D01*
X29261559Y-31325000D01*
X29382303Y-31349018D01*
X29382303Y-31349018D01*
G37*
G36*
X100738677Y-30228465D02*
X100776364Y-30239898D01*
X100811103Y-30258466D01*
X100841548Y-30283452D01*
X100866534Y-30313897D01*
X100885102Y-30348636D01*
X100896535Y-30386323D01*
X100901000Y-30431661D01*
X100901000Y-31268339D01*
X100896535Y-31313677D01*
X100885102Y-31351364D01*
X100866534Y-31386103D01*
X100841548Y-31416548D01*
X100811103Y-31441534D01*
X100776364Y-31460102D01*
X100738677Y-31471535D01*
X100693339Y-31476000D01*
X99606661Y-31476000D01*
X99561323Y-31471535D01*
X99523636Y-31460102D01*
X99488897Y-31441534D01*
X99458452Y-31416548D01*
X99433466Y-31386103D01*
X99414898Y-31351364D01*
X99403465Y-31313677D01*
X99399000Y-31268339D01*
X99399000Y-30431661D01*
X99403465Y-30386323D01*
X99414898Y-30348636D01*
X99433466Y-30313897D01*
X99458452Y-30283452D01*
X99488897Y-30258466D01*
X99523636Y-30239898D01*
X99561323Y-30228465D01*
X99606661Y-30224000D01*
X100693339Y-30224000D01*
X100738677Y-30228465D01*
X100738677Y-30228465D01*
G37*
G36*
X109688677Y-29628465D02*
X109726364Y-29639898D01*
X109761103Y-29658466D01*
X109791548Y-29683452D01*
X109816534Y-29713897D01*
X109835102Y-29748636D01*
X109846535Y-29786323D01*
X109851000Y-29831661D01*
X109851000Y-30668339D01*
X109846535Y-30713677D01*
X109835102Y-30751364D01*
X109816534Y-30786103D01*
X109791548Y-30816548D01*
X109761103Y-30841534D01*
X109726364Y-30860102D01*
X109688677Y-30871535D01*
X109643339Y-30876000D01*
X108556661Y-30876000D01*
X108511323Y-30871535D01*
X108473636Y-30860102D01*
X108438897Y-30841534D01*
X108408452Y-30816548D01*
X108383466Y-30786103D01*
X108364898Y-30751364D01*
X108353465Y-30713677D01*
X108349000Y-30668339D01*
X108349000Y-29831661D01*
X108353465Y-29786323D01*
X108364898Y-29748636D01*
X108383466Y-29713897D01*
X108408452Y-29683452D01*
X108438897Y-29658466D01*
X108473636Y-29639898D01*
X108511323Y-29628465D01*
X108556661Y-29624000D01*
X109643339Y-29624000D01*
X109688677Y-29628465D01*
X109688677Y-29628465D01*
G37*
G36*
X116160443Y-28845519D02*
X116226627Y-28852037D01*
X116339853Y-28886384D01*
X116396467Y-28903557D01*
X116504858Y-28961494D01*
X116552991Y-28987222D01*
X116588729Y-29016552D01*
X116690186Y-29099814D01*
X116773448Y-29201271D01*
X116802778Y-29237009D01*
X116802779Y-29237011D01*
X116886443Y-29393533D01*
X116903616Y-29450147D01*
X116937963Y-29563373D01*
X116955359Y-29740000D01*
X116937963Y-29916627D01*
X116903616Y-30029853D01*
X116886443Y-30086467D01*
X116812929Y-30224000D01*
X116802778Y-30242991D01*
X116773448Y-30278729D01*
X116690186Y-30380186D01*
X116613554Y-30443075D01*
X116552991Y-30492778D01*
X116552989Y-30492779D01*
X116396467Y-30576443D01*
X116339853Y-30593616D01*
X116226627Y-30627963D01*
X116160442Y-30634482D01*
X116094260Y-30641000D01*
X116005740Y-30641000D01*
X115939558Y-30634482D01*
X115873373Y-30627963D01*
X115760147Y-30593616D01*
X115703533Y-30576443D01*
X115547011Y-30492779D01*
X115547009Y-30492778D01*
X115486446Y-30443075D01*
X115409814Y-30380186D01*
X115326552Y-30278729D01*
X115297222Y-30242991D01*
X115287071Y-30224000D01*
X115213557Y-30086467D01*
X115196384Y-30029853D01*
X115162037Y-29916627D01*
X115144641Y-29740000D01*
X115162037Y-29563373D01*
X115196384Y-29450147D01*
X115213557Y-29393533D01*
X115297221Y-29237011D01*
X115297222Y-29237009D01*
X115326552Y-29201271D01*
X115409814Y-29099814D01*
X115511271Y-29016552D01*
X115547009Y-28987222D01*
X115595142Y-28961494D01*
X115703533Y-28903557D01*
X115760147Y-28886384D01*
X115873373Y-28852037D01*
X115939557Y-28845519D01*
X116005740Y-28839000D01*
X116094260Y-28839000D01*
X116160443Y-28845519D01*
X116160443Y-28845519D01*
G37*
G36*
X100738677Y-28178465D02*
X100776364Y-28189898D01*
X100811103Y-28208466D01*
X100841548Y-28233452D01*
X100866534Y-28263897D01*
X100885102Y-28298636D01*
X100896535Y-28336323D01*
X100901000Y-28381661D01*
X100901000Y-29218339D01*
X100896535Y-29263677D01*
X100885102Y-29301364D01*
X100866534Y-29336103D01*
X100841548Y-29366548D01*
X100811103Y-29391534D01*
X100776364Y-29410102D01*
X100738677Y-29421535D01*
X100693339Y-29426000D01*
X99606661Y-29426000D01*
X99561323Y-29421535D01*
X99523636Y-29410102D01*
X99488897Y-29391534D01*
X99458452Y-29366548D01*
X99433466Y-29336103D01*
X99414898Y-29301364D01*
X99403465Y-29263677D01*
X99399000Y-29218339D01*
X99399000Y-28381661D01*
X99403465Y-28336323D01*
X99414898Y-28298636D01*
X99433466Y-28263897D01*
X99458452Y-28233452D01*
X99488897Y-28208466D01*
X99523636Y-28189898D01*
X99561323Y-28178465D01*
X99606661Y-28174000D01*
X100693339Y-28174000D01*
X100738677Y-28178465D01*
X100738677Y-28178465D01*
G37*
G36*
X24253952Y-28202653D02*
X24307819Y-28207958D01*
X24384518Y-28231225D01*
X24411498Y-28239409D01*
X24507039Y-28290476D01*
X24590790Y-28359210D01*
X24659524Y-28442961D01*
X24710591Y-28538502D01*
X24710592Y-28538506D01*
X24742042Y-28642181D01*
X24752661Y-28750000D01*
X24742042Y-28857819D01*
X24728167Y-28903557D01*
X24710591Y-28961498D01*
X24659524Y-29057039D01*
X24590790Y-29140790D01*
X24507039Y-29209524D01*
X24411498Y-29260591D01*
X24384518Y-29268775D01*
X24307819Y-29292042D01*
X24253952Y-29297347D01*
X24227019Y-29300000D01*
X23172981Y-29300000D01*
X23146048Y-29297347D01*
X23092181Y-29292042D01*
X23015482Y-29268775D01*
X22988502Y-29260591D01*
X22892961Y-29209524D01*
X22809210Y-29140790D01*
X22740476Y-29057039D01*
X22689409Y-28961498D01*
X22671833Y-28903557D01*
X22657958Y-28857819D01*
X22647339Y-28750000D01*
X22657958Y-28642181D01*
X22689408Y-28538506D01*
X22689409Y-28538502D01*
X22740476Y-28442961D01*
X22809210Y-28359210D01*
X22892961Y-28290476D01*
X22988502Y-28239409D01*
X23015482Y-28231225D01*
X23092181Y-28207958D01*
X23146048Y-28202653D01*
X23172981Y-28200000D01*
X24227019Y-28200000D01*
X24253952Y-28202653D01*
X24253952Y-28202653D01*
G37*
G36*
X32253952Y-28202653D02*
X32307819Y-28207958D01*
X32384518Y-28231225D01*
X32411498Y-28239409D01*
X32507039Y-28290476D01*
X32590790Y-28359210D01*
X32659524Y-28442961D01*
X32710591Y-28538502D01*
X32710592Y-28538506D01*
X32742042Y-28642181D01*
X32752661Y-28750000D01*
X32742042Y-28857819D01*
X32728167Y-28903557D01*
X32710591Y-28961498D01*
X32659524Y-29057039D01*
X32590790Y-29140790D01*
X32507039Y-29209524D01*
X32411498Y-29260591D01*
X32384518Y-29268775D01*
X32307819Y-29292042D01*
X32253952Y-29297347D01*
X32227019Y-29300000D01*
X31172981Y-29300000D01*
X31146048Y-29297347D01*
X31092181Y-29292042D01*
X31015482Y-29268775D01*
X30988502Y-29260591D01*
X30892961Y-29209524D01*
X30809210Y-29140790D01*
X30740476Y-29057039D01*
X30689409Y-28961498D01*
X30671833Y-28903557D01*
X30657958Y-28857819D01*
X30647339Y-28750000D01*
X30657958Y-28642181D01*
X30689408Y-28538506D01*
X30689409Y-28538502D01*
X30740476Y-28442961D01*
X30809210Y-28359210D01*
X30892961Y-28290476D01*
X30988502Y-28239409D01*
X31015482Y-28231225D01*
X31092181Y-28207958D01*
X31146048Y-28202653D01*
X31172981Y-28200000D01*
X32227019Y-28200000D01*
X32253952Y-28202653D01*
X32253952Y-28202653D01*
G37*
G36*
X109688677Y-27578465D02*
X109726364Y-27589898D01*
X109761103Y-27608466D01*
X109791548Y-27633452D01*
X109816534Y-27663897D01*
X109835102Y-27698636D01*
X109846535Y-27736323D01*
X109851000Y-27781661D01*
X109851000Y-28618339D01*
X109846535Y-28663677D01*
X109835102Y-28701364D01*
X109816534Y-28736103D01*
X109791548Y-28766548D01*
X109761103Y-28791534D01*
X109726364Y-28810102D01*
X109688677Y-28821535D01*
X109643339Y-28826000D01*
X108556661Y-28826000D01*
X108511323Y-28821535D01*
X108473636Y-28810102D01*
X108438897Y-28791534D01*
X108408452Y-28766548D01*
X108383466Y-28736103D01*
X108364898Y-28701364D01*
X108353465Y-28663677D01*
X108349000Y-28618339D01*
X108349000Y-27781661D01*
X108353465Y-27736323D01*
X108364898Y-27698636D01*
X108383466Y-27663897D01*
X108408452Y-27633452D01*
X108438897Y-27608466D01*
X108473636Y-27589898D01*
X108511323Y-27578465D01*
X108556661Y-27574000D01*
X109643339Y-27574000D01*
X109688677Y-27578465D01*
X109688677Y-27578465D01*
G37*
G36*
X102820442Y-25155518D02*
X102886627Y-25162037D01*
X102999853Y-25196384D01*
X103056467Y-25213557D01*
X103195087Y-25287652D01*
X103212991Y-25297222D01*
X103244856Y-25323373D01*
X103350186Y-25409814D01*
X103433448Y-25511271D01*
X103462778Y-25547009D01*
X103462779Y-25547011D01*
X103546443Y-25703533D01*
X103546443Y-25703534D01*
X103597963Y-25873373D01*
X103615359Y-26050000D01*
X103597963Y-26226627D01*
X103579357Y-26287963D01*
X103546443Y-26396467D01*
X103544020Y-26401000D01*
X103462778Y-26552991D01*
X103433448Y-26588729D01*
X103350186Y-26690186D01*
X103273916Y-26752778D01*
X103212991Y-26802778D01*
X103212989Y-26802779D01*
X103056467Y-26886443D01*
X103008478Y-26901000D01*
X102886627Y-26937963D01*
X102820443Y-26944481D01*
X102754260Y-26951000D01*
X102665740Y-26951000D01*
X102599557Y-26944481D01*
X102533373Y-26937963D01*
X102411522Y-26901000D01*
X102363533Y-26886443D01*
X102207011Y-26802779D01*
X102207009Y-26802778D01*
X102146084Y-26752778D01*
X102069814Y-26690186D01*
X101986552Y-26588729D01*
X101957222Y-26552991D01*
X101875980Y-26401000D01*
X101873557Y-26396467D01*
X101840643Y-26287963D01*
X101822037Y-26226627D01*
X101804641Y-26050000D01*
X101822037Y-25873373D01*
X101873557Y-25703534D01*
X101873557Y-25703533D01*
X101957221Y-25547011D01*
X101957222Y-25547009D01*
X101986552Y-25511271D01*
X102069814Y-25409814D01*
X102175144Y-25323373D01*
X102207009Y-25297222D01*
X102224913Y-25287652D01*
X102363533Y-25213557D01*
X102420147Y-25196384D01*
X102533373Y-25162037D01*
X102599558Y-25155518D01*
X102665740Y-25149000D01*
X102754260Y-25149000D01*
X102820442Y-25155518D01*
X102820442Y-25155518D01*
G37*
G36*
X100280442Y-25155518D02*
X100346627Y-25162037D01*
X100459853Y-25196384D01*
X100516467Y-25213557D01*
X100655087Y-25287652D01*
X100672991Y-25297222D01*
X100704856Y-25323373D01*
X100810186Y-25409814D01*
X100893448Y-25511271D01*
X100922778Y-25547009D01*
X100922779Y-25547011D01*
X101006443Y-25703533D01*
X101006443Y-25703534D01*
X101057963Y-25873373D01*
X101075359Y-26050000D01*
X101057963Y-26226627D01*
X101039357Y-26287963D01*
X101006443Y-26396467D01*
X101004020Y-26401000D01*
X100922778Y-26552991D01*
X100893448Y-26588729D01*
X100810186Y-26690186D01*
X100733916Y-26752778D01*
X100672991Y-26802778D01*
X100672989Y-26802779D01*
X100516467Y-26886443D01*
X100468478Y-26901000D01*
X100346627Y-26937963D01*
X100280443Y-26944481D01*
X100214260Y-26951000D01*
X100125740Y-26951000D01*
X100059557Y-26944481D01*
X99993373Y-26937963D01*
X99871522Y-26901000D01*
X99823533Y-26886443D01*
X99667011Y-26802779D01*
X99667009Y-26802778D01*
X99606084Y-26752778D01*
X99529814Y-26690186D01*
X99446552Y-26588729D01*
X99417222Y-26552991D01*
X99335980Y-26401000D01*
X99333557Y-26396467D01*
X99300643Y-26287963D01*
X99282037Y-26226627D01*
X99264641Y-26050000D01*
X99282037Y-25873373D01*
X99333557Y-25703534D01*
X99333557Y-25703533D01*
X99417221Y-25547011D01*
X99417222Y-25547009D01*
X99446552Y-25511271D01*
X99529814Y-25409814D01*
X99635144Y-25323373D01*
X99667009Y-25297222D01*
X99684913Y-25287652D01*
X99823533Y-25213557D01*
X99880147Y-25196384D01*
X99993373Y-25162037D01*
X100059558Y-25155518D01*
X100125740Y-25149000D01*
X100214260Y-25149000D01*
X100280442Y-25155518D01*
X100280442Y-25155518D01*
G37*
G36*
X97740442Y-25155518D02*
X97806627Y-25162037D01*
X97919853Y-25196384D01*
X97976467Y-25213557D01*
X98115087Y-25287652D01*
X98132991Y-25297222D01*
X98164856Y-25323373D01*
X98270186Y-25409814D01*
X98353448Y-25511271D01*
X98382778Y-25547009D01*
X98382779Y-25547011D01*
X98466443Y-25703533D01*
X98466443Y-25703534D01*
X98517963Y-25873373D01*
X98535359Y-26050000D01*
X98517963Y-26226627D01*
X98499357Y-26287963D01*
X98466443Y-26396467D01*
X98464020Y-26401000D01*
X98382778Y-26552991D01*
X98353448Y-26588729D01*
X98270186Y-26690186D01*
X98193916Y-26752778D01*
X98132991Y-26802778D01*
X98132989Y-26802779D01*
X97976467Y-26886443D01*
X97928478Y-26901000D01*
X97806627Y-26937963D01*
X97740443Y-26944481D01*
X97674260Y-26951000D01*
X97585740Y-26951000D01*
X97519557Y-26944481D01*
X97453373Y-26937963D01*
X97331522Y-26901000D01*
X97283533Y-26886443D01*
X97127011Y-26802779D01*
X97127009Y-26802778D01*
X97066084Y-26752778D01*
X96989814Y-26690186D01*
X96906552Y-26588729D01*
X96877222Y-26552991D01*
X96795980Y-26401000D01*
X96793557Y-26396467D01*
X96760643Y-26287963D01*
X96742037Y-26226627D01*
X96724641Y-26050000D01*
X96742037Y-25873373D01*
X96793557Y-25703534D01*
X96793557Y-25703533D01*
X96877221Y-25547011D01*
X96877222Y-25547009D01*
X96906552Y-25511271D01*
X96989814Y-25409814D01*
X97095144Y-25323373D01*
X97127009Y-25297222D01*
X97144913Y-25287652D01*
X97283533Y-25213557D01*
X97340147Y-25196384D01*
X97453373Y-25162037D01*
X97519558Y-25155518D01*
X97585740Y-25149000D01*
X97674260Y-25149000D01*
X97740442Y-25155518D01*
X97740442Y-25155518D01*
G37*
G36*
X95200442Y-25155518D02*
X95266627Y-25162037D01*
X95379853Y-25196384D01*
X95436467Y-25213557D01*
X95575087Y-25287652D01*
X95592991Y-25297222D01*
X95624856Y-25323373D01*
X95730186Y-25409814D01*
X95813448Y-25511271D01*
X95842778Y-25547009D01*
X95842779Y-25547011D01*
X95926443Y-25703533D01*
X95926443Y-25703534D01*
X95977963Y-25873373D01*
X95995359Y-26050000D01*
X95977963Y-26226627D01*
X95959357Y-26287963D01*
X95926443Y-26396467D01*
X95924020Y-26401000D01*
X95842778Y-26552991D01*
X95813448Y-26588729D01*
X95730186Y-26690186D01*
X95653916Y-26752778D01*
X95592991Y-26802778D01*
X95592989Y-26802779D01*
X95436467Y-26886443D01*
X95388478Y-26901000D01*
X95266627Y-26937963D01*
X95200443Y-26944481D01*
X95134260Y-26951000D01*
X95045740Y-26951000D01*
X94979557Y-26944481D01*
X94913373Y-26937963D01*
X94791522Y-26901000D01*
X94743533Y-26886443D01*
X94587011Y-26802779D01*
X94587009Y-26802778D01*
X94526084Y-26752778D01*
X94449814Y-26690186D01*
X94366552Y-26588729D01*
X94337222Y-26552991D01*
X94255980Y-26401000D01*
X94253557Y-26396467D01*
X94220643Y-26287963D01*
X94202037Y-26226627D01*
X94184641Y-26050000D01*
X94202037Y-25873373D01*
X94253557Y-25703534D01*
X94253557Y-25703533D01*
X94337221Y-25547011D01*
X94337222Y-25547009D01*
X94366552Y-25511271D01*
X94449814Y-25409814D01*
X94555144Y-25323373D01*
X94587009Y-25297222D01*
X94604913Y-25287652D01*
X94743533Y-25213557D01*
X94800147Y-25196384D01*
X94913373Y-25162037D01*
X94979558Y-25155518D01*
X95045740Y-25149000D01*
X95134260Y-25149000D01*
X95200442Y-25155518D01*
X95200442Y-25155518D01*
G37*
G36*
X92660442Y-25155518D02*
X92726627Y-25162037D01*
X92839853Y-25196384D01*
X92896467Y-25213557D01*
X93035087Y-25287652D01*
X93052991Y-25297222D01*
X93084856Y-25323373D01*
X93190186Y-25409814D01*
X93273448Y-25511271D01*
X93302778Y-25547009D01*
X93302779Y-25547011D01*
X93386443Y-25703533D01*
X93386443Y-25703534D01*
X93437963Y-25873373D01*
X93455359Y-26050000D01*
X93437963Y-26226627D01*
X93419357Y-26287963D01*
X93386443Y-26396467D01*
X93384020Y-26401000D01*
X93302778Y-26552991D01*
X93273448Y-26588729D01*
X93190186Y-26690186D01*
X93113916Y-26752778D01*
X93052991Y-26802778D01*
X93052989Y-26802779D01*
X92896467Y-26886443D01*
X92848478Y-26901000D01*
X92726627Y-26937963D01*
X92660443Y-26944481D01*
X92594260Y-26951000D01*
X92505740Y-26951000D01*
X92439557Y-26944481D01*
X92373373Y-26937963D01*
X92251522Y-26901000D01*
X92203533Y-26886443D01*
X92047011Y-26802779D01*
X92047009Y-26802778D01*
X91986084Y-26752778D01*
X91909814Y-26690186D01*
X91826552Y-26588729D01*
X91797222Y-26552991D01*
X91715980Y-26401000D01*
X91713557Y-26396467D01*
X91680643Y-26287963D01*
X91662037Y-26226627D01*
X91644641Y-26050000D01*
X91662037Y-25873373D01*
X91713557Y-25703534D01*
X91713557Y-25703533D01*
X91797221Y-25547011D01*
X91797222Y-25547009D01*
X91826552Y-25511271D01*
X91909814Y-25409814D01*
X92015144Y-25323373D01*
X92047009Y-25297222D01*
X92064913Y-25287652D01*
X92203533Y-25213557D01*
X92260147Y-25196384D01*
X92373373Y-25162037D01*
X92439558Y-25155518D01*
X92505740Y-25149000D01*
X92594260Y-25149000D01*
X92660442Y-25155518D01*
X92660442Y-25155518D01*
G37*
G36*
X110151000Y-26951000D02*
X108349000Y-26951000D01*
X108349000Y-25149000D01*
X110151000Y-25149000D01*
X110151000Y-26951000D01*
X110151000Y-26951000D01*
G37*
G36*
X111900442Y-25155518D02*
X111966627Y-25162037D01*
X112079853Y-25196384D01*
X112136467Y-25213557D01*
X112275087Y-25287652D01*
X112292991Y-25297222D01*
X112324856Y-25323373D01*
X112430186Y-25409814D01*
X112513448Y-25511271D01*
X112542778Y-25547009D01*
X112542779Y-25547011D01*
X112626443Y-25703533D01*
X112626443Y-25703534D01*
X112677963Y-25873373D01*
X112695359Y-26050000D01*
X112677963Y-26226627D01*
X112659357Y-26287963D01*
X112626443Y-26396467D01*
X112624020Y-26401000D01*
X112542778Y-26552991D01*
X112513448Y-26588729D01*
X112430186Y-26690186D01*
X112353916Y-26752778D01*
X112292991Y-26802778D01*
X112292989Y-26802779D01*
X112136467Y-26886443D01*
X112088478Y-26901000D01*
X111966627Y-26937963D01*
X111900443Y-26944481D01*
X111834260Y-26951000D01*
X111745740Y-26951000D01*
X111679557Y-26944481D01*
X111613373Y-26937963D01*
X111491522Y-26901000D01*
X111443533Y-26886443D01*
X111287011Y-26802779D01*
X111287009Y-26802778D01*
X111226084Y-26752778D01*
X111149814Y-26690186D01*
X111066552Y-26588729D01*
X111037222Y-26552991D01*
X110955980Y-26401000D01*
X110953557Y-26396467D01*
X110920643Y-26287963D01*
X110902037Y-26226627D01*
X110884641Y-26050000D01*
X110902037Y-25873373D01*
X110953557Y-25703534D01*
X110953557Y-25703533D01*
X111037221Y-25547011D01*
X111037222Y-25547009D01*
X111066552Y-25511271D01*
X111149814Y-25409814D01*
X111255144Y-25323373D01*
X111287009Y-25297222D01*
X111304913Y-25287652D01*
X111443533Y-25213557D01*
X111500147Y-25196384D01*
X111613373Y-25162037D01*
X111679558Y-25155518D01*
X111745740Y-25149000D01*
X111834260Y-25149000D01*
X111900442Y-25155518D01*
X111900442Y-25155518D01*
G37*
G36*
X106151000Y-26951000D02*
X104349000Y-26951000D01*
X104349000Y-25149000D01*
X106151000Y-25149000D01*
X106151000Y-26951000D01*
X106151000Y-26951000D01*
G37*
G36*
X81901000Y-26901000D02*
X80099000Y-26901000D01*
X80099000Y-25099000D01*
X81901000Y-25099000D01*
X81901000Y-26901000D01*
X81901000Y-26901000D01*
G37*
G36*
X83650442Y-25105518D02*
X83716627Y-25112037D01*
X83829853Y-25146384D01*
X83886467Y-25163557D01*
X83980009Y-25213557D01*
X84042991Y-25247222D01*
X84078729Y-25276552D01*
X84180186Y-25359814D01*
X84263448Y-25461271D01*
X84292778Y-25497009D01*
X84292779Y-25497011D01*
X84376443Y-25653533D01*
X84376443Y-25653534D01*
X84427963Y-25823373D01*
X84445359Y-26000000D01*
X84427963Y-26176627D01*
X84394190Y-26287963D01*
X84376443Y-26346467D01*
X84349717Y-26396467D01*
X84292778Y-26502991D01*
X84263448Y-26538729D01*
X84180186Y-26640186D01*
X84078729Y-26723448D01*
X84042991Y-26752778D01*
X84042989Y-26752779D01*
X83886467Y-26836443D01*
X83829853Y-26853616D01*
X83716627Y-26887963D01*
X83650442Y-26894482D01*
X83584260Y-26901000D01*
X83495740Y-26901000D01*
X83429558Y-26894482D01*
X83363373Y-26887963D01*
X83250147Y-26853616D01*
X83193533Y-26836443D01*
X83037011Y-26752779D01*
X83037009Y-26752778D01*
X83001271Y-26723448D01*
X82899814Y-26640186D01*
X82816552Y-26538729D01*
X82787222Y-26502991D01*
X82730283Y-26396467D01*
X82703557Y-26346467D01*
X82685810Y-26287963D01*
X82652037Y-26176627D01*
X82634641Y-26000000D01*
X82652037Y-25823373D01*
X82703557Y-25653534D01*
X82703557Y-25653533D01*
X82787221Y-25497011D01*
X82787222Y-25497009D01*
X82816552Y-25461271D01*
X82899814Y-25359814D01*
X83001271Y-25276552D01*
X83037009Y-25247222D01*
X83099991Y-25213557D01*
X83193533Y-25163557D01*
X83250147Y-25146384D01*
X83363373Y-25112037D01*
X83429558Y-25105518D01*
X83495740Y-25099000D01*
X83584260Y-25099000D01*
X83650442Y-25105518D01*
X83650442Y-25105518D01*
G37*
G36*
X88730442Y-25105518D02*
X88796627Y-25112037D01*
X88909853Y-25146384D01*
X88966467Y-25163557D01*
X89060009Y-25213557D01*
X89122991Y-25247222D01*
X89158729Y-25276552D01*
X89260186Y-25359814D01*
X89343448Y-25461271D01*
X89372778Y-25497009D01*
X89372779Y-25497011D01*
X89456443Y-25653533D01*
X89456443Y-25653534D01*
X89507963Y-25823373D01*
X89525359Y-26000000D01*
X89507963Y-26176627D01*
X89474190Y-26287963D01*
X89456443Y-26346467D01*
X89429717Y-26396467D01*
X89372778Y-26502991D01*
X89343448Y-26538729D01*
X89260186Y-26640186D01*
X89158729Y-26723448D01*
X89122991Y-26752778D01*
X89122989Y-26752779D01*
X88966467Y-26836443D01*
X88909853Y-26853616D01*
X88796627Y-26887963D01*
X88730442Y-26894482D01*
X88664260Y-26901000D01*
X88575740Y-26901000D01*
X88509558Y-26894482D01*
X88443373Y-26887963D01*
X88330147Y-26853616D01*
X88273533Y-26836443D01*
X88117011Y-26752779D01*
X88117009Y-26752778D01*
X88081271Y-26723448D01*
X87979814Y-26640186D01*
X87896552Y-26538729D01*
X87867222Y-26502991D01*
X87810283Y-26396467D01*
X87783557Y-26346467D01*
X87765810Y-26287963D01*
X87732037Y-26176627D01*
X87714641Y-26000000D01*
X87732037Y-25823373D01*
X87783557Y-25653534D01*
X87783557Y-25653533D01*
X87867221Y-25497011D01*
X87867222Y-25497009D01*
X87896552Y-25461271D01*
X87979814Y-25359814D01*
X88081271Y-25276552D01*
X88117009Y-25247222D01*
X88179991Y-25213557D01*
X88273533Y-25163557D01*
X88330147Y-25146384D01*
X88443373Y-25112037D01*
X88509558Y-25105518D01*
X88575740Y-25099000D01*
X88664260Y-25099000D01*
X88730442Y-25105518D01*
X88730442Y-25105518D01*
G37*
G36*
X86190442Y-25105518D02*
X86256627Y-25112037D01*
X86369853Y-25146384D01*
X86426467Y-25163557D01*
X86520009Y-25213557D01*
X86582991Y-25247222D01*
X86618729Y-25276552D01*
X86720186Y-25359814D01*
X86803448Y-25461271D01*
X86832778Y-25497009D01*
X86832779Y-25497011D01*
X86916443Y-25653533D01*
X86916443Y-25653534D01*
X86967963Y-25823373D01*
X86985359Y-26000000D01*
X86967963Y-26176627D01*
X86934190Y-26287963D01*
X86916443Y-26346467D01*
X86889717Y-26396467D01*
X86832778Y-26502991D01*
X86803448Y-26538729D01*
X86720186Y-26640186D01*
X86618729Y-26723448D01*
X86582991Y-26752778D01*
X86582989Y-26752779D01*
X86426467Y-26836443D01*
X86369853Y-26853616D01*
X86256627Y-26887963D01*
X86190442Y-26894482D01*
X86124260Y-26901000D01*
X86035740Y-26901000D01*
X85969558Y-26894482D01*
X85903373Y-26887963D01*
X85790147Y-26853616D01*
X85733533Y-26836443D01*
X85577011Y-26752779D01*
X85577009Y-26752778D01*
X85541271Y-26723448D01*
X85439814Y-26640186D01*
X85356552Y-26538729D01*
X85327222Y-26502991D01*
X85270283Y-26396467D01*
X85243557Y-26346467D01*
X85225810Y-26287963D01*
X85192037Y-26176627D01*
X85174641Y-26000000D01*
X85192037Y-25823373D01*
X85243557Y-25653534D01*
X85243557Y-25653533D01*
X85327221Y-25497011D01*
X85327222Y-25497009D01*
X85356552Y-25461271D01*
X85439814Y-25359814D01*
X85541271Y-25276552D01*
X85577009Y-25247222D01*
X85639991Y-25213557D01*
X85733533Y-25163557D01*
X85790147Y-25146384D01*
X85903373Y-25112037D01*
X85969558Y-25105518D01*
X86035740Y-25099000D01*
X86124260Y-25099000D01*
X86190442Y-25105518D01*
X86190442Y-25105518D01*
G37*
G36*
X39970443Y-24605519D02*
X40036627Y-24612037D01*
X40149853Y-24646384D01*
X40206467Y-24663557D01*
X40345087Y-24737652D01*
X40362991Y-24747222D01*
X40398729Y-24776552D01*
X40500186Y-24859814D01*
X40583448Y-24961271D01*
X40612778Y-24997009D01*
X40612779Y-24997011D01*
X40696443Y-25153533D01*
X40713616Y-25210147D01*
X40747963Y-25323373D01*
X40765359Y-25500000D01*
X40747963Y-25676627D01*
X40726777Y-25746467D01*
X40696443Y-25846467D01*
X40682061Y-25873373D01*
X40612778Y-26002991D01*
X40583448Y-26038729D01*
X40500186Y-26140186D01*
X40398729Y-26223448D01*
X40362991Y-26252778D01*
X40362989Y-26252779D01*
X40206467Y-26336443D01*
X40149853Y-26353616D01*
X40036627Y-26387963D01*
X39970443Y-26394481D01*
X39904260Y-26401000D01*
X39815740Y-26401000D01*
X39749558Y-26394482D01*
X39683373Y-26387963D01*
X39570147Y-26353616D01*
X39513533Y-26336443D01*
X39357011Y-26252779D01*
X39357009Y-26252778D01*
X39321271Y-26223448D01*
X39219814Y-26140186D01*
X39136552Y-26038729D01*
X39107222Y-26002991D01*
X39037939Y-25873373D01*
X39023557Y-25846467D01*
X38993223Y-25746467D01*
X38972037Y-25676627D01*
X38954641Y-25500000D01*
X38972037Y-25323373D01*
X39006384Y-25210147D01*
X39023557Y-25153533D01*
X39107221Y-24997011D01*
X39107222Y-24997009D01*
X39136552Y-24961271D01*
X39219814Y-24859814D01*
X39321271Y-24776552D01*
X39357009Y-24747222D01*
X39374913Y-24737652D01*
X39513533Y-24663557D01*
X39570147Y-24646384D01*
X39683373Y-24612037D01*
X39749557Y-24605519D01*
X39815740Y-24599000D01*
X39904260Y-24599000D01*
X39970443Y-24605519D01*
X39970443Y-24605519D01*
G37*
G36*
X42510443Y-24605519D02*
X42576627Y-24612037D01*
X42689853Y-24646384D01*
X42746467Y-24663557D01*
X42885087Y-24737652D01*
X42902991Y-24747222D01*
X42938729Y-24776552D01*
X43040186Y-24859814D01*
X43123448Y-24961271D01*
X43152778Y-24997009D01*
X43152779Y-24997011D01*
X43236443Y-25153533D01*
X43253616Y-25210147D01*
X43287963Y-25323373D01*
X43305359Y-25500000D01*
X43287963Y-25676627D01*
X43266777Y-25746467D01*
X43236443Y-25846467D01*
X43222061Y-25873373D01*
X43152778Y-26002991D01*
X43123448Y-26038729D01*
X43040186Y-26140186D01*
X42938729Y-26223448D01*
X42902991Y-26252778D01*
X42902989Y-26252779D01*
X42746467Y-26336443D01*
X42689853Y-26353616D01*
X42576627Y-26387963D01*
X42510443Y-26394481D01*
X42444260Y-26401000D01*
X42355740Y-26401000D01*
X42289558Y-26394482D01*
X42223373Y-26387963D01*
X42110147Y-26353616D01*
X42053533Y-26336443D01*
X41897011Y-26252779D01*
X41897009Y-26252778D01*
X41861271Y-26223448D01*
X41759814Y-26140186D01*
X41676552Y-26038729D01*
X41647222Y-26002991D01*
X41577939Y-25873373D01*
X41563557Y-25846467D01*
X41533223Y-25746467D01*
X41512037Y-25676627D01*
X41494641Y-25500000D01*
X41512037Y-25323373D01*
X41546384Y-25210147D01*
X41563557Y-25153533D01*
X41647221Y-24997011D01*
X41647222Y-24997009D01*
X41676552Y-24961271D01*
X41759814Y-24859814D01*
X41861271Y-24776552D01*
X41897009Y-24747222D01*
X41914913Y-24737652D01*
X42053533Y-24663557D01*
X42110147Y-24646384D01*
X42223373Y-24612037D01*
X42289557Y-24605519D01*
X42355740Y-24599000D01*
X42444260Y-24599000D01*
X42510443Y-24605519D01*
X42510443Y-24605519D01*
G37*
G36*
X70870442Y-24505518D02*
X70936627Y-24512037D01*
X71049853Y-24546384D01*
X71106467Y-24563557D01*
X71172775Y-24599000D01*
X71262991Y-24647222D01*
X71282895Y-24663557D01*
X71400186Y-24759814D01*
X71482253Y-24859814D01*
X71512778Y-24897009D01*
X71512779Y-24897011D01*
X71596443Y-25053533D01*
X71596443Y-25053534D01*
X71647963Y-25223373D01*
X71665359Y-25400000D01*
X71647963Y-25576627D01*
X71617629Y-25676625D01*
X71596443Y-25746467D01*
X71542991Y-25846467D01*
X71512778Y-25902991D01*
X71483448Y-25938729D01*
X71400186Y-26040186D01*
X71298729Y-26123448D01*
X71262991Y-26152778D01*
X71262989Y-26152779D01*
X71106467Y-26236443D01*
X71052617Y-26252778D01*
X70936627Y-26287963D01*
X70870443Y-26294481D01*
X70804260Y-26301000D01*
X70715740Y-26301000D01*
X70649557Y-26294481D01*
X70583373Y-26287963D01*
X70467383Y-26252778D01*
X70413533Y-26236443D01*
X70257011Y-26152779D01*
X70257009Y-26152778D01*
X70221271Y-26123448D01*
X70119814Y-26040186D01*
X70036552Y-25938729D01*
X70007222Y-25902991D01*
X69977009Y-25846467D01*
X69923557Y-25746467D01*
X69902371Y-25676625D01*
X69872037Y-25576627D01*
X69854641Y-25400000D01*
X69872037Y-25223373D01*
X69923557Y-25053534D01*
X69923557Y-25053533D01*
X70007221Y-24897011D01*
X70007222Y-24897009D01*
X70037747Y-24859814D01*
X70119814Y-24759814D01*
X70237105Y-24663557D01*
X70257009Y-24647222D01*
X70347225Y-24599000D01*
X70413533Y-24563557D01*
X70470147Y-24546384D01*
X70583373Y-24512037D01*
X70649557Y-24505519D01*
X70715740Y-24499000D01*
X70804260Y-24499000D01*
X70870442Y-24505518D01*
X70870442Y-24505518D01*
G37*
G36*
X73410442Y-24505518D02*
X73476627Y-24512037D01*
X73589853Y-24546384D01*
X73646467Y-24563557D01*
X73712775Y-24599000D01*
X73802991Y-24647222D01*
X73822895Y-24663557D01*
X73940186Y-24759814D01*
X74022253Y-24859814D01*
X74052778Y-24897009D01*
X74052779Y-24897011D01*
X74136443Y-25053533D01*
X74136443Y-25053534D01*
X74187963Y-25223373D01*
X74205359Y-25400000D01*
X74187963Y-25576627D01*
X74157629Y-25676625D01*
X74136443Y-25746467D01*
X74082991Y-25846467D01*
X74052778Y-25902991D01*
X74023448Y-25938729D01*
X73940186Y-26040186D01*
X73838729Y-26123448D01*
X73802991Y-26152778D01*
X73802989Y-26152779D01*
X73646467Y-26236443D01*
X73592617Y-26252778D01*
X73476627Y-26287963D01*
X73410443Y-26294481D01*
X73344260Y-26301000D01*
X73255740Y-26301000D01*
X73189557Y-26294481D01*
X73123373Y-26287963D01*
X73007383Y-26252778D01*
X72953533Y-26236443D01*
X72797011Y-26152779D01*
X72797009Y-26152778D01*
X72761271Y-26123448D01*
X72659814Y-26040186D01*
X72576552Y-25938729D01*
X72547222Y-25902991D01*
X72517009Y-25846467D01*
X72463557Y-25746467D01*
X72442371Y-25676625D01*
X72412037Y-25576627D01*
X72394641Y-25400000D01*
X72412037Y-25223373D01*
X72463557Y-25053534D01*
X72463557Y-25053533D01*
X72547221Y-24897011D01*
X72547222Y-24897009D01*
X72577747Y-24859814D01*
X72659814Y-24759814D01*
X72777105Y-24663557D01*
X72797009Y-24647222D01*
X72887225Y-24599000D01*
X72953533Y-24563557D01*
X73010147Y-24546384D01*
X73123373Y-24512037D01*
X73189557Y-24505519D01*
X73255740Y-24499000D01*
X73344260Y-24499000D01*
X73410442Y-24505518D01*
X73410442Y-24505518D01*
G37*
G36*
X40761000Y-23861000D02*
X38959000Y-23861000D01*
X38959000Y-22059000D01*
X40761000Y-22059000D01*
X40761000Y-23861000D01*
X40761000Y-23861000D01*
G37*
G36*
X42510443Y-22065519D02*
X42576627Y-22072037D01*
X42689853Y-22106384D01*
X42746467Y-22123557D01*
X42885087Y-22197652D01*
X42902991Y-22207222D01*
X42938729Y-22236552D01*
X43040186Y-22319814D01*
X43123448Y-22421271D01*
X43152778Y-22457009D01*
X43152779Y-22457011D01*
X43236443Y-22613533D01*
X43236443Y-22613534D01*
X43287963Y-22783373D01*
X43305359Y-22960000D01*
X43287963Y-23136627D01*
X43266777Y-23206467D01*
X43236443Y-23306467D01*
X43206231Y-23362989D01*
X43152778Y-23462991D01*
X43123448Y-23498729D01*
X43040186Y-23600186D01*
X42938729Y-23683448D01*
X42902991Y-23712778D01*
X42902989Y-23712779D01*
X42746467Y-23796443D01*
X42689853Y-23813616D01*
X42576627Y-23847963D01*
X42510442Y-23854482D01*
X42444260Y-23861000D01*
X42355740Y-23861000D01*
X42289558Y-23854482D01*
X42223373Y-23847963D01*
X42110147Y-23813616D01*
X42053533Y-23796443D01*
X41897011Y-23712779D01*
X41897009Y-23712778D01*
X41861271Y-23683448D01*
X41759814Y-23600186D01*
X41676552Y-23498729D01*
X41647222Y-23462991D01*
X41593769Y-23362989D01*
X41563557Y-23306467D01*
X41533223Y-23206467D01*
X41512037Y-23136627D01*
X41494641Y-22960000D01*
X41512037Y-22783373D01*
X41563557Y-22613534D01*
X41563557Y-22613533D01*
X41647221Y-22457011D01*
X41647222Y-22457009D01*
X41676552Y-22421271D01*
X41759814Y-22319814D01*
X41861271Y-22236552D01*
X41897009Y-22207222D01*
X41914913Y-22197652D01*
X42053533Y-22123557D01*
X42110147Y-22106384D01*
X42223373Y-22072037D01*
X42289557Y-22065519D01*
X42355740Y-22059000D01*
X42444260Y-22059000D01*
X42510443Y-22065519D01*
X42510443Y-22065519D01*
G37*
G36*
X71661000Y-23761000D02*
X69859000Y-23761000D01*
X69859000Y-21959000D01*
X71661000Y-21959000D01*
X71661000Y-23761000D01*
X71661000Y-23761000D01*
G37*
G36*
X73410443Y-21965519D02*
X73476627Y-21972037D01*
X73580459Y-22003534D01*
X73646467Y-22023557D01*
X73712775Y-22059000D01*
X73802991Y-22107222D01*
X73822671Y-22123373D01*
X73940186Y-22219814D01*
X74005992Y-22300000D01*
X74052778Y-22357009D01*
X74052779Y-22357011D01*
X74136443Y-22513533D01*
X74136443Y-22513534D01*
X74187963Y-22683373D01*
X74205359Y-22860000D01*
X74187963Y-23036627D01*
X74183063Y-23052779D01*
X74136443Y-23206467D01*
X74082991Y-23306467D01*
X74052778Y-23362991D01*
X74023448Y-23398729D01*
X73940186Y-23500186D01*
X73838729Y-23583448D01*
X73802991Y-23612778D01*
X73802989Y-23612779D01*
X73646467Y-23696443D01*
X73592617Y-23712778D01*
X73476627Y-23747963D01*
X73410442Y-23754482D01*
X73344260Y-23761000D01*
X73255740Y-23761000D01*
X73189558Y-23754482D01*
X73123373Y-23747963D01*
X73007383Y-23712778D01*
X72953533Y-23696443D01*
X72797011Y-23612779D01*
X72797009Y-23612778D01*
X72761271Y-23583448D01*
X72659814Y-23500186D01*
X72576552Y-23398729D01*
X72547222Y-23362991D01*
X72517009Y-23306467D01*
X72463557Y-23206467D01*
X72416937Y-23052779D01*
X72412037Y-23036627D01*
X72394641Y-22860000D01*
X72412037Y-22683373D01*
X72463557Y-22513534D01*
X72463557Y-22513533D01*
X72547221Y-22357011D01*
X72547222Y-22357009D01*
X72594008Y-22300000D01*
X72659814Y-22219814D01*
X72777329Y-22123373D01*
X72797009Y-22107222D01*
X72887225Y-22059000D01*
X72953533Y-22023557D01*
X73019541Y-22003534D01*
X73123373Y-21972037D01*
X73189557Y-21965519D01*
X73255740Y-21959000D01*
X73344260Y-21959000D01*
X73410443Y-21965519D01*
X73410443Y-21965519D01*
G37*
G36*
X102870443Y-21455519D02*
X102936627Y-21462037D01*
X103049853Y-21496384D01*
X103106467Y-21513557D01*
X103245087Y-21587652D01*
X103262991Y-21597222D01*
X103298729Y-21626552D01*
X103400186Y-21709814D01*
X103483448Y-21811271D01*
X103512778Y-21847009D01*
X103512779Y-21847011D01*
X103596443Y-22003533D01*
X103596443Y-22003534D01*
X103647963Y-22173373D01*
X103665359Y-22350000D01*
X103647963Y-22526627D01*
X103621600Y-22613533D01*
X103596443Y-22696467D01*
X103549990Y-22783373D01*
X103512778Y-22852991D01*
X103483448Y-22888729D01*
X103400186Y-22990186D01*
X103323916Y-23052778D01*
X103262991Y-23102778D01*
X103262989Y-23102779D01*
X103106467Y-23186443D01*
X103058478Y-23201000D01*
X102936627Y-23237963D01*
X102870443Y-23244481D01*
X102804260Y-23251000D01*
X102715740Y-23251000D01*
X102649557Y-23244481D01*
X102583373Y-23237963D01*
X102461522Y-23201000D01*
X102413533Y-23186443D01*
X102257011Y-23102779D01*
X102257009Y-23102778D01*
X102196084Y-23052778D01*
X102119814Y-22990186D01*
X102036552Y-22888729D01*
X102007222Y-22852991D01*
X101970010Y-22783373D01*
X101923557Y-22696467D01*
X101898400Y-22613533D01*
X101872037Y-22526627D01*
X101854641Y-22350000D01*
X101872037Y-22173373D01*
X101923557Y-22003534D01*
X101923557Y-22003533D01*
X102007221Y-21847011D01*
X102007222Y-21847009D01*
X102036552Y-21811271D01*
X102119814Y-21709814D01*
X102221271Y-21626552D01*
X102257009Y-21597222D01*
X102274913Y-21587652D01*
X102413533Y-21513557D01*
X102470147Y-21496384D01*
X102583373Y-21462037D01*
X102649557Y-21455519D01*
X102715740Y-21449000D01*
X102804260Y-21449000D01*
X102870443Y-21455519D01*
X102870443Y-21455519D01*
G37*
G36*
X97790443Y-21455519D02*
X97856627Y-21462037D01*
X97969853Y-21496384D01*
X98026467Y-21513557D01*
X98165087Y-21587652D01*
X98182991Y-21597222D01*
X98218729Y-21626552D01*
X98320186Y-21709814D01*
X98403448Y-21811271D01*
X98432778Y-21847009D01*
X98432779Y-21847011D01*
X98516443Y-22003533D01*
X98516443Y-22003534D01*
X98567963Y-22173373D01*
X98585359Y-22350000D01*
X98567963Y-22526627D01*
X98541600Y-22613533D01*
X98516443Y-22696467D01*
X98469990Y-22783373D01*
X98432778Y-22852991D01*
X98403448Y-22888729D01*
X98320186Y-22990186D01*
X98243916Y-23052778D01*
X98182991Y-23102778D01*
X98182989Y-23102779D01*
X98026467Y-23186443D01*
X97978478Y-23201000D01*
X97856627Y-23237963D01*
X97790443Y-23244481D01*
X97724260Y-23251000D01*
X97635740Y-23251000D01*
X97569557Y-23244481D01*
X97503373Y-23237963D01*
X97381522Y-23201000D01*
X97333533Y-23186443D01*
X97177011Y-23102779D01*
X97177009Y-23102778D01*
X97116084Y-23052778D01*
X97039814Y-22990186D01*
X96956552Y-22888729D01*
X96927222Y-22852991D01*
X96890010Y-22783373D01*
X96843557Y-22696467D01*
X96818400Y-22613533D01*
X96792037Y-22526627D01*
X96774641Y-22350000D01*
X96792037Y-22173373D01*
X96843557Y-22003534D01*
X96843557Y-22003533D01*
X96927221Y-21847011D01*
X96927222Y-21847009D01*
X96956552Y-21811271D01*
X97039814Y-21709814D01*
X97141271Y-21626552D01*
X97177009Y-21597222D01*
X97194913Y-21587652D01*
X97333533Y-21513557D01*
X97390147Y-21496384D01*
X97503373Y-21462037D01*
X97569557Y-21455519D01*
X97635740Y-21449000D01*
X97724260Y-21449000D01*
X97790443Y-21455519D01*
X97790443Y-21455519D01*
G37*
G36*
X95250443Y-21455519D02*
X95316627Y-21462037D01*
X95429853Y-21496384D01*
X95486467Y-21513557D01*
X95625087Y-21587652D01*
X95642991Y-21597222D01*
X95678729Y-21626552D01*
X95780186Y-21709814D01*
X95863448Y-21811271D01*
X95892778Y-21847009D01*
X95892779Y-21847011D01*
X95976443Y-22003533D01*
X95976443Y-22003534D01*
X96027963Y-22173373D01*
X96045359Y-22350000D01*
X96027963Y-22526627D01*
X96001600Y-22613533D01*
X95976443Y-22696467D01*
X95929990Y-22783373D01*
X95892778Y-22852991D01*
X95863448Y-22888729D01*
X95780186Y-22990186D01*
X95703916Y-23052778D01*
X95642991Y-23102778D01*
X95642989Y-23102779D01*
X95486467Y-23186443D01*
X95438478Y-23201000D01*
X95316627Y-23237963D01*
X95250443Y-23244481D01*
X95184260Y-23251000D01*
X95095740Y-23251000D01*
X95029557Y-23244481D01*
X94963373Y-23237963D01*
X94841522Y-23201000D01*
X94793533Y-23186443D01*
X94637011Y-23102779D01*
X94637009Y-23102778D01*
X94576084Y-23052778D01*
X94499814Y-22990186D01*
X94416552Y-22888729D01*
X94387222Y-22852991D01*
X94350010Y-22783373D01*
X94303557Y-22696467D01*
X94278400Y-22613533D01*
X94252037Y-22526627D01*
X94234641Y-22350000D01*
X94252037Y-22173373D01*
X94303557Y-22003534D01*
X94303557Y-22003533D01*
X94387221Y-21847011D01*
X94387222Y-21847009D01*
X94416552Y-21811271D01*
X94499814Y-21709814D01*
X94601271Y-21626552D01*
X94637009Y-21597222D01*
X94654913Y-21587652D01*
X94793533Y-21513557D01*
X94850147Y-21496384D01*
X94963373Y-21462037D01*
X95029557Y-21455519D01*
X95095740Y-21449000D01*
X95184260Y-21449000D01*
X95250443Y-21455519D01*
X95250443Y-21455519D01*
G37*
G36*
X106201000Y-23251000D02*
X104399000Y-23251000D01*
X104399000Y-21449000D01*
X106201000Y-21449000D01*
X106201000Y-23251000D01*
X106201000Y-23251000D01*
G37*
G36*
X100330443Y-21455519D02*
X100396627Y-21462037D01*
X100509853Y-21496384D01*
X100566467Y-21513557D01*
X100705087Y-21587652D01*
X100722991Y-21597222D01*
X100758729Y-21626552D01*
X100860186Y-21709814D01*
X100943448Y-21811271D01*
X100972778Y-21847009D01*
X100972779Y-21847011D01*
X101056443Y-22003533D01*
X101056443Y-22003534D01*
X101107963Y-22173373D01*
X101125359Y-22350000D01*
X101107963Y-22526627D01*
X101081600Y-22613533D01*
X101056443Y-22696467D01*
X101009990Y-22783373D01*
X100972778Y-22852991D01*
X100943448Y-22888729D01*
X100860186Y-22990186D01*
X100783916Y-23052778D01*
X100722991Y-23102778D01*
X100722989Y-23102779D01*
X100566467Y-23186443D01*
X100518478Y-23201000D01*
X100396627Y-23237963D01*
X100330443Y-23244481D01*
X100264260Y-23251000D01*
X100175740Y-23251000D01*
X100109557Y-23244481D01*
X100043373Y-23237963D01*
X99921522Y-23201000D01*
X99873533Y-23186443D01*
X99717011Y-23102779D01*
X99717009Y-23102778D01*
X99656084Y-23052778D01*
X99579814Y-22990186D01*
X99496552Y-22888729D01*
X99467222Y-22852991D01*
X99430010Y-22783373D01*
X99383557Y-22696467D01*
X99358400Y-22613533D01*
X99332037Y-22526627D01*
X99314641Y-22350000D01*
X99332037Y-22173373D01*
X99383557Y-22003534D01*
X99383557Y-22003533D01*
X99467221Y-21847011D01*
X99467222Y-21847009D01*
X99496552Y-21811271D01*
X99579814Y-21709814D01*
X99681271Y-21626552D01*
X99717009Y-21597222D01*
X99734913Y-21587652D01*
X99873533Y-21513557D01*
X99930147Y-21496384D01*
X100043373Y-21462037D01*
X100109557Y-21455519D01*
X100175740Y-21449000D01*
X100264260Y-21449000D01*
X100330443Y-21455519D01*
X100330443Y-21455519D01*
G37*
G36*
X92710443Y-21455519D02*
X92776627Y-21462037D01*
X92889853Y-21496384D01*
X92946467Y-21513557D01*
X93085087Y-21587652D01*
X93102991Y-21597222D01*
X93138729Y-21626552D01*
X93240186Y-21709814D01*
X93323448Y-21811271D01*
X93352778Y-21847009D01*
X93352779Y-21847011D01*
X93436443Y-22003533D01*
X93436443Y-22003534D01*
X93487963Y-22173373D01*
X93505359Y-22350000D01*
X93487963Y-22526627D01*
X93461600Y-22613533D01*
X93436443Y-22696467D01*
X93389990Y-22783373D01*
X93352778Y-22852991D01*
X93323448Y-22888729D01*
X93240186Y-22990186D01*
X93163916Y-23052778D01*
X93102991Y-23102778D01*
X93102989Y-23102779D01*
X92946467Y-23186443D01*
X92898478Y-23201000D01*
X92776627Y-23237963D01*
X92710443Y-23244481D01*
X92644260Y-23251000D01*
X92555740Y-23251000D01*
X92489557Y-23244481D01*
X92423373Y-23237963D01*
X92301522Y-23201000D01*
X92253533Y-23186443D01*
X92097011Y-23102779D01*
X92097009Y-23102778D01*
X92036084Y-23052778D01*
X91959814Y-22990186D01*
X91876552Y-22888729D01*
X91847222Y-22852991D01*
X91810010Y-22783373D01*
X91763557Y-22696467D01*
X91738400Y-22613533D01*
X91712037Y-22526627D01*
X91694641Y-22350000D01*
X91712037Y-22173373D01*
X91763557Y-22003534D01*
X91763557Y-22003533D01*
X91847221Y-21847011D01*
X91847222Y-21847009D01*
X91876552Y-21811271D01*
X91959814Y-21709814D01*
X92061271Y-21626552D01*
X92097009Y-21597222D01*
X92114913Y-21587652D01*
X92253533Y-21513557D01*
X92310147Y-21496384D01*
X92423373Y-21462037D01*
X92489557Y-21455519D01*
X92555740Y-21449000D01*
X92644260Y-21449000D01*
X92710443Y-21455519D01*
X92710443Y-21455519D01*
G37*
G36*
X111860443Y-21405519D02*
X111926627Y-21412037D01*
X112039853Y-21446384D01*
X112096467Y-21463557D01*
X112190009Y-21513557D01*
X112252991Y-21547222D01*
X112288729Y-21576552D01*
X112390186Y-21659814D01*
X112473448Y-21761271D01*
X112502778Y-21797009D01*
X112502779Y-21797011D01*
X112586443Y-21953533D01*
X112586443Y-21953534D01*
X112637963Y-22123373D01*
X112655359Y-22300000D01*
X112637963Y-22476627D01*
X112603616Y-22589853D01*
X112586443Y-22646467D01*
X112559717Y-22696467D01*
X112502778Y-22802991D01*
X112473448Y-22838729D01*
X112390186Y-22940186D01*
X112288729Y-23023448D01*
X112252991Y-23052778D01*
X112252989Y-23052779D01*
X112096467Y-23136443D01*
X112039853Y-23153616D01*
X111926627Y-23187963D01*
X111860442Y-23194482D01*
X111794260Y-23201000D01*
X111705740Y-23201000D01*
X111639558Y-23194482D01*
X111573373Y-23187963D01*
X111460147Y-23153616D01*
X111403533Y-23136443D01*
X111247011Y-23052779D01*
X111247009Y-23052778D01*
X111211271Y-23023448D01*
X111109814Y-22940186D01*
X111026552Y-22838729D01*
X110997222Y-22802991D01*
X110940283Y-22696467D01*
X110913557Y-22646467D01*
X110896384Y-22589853D01*
X110862037Y-22476627D01*
X110844641Y-22300000D01*
X110862037Y-22123373D01*
X110913557Y-21953534D01*
X110913557Y-21953533D01*
X110997221Y-21797011D01*
X110997222Y-21797009D01*
X111026552Y-21761271D01*
X111109814Y-21659814D01*
X111211271Y-21576552D01*
X111247009Y-21547222D01*
X111309991Y-21513557D01*
X111403533Y-21463557D01*
X111460147Y-21446384D01*
X111573373Y-21412037D01*
X111639558Y-21405518D01*
X111705740Y-21399000D01*
X111794260Y-21399000D01*
X111860443Y-21405519D01*
X111860443Y-21405519D01*
G37*
G36*
X110111000Y-23201000D02*
X108309000Y-23201000D01*
X108309000Y-21399000D01*
X110111000Y-21399000D01*
X110111000Y-23201000D01*
X110111000Y-23201000D01*
G37*
M02*
