G04 #@! TF.GenerationSoftware,KiCad,Pcbnew,(5.0.2)-1*
G04 #@! TF.CreationDate,2019-08-15T12:32:10+02:00*
G04 #@! TF.ProjectId,ADS1298_FINAL,41445331-3239-4385-9f46-494e414c2e6b,rev?*
G04 #@! TF.SameCoordinates,Original*
G04 #@! TF.FileFunction,Legend,Bot*
G04 #@! TF.FilePolarity,Positive*
%FSLAX46Y46*%
G04 Gerber Fmt 4.6, Leading zero omitted, Abs format (unit mm)*
G04 Created by KiCad (PCBNEW (5.0.2)-1) date 15-8-2019 12:32:10*
%MOMM*%
%LPD*%
G01*
G04 APERTURE LIST*
%ADD10C,0.120000*%
%ADD11C,0.150000*%
G04 APERTURE END LIST*
D10*
G04 #@! TO.C,C38*
X101938124Y-111770527D02*
X101938124Y-112293031D01*
X103358124Y-111770527D02*
X103358124Y-112293031D01*
G04 #@! TO.C,C39*
X96664546Y-117716779D02*
X97181702Y-117716779D01*
X96664546Y-116296779D02*
X97181702Y-116296779D01*
G04 #@! TO.C,C43*
X88988124Y-116470527D02*
X88988124Y-116993031D01*
X90408124Y-116470527D02*
X90408124Y-116993031D01*
G04 #@! TO.C,C45*
X88258124Y-116470527D02*
X88258124Y-116993031D01*
X86838124Y-116470527D02*
X86838124Y-116993031D01*
G04 #@! TO.C,C50*
X83361872Y-116996779D02*
X83884376Y-116996779D01*
X83361872Y-118416779D02*
X83884376Y-118416779D01*
G04 #@! TO.C,C52*
X79538124Y-114520527D02*
X79538124Y-115043031D01*
X80958124Y-114520527D02*
X80958124Y-115043031D01*
G04 #@! TO.C,J25*
X77250000Y-113370000D02*
X75920000Y-113370000D01*
X75920000Y-113370000D02*
X75920000Y-114700000D01*
X75920000Y-115910000D02*
X75920000Y-116030000D01*
X78580000Y-115910000D02*
X78580000Y-116030000D01*
X78580000Y-116030000D02*
X75920000Y-116030000D01*
G04 #@! TO.C,JP2*
X33935245Y-73380200D02*
X33935245Y-71380200D01*
X31135245Y-73380200D02*
X33935245Y-73380200D01*
X31135245Y-71380200D02*
X31135245Y-73380200D01*
X33935245Y-71380200D02*
X31135245Y-71380200D01*
G04 #@! TO.C,JP4*
X33935245Y-74030200D02*
X31135245Y-74030200D01*
X31135245Y-74030200D02*
X31135245Y-76030200D01*
X31135245Y-76030200D02*
X33935245Y-76030200D01*
X33935245Y-76030200D02*
X33935245Y-74030200D01*
G04 #@! TO.C,JP5*
X33935245Y-78680200D02*
X33935245Y-76680200D01*
X31135245Y-78680200D02*
X33935245Y-78680200D01*
X31135245Y-76680200D02*
X31135245Y-78680200D01*
X33935245Y-76680200D02*
X31135245Y-76680200D01*
G04 #@! TO.C,JP6*
X33935245Y-81430200D02*
X33935245Y-79430200D01*
X31135245Y-81430200D02*
X33935245Y-81430200D01*
X31135245Y-79430200D02*
X31135245Y-81430200D01*
X33935245Y-79430200D02*
X31135245Y-79430200D01*
G04 #@! TO.C,R32*
X95188124Y-106610701D02*
X95188124Y-107127857D01*
X96608124Y-106610701D02*
X96608124Y-107127857D01*
G04 #@! TO.C,R33*
X90408124Y-112785701D02*
X90408124Y-113302857D01*
X88988124Y-112785701D02*
X88988124Y-113302857D01*
G04 #@! TO.C,R37*
X111913748Y-34090000D02*
X112436252Y-34090000D01*
X111913748Y-35510000D02*
X112436252Y-35510000D01*
G04 #@! TO.C,R38*
X111913748Y-38060000D02*
X112436252Y-38060000D01*
X111913748Y-36640000D02*
X112436252Y-36640000D01*
G04 #@! TO.C,R39*
X99440000Y-30086252D02*
X99440000Y-29563748D01*
X100860000Y-30086252D02*
X100860000Y-29563748D01*
G04 #@! TO.C,R43*
X111963748Y-40660000D02*
X112486252Y-40660000D01*
X111963748Y-39240000D02*
X112486252Y-39240000D01*
G04 #@! TO.C,R44*
X108390000Y-28963748D02*
X108390000Y-29486252D01*
X109810000Y-28963748D02*
X109810000Y-29486252D01*
G04 #@! TO.C,R45*
X106660000Y-80463748D02*
X106660000Y-80986252D01*
X105240000Y-80463748D02*
X105240000Y-80986252D01*
G04 #@! TO.C,R46*
X103290000Y-80463748D02*
X103290000Y-80986252D01*
X104710000Y-80463748D02*
X104710000Y-80986252D01*
G04 #@! TO.C,R58*
X97238124Y-106610701D02*
X97238124Y-107127857D01*
X98658124Y-106610701D02*
X98658124Y-107127857D01*
D11*
G04 #@! TO.C,U14*
X98798124Y-109336779D02*
X98798124Y-109991779D01*
X93298124Y-109336779D02*
X93298124Y-110086779D01*
X93298124Y-115746779D02*
X93298124Y-114996779D01*
X98798124Y-115746779D02*
X98798124Y-114996779D01*
X98798124Y-109336779D02*
X93298124Y-109336779D01*
X98798124Y-115746779D02*
X93298124Y-115746779D01*
X98798124Y-109991779D02*
X100548124Y-109991779D01*
D10*
G04 #@! TO.C,U15*
X84848124Y-116366779D02*
X83048124Y-116366779D01*
X83048124Y-113146779D02*
X85498124Y-113146779D01*
G04 #@! TO.C,C76*
X64063748Y-109010000D02*
X64586252Y-109010000D01*
X64063748Y-107590000D02*
X64586252Y-107590000D01*
G04 #@! TO.C,C38*
D11*
X101355266Y-111388921D02*
X101402885Y-111341302D01*
X101450504Y-111198445D01*
X101450504Y-111103207D01*
X101402885Y-110960350D01*
X101307647Y-110865112D01*
X101212409Y-110817493D01*
X101021933Y-110769874D01*
X100879076Y-110769874D01*
X100688600Y-110817493D01*
X100593362Y-110865112D01*
X100498124Y-110960350D01*
X100450504Y-111103207D01*
X100450504Y-111198445D01*
X100498124Y-111341302D01*
X100545743Y-111388921D01*
X100450504Y-111722255D02*
X100450504Y-112341302D01*
X100831457Y-112007969D01*
X100831457Y-112150826D01*
X100879076Y-112246064D01*
X100926695Y-112293683D01*
X101021933Y-112341302D01*
X101260028Y-112341302D01*
X101355266Y-112293683D01*
X101402885Y-112246064D01*
X101450504Y-112150826D01*
X101450504Y-111865112D01*
X101402885Y-111769874D01*
X101355266Y-111722255D01*
X100879076Y-112912731D02*
X100831457Y-112817493D01*
X100783838Y-112769874D01*
X100688600Y-112722255D01*
X100640981Y-112722255D01*
X100545743Y-112769874D01*
X100498124Y-112817493D01*
X100450504Y-112912731D01*
X100450504Y-113103207D01*
X100498124Y-113198445D01*
X100545743Y-113246064D01*
X100640981Y-113293683D01*
X100688600Y-113293683D01*
X100783838Y-113246064D01*
X100831457Y-113198445D01*
X100879076Y-113103207D01*
X100879076Y-112912731D01*
X100926695Y-112817493D01*
X100974314Y-112769874D01*
X101069552Y-112722255D01*
X101260028Y-112722255D01*
X101355266Y-112769874D01*
X101402885Y-112817493D01*
X101450504Y-112912731D01*
X101450504Y-113103207D01*
X101402885Y-113198445D01*
X101355266Y-113246064D01*
X101260028Y-113293683D01*
X101069552Y-113293683D01*
X100974314Y-113246064D01*
X100926695Y-113198445D01*
X100879076Y-113103207D01*
G04 #@! TO.C,C39*
X97565981Y-119013921D02*
X97613600Y-119061540D01*
X97756457Y-119109159D01*
X97851695Y-119109159D01*
X97994552Y-119061540D01*
X98089790Y-118966302D01*
X98137409Y-118871064D01*
X98185028Y-118680588D01*
X98185028Y-118537731D01*
X98137409Y-118347255D01*
X98089790Y-118252017D01*
X97994552Y-118156779D01*
X97851695Y-118109159D01*
X97756457Y-118109159D01*
X97613600Y-118156779D01*
X97565981Y-118204398D01*
X97232647Y-118109159D02*
X96613600Y-118109159D01*
X96946933Y-118490112D01*
X96804076Y-118490112D01*
X96708838Y-118537731D01*
X96661219Y-118585350D01*
X96613600Y-118680588D01*
X96613600Y-118918683D01*
X96661219Y-119013921D01*
X96708838Y-119061540D01*
X96804076Y-119109159D01*
X97089790Y-119109159D01*
X97185028Y-119061540D01*
X97232647Y-119013921D01*
X96137409Y-119109159D02*
X95946933Y-119109159D01*
X95851695Y-119061540D01*
X95804076Y-119013921D01*
X95708838Y-118871064D01*
X95661219Y-118680588D01*
X95661219Y-118299636D01*
X95708838Y-118204398D01*
X95756457Y-118156779D01*
X95851695Y-118109159D01*
X96042171Y-118109159D01*
X96137409Y-118156779D01*
X96185028Y-118204398D01*
X96232647Y-118299636D01*
X96232647Y-118537731D01*
X96185028Y-118632969D01*
X96137409Y-118680588D01*
X96042171Y-118728207D01*
X95851695Y-118728207D01*
X95756457Y-118680588D01*
X95708838Y-118632969D01*
X95661219Y-118537731D01*
G04 #@! TO.C,C43*
X91642857Y-119657142D02*
X91690476Y-119704761D01*
X91833333Y-119752380D01*
X91928571Y-119752380D01*
X92071428Y-119704761D01*
X92166666Y-119609523D01*
X92214285Y-119514285D01*
X92261904Y-119323809D01*
X92261904Y-119180952D01*
X92214285Y-118990476D01*
X92166666Y-118895238D01*
X92071428Y-118800000D01*
X91928571Y-118752380D01*
X91833333Y-118752380D01*
X91690476Y-118800000D01*
X91642857Y-118847619D01*
X90785714Y-119085714D02*
X90785714Y-119752380D01*
X91023809Y-118704761D02*
X91261904Y-119419047D01*
X90642857Y-119419047D01*
X90357142Y-118752380D02*
X89738095Y-118752380D01*
X90071428Y-119133333D01*
X89928571Y-119133333D01*
X89833333Y-119180952D01*
X89785714Y-119228571D01*
X89738095Y-119323809D01*
X89738095Y-119561904D01*
X89785714Y-119657142D01*
X89833333Y-119704761D01*
X89928571Y-119752380D01*
X90214285Y-119752380D01*
X90309523Y-119704761D01*
X90357142Y-119657142D01*
G04 #@! TO.C,C45*
X88342857Y-119657142D02*
X88390476Y-119704761D01*
X88533333Y-119752380D01*
X88628571Y-119752380D01*
X88771428Y-119704761D01*
X88866666Y-119609523D01*
X88914285Y-119514285D01*
X88961904Y-119323809D01*
X88961904Y-119180952D01*
X88914285Y-118990476D01*
X88866666Y-118895238D01*
X88771428Y-118800000D01*
X88628571Y-118752380D01*
X88533333Y-118752380D01*
X88390476Y-118800000D01*
X88342857Y-118847619D01*
X87485714Y-119085714D02*
X87485714Y-119752380D01*
X87723809Y-118704761D02*
X87961904Y-119419047D01*
X87342857Y-119419047D01*
X86485714Y-118752380D02*
X86961904Y-118752380D01*
X87009523Y-119228571D01*
X86961904Y-119180952D01*
X86866666Y-119133333D01*
X86628571Y-119133333D01*
X86533333Y-119180952D01*
X86485714Y-119228571D01*
X86438095Y-119323809D01*
X86438095Y-119561904D01*
X86485714Y-119657142D01*
X86533333Y-119704761D01*
X86628571Y-119752380D01*
X86866666Y-119752380D01*
X86961904Y-119704761D01*
X87009523Y-119657142D01*
G04 #@! TO.C,C50*
X84265981Y-119713921D02*
X84313600Y-119761540D01*
X84456457Y-119809159D01*
X84551695Y-119809159D01*
X84694552Y-119761540D01*
X84789790Y-119666302D01*
X84837409Y-119571064D01*
X84885028Y-119380588D01*
X84885028Y-119237731D01*
X84837409Y-119047255D01*
X84789790Y-118952017D01*
X84694552Y-118856779D01*
X84551695Y-118809159D01*
X84456457Y-118809159D01*
X84313600Y-118856779D01*
X84265981Y-118904398D01*
X83361219Y-118809159D02*
X83837409Y-118809159D01*
X83885028Y-119285350D01*
X83837409Y-119237731D01*
X83742171Y-119190112D01*
X83504076Y-119190112D01*
X83408838Y-119237731D01*
X83361219Y-119285350D01*
X83313600Y-119380588D01*
X83313600Y-119618683D01*
X83361219Y-119713921D01*
X83408838Y-119761540D01*
X83504076Y-119809159D01*
X83742171Y-119809159D01*
X83837409Y-119761540D01*
X83885028Y-119713921D01*
X82694552Y-118809159D02*
X82599314Y-118809159D01*
X82504076Y-118856779D01*
X82456457Y-118904398D01*
X82408838Y-118999636D01*
X82361219Y-119190112D01*
X82361219Y-119428207D01*
X82408838Y-119618683D01*
X82456457Y-119713921D01*
X82504076Y-119761540D01*
X82599314Y-119809159D01*
X82694552Y-119809159D01*
X82789790Y-119761540D01*
X82837409Y-119713921D01*
X82885028Y-119618683D01*
X82932647Y-119428207D01*
X82932647Y-119190112D01*
X82885028Y-118999636D01*
X82837409Y-118904398D01*
X82789790Y-118856779D01*
X82694552Y-118809159D01*
G04 #@! TO.C,C52*
X80757142Y-110857142D02*
X80804761Y-110809523D01*
X80852380Y-110666666D01*
X80852380Y-110571428D01*
X80804761Y-110428571D01*
X80709523Y-110333333D01*
X80614285Y-110285714D01*
X80423809Y-110238095D01*
X80280952Y-110238095D01*
X80090476Y-110285714D01*
X79995238Y-110333333D01*
X79900000Y-110428571D01*
X79852380Y-110571428D01*
X79852380Y-110666666D01*
X79900000Y-110809523D01*
X79947619Y-110857142D01*
X79852380Y-111761904D02*
X79852380Y-111285714D01*
X80328571Y-111238095D01*
X80280952Y-111285714D01*
X80233333Y-111380952D01*
X80233333Y-111619047D01*
X80280952Y-111714285D01*
X80328571Y-111761904D01*
X80423809Y-111809523D01*
X80661904Y-111809523D01*
X80757142Y-111761904D01*
X80804761Y-111714285D01*
X80852380Y-111619047D01*
X80852380Y-111380952D01*
X80804761Y-111285714D01*
X80757142Y-111238095D01*
X79947619Y-112190476D02*
X79900000Y-112238095D01*
X79852380Y-112333333D01*
X79852380Y-112571428D01*
X79900000Y-112666666D01*
X79947619Y-112714285D01*
X80042857Y-112761904D01*
X80138095Y-112761904D01*
X80280952Y-112714285D01*
X80852380Y-112142857D01*
X80852380Y-112761904D01*
G04 #@! TO.C,J25*
X78059523Y-111382380D02*
X78059523Y-112096666D01*
X78107142Y-112239523D01*
X78202380Y-112334761D01*
X78345238Y-112382380D01*
X78440476Y-112382380D01*
X77630952Y-111477619D02*
X77583333Y-111430000D01*
X77488095Y-111382380D01*
X77250000Y-111382380D01*
X77154761Y-111430000D01*
X77107142Y-111477619D01*
X77059523Y-111572857D01*
X77059523Y-111668095D01*
X77107142Y-111810952D01*
X77678571Y-112382380D01*
X77059523Y-112382380D01*
X76154761Y-111382380D02*
X76630952Y-111382380D01*
X76678571Y-111858571D01*
X76630952Y-111810952D01*
X76535714Y-111763333D01*
X76297619Y-111763333D01*
X76202380Y-111810952D01*
X76154761Y-111858571D01*
X76107142Y-111953809D01*
X76107142Y-112191904D01*
X76154761Y-112287142D01*
X76202380Y-112334761D01*
X76297619Y-112382380D01*
X76535714Y-112382380D01*
X76630952Y-112334761D01*
X76678571Y-112287142D01*
G04 #@! TO.C,JP2*
X36833333Y-71752380D02*
X36833333Y-72466666D01*
X36880952Y-72609523D01*
X36976190Y-72704761D01*
X37119047Y-72752380D01*
X37214285Y-72752380D01*
X36357142Y-72752380D02*
X36357142Y-71752380D01*
X35976190Y-71752380D01*
X35880952Y-71800000D01*
X35833333Y-71847619D01*
X35785714Y-71942857D01*
X35785714Y-72085714D01*
X35833333Y-72180952D01*
X35880952Y-72228571D01*
X35976190Y-72276190D01*
X36357142Y-72276190D01*
X35404761Y-71847619D02*
X35357142Y-71800000D01*
X35261904Y-71752380D01*
X35023809Y-71752380D01*
X34928571Y-71800000D01*
X34880952Y-71847619D01*
X34833333Y-71942857D01*
X34833333Y-72038095D01*
X34880952Y-72180952D01*
X35452380Y-72752380D01*
X34833333Y-72752380D01*
G04 #@! TO.C,JP4*
X36633333Y-74452380D02*
X36633333Y-75166666D01*
X36680952Y-75309523D01*
X36776190Y-75404761D01*
X36919047Y-75452380D01*
X37014285Y-75452380D01*
X36157142Y-75452380D02*
X36157142Y-74452380D01*
X35776190Y-74452380D01*
X35680952Y-74500000D01*
X35633333Y-74547619D01*
X35585714Y-74642857D01*
X35585714Y-74785714D01*
X35633333Y-74880952D01*
X35680952Y-74928571D01*
X35776190Y-74976190D01*
X36157142Y-74976190D01*
X34728571Y-74785714D02*
X34728571Y-75452380D01*
X34966666Y-74404761D02*
X35204761Y-75119047D01*
X34585714Y-75119047D01*
G04 #@! TO.C,JP5*
X36433333Y-77052380D02*
X36433333Y-77766666D01*
X36480952Y-77909523D01*
X36576190Y-78004761D01*
X36719047Y-78052380D01*
X36814285Y-78052380D01*
X35957142Y-78052380D02*
X35957142Y-77052380D01*
X35576190Y-77052380D01*
X35480952Y-77100000D01*
X35433333Y-77147619D01*
X35385714Y-77242857D01*
X35385714Y-77385714D01*
X35433333Y-77480952D01*
X35480952Y-77528571D01*
X35576190Y-77576190D01*
X35957142Y-77576190D01*
X34480952Y-77052380D02*
X34957142Y-77052380D01*
X35004761Y-77528571D01*
X34957142Y-77480952D01*
X34861904Y-77433333D01*
X34623809Y-77433333D01*
X34528571Y-77480952D01*
X34480952Y-77528571D01*
X34433333Y-77623809D01*
X34433333Y-77861904D01*
X34480952Y-77957142D01*
X34528571Y-78004761D01*
X34623809Y-78052380D01*
X34861904Y-78052380D01*
X34957142Y-78004761D01*
X35004761Y-77957142D01*
G04 #@! TO.C,JP6*
X36933333Y-79852380D02*
X36933333Y-80566666D01*
X36980952Y-80709523D01*
X37076190Y-80804761D01*
X37219047Y-80852380D01*
X37314285Y-80852380D01*
X36457142Y-80852380D02*
X36457142Y-79852380D01*
X36076190Y-79852380D01*
X35980952Y-79900000D01*
X35933333Y-79947619D01*
X35885714Y-80042857D01*
X35885714Y-80185714D01*
X35933333Y-80280952D01*
X35980952Y-80328571D01*
X36076190Y-80376190D01*
X36457142Y-80376190D01*
X35028571Y-79852380D02*
X35219047Y-79852380D01*
X35314285Y-79900000D01*
X35361904Y-79947619D01*
X35457142Y-80090476D01*
X35504761Y-80280952D01*
X35504761Y-80661904D01*
X35457142Y-80757142D01*
X35409523Y-80804761D01*
X35314285Y-80852380D01*
X35123809Y-80852380D01*
X35028571Y-80804761D01*
X34980952Y-80757142D01*
X34933333Y-80661904D01*
X34933333Y-80423809D01*
X34980952Y-80328571D01*
X35028571Y-80280952D01*
X35123809Y-80233333D01*
X35314285Y-80233333D01*
X35409523Y-80280952D01*
X35457142Y-80328571D01*
X35504761Y-80423809D01*
G04 #@! TO.C,R32*
X94700504Y-106226421D02*
X94224314Y-105893088D01*
X94700504Y-105654993D02*
X93700504Y-105654993D01*
X93700504Y-106035945D01*
X93748124Y-106131183D01*
X93795743Y-106178802D01*
X93890981Y-106226421D01*
X94033838Y-106226421D01*
X94129076Y-106178802D01*
X94176695Y-106131183D01*
X94224314Y-106035945D01*
X94224314Y-105654993D01*
X93700504Y-106559755D02*
X93700504Y-107178802D01*
X94081457Y-106845469D01*
X94081457Y-106988326D01*
X94129076Y-107083564D01*
X94176695Y-107131183D01*
X94271933Y-107178802D01*
X94510028Y-107178802D01*
X94605266Y-107131183D01*
X94652885Y-107083564D01*
X94700504Y-106988326D01*
X94700504Y-106702612D01*
X94652885Y-106607374D01*
X94605266Y-106559755D01*
X93795743Y-107559755D02*
X93748124Y-107607374D01*
X93700504Y-107702612D01*
X93700504Y-107940707D01*
X93748124Y-108035945D01*
X93795743Y-108083564D01*
X93890981Y-108131183D01*
X93986219Y-108131183D01*
X94129076Y-108083564D01*
X94700504Y-107512136D01*
X94700504Y-108131183D01*
G04 #@! TO.C,R33*
X88500504Y-112401421D02*
X88024314Y-112068088D01*
X88500504Y-111829993D02*
X87500504Y-111829993D01*
X87500504Y-112210945D01*
X87548124Y-112306183D01*
X87595743Y-112353802D01*
X87690981Y-112401421D01*
X87833838Y-112401421D01*
X87929076Y-112353802D01*
X87976695Y-112306183D01*
X88024314Y-112210945D01*
X88024314Y-111829993D01*
X87500504Y-112734755D02*
X87500504Y-113353802D01*
X87881457Y-113020469D01*
X87881457Y-113163326D01*
X87929076Y-113258564D01*
X87976695Y-113306183D01*
X88071933Y-113353802D01*
X88310028Y-113353802D01*
X88405266Y-113306183D01*
X88452885Y-113258564D01*
X88500504Y-113163326D01*
X88500504Y-112877612D01*
X88452885Y-112782374D01*
X88405266Y-112734755D01*
X87500504Y-113687136D02*
X87500504Y-114306183D01*
X87881457Y-113972850D01*
X87881457Y-114115707D01*
X87929076Y-114210945D01*
X87976695Y-114258564D01*
X88071933Y-114306183D01*
X88310028Y-114306183D01*
X88405266Y-114258564D01*
X88452885Y-114210945D01*
X88500504Y-114115707D01*
X88500504Y-113829993D01*
X88452885Y-113734755D01*
X88405266Y-113687136D01*
G04 #@! TO.C,R37*
X109542857Y-35352380D02*
X109876190Y-34876190D01*
X110114285Y-35352380D02*
X110114285Y-34352380D01*
X109733333Y-34352380D01*
X109638095Y-34400000D01*
X109590476Y-34447619D01*
X109542857Y-34542857D01*
X109542857Y-34685714D01*
X109590476Y-34780952D01*
X109638095Y-34828571D01*
X109733333Y-34876190D01*
X110114285Y-34876190D01*
X109209523Y-34352380D02*
X108590476Y-34352380D01*
X108923809Y-34733333D01*
X108780952Y-34733333D01*
X108685714Y-34780952D01*
X108638095Y-34828571D01*
X108590476Y-34923809D01*
X108590476Y-35161904D01*
X108638095Y-35257142D01*
X108685714Y-35304761D01*
X108780952Y-35352380D01*
X109066666Y-35352380D01*
X109161904Y-35304761D01*
X109209523Y-35257142D01*
X108257142Y-34352380D02*
X107590476Y-34352380D01*
X108019047Y-35352380D01*
G04 #@! TO.C,R38*
X109442857Y-37852380D02*
X109776190Y-37376190D01*
X110014285Y-37852380D02*
X110014285Y-36852380D01*
X109633333Y-36852380D01*
X109538095Y-36900000D01*
X109490476Y-36947619D01*
X109442857Y-37042857D01*
X109442857Y-37185714D01*
X109490476Y-37280952D01*
X109538095Y-37328571D01*
X109633333Y-37376190D01*
X110014285Y-37376190D01*
X109109523Y-36852380D02*
X108490476Y-36852380D01*
X108823809Y-37233333D01*
X108680952Y-37233333D01*
X108585714Y-37280952D01*
X108538095Y-37328571D01*
X108490476Y-37423809D01*
X108490476Y-37661904D01*
X108538095Y-37757142D01*
X108585714Y-37804761D01*
X108680952Y-37852380D01*
X108966666Y-37852380D01*
X109061904Y-37804761D01*
X109109523Y-37757142D01*
X107919047Y-37280952D02*
X108014285Y-37233333D01*
X108061904Y-37185714D01*
X108109523Y-37090476D01*
X108109523Y-37042857D01*
X108061904Y-36947619D01*
X108014285Y-36900000D01*
X107919047Y-36852380D01*
X107728571Y-36852380D01*
X107633333Y-36900000D01*
X107585714Y-36947619D01*
X107538095Y-37042857D01*
X107538095Y-37090476D01*
X107585714Y-37185714D01*
X107633333Y-37233333D01*
X107728571Y-37280952D01*
X107919047Y-37280952D01*
X108014285Y-37328571D01*
X108061904Y-37376190D01*
X108109523Y-37471428D01*
X108109523Y-37661904D01*
X108061904Y-37757142D01*
X108014285Y-37804761D01*
X107919047Y-37852380D01*
X107728571Y-37852380D01*
X107633333Y-37804761D01*
X107585714Y-37757142D01*
X107538095Y-37661904D01*
X107538095Y-37471428D01*
X107585714Y-37376190D01*
X107633333Y-37328571D01*
X107728571Y-37280952D01*
G04 #@! TO.C,R39*
X102252380Y-29182142D02*
X101776190Y-28848809D01*
X102252380Y-28610714D02*
X101252380Y-28610714D01*
X101252380Y-28991666D01*
X101300000Y-29086904D01*
X101347619Y-29134523D01*
X101442857Y-29182142D01*
X101585714Y-29182142D01*
X101680952Y-29134523D01*
X101728571Y-29086904D01*
X101776190Y-28991666D01*
X101776190Y-28610714D01*
X101252380Y-29515476D02*
X101252380Y-30134523D01*
X101633333Y-29801190D01*
X101633333Y-29944047D01*
X101680952Y-30039285D01*
X101728571Y-30086904D01*
X101823809Y-30134523D01*
X102061904Y-30134523D01*
X102157142Y-30086904D01*
X102204761Y-30039285D01*
X102252380Y-29944047D01*
X102252380Y-29658333D01*
X102204761Y-29563095D01*
X102157142Y-29515476D01*
X102252380Y-30610714D02*
X102252380Y-30801190D01*
X102204761Y-30896428D01*
X102157142Y-30944047D01*
X102014285Y-31039285D01*
X101823809Y-31086904D01*
X101442857Y-31086904D01*
X101347619Y-31039285D01*
X101300000Y-30991666D01*
X101252380Y-30896428D01*
X101252380Y-30705952D01*
X101300000Y-30610714D01*
X101347619Y-30563095D01*
X101442857Y-30515476D01*
X101680952Y-30515476D01*
X101776190Y-30563095D01*
X101823809Y-30610714D01*
X101871428Y-30705952D01*
X101871428Y-30896428D01*
X101823809Y-30991666D01*
X101776190Y-31039285D01*
X101680952Y-31086904D01*
G04 #@! TO.C,R43*
X109242857Y-40652380D02*
X109576190Y-40176190D01*
X109814285Y-40652380D02*
X109814285Y-39652380D01*
X109433333Y-39652380D01*
X109338095Y-39700000D01*
X109290476Y-39747619D01*
X109242857Y-39842857D01*
X109242857Y-39985714D01*
X109290476Y-40080952D01*
X109338095Y-40128571D01*
X109433333Y-40176190D01*
X109814285Y-40176190D01*
X108385714Y-39985714D02*
X108385714Y-40652380D01*
X108623809Y-39604761D02*
X108861904Y-40319047D01*
X108242857Y-40319047D01*
X107957142Y-39652380D02*
X107338095Y-39652380D01*
X107671428Y-40033333D01*
X107528571Y-40033333D01*
X107433333Y-40080952D01*
X107385714Y-40128571D01*
X107338095Y-40223809D01*
X107338095Y-40461904D01*
X107385714Y-40557142D01*
X107433333Y-40604761D01*
X107528571Y-40652380D01*
X107814285Y-40652380D01*
X107909523Y-40604761D01*
X107957142Y-40557142D01*
G04 #@! TO.C,R44*
X107902380Y-28582142D02*
X107426190Y-28248809D01*
X107902380Y-28010714D02*
X106902380Y-28010714D01*
X106902380Y-28391666D01*
X106950000Y-28486904D01*
X106997619Y-28534523D01*
X107092857Y-28582142D01*
X107235714Y-28582142D01*
X107330952Y-28534523D01*
X107378571Y-28486904D01*
X107426190Y-28391666D01*
X107426190Y-28010714D01*
X107235714Y-29439285D02*
X107902380Y-29439285D01*
X106854761Y-29201190D02*
X107569047Y-28963095D01*
X107569047Y-29582142D01*
X107235714Y-30391666D02*
X107902380Y-30391666D01*
X106854761Y-30153571D02*
X107569047Y-29915476D01*
X107569047Y-30534523D01*
G04 #@! TO.C,R45*
X108252380Y-80357142D02*
X107776190Y-80023809D01*
X108252380Y-79785714D02*
X107252380Y-79785714D01*
X107252380Y-80166666D01*
X107300000Y-80261904D01*
X107347619Y-80309523D01*
X107442857Y-80357142D01*
X107585714Y-80357142D01*
X107680952Y-80309523D01*
X107728571Y-80261904D01*
X107776190Y-80166666D01*
X107776190Y-79785714D01*
X107585714Y-81214285D02*
X108252380Y-81214285D01*
X107204761Y-80976190D02*
X107919047Y-80738095D01*
X107919047Y-81357142D01*
X107252380Y-82214285D02*
X107252380Y-81738095D01*
X107728571Y-81690476D01*
X107680952Y-81738095D01*
X107633333Y-81833333D01*
X107633333Y-82071428D01*
X107680952Y-82166666D01*
X107728571Y-82214285D01*
X107823809Y-82261904D01*
X108061904Y-82261904D01*
X108157142Y-82214285D01*
X108204761Y-82166666D01*
X108252380Y-82071428D01*
X108252380Y-81833333D01*
X108204761Y-81738095D01*
X108157142Y-81690476D01*
G04 #@! TO.C,R46*
X102802380Y-80082142D02*
X102326190Y-79748809D01*
X102802380Y-79510714D02*
X101802380Y-79510714D01*
X101802380Y-79891666D01*
X101850000Y-79986904D01*
X101897619Y-80034523D01*
X101992857Y-80082142D01*
X102135714Y-80082142D01*
X102230952Y-80034523D01*
X102278571Y-79986904D01*
X102326190Y-79891666D01*
X102326190Y-79510714D01*
X102135714Y-80939285D02*
X102802380Y-80939285D01*
X101754761Y-80701190D02*
X102469047Y-80463095D01*
X102469047Y-81082142D01*
X101802380Y-81891666D02*
X101802380Y-81701190D01*
X101850000Y-81605952D01*
X101897619Y-81558333D01*
X102040476Y-81463095D01*
X102230952Y-81415476D01*
X102611904Y-81415476D01*
X102707142Y-81463095D01*
X102754761Y-81510714D01*
X102802380Y-81605952D01*
X102802380Y-81796428D01*
X102754761Y-81891666D01*
X102707142Y-81939285D01*
X102611904Y-81986904D01*
X102373809Y-81986904D01*
X102278571Y-81939285D01*
X102230952Y-81891666D01*
X102183333Y-81796428D01*
X102183333Y-81605952D01*
X102230952Y-81510714D01*
X102278571Y-81463095D01*
X102373809Y-81415476D01*
G04 #@! TO.C,R58*
X100252380Y-106226421D02*
X99776190Y-105893088D01*
X100252380Y-105654993D02*
X99252380Y-105654993D01*
X99252380Y-106035945D01*
X99300000Y-106131183D01*
X99347619Y-106178802D01*
X99442857Y-106226421D01*
X99585714Y-106226421D01*
X99680952Y-106178802D01*
X99728571Y-106131183D01*
X99776190Y-106035945D01*
X99776190Y-105654993D01*
X99252380Y-107131183D02*
X99252380Y-106654993D01*
X99728571Y-106607374D01*
X99680952Y-106654993D01*
X99633333Y-106750231D01*
X99633333Y-106988326D01*
X99680952Y-107083564D01*
X99728571Y-107131183D01*
X99823809Y-107178802D01*
X100061904Y-107178802D01*
X100157142Y-107131183D01*
X100204761Y-107083564D01*
X100252380Y-106988326D01*
X100252380Y-106750231D01*
X100204761Y-106654993D01*
X100157142Y-106607374D01*
X99680952Y-107750231D02*
X99633333Y-107654993D01*
X99585714Y-107607374D01*
X99490476Y-107559755D01*
X99442857Y-107559755D01*
X99347619Y-107607374D01*
X99300000Y-107654993D01*
X99252380Y-107750231D01*
X99252380Y-107940707D01*
X99300000Y-108035945D01*
X99347619Y-108083564D01*
X99442857Y-108131183D01*
X99490476Y-108131183D01*
X99585714Y-108083564D01*
X99633333Y-108035945D01*
X99680952Y-107940707D01*
X99680952Y-107750231D01*
X99728571Y-107654993D01*
X99776190Y-107607374D01*
X99871428Y-107559755D01*
X100061904Y-107559755D01*
X100157142Y-107607374D01*
X100204761Y-107654993D01*
X100252380Y-107750231D01*
X100252380Y-107940707D01*
X100204761Y-108035945D01*
X100157142Y-108083564D01*
X100061904Y-108131183D01*
X99871428Y-108131183D01*
X99776190Y-108083564D01*
X99728571Y-108035945D01*
X99680952Y-107940707D01*
G04 #@! TO.C,U15*
X85186219Y-111309159D02*
X85186219Y-112118683D01*
X85138600Y-112213921D01*
X85090981Y-112261540D01*
X84995743Y-112309159D01*
X84805266Y-112309159D01*
X84710028Y-112261540D01*
X84662409Y-112213921D01*
X84614790Y-112118683D01*
X84614790Y-111309159D01*
X83614790Y-112309159D02*
X84186219Y-112309159D01*
X83900504Y-112309159D02*
X83900504Y-111309159D01*
X83995743Y-111452017D01*
X84090981Y-111547255D01*
X84186219Y-111594874D01*
X82710028Y-111309159D02*
X83186219Y-111309159D01*
X83233838Y-111785350D01*
X83186219Y-111737731D01*
X83090981Y-111690112D01*
X82852885Y-111690112D01*
X82757647Y-111737731D01*
X82710028Y-111785350D01*
X82662409Y-111880588D01*
X82662409Y-112118683D01*
X82710028Y-112213921D01*
X82757647Y-112261540D01*
X82852885Y-112309159D01*
X83090981Y-112309159D01*
X83186219Y-112261540D01*
X83233838Y-112213921D01*
G04 #@! TO.C,C76*
X64967857Y-110307142D02*
X65015476Y-110354761D01*
X65158333Y-110402380D01*
X65253571Y-110402380D01*
X65396428Y-110354761D01*
X65491666Y-110259523D01*
X65539285Y-110164285D01*
X65586904Y-109973809D01*
X65586904Y-109830952D01*
X65539285Y-109640476D01*
X65491666Y-109545238D01*
X65396428Y-109450000D01*
X65253571Y-109402380D01*
X65158333Y-109402380D01*
X65015476Y-109450000D01*
X64967857Y-109497619D01*
X64634523Y-109402380D02*
X63967857Y-109402380D01*
X64396428Y-110402380D01*
X63158333Y-109402380D02*
X63348809Y-109402380D01*
X63444047Y-109450000D01*
X63491666Y-109497619D01*
X63586904Y-109640476D01*
X63634523Y-109830952D01*
X63634523Y-110211904D01*
X63586904Y-110307142D01*
X63539285Y-110354761D01*
X63444047Y-110402380D01*
X63253571Y-110402380D01*
X63158333Y-110354761D01*
X63110714Y-110307142D01*
X63063095Y-110211904D01*
X63063095Y-109973809D01*
X63110714Y-109878571D01*
X63158333Y-109830952D01*
X63253571Y-109783333D01*
X63444047Y-109783333D01*
X63539285Y-109830952D01*
X63586904Y-109878571D01*
X63634523Y-109973809D01*
G04 #@! TD*
M02*
