M48
;DRILL file {KiCad (5.0.2)-1} date 15-8-2019 12:32:16
;FORMAT={-:-/ absolute / metric / decimal}
FMAT,2
METRIC,TZ
T1C0.400
T2C0.500
T3C0.700
T4C0.800
T5C1.000
T6C1.520
%
G90
G05
T1
X25.Y-109.4
X27.5Y-55.6
X28.3Y-47.3
X30.Y-36.6
X31.1Y-102.2
X31.1Y-108.
X31.6Y-45.6
X31.85Y-43.35
X32.1Y-49.3
X32.65Y-50.95
X32.85Y-52.5
X33.6Y-65.55
X35.4Y-91.9
X35.6Y-82.1
X36.5Y-34.2
X37.3Y-61.4
X37.475Y-57.7
X37.95Y-49.3
X38.65Y-47.5
X38.7Y-73.7
X40.75Y-62.5
X40.8Y-82.15
X41.4Y-63.4
X41.6Y-92.4
X42.35Y-76.9
X42.65Y-40.9
X42.75Y-46.45
X42.8Y-109.2
X42.9Y-64.2
X42.9Y-107.3
X43.25Y-58.5
X43.7Y-87.35
X44.3Y-47.8
X45.2Y-73.7
X46.3Y-53.2
X47.35Y-68.9
X49.75Y-73.25
X50.7Y-100.1
X50.9Y-102.5
X55.05Y-81.4
X56.45Y-93.9
X56.55Y-92.05
X56.85Y-76.2
X58.85Y-86.4
X60.7Y-108.4
X61.Y-84.55
X65.3Y-106.5
X74.5Y-81.75
X74.5Y-83.8
X77.2Y-76.
X77.95Y-49.35
X79.7Y-105.4
X80.45Y-79.3
X80.9Y-23.
X83.65Y-60.
X83.75Y-57.8
X83.85Y-45.
X84.75Y-55.45
X85.85Y-30.85
X87.9Y-107.2
X87.925Y-41.2
X88.1Y-49.475
X88.34Y-30.8
X89.25Y-47.7
X89.55Y-35.2
X90.1Y-30.02
X90.337Y-46.998
X90.9Y-35.2
X91.15Y-28.65
X91.425Y-38.75
X91.45Y-45.25
X91.8Y-34.2
X93.2Y-105.2
X93.35Y-52.65
X95.Y-45.4
X97.45Y-38.7
X98.5Y-83.95
X98.5Y-85.9
X99.05Y-79.55
X99.1Y-81.
X99.3Y-72.85
X99.8Y-70.9
X99.85Y-88.05
X99.95Y-57.25
X100.75Y-73.2
X101.7Y-32.55
X101.85Y-71.7
X102.35Y-81.75
X102.5Y-64.9
X103.4Y-38.8
X103.4Y-83.35
X104.9Y-48.15
X105.2Y-52.1
X105.2Y-54.
X105.45Y-75.35
X107.4Y-82.95
X108.75Y-77.3
X108.75Y-77.3
X111.45Y-76.2
X111.6Y-33.15
X112.25Y-80.1
T3
X33.5Y-101.9
X48.4Y-86.55
X100.85Y-75.05
X44.3Y-76.25
X36.1Y-101.9
X64.4Y-77.25
X46.9Y-76.25
X113.65Y-82.7
X110.45Y-65.55
X115.15Y-73.2
X67.1Y-77.25
X50.3Y-68.5
X45.75Y-86.55
T4
X111.26Y-51.8
X112.53Y-49.26
X113.8Y-51.8
X115.07Y-49.26
X111.39Y-57.84
X112.66Y-55.3
X113.93Y-57.84
X115.2Y-55.3
T5
X39.86Y-22.96
X39.86Y-25.5
X42.4Y-22.96
X42.4Y-25.5
X41.8Y-100.1
X109.25Y-26.05
X111.79Y-26.05
X94.7Y-63.9
X109.21Y-22.3
X111.75Y-22.3
X81.Y-26.
X83.54Y-26.
X86.08Y-26.
X88.62Y-26.
X92.6Y-22.35
X95.14Y-22.35
X97.68Y-22.35
X100.22Y-22.35
X102.76Y-22.35
X105.3Y-22.35
X69.Y-47.93
X69.Y-50.47
X69.Y-53.01
X69.Y-55.55
X57.95Y-67.9
X50.3Y-108.2
X26.3Y-72.38
X26.3Y-74.92
X26.3Y-77.46
X26.3Y-80.
X28.84Y-72.38
X28.84Y-74.92
X28.84Y-77.46
X28.84Y-80.
X90.5Y-104.2
X85.2Y-101.7
X70.76Y-22.86
X70.76Y-25.4
X73.3Y-22.86
X73.3Y-25.4
X64.75Y-88.05
X82.05Y-76.85
X70.5Y-107.4
X70.5Y-109.94
X77.25Y-114.7
X110.Y-100.16
X110.Y-102.7
X112.54Y-100.16
X112.54Y-102.7
X92.55Y-26.05
X95.09Y-26.05
X97.63Y-26.05
X100.17Y-26.05
X102.71Y-26.05
X105.25Y-26.05
X114.7Y-69.7
X116.05Y-29.74
X116.05Y-32.28
X116.05Y-34.82
X116.05Y-37.36
X116.05Y-39.9
X49.7Y-55.9
X113.95Y-63.5
X105.15Y-66.06
X105.15Y-68.6
T6
X110.15Y-109.25
X110.15Y-114.33
T2
X108.8Y-90.55G85X108.1Y-90.55
G05
X108.8Y-96.95G85X108.1Y-96.95
G05
X116.8Y-90.55G85X116.1Y-90.55
G05
X116.8Y-96.95G85X116.1Y-96.95
G05
X23.35Y-28.75G85X24.05Y-28.75
G05
X23.35Y-35.15G85X24.05Y-35.15
G05
X31.35Y-28.75G85X32.05Y-28.75
G05
X31.35Y-35.15G85X32.05Y-35.15
G05
X23.25Y-91.6G85X23.95Y-91.6
G05
X23.25Y-98.G85X23.95Y-98.
G05
X31.25Y-91.6G85X31.95Y-91.6
G05
X31.25Y-98.G85X31.95Y-98.
G05
T0
M30
