G04 #@! TF.GenerationSoftware,KiCad,Pcbnew,(5.0.2)-1*
G04 #@! TF.CreationDate,2019-08-15T12:32:10+02:00*
G04 #@! TF.ProjectId,ADS1298_FINAL,41445331-3239-4385-9f46-494e414c2e6b,rev?*
G04 #@! TF.SameCoordinates,Original*
G04 #@! TF.FileFunction,Paste,Bot*
G04 #@! TF.FilePolarity,Positive*
%FSLAX46Y46*%
G04 Gerber Fmt 4.6, Leading zero omitted, Abs format (unit mm)*
G04 Created by KiCad (PCBNEW (5.0.2)-1) date 15-8-2019 12:32:10*
%MOMM*%
%LPD*%
G01*
G04 APERTURE LIST*
%ADD10C,0.100000*%
%ADD11C,1.150000*%
%ADD12C,0.975000*%
%ADD13R,1.750000X0.550000*%
%ADD14R,1.560000X0.650000*%
G04 APERTURE END LIST*
D10*
G04 #@! TO.C,C38*
G36*
X103122629Y-110432983D02*
X103146897Y-110436583D01*
X103170696Y-110442544D01*
X103193795Y-110450809D01*
X103215974Y-110461299D01*
X103237017Y-110473911D01*
X103256723Y-110488526D01*
X103274901Y-110505002D01*
X103291377Y-110523180D01*
X103305992Y-110542886D01*
X103318604Y-110563929D01*
X103329094Y-110586108D01*
X103337359Y-110609207D01*
X103343320Y-110633006D01*
X103346920Y-110657274D01*
X103348124Y-110681778D01*
X103348124Y-111331780D01*
X103346920Y-111356284D01*
X103343320Y-111380552D01*
X103337359Y-111404351D01*
X103329094Y-111427450D01*
X103318604Y-111449629D01*
X103305992Y-111470672D01*
X103291377Y-111490378D01*
X103274901Y-111508556D01*
X103256723Y-111525032D01*
X103237017Y-111539647D01*
X103215974Y-111552259D01*
X103193795Y-111562749D01*
X103170696Y-111571014D01*
X103146897Y-111576975D01*
X103122629Y-111580575D01*
X103098125Y-111581779D01*
X102198123Y-111581779D01*
X102173619Y-111580575D01*
X102149351Y-111576975D01*
X102125552Y-111571014D01*
X102102453Y-111562749D01*
X102080274Y-111552259D01*
X102059231Y-111539647D01*
X102039525Y-111525032D01*
X102021347Y-111508556D01*
X102004871Y-111490378D01*
X101990256Y-111470672D01*
X101977644Y-111449629D01*
X101967154Y-111427450D01*
X101958889Y-111404351D01*
X101952928Y-111380552D01*
X101949328Y-111356284D01*
X101948124Y-111331780D01*
X101948124Y-110681778D01*
X101949328Y-110657274D01*
X101952928Y-110633006D01*
X101958889Y-110609207D01*
X101967154Y-110586108D01*
X101977644Y-110563929D01*
X101990256Y-110542886D01*
X102004871Y-110523180D01*
X102021347Y-110505002D01*
X102039525Y-110488526D01*
X102059231Y-110473911D01*
X102080274Y-110461299D01*
X102102453Y-110450809D01*
X102125552Y-110442544D01*
X102149351Y-110436583D01*
X102173619Y-110432983D01*
X102198123Y-110431779D01*
X103098125Y-110431779D01*
X103122629Y-110432983D01*
X103122629Y-110432983D01*
G37*
D11*
X102648124Y-111006779D03*
D10*
G36*
X103122629Y-112482983D02*
X103146897Y-112486583D01*
X103170696Y-112492544D01*
X103193795Y-112500809D01*
X103215974Y-112511299D01*
X103237017Y-112523911D01*
X103256723Y-112538526D01*
X103274901Y-112555002D01*
X103291377Y-112573180D01*
X103305992Y-112592886D01*
X103318604Y-112613929D01*
X103329094Y-112636108D01*
X103337359Y-112659207D01*
X103343320Y-112683006D01*
X103346920Y-112707274D01*
X103348124Y-112731778D01*
X103348124Y-113381780D01*
X103346920Y-113406284D01*
X103343320Y-113430552D01*
X103337359Y-113454351D01*
X103329094Y-113477450D01*
X103318604Y-113499629D01*
X103305992Y-113520672D01*
X103291377Y-113540378D01*
X103274901Y-113558556D01*
X103256723Y-113575032D01*
X103237017Y-113589647D01*
X103215974Y-113602259D01*
X103193795Y-113612749D01*
X103170696Y-113621014D01*
X103146897Y-113626975D01*
X103122629Y-113630575D01*
X103098125Y-113631779D01*
X102198123Y-113631779D01*
X102173619Y-113630575D01*
X102149351Y-113626975D01*
X102125552Y-113621014D01*
X102102453Y-113612749D01*
X102080274Y-113602259D01*
X102059231Y-113589647D01*
X102039525Y-113575032D01*
X102021347Y-113558556D01*
X102004871Y-113540378D01*
X101990256Y-113520672D01*
X101977644Y-113499629D01*
X101967154Y-113477450D01*
X101958889Y-113454351D01*
X101952928Y-113430552D01*
X101949328Y-113406284D01*
X101948124Y-113381780D01*
X101948124Y-112731778D01*
X101949328Y-112707274D01*
X101952928Y-112683006D01*
X101958889Y-112659207D01*
X101967154Y-112636108D01*
X101977644Y-112613929D01*
X101990256Y-112592886D01*
X102004871Y-112573180D01*
X102021347Y-112555002D01*
X102039525Y-112538526D01*
X102059231Y-112523911D01*
X102080274Y-112511299D01*
X102102453Y-112500809D01*
X102125552Y-112492544D01*
X102149351Y-112486583D01*
X102173619Y-112482983D01*
X102198123Y-112481779D01*
X103098125Y-112481779D01*
X103122629Y-112482983D01*
X103122629Y-112482983D01*
G37*
D11*
X102648124Y-113056779D03*
G04 #@! TD*
D10*
G04 #@! TO.C,C39*
G36*
X96253266Y-116307953D02*
X96276927Y-116311463D01*
X96300131Y-116317275D01*
X96322653Y-116325333D01*
X96344277Y-116335561D01*
X96364794Y-116347858D01*
X96384007Y-116362108D01*
X96401731Y-116378172D01*
X96417795Y-116395896D01*
X96432045Y-116415109D01*
X96444342Y-116435626D01*
X96454570Y-116457250D01*
X96462628Y-116479772D01*
X96468440Y-116502976D01*
X96471950Y-116526637D01*
X96473124Y-116550529D01*
X96473124Y-117463029D01*
X96471950Y-117486921D01*
X96468440Y-117510582D01*
X96462628Y-117533786D01*
X96454570Y-117556308D01*
X96444342Y-117577932D01*
X96432045Y-117598449D01*
X96417795Y-117617662D01*
X96401731Y-117635386D01*
X96384007Y-117651450D01*
X96364794Y-117665700D01*
X96344277Y-117677997D01*
X96322653Y-117688225D01*
X96300131Y-117696283D01*
X96276927Y-117702095D01*
X96253266Y-117705605D01*
X96229374Y-117706779D01*
X95741874Y-117706779D01*
X95717982Y-117705605D01*
X95694321Y-117702095D01*
X95671117Y-117696283D01*
X95648595Y-117688225D01*
X95626971Y-117677997D01*
X95606454Y-117665700D01*
X95587241Y-117651450D01*
X95569517Y-117635386D01*
X95553453Y-117617662D01*
X95539203Y-117598449D01*
X95526906Y-117577932D01*
X95516678Y-117556308D01*
X95508620Y-117533786D01*
X95502808Y-117510582D01*
X95499298Y-117486921D01*
X95498124Y-117463029D01*
X95498124Y-116550529D01*
X95499298Y-116526637D01*
X95502808Y-116502976D01*
X95508620Y-116479772D01*
X95516678Y-116457250D01*
X95526906Y-116435626D01*
X95539203Y-116415109D01*
X95553453Y-116395896D01*
X95569517Y-116378172D01*
X95587241Y-116362108D01*
X95606454Y-116347858D01*
X95626971Y-116335561D01*
X95648595Y-116325333D01*
X95671117Y-116317275D01*
X95694321Y-116311463D01*
X95717982Y-116307953D01*
X95741874Y-116306779D01*
X96229374Y-116306779D01*
X96253266Y-116307953D01*
X96253266Y-116307953D01*
G37*
D12*
X95985624Y-117006779D03*
D10*
G36*
X98128266Y-116307953D02*
X98151927Y-116311463D01*
X98175131Y-116317275D01*
X98197653Y-116325333D01*
X98219277Y-116335561D01*
X98239794Y-116347858D01*
X98259007Y-116362108D01*
X98276731Y-116378172D01*
X98292795Y-116395896D01*
X98307045Y-116415109D01*
X98319342Y-116435626D01*
X98329570Y-116457250D01*
X98337628Y-116479772D01*
X98343440Y-116502976D01*
X98346950Y-116526637D01*
X98348124Y-116550529D01*
X98348124Y-117463029D01*
X98346950Y-117486921D01*
X98343440Y-117510582D01*
X98337628Y-117533786D01*
X98329570Y-117556308D01*
X98319342Y-117577932D01*
X98307045Y-117598449D01*
X98292795Y-117617662D01*
X98276731Y-117635386D01*
X98259007Y-117651450D01*
X98239794Y-117665700D01*
X98219277Y-117677997D01*
X98197653Y-117688225D01*
X98175131Y-117696283D01*
X98151927Y-117702095D01*
X98128266Y-117705605D01*
X98104374Y-117706779D01*
X97616874Y-117706779D01*
X97592982Y-117705605D01*
X97569321Y-117702095D01*
X97546117Y-117696283D01*
X97523595Y-117688225D01*
X97501971Y-117677997D01*
X97481454Y-117665700D01*
X97462241Y-117651450D01*
X97444517Y-117635386D01*
X97428453Y-117617662D01*
X97414203Y-117598449D01*
X97401906Y-117577932D01*
X97391678Y-117556308D01*
X97383620Y-117533786D01*
X97377808Y-117510582D01*
X97374298Y-117486921D01*
X97373124Y-117463029D01*
X97373124Y-116550529D01*
X97374298Y-116526637D01*
X97377808Y-116502976D01*
X97383620Y-116479772D01*
X97391678Y-116457250D01*
X97401906Y-116435626D01*
X97414203Y-116415109D01*
X97428453Y-116395896D01*
X97444517Y-116378172D01*
X97462241Y-116362108D01*
X97481454Y-116347858D01*
X97501971Y-116335561D01*
X97523595Y-116325333D01*
X97546117Y-116317275D01*
X97569321Y-116311463D01*
X97592982Y-116307953D01*
X97616874Y-116306779D01*
X98104374Y-116306779D01*
X98128266Y-116307953D01*
X98128266Y-116307953D01*
G37*
D12*
X97860624Y-117006779D03*
G04 #@! TD*
D10*
G04 #@! TO.C,C43*
G36*
X90172629Y-115132983D02*
X90196897Y-115136583D01*
X90220696Y-115142544D01*
X90243795Y-115150809D01*
X90265974Y-115161299D01*
X90287017Y-115173911D01*
X90306723Y-115188526D01*
X90324901Y-115205002D01*
X90341377Y-115223180D01*
X90355992Y-115242886D01*
X90368604Y-115263929D01*
X90379094Y-115286108D01*
X90387359Y-115309207D01*
X90393320Y-115333006D01*
X90396920Y-115357274D01*
X90398124Y-115381778D01*
X90398124Y-116031780D01*
X90396920Y-116056284D01*
X90393320Y-116080552D01*
X90387359Y-116104351D01*
X90379094Y-116127450D01*
X90368604Y-116149629D01*
X90355992Y-116170672D01*
X90341377Y-116190378D01*
X90324901Y-116208556D01*
X90306723Y-116225032D01*
X90287017Y-116239647D01*
X90265974Y-116252259D01*
X90243795Y-116262749D01*
X90220696Y-116271014D01*
X90196897Y-116276975D01*
X90172629Y-116280575D01*
X90148125Y-116281779D01*
X89248123Y-116281779D01*
X89223619Y-116280575D01*
X89199351Y-116276975D01*
X89175552Y-116271014D01*
X89152453Y-116262749D01*
X89130274Y-116252259D01*
X89109231Y-116239647D01*
X89089525Y-116225032D01*
X89071347Y-116208556D01*
X89054871Y-116190378D01*
X89040256Y-116170672D01*
X89027644Y-116149629D01*
X89017154Y-116127450D01*
X89008889Y-116104351D01*
X89002928Y-116080552D01*
X88999328Y-116056284D01*
X88998124Y-116031780D01*
X88998124Y-115381778D01*
X88999328Y-115357274D01*
X89002928Y-115333006D01*
X89008889Y-115309207D01*
X89017154Y-115286108D01*
X89027644Y-115263929D01*
X89040256Y-115242886D01*
X89054871Y-115223180D01*
X89071347Y-115205002D01*
X89089525Y-115188526D01*
X89109231Y-115173911D01*
X89130274Y-115161299D01*
X89152453Y-115150809D01*
X89175552Y-115142544D01*
X89199351Y-115136583D01*
X89223619Y-115132983D01*
X89248123Y-115131779D01*
X90148125Y-115131779D01*
X90172629Y-115132983D01*
X90172629Y-115132983D01*
G37*
D11*
X89698124Y-115706779D03*
D10*
G36*
X90172629Y-117182983D02*
X90196897Y-117186583D01*
X90220696Y-117192544D01*
X90243795Y-117200809D01*
X90265974Y-117211299D01*
X90287017Y-117223911D01*
X90306723Y-117238526D01*
X90324901Y-117255002D01*
X90341377Y-117273180D01*
X90355992Y-117292886D01*
X90368604Y-117313929D01*
X90379094Y-117336108D01*
X90387359Y-117359207D01*
X90393320Y-117383006D01*
X90396920Y-117407274D01*
X90398124Y-117431778D01*
X90398124Y-118081780D01*
X90396920Y-118106284D01*
X90393320Y-118130552D01*
X90387359Y-118154351D01*
X90379094Y-118177450D01*
X90368604Y-118199629D01*
X90355992Y-118220672D01*
X90341377Y-118240378D01*
X90324901Y-118258556D01*
X90306723Y-118275032D01*
X90287017Y-118289647D01*
X90265974Y-118302259D01*
X90243795Y-118312749D01*
X90220696Y-118321014D01*
X90196897Y-118326975D01*
X90172629Y-118330575D01*
X90148125Y-118331779D01*
X89248123Y-118331779D01*
X89223619Y-118330575D01*
X89199351Y-118326975D01*
X89175552Y-118321014D01*
X89152453Y-118312749D01*
X89130274Y-118302259D01*
X89109231Y-118289647D01*
X89089525Y-118275032D01*
X89071347Y-118258556D01*
X89054871Y-118240378D01*
X89040256Y-118220672D01*
X89027644Y-118199629D01*
X89017154Y-118177450D01*
X89008889Y-118154351D01*
X89002928Y-118130552D01*
X88999328Y-118106284D01*
X88998124Y-118081780D01*
X88998124Y-117431778D01*
X88999328Y-117407274D01*
X89002928Y-117383006D01*
X89008889Y-117359207D01*
X89017154Y-117336108D01*
X89027644Y-117313929D01*
X89040256Y-117292886D01*
X89054871Y-117273180D01*
X89071347Y-117255002D01*
X89089525Y-117238526D01*
X89109231Y-117223911D01*
X89130274Y-117211299D01*
X89152453Y-117200809D01*
X89175552Y-117192544D01*
X89199351Y-117186583D01*
X89223619Y-117182983D01*
X89248123Y-117181779D01*
X90148125Y-117181779D01*
X90172629Y-117182983D01*
X90172629Y-117182983D01*
G37*
D11*
X89698124Y-117756779D03*
G04 #@! TD*
D10*
G04 #@! TO.C,C45*
G36*
X88022629Y-117182983D02*
X88046897Y-117186583D01*
X88070696Y-117192544D01*
X88093795Y-117200809D01*
X88115974Y-117211299D01*
X88137017Y-117223911D01*
X88156723Y-117238526D01*
X88174901Y-117255002D01*
X88191377Y-117273180D01*
X88205992Y-117292886D01*
X88218604Y-117313929D01*
X88229094Y-117336108D01*
X88237359Y-117359207D01*
X88243320Y-117383006D01*
X88246920Y-117407274D01*
X88248124Y-117431778D01*
X88248124Y-118081780D01*
X88246920Y-118106284D01*
X88243320Y-118130552D01*
X88237359Y-118154351D01*
X88229094Y-118177450D01*
X88218604Y-118199629D01*
X88205992Y-118220672D01*
X88191377Y-118240378D01*
X88174901Y-118258556D01*
X88156723Y-118275032D01*
X88137017Y-118289647D01*
X88115974Y-118302259D01*
X88093795Y-118312749D01*
X88070696Y-118321014D01*
X88046897Y-118326975D01*
X88022629Y-118330575D01*
X87998125Y-118331779D01*
X87098123Y-118331779D01*
X87073619Y-118330575D01*
X87049351Y-118326975D01*
X87025552Y-118321014D01*
X87002453Y-118312749D01*
X86980274Y-118302259D01*
X86959231Y-118289647D01*
X86939525Y-118275032D01*
X86921347Y-118258556D01*
X86904871Y-118240378D01*
X86890256Y-118220672D01*
X86877644Y-118199629D01*
X86867154Y-118177450D01*
X86858889Y-118154351D01*
X86852928Y-118130552D01*
X86849328Y-118106284D01*
X86848124Y-118081780D01*
X86848124Y-117431778D01*
X86849328Y-117407274D01*
X86852928Y-117383006D01*
X86858889Y-117359207D01*
X86867154Y-117336108D01*
X86877644Y-117313929D01*
X86890256Y-117292886D01*
X86904871Y-117273180D01*
X86921347Y-117255002D01*
X86939525Y-117238526D01*
X86959231Y-117223911D01*
X86980274Y-117211299D01*
X87002453Y-117200809D01*
X87025552Y-117192544D01*
X87049351Y-117186583D01*
X87073619Y-117182983D01*
X87098123Y-117181779D01*
X87998125Y-117181779D01*
X88022629Y-117182983D01*
X88022629Y-117182983D01*
G37*
D11*
X87548124Y-117756779D03*
D10*
G36*
X88022629Y-115132983D02*
X88046897Y-115136583D01*
X88070696Y-115142544D01*
X88093795Y-115150809D01*
X88115974Y-115161299D01*
X88137017Y-115173911D01*
X88156723Y-115188526D01*
X88174901Y-115205002D01*
X88191377Y-115223180D01*
X88205992Y-115242886D01*
X88218604Y-115263929D01*
X88229094Y-115286108D01*
X88237359Y-115309207D01*
X88243320Y-115333006D01*
X88246920Y-115357274D01*
X88248124Y-115381778D01*
X88248124Y-116031780D01*
X88246920Y-116056284D01*
X88243320Y-116080552D01*
X88237359Y-116104351D01*
X88229094Y-116127450D01*
X88218604Y-116149629D01*
X88205992Y-116170672D01*
X88191377Y-116190378D01*
X88174901Y-116208556D01*
X88156723Y-116225032D01*
X88137017Y-116239647D01*
X88115974Y-116252259D01*
X88093795Y-116262749D01*
X88070696Y-116271014D01*
X88046897Y-116276975D01*
X88022629Y-116280575D01*
X87998125Y-116281779D01*
X87098123Y-116281779D01*
X87073619Y-116280575D01*
X87049351Y-116276975D01*
X87025552Y-116271014D01*
X87002453Y-116262749D01*
X86980274Y-116252259D01*
X86959231Y-116239647D01*
X86939525Y-116225032D01*
X86921347Y-116208556D01*
X86904871Y-116190378D01*
X86890256Y-116170672D01*
X86877644Y-116149629D01*
X86867154Y-116127450D01*
X86858889Y-116104351D01*
X86852928Y-116080552D01*
X86849328Y-116056284D01*
X86848124Y-116031780D01*
X86848124Y-115381778D01*
X86849328Y-115357274D01*
X86852928Y-115333006D01*
X86858889Y-115309207D01*
X86867154Y-115286108D01*
X86877644Y-115263929D01*
X86890256Y-115242886D01*
X86904871Y-115223180D01*
X86921347Y-115205002D01*
X86939525Y-115188526D01*
X86959231Y-115173911D01*
X86980274Y-115161299D01*
X87002453Y-115150809D01*
X87025552Y-115142544D01*
X87049351Y-115136583D01*
X87073619Y-115132983D01*
X87098123Y-115131779D01*
X87998125Y-115131779D01*
X88022629Y-115132983D01*
X88022629Y-115132983D01*
G37*
D11*
X87548124Y-115706779D03*
G04 #@! TD*
D10*
G04 #@! TO.C,C50*
G36*
X84997629Y-117007983D02*
X85021897Y-117011583D01*
X85045696Y-117017544D01*
X85068795Y-117025809D01*
X85090974Y-117036299D01*
X85112017Y-117048911D01*
X85131723Y-117063526D01*
X85149901Y-117080002D01*
X85166377Y-117098180D01*
X85180992Y-117117886D01*
X85193604Y-117138929D01*
X85204094Y-117161108D01*
X85212359Y-117184207D01*
X85218320Y-117208006D01*
X85221920Y-117232274D01*
X85223124Y-117256778D01*
X85223124Y-118156780D01*
X85221920Y-118181284D01*
X85218320Y-118205552D01*
X85212359Y-118229351D01*
X85204094Y-118252450D01*
X85193604Y-118274629D01*
X85180992Y-118295672D01*
X85166377Y-118315378D01*
X85149901Y-118333556D01*
X85131723Y-118350032D01*
X85112017Y-118364647D01*
X85090974Y-118377259D01*
X85068795Y-118387749D01*
X85045696Y-118396014D01*
X85021897Y-118401975D01*
X84997629Y-118405575D01*
X84973125Y-118406779D01*
X84323123Y-118406779D01*
X84298619Y-118405575D01*
X84274351Y-118401975D01*
X84250552Y-118396014D01*
X84227453Y-118387749D01*
X84205274Y-118377259D01*
X84184231Y-118364647D01*
X84164525Y-118350032D01*
X84146347Y-118333556D01*
X84129871Y-118315378D01*
X84115256Y-118295672D01*
X84102644Y-118274629D01*
X84092154Y-118252450D01*
X84083889Y-118229351D01*
X84077928Y-118205552D01*
X84074328Y-118181284D01*
X84073124Y-118156780D01*
X84073124Y-117256778D01*
X84074328Y-117232274D01*
X84077928Y-117208006D01*
X84083889Y-117184207D01*
X84092154Y-117161108D01*
X84102644Y-117138929D01*
X84115256Y-117117886D01*
X84129871Y-117098180D01*
X84146347Y-117080002D01*
X84164525Y-117063526D01*
X84184231Y-117048911D01*
X84205274Y-117036299D01*
X84227453Y-117025809D01*
X84250552Y-117017544D01*
X84274351Y-117011583D01*
X84298619Y-117007983D01*
X84323123Y-117006779D01*
X84973125Y-117006779D01*
X84997629Y-117007983D01*
X84997629Y-117007983D01*
G37*
D11*
X84648124Y-117706779D03*
D10*
G36*
X82947629Y-117007983D02*
X82971897Y-117011583D01*
X82995696Y-117017544D01*
X83018795Y-117025809D01*
X83040974Y-117036299D01*
X83062017Y-117048911D01*
X83081723Y-117063526D01*
X83099901Y-117080002D01*
X83116377Y-117098180D01*
X83130992Y-117117886D01*
X83143604Y-117138929D01*
X83154094Y-117161108D01*
X83162359Y-117184207D01*
X83168320Y-117208006D01*
X83171920Y-117232274D01*
X83173124Y-117256778D01*
X83173124Y-118156780D01*
X83171920Y-118181284D01*
X83168320Y-118205552D01*
X83162359Y-118229351D01*
X83154094Y-118252450D01*
X83143604Y-118274629D01*
X83130992Y-118295672D01*
X83116377Y-118315378D01*
X83099901Y-118333556D01*
X83081723Y-118350032D01*
X83062017Y-118364647D01*
X83040974Y-118377259D01*
X83018795Y-118387749D01*
X82995696Y-118396014D01*
X82971897Y-118401975D01*
X82947629Y-118405575D01*
X82923125Y-118406779D01*
X82273123Y-118406779D01*
X82248619Y-118405575D01*
X82224351Y-118401975D01*
X82200552Y-118396014D01*
X82177453Y-118387749D01*
X82155274Y-118377259D01*
X82134231Y-118364647D01*
X82114525Y-118350032D01*
X82096347Y-118333556D01*
X82079871Y-118315378D01*
X82065256Y-118295672D01*
X82052644Y-118274629D01*
X82042154Y-118252450D01*
X82033889Y-118229351D01*
X82027928Y-118205552D01*
X82024328Y-118181284D01*
X82023124Y-118156780D01*
X82023124Y-117256778D01*
X82024328Y-117232274D01*
X82027928Y-117208006D01*
X82033889Y-117184207D01*
X82042154Y-117161108D01*
X82052644Y-117138929D01*
X82065256Y-117117886D01*
X82079871Y-117098180D01*
X82096347Y-117080002D01*
X82114525Y-117063526D01*
X82134231Y-117048911D01*
X82155274Y-117036299D01*
X82177453Y-117025809D01*
X82200552Y-117017544D01*
X82224351Y-117011583D01*
X82248619Y-117007983D01*
X82273123Y-117006779D01*
X82923125Y-117006779D01*
X82947629Y-117007983D01*
X82947629Y-117007983D01*
G37*
D11*
X82598124Y-117706779D03*
G04 #@! TD*
D10*
G04 #@! TO.C,C52*
G36*
X80722629Y-113182983D02*
X80746897Y-113186583D01*
X80770696Y-113192544D01*
X80793795Y-113200809D01*
X80815974Y-113211299D01*
X80837017Y-113223911D01*
X80856723Y-113238526D01*
X80874901Y-113255002D01*
X80891377Y-113273180D01*
X80905992Y-113292886D01*
X80918604Y-113313929D01*
X80929094Y-113336108D01*
X80937359Y-113359207D01*
X80943320Y-113383006D01*
X80946920Y-113407274D01*
X80948124Y-113431778D01*
X80948124Y-114081780D01*
X80946920Y-114106284D01*
X80943320Y-114130552D01*
X80937359Y-114154351D01*
X80929094Y-114177450D01*
X80918604Y-114199629D01*
X80905992Y-114220672D01*
X80891377Y-114240378D01*
X80874901Y-114258556D01*
X80856723Y-114275032D01*
X80837017Y-114289647D01*
X80815974Y-114302259D01*
X80793795Y-114312749D01*
X80770696Y-114321014D01*
X80746897Y-114326975D01*
X80722629Y-114330575D01*
X80698125Y-114331779D01*
X79798123Y-114331779D01*
X79773619Y-114330575D01*
X79749351Y-114326975D01*
X79725552Y-114321014D01*
X79702453Y-114312749D01*
X79680274Y-114302259D01*
X79659231Y-114289647D01*
X79639525Y-114275032D01*
X79621347Y-114258556D01*
X79604871Y-114240378D01*
X79590256Y-114220672D01*
X79577644Y-114199629D01*
X79567154Y-114177450D01*
X79558889Y-114154351D01*
X79552928Y-114130552D01*
X79549328Y-114106284D01*
X79548124Y-114081780D01*
X79548124Y-113431778D01*
X79549328Y-113407274D01*
X79552928Y-113383006D01*
X79558889Y-113359207D01*
X79567154Y-113336108D01*
X79577644Y-113313929D01*
X79590256Y-113292886D01*
X79604871Y-113273180D01*
X79621347Y-113255002D01*
X79639525Y-113238526D01*
X79659231Y-113223911D01*
X79680274Y-113211299D01*
X79702453Y-113200809D01*
X79725552Y-113192544D01*
X79749351Y-113186583D01*
X79773619Y-113182983D01*
X79798123Y-113181779D01*
X80698125Y-113181779D01*
X80722629Y-113182983D01*
X80722629Y-113182983D01*
G37*
D11*
X80248124Y-113756779D03*
D10*
G36*
X80722629Y-115232983D02*
X80746897Y-115236583D01*
X80770696Y-115242544D01*
X80793795Y-115250809D01*
X80815974Y-115261299D01*
X80837017Y-115273911D01*
X80856723Y-115288526D01*
X80874901Y-115305002D01*
X80891377Y-115323180D01*
X80905992Y-115342886D01*
X80918604Y-115363929D01*
X80929094Y-115386108D01*
X80937359Y-115409207D01*
X80943320Y-115433006D01*
X80946920Y-115457274D01*
X80948124Y-115481778D01*
X80948124Y-116131780D01*
X80946920Y-116156284D01*
X80943320Y-116180552D01*
X80937359Y-116204351D01*
X80929094Y-116227450D01*
X80918604Y-116249629D01*
X80905992Y-116270672D01*
X80891377Y-116290378D01*
X80874901Y-116308556D01*
X80856723Y-116325032D01*
X80837017Y-116339647D01*
X80815974Y-116352259D01*
X80793795Y-116362749D01*
X80770696Y-116371014D01*
X80746897Y-116376975D01*
X80722629Y-116380575D01*
X80698125Y-116381779D01*
X79798123Y-116381779D01*
X79773619Y-116380575D01*
X79749351Y-116376975D01*
X79725552Y-116371014D01*
X79702453Y-116362749D01*
X79680274Y-116352259D01*
X79659231Y-116339647D01*
X79639525Y-116325032D01*
X79621347Y-116308556D01*
X79604871Y-116290378D01*
X79590256Y-116270672D01*
X79577644Y-116249629D01*
X79567154Y-116227450D01*
X79558889Y-116204351D01*
X79552928Y-116180552D01*
X79549328Y-116156284D01*
X79548124Y-116131780D01*
X79548124Y-115481778D01*
X79549328Y-115457274D01*
X79552928Y-115433006D01*
X79558889Y-115409207D01*
X79567154Y-115386108D01*
X79577644Y-115363929D01*
X79590256Y-115342886D01*
X79604871Y-115323180D01*
X79621347Y-115305002D01*
X79639525Y-115288526D01*
X79659231Y-115273911D01*
X79680274Y-115261299D01*
X79702453Y-115250809D01*
X79725552Y-115242544D01*
X79749351Y-115236583D01*
X79773619Y-115232983D01*
X79798123Y-115231779D01*
X80698125Y-115231779D01*
X80722629Y-115232983D01*
X80722629Y-115232983D01*
G37*
D11*
X80248124Y-115806779D03*
G04 #@! TD*
D10*
G04 #@! TO.C,R32*
G36*
X96378266Y-105445453D02*
X96401927Y-105448963D01*
X96425131Y-105454775D01*
X96447653Y-105462833D01*
X96469277Y-105473061D01*
X96489794Y-105485358D01*
X96509007Y-105499608D01*
X96526731Y-105515672D01*
X96542795Y-105533396D01*
X96557045Y-105552609D01*
X96569342Y-105573126D01*
X96579570Y-105594750D01*
X96587628Y-105617272D01*
X96593440Y-105640476D01*
X96596950Y-105664137D01*
X96598124Y-105688029D01*
X96598124Y-106175529D01*
X96596950Y-106199421D01*
X96593440Y-106223082D01*
X96587628Y-106246286D01*
X96579570Y-106268808D01*
X96569342Y-106290432D01*
X96557045Y-106310949D01*
X96542795Y-106330162D01*
X96526731Y-106347886D01*
X96509007Y-106363950D01*
X96489794Y-106378200D01*
X96469277Y-106390497D01*
X96447653Y-106400725D01*
X96425131Y-106408783D01*
X96401927Y-106414595D01*
X96378266Y-106418105D01*
X96354374Y-106419279D01*
X95441874Y-106419279D01*
X95417982Y-106418105D01*
X95394321Y-106414595D01*
X95371117Y-106408783D01*
X95348595Y-106400725D01*
X95326971Y-106390497D01*
X95306454Y-106378200D01*
X95287241Y-106363950D01*
X95269517Y-106347886D01*
X95253453Y-106330162D01*
X95239203Y-106310949D01*
X95226906Y-106290432D01*
X95216678Y-106268808D01*
X95208620Y-106246286D01*
X95202808Y-106223082D01*
X95199298Y-106199421D01*
X95198124Y-106175529D01*
X95198124Y-105688029D01*
X95199298Y-105664137D01*
X95202808Y-105640476D01*
X95208620Y-105617272D01*
X95216678Y-105594750D01*
X95226906Y-105573126D01*
X95239203Y-105552609D01*
X95253453Y-105533396D01*
X95269517Y-105515672D01*
X95287241Y-105499608D01*
X95306454Y-105485358D01*
X95326971Y-105473061D01*
X95348595Y-105462833D01*
X95371117Y-105454775D01*
X95394321Y-105448963D01*
X95417982Y-105445453D01*
X95441874Y-105444279D01*
X96354374Y-105444279D01*
X96378266Y-105445453D01*
X96378266Y-105445453D01*
G37*
D12*
X95898124Y-105931779D03*
D10*
G36*
X96378266Y-107320453D02*
X96401927Y-107323963D01*
X96425131Y-107329775D01*
X96447653Y-107337833D01*
X96469277Y-107348061D01*
X96489794Y-107360358D01*
X96509007Y-107374608D01*
X96526731Y-107390672D01*
X96542795Y-107408396D01*
X96557045Y-107427609D01*
X96569342Y-107448126D01*
X96579570Y-107469750D01*
X96587628Y-107492272D01*
X96593440Y-107515476D01*
X96596950Y-107539137D01*
X96598124Y-107563029D01*
X96598124Y-108050529D01*
X96596950Y-108074421D01*
X96593440Y-108098082D01*
X96587628Y-108121286D01*
X96579570Y-108143808D01*
X96569342Y-108165432D01*
X96557045Y-108185949D01*
X96542795Y-108205162D01*
X96526731Y-108222886D01*
X96509007Y-108238950D01*
X96489794Y-108253200D01*
X96469277Y-108265497D01*
X96447653Y-108275725D01*
X96425131Y-108283783D01*
X96401927Y-108289595D01*
X96378266Y-108293105D01*
X96354374Y-108294279D01*
X95441874Y-108294279D01*
X95417982Y-108293105D01*
X95394321Y-108289595D01*
X95371117Y-108283783D01*
X95348595Y-108275725D01*
X95326971Y-108265497D01*
X95306454Y-108253200D01*
X95287241Y-108238950D01*
X95269517Y-108222886D01*
X95253453Y-108205162D01*
X95239203Y-108185949D01*
X95226906Y-108165432D01*
X95216678Y-108143808D01*
X95208620Y-108121286D01*
X95202808Y-108098082D01*
X95199298Y-108074421D01*
X95198124Y-108050529D01*
X95198124Y-107563029D01*
X95199298Y-107539137D01*
X95202808Y-107515476D01*
X95208620Y-107492272D01*
X95216678Y-107469750D01*
X95226906Y-107448126D01*
X95239203Y-107427609D01*
X95253453Y-107408396D01*
X95269517Y-107390672D01*
X95287241Y-107374608D01*
X95306454Y-107360358D01*
X95326971Y-107348061D01*
X95348595Y-107337833D01*
X95371117Y-107329775D01*
X95394321Y-107323963D01*
X95417982Y-107320453D01*
X95441874Y-107319279D01*
X96354374Y-107319279D01*
X96378266Y-107320453D01*
X96378266Y-107320453D01*
G37*
D12*
X95898124Y-107806779D03*
G04 #@! TD*
D10*
G04 #@! TO.C,R33*
G36*
X90178266Y-113495453D02*
X90201927Y-113498963D01*
X90225131Y-113504775D01*
X90247653Y-113512833D01*
X90269277Y-113523061D01*
X90289794Y-113535358D01*
X90309007Y-113549608D01*
X90326731Y-113565672D01*
X90342795Y-113583396D01*
X90357045Y-113602609D01*
X90369342Y-113623126D01*
X90379570Y-113644750D01*
X90387628Y-113667272D01*
X90393440Y-113690476D01*
X90396950Y-113714137D01*
X90398124Y-113738029D01*
X90398124Y-114225529D01*
X90396950Y-114249421D01*
X90393440Y-114273082D01*
X90387628Y-114296286D01*
X90379570Y-114318808D01*
X90369342Y-114340432D01*
X90357045Y-114360949D01*
X90342795Y-114380162D01*
X90326731Y-114397886D01*
X90309007Y-114413950D01*
X90289794Y-114428200D01*
X90269277Y-114440497D01*
X90247653Y-114450725D01*
X90225131Y-114458783D01*
X90201927Y-114464595D01*
X90178266Y-114468105D01*
X90154374Y-114469279D01*
X89241874Y-114469279D01*
X89217982Y-114468105D01*
X89194321Y-114464595D01*
X89171117Y-114458783D01*
X89148595Y-114450725D01*
X89126971Y-114440497D01*
X89106454Y-114428200D01*
X89087241Y-114413950D01*
X89069517Y-114397886D01*
X89053453Y-114380162D01*
X89039203Y-114360949D01*
X89026906Y-114340432D01*
X89016678Y-114318808D01*
X89008620Y-114296286D01*
X89002808Y-114273082D01*
X88999298Y-114249421D01*
X88998124Y-114225529D01*
X88998124Y-113738029D01*
X88999298Y-113714137D01*
X89002808Y-113690476D01*
X89008620Y-113667272D01*
X89016678Y-113644750D01*
X89026906Y-113623126D01*
X89039203Y-113602609D01*
X89053453Y-113583396D01*
X89069517Y-113565672D01*
X89087241Y-113549608D01*
X89106454Y-113535358D01*
X89126971Y-113523061D01*
X89148595Y-113512833D01*
X89171117Y-113504775D01*
X89194321Y-113498963D01*
X89217982Y-113495453D01*
X89241874Y-113494279D01*
X90154374Y-113494279D01*
X90178266Y-113495453D01*
X90178266Y-113495453D01*
G37*
D12*
X89698124Y-113981779D03*
D10*
G36*
X90178266Y-111620453D02*
X90201927Y-111623963D01*
X90225131Y-111629775D01*
X90247653Y-111637833D01*
X90269277Y-111648061D01*
X90289794Y-111660358D01*
X90309007Y-111674608D01*
X90326731Y-111690672D01*
X90342795Y-111708396D01*
X90357045Y-111727609D01*
X90369342Y-111748126D01*
X90379570Y-111769750D01*
X90387628Y-111792272D01*
X90393440Y-111815476D01*
X90396950Y-111839137D01*
X90398124Y-111863029D01*
X90398124Y-112350529D01*
X90396950Y-112374421D01*
X90393440Y-112398082D01*
X90387628Y-112421286D01*
X90379570Y-112443808D01*
X90369342Y-112465432D01*
X90357045Y-112485949D01*
X90342795Y-112505162D01*
X90326731Y-112522886D01*
X90309007Y-112538950D01*
X90289794Y-112553200D01*
X90269277Y-112565497D01*
X90247653Y-112575725D01*
X90225131Y-112583783D01*
X90201927Y-112589595D01*
X90178266Y-112593105D01*
X90154374Y-112594279D01*
X89241874Y-112594279D01*
X89217982Y-112593105D01*
X89194321Y-112589595D01*
X89171117Y-112583783D01*
X89148595Y-112575725D01*
X89126971Y-112565497D01*
X89106454Y-112553200D01*
X89087241Y-112538950D01*
X89069517Y-112522886D01*
X89053453Y-112505162D01*
X89039203Y-112485949D01*
X89026906Y-112465432D01*
X89016678Y-112443808D01*
X89008620Y-112421286D01*
X89002808Y-112398082D01*
X88999298Y-112374421D01*
X88998124Y-112350529D01*
X88998124Y-111863029D01*
X88999298Y-111839137D01*
X89002808Y-111815476D01*
X89008620Y-111792272D01*
X89016678Y-111769750D01*
X89026906Y-111748126D01*
X89039203Y-111727609D01*
X89053453Y-111708396D01*
X89069517Y-111690672D01*
X89087241Y-111674608D01*
X89106454Y-111660358D01*
X89126971Y-111648061D01*
X89148595Y-111637833D01*
X89171117Y-111629775D01*
X89194321Y-111623963D01*
X89217982Y-111620453D01*
X89241874Y-111619279D01*
X90154374Y-111619279D01*
X90178266Y-111620453D01*
X90178266Y-111620453D01*
G37*
D12*
X89698124Y-112106779D03*
G04 #@! TD*
D10*
G04 #@! TO.C,R37*
G36*
X113549505Y-34101204D02*
X113573773Y-34104804D01*
X113597572Y-34110765D01*
X113620671Y-34119030D01*
X113642850Y-34129520D01*
X113663893Y-34142132D01*
X113683599Y-34156747D01*
X113701777Y-34173223D01*
X113718253Y-34191401D01*
X113732868Y-34211107D01*
X113745480Y-34232150D01*
X113755970Y-34254329D01*
X113764235Y-34277428D01*
X113770196Y-34301227D01*
X113773796Y-34325495D01*
X113775000Y-34349999D01*
X113775000Y-35250001D01*
X113773796Y-35274505D01*
X113770196Y-35298773D01*
X113764235Y-35322572D01*
X113755970Y-35345671D01*
X113745480Y-35367850D01*
X113732868Y-35388893D01*
X113718253Y-35408599D01*
X113701777Y-35426777D01*
X113683599Y-35443253D01*
X113663893Y-35457868D01*
X113642850Y-35470480D01*
X113620671Y-35480970D01*
X113597572Y-35489235D01*
X113573773Y-35495196D01*
X113549505Y-35498796D01*
X113525001Y-35500000D01*
X112874999Y-35500000D01*
X112850495Y-35498796D01*
X112826227Y-35495196D01*
X112802428Y-35489235D01*
X112779329Y-35480970D01*
X112757150Y-35470480D01*
X112736107Y-35457868D01*
X112716401Y-35443253D01*
X112698223Y-35426777D01*
X112681747Y-35408599D01*
X112667132Y-35388893D01*
X112654520Y-35367850D01*
X112644030Y-35345671D01*
X112635765Y-35322572D01*
X112629804Y-35298773D01*
X112626204Y-35274505D01*
X112625000Y-35250001D01*
X112625000Y-34349999D01*
X112626204Y-34325495D01*
X112629804Y-34301227D01*
X112635765Y-34277428D01*
X112644030Y-34254329D01*
X112654520Y-34232150D01*
X112667132Y-34211107D01*
X112681747Y-34191401D01*
X112698223Y-34173223D01*
X112716401Y-34156747D01*
X112736107Y-34142132D01*
X112757150Y-34129520D01*
X112779329Y-34119030D01*
X112802428Y-34110765D01*
X112826227Y-34104804D01*
X112850495Y-34101204D01*
X112874999Y-34100000D01*
X113525001Y-34100000D01*
X113549505Y-34101204D01*
X113549505Y-34101204D01*
G37*
D11*
X113200000Y-34800000D03*
D10*
G36*
X111499505Y-34101204D02*
X111523773Y-34104804D01*
X111547572Y-34110765D01*
X111570671Y-34119030D01*
X111592850Y-34129520D01*
X111613893Y-34142132D01*
X111633599Y-34156747D01*
X111651777Y-34173223D01*
X111668253Y-34191401D01*
X111682868Y-34211107D01*
X111695480Y-34232150D01*
X111705970Y-34254329D01*
X111714235Y-34277428D01*
X111720196Y-34301227D01*
X111723796Y-34325495D01*
X111725000Y-34349999D01*
X111725000Y-35250001D01*
X111723796Y-35274505D01*
X111720196Y-35298773D01*
X111714235Y-35322572D01*
X111705970Y-35345671D01*
X111695480Y-35367850D01*
X111682868Y-35388893D01*
X111668253Y-35408599D01*
X111651777Y-35426777D01*
X111633599Y-35443253D01*
X111613893Y-35457868D01*
X111592850Y-35470480D01*
X111570671Y-35480970D01*
X111547572Y-35489235D01*
X111523773Y-35495196D01*
X111499505Y-35498796D01*
X111475001Y-35500000D01*
X110824999Y-35500000D01*
X110800495Y-35498796D01*
X110776227Y-35495196D01*
X110752428Y-35489235D01*
X110729329Y-35480970D01*
X110707150Y-35470480D01*
X110686107Y-35457868D01*
X110666401Y-35443253D01*
X110648223Y-35426777D01*
X110631747Y-35408599D01*
X110617132Y-35388893D01*
X110604520Y-35367850D01*
X110594030Y-35345671D01*
X110585765Y-35322572D01*
X110579804Y-35298773D01*
X110576204Y-35274505D01*
X110575000Y-35250001D01*
X110575000Y-34349999D01*
X110576204Y-34325495D01*
X110579804Y-34301227D01*
X110585765Y-34277428D01*
X110594030Y-34254329D01*
X110604520Y-34232150D01*
X110617132Y-34211107D01*
X110631747Y-34191401D01*
X110648223Y-34173223D01*
X110666401Y-34156747D01*
X110686107Y-34142132D01*
X110707150Y-34129520D01*
X110729329Y-34119030D01*
X110752428Y-34110765D01*
X110776227Y-34104804D01*
X110800495Y-34101204D01*
X110824999Y-34100000D01*
X111475001Y-34100000D01*
X111499505Y-34101204D01*
X111499505Y-34101204D01*
G37*
D11*
X111150000Y-34800000D03*
G04 #@! TD*
D10*
G04 #@! TO.C,R38*
G36*
X111499505Y-36651204D02*
X111523773Y-36654804D01*
X111547572Y-36660765D01*
X111570671Y-36669030D01*
X111592850Y-36679520D01*
X111613893Y-36692132D01*
X111633599Y-36706747D01*
X111651777Y-36723223D01*
X111668253Y-36741401D01*
X111682868Y-36761107D01*
X111695480Y-36782150D01*
X111705970Y-36804329D01*
X111714235Y-36827428D01*
X111720196Y-36851227D01*
X111723796Y-36875495D01*
X111725000Y-36899999D01*
X111725000Y-37800001D01*
X111723796Y-37824505D01*
X111720196Y-37848773D01*
X111714235Y-37872572D01*
X111705970Y-37895671D01*
X111695480Y-37917850D01*
X111682868Y-37938893D01*
X111668253Y-37958599D01*
X111651777Y-37976777D01*
X111633599Y-37993253D01*
X111613893Y-38007868D01*
X111592850Y-38020480D01*
X111570671Y-38030970D01*
X111547572Y-38039235D01*
X111523773Y-38045196D01*
X111499505Y-38048796D01*
X111475001Y-38050000D01*
X110824999Y-38050000D01*
X110800495Y-38048796D01*
X110776227Y-38045196D01*
X110752428Y-38039235D01*
X110729329Y-38030970D01*
X110707150Y-38020480D01*
X110686107Y-38007868D01*
X110666401Y-37993253D01*
X110648223Y-37976777D01*
X110631747Y-37958599D01*
X110617132Y-37938893D01*
X110604520Y-37917850D01*
X110594030Y-37895671D01*
X110585765Y-37872572D01*
X110579804Y-37848773D01*
X110576204Y-37824505D01*
X110575000Y-37800001D01*
X110575000Y-36899999D01*
X110576204Y-36875495D01*
X110579804Y-36851227D01*
X110585765Y-36827428D01*
X110594030Y-36804329D01*
X110604520Y-36782150D01*
X110617132Y-36761107D01*
X110631747Y-36741401D01*
X110648223Y-36723223D01*
X110666401Y-36706747D01*
X110686107Y-36692132D01*
X110707150Y-36679520D01*
X110729329Y-36669030D01*
X110752428Y-36660765D01*
X110776227Y-36654804D01*
X110800495Y-36651204D01*
X110824999Y-36650000D01*
X111475001Y-36650000D01*
X111499505Y-36651204D01*
X111499505Y-36651204D01*
G37*
D11*
X111150000Y-37350000D03*
D10*
G36*
X113549505Y-36651204D02*
X113573773Y-36654804D01*
X113597572Y-36660765D01*
X113620671Y-36669030D01*
X113642850Y-36679520D01*
X113663893Y-36692132D01*
X113683599Y-36706747D01*
X113701777Y-36723223D01*
X113718253Y-36741401D01*
X113732868Y-36761107D01*
X113745480Y-36782150D01*
X113755970Y-36804329D01*
X113764235Y-36827428D01*
X113770196Y-36851227D01*
X113773796Y-36875495D01*
X113775000Y-36899999D01*
X113775000Y-37800001D01*
X113773796Y-37824505D01*
X113770196Y-37848773D01*
X113764235Y-37872572D01*
X113755970Y-37895671D01*
X113745480Y-37917850D01*
X113732868Y-37938893D01*
X113718253Y-37958599D01*
X113701777Y-37976777D01*
X113683599Y-37993253D01*
X113663893Y-38007868D01*
X113642850Y-38020480D01*
X113620671Y-38030970D01*
X113597572Y-38039235D01*
X113573773Y-38045196D01*
X113549505Y-38048796D01*
X113525001Y-38050000D01*
X112874999Y-38050000D01*
X112850495Y-38048796D01*
X112826227Y-38045196D01*
X112802428Y-38039235D01*
X112779329Y-38030970D01*
X112757150Y-38020480D01*
X112736107Y-38007868D01*
X112716401Y-37993253D01*
X112698223Y-37976777D01*
X112681747Y-37958599D01*
X112667132Y-37938893D01*
X112654520Y-37917850D01*
X112644030Y-37895671D01*
X112635765Y-37872572D01*
X112629804Y-37848773D01*
X112626204Y-37824505D01*
X112625000Y-37800001D01*
X112625000Y-36899999D01*
X112626204Y-36875495D01*
X112629804Y-36851227D01*
X112635765Y-36827428D01*
X112644030Y-36804329D01*
X112654520Y-36782150D01*
X112667132Y-36761107D01*
X112681747Y-36741401D01*
X112698223Y-36723223D01*
X112716401Y-36706747D01*
X112736107Y-36692132D01*
X112757150Y-36679520D01*
X112779329Y-36669030D01*
X112802428Y-36660765D01*
X112826227Y-36654804D01*
X112850495Y-36651204D01*
X112874999Y-36650000D01*
X113525001Y-36650000D01*
X113549505Y-36651204D01*
X113549505Y-36651204D01*
G37*
D11*
X113200000Y-37350000D03*
G04 #@! TD*
D10*
G04 #@! TO.C,R39*
G36*
X100624505Y-28226204D02*
X100648773Y-28229804D01*
X100672572Y-28235765D01*
X100695671Y-28244030D01*
X100717850Y-28254520D01*
X100738893Y-28267132D01*
X100758599Y-28281747D01*
X100776777Y-28298223D01*
X100793253Y-28316401D01*
X100807868Y-28336107D01*
X100820480Y-28357150D01*
X100830970Y-28379329D01*
X100839235Y-28402428D01*
X100845196Y-28426227D01*
X100848796Y-28450495D01*
X100850000Y-28474999D01*
X100850000Y-29125001D01*
X100848796Y-29149505D01*
X100845196Y-29173773D01*
X100839235Y-29197572D01*
X100830970Y-29220671D01*
X100820480Y-29242850D01*
X100807868Y-29263893D01*
X100793253Y-29283599D01*
X100776777Y-29301777D01*
X100758599Y-29318253D01*
X100738893Y-29332868D01*
X100717850Y-29345480D01*
X100695671Y-29355970D01*
X100672572Y-29364235D01*
X100648773Y-29370196D01*
X100624505Y-29373796D01*
X100600001Y-29375000D01*
X99699999Y-29375000D01*
X99675495Y-29373796D01*
X99651227Y-29370196D01*
X99627428Y-29364235D01*
X99604329Y-29355970D01*
X99582150Y-29345480D01*
X99561107Y-29332868D01*
X99541401Y-29318253D01*
X99523223Y-29301777D01*
X99506747Y-29283599D01*
X99492132Y-29263893D01*
X99479520Y-29242850D01*
X99469030Y-29220671D01*
X99460765Y-29197572D01*
X99454804Y-29173773D01*
X99451204Y-29149505D01*
X99450000Y-29125001D01*
X99450000Y-28474999D01*
X99451204Y-28450495D01*
X99454804Y-28426227D01*
X99460765Y-28402428D01*
X99469030Y-28379329D01*
X99479520Y-28357150D01*
X99492132Y-28336107D01*
X99506747Y-28316401D01*
X99523223Y-28298223D01*
X99541401Y-28281747D01*
X99561107Y-28267132D01*
X99582150Y-28254520D01*
X99604329Y-28244030D01*
X99627428Y-28235765D01*
X99651227Y-28229804D01*
X99675495Y-28226204D01*
X99699999Y-28225000D01*
X100600001Y-28225000D01*
X100624505Y-28226204D01*
X100624505Y-28226204D01*
G37*
D11*
X100150000Y-28800000D03*
D10*
G36*
X100624505Y-30276204D02*
X100648773Y-30279804D01*
X100672572Y-30285765D01*
X100695671Y-30294030D01*
X100717850Y-30304520D01*
X100738893Y-30317132D01*
X100758599Y-30331747D01*
X100776777Y-30348223D01*
X100793253Y-30366401D01*
X100807868Y-30386107D01*
X100820480Y-30407150D01*
X100830970Y-30429329D01*
X100839235Y-30452428D01*
X100845196Y-30476227D01*
X100848796Y-30500495D01*
X100850000Y-30524999D01*
X100850000Y-31175001D01*
X100848796Y-31199505D01*
X100845196Y-31223773D01*
X100839235Y-31247572D01*
X100830970Y-31270671D01*
X100820480Y-31292850D01*
X100807868Y-31313893D01*
X100793253Y-31333599D01*
X100776777Y-31351777D01*
X100758599Y-31368253D01*
X100738893Y-31382868D01*
X100717850Y-31395480D01*
X100695671Y-31405970D01*
X100672572Y-31414235D01*
X100648773Y-31420196D01*
X100624505Y-31423796D01*
X100600001Y-31425000D01*
X99699999Y-31425000D01*
X99675495Y-31423796D01*
X99651227Y-31420196D01*
X99627428Y-31414235D01*
X99604329Y-31405970D01*
X99582150Y-31395480D01*
X99561107Y-31382868D01*
X99541401Y-31368253D01*
X99523223Y-31351777D01*
X99506747Y-31333599D01*
X99492132Y-31313893D01*
X99479520Y-31292850D01*
X99469030Y-31270671D01*
X99460765Y-31247572D01*
X99454804Y-31223773D01*
X99451204Y-31199505D01*
X99450000Y-31175001D01*
X99450000Y-30524999D01*
X99451204Y-30500495D01*
X99454804Y-30476227D01*
X99460765Y-30452428D01*
X99469030Y-30429329D01*
X99479520Y-30407150D01*
X99492132Y-30386107D01*
X99506747Y-30366401D01*
X99523223Y-30348223D01*
X99541401Y-30331747D01*
X99561107Y-30317132D01*
X99582150Y-30304520D01*
X99604329Y-30294030D01*
X99627428Y-30285765D01*
X99651227Y-30279804D01*
X99675495Y-30276204D01*
X99699999Y-30275000D01*
X100600001Y-30275000D01*
X100624505Y-30276204D01*
X100624505Y-30276204D01*
G37*
D11*
X100150000Y-30850000D03*
G04 #@! TD*
D10*
G04 #@! TO.C,R43*
G36*
X111549505Y-39251204D02*
X111573773Y-39254804D01*
X111597572Y-39260765D01*
X111620671Y-39269030D01*
X111642850Y-39279520D01*
X111663893Y-39292132D01*
X111683599Y-39306747D01*
X111701777Y-39323223D01*
X111718253Y-39341401D01*
X111732868Y-39361107D01*
X111745480Y-39382150D01*
X111755970Y-39404329D01*
X111764235Y-39427428D01*
X111770196Y-39451227D01*
X111773796Y-39475495D01*
X111775000Y-39499999D01*
X111775000Y-40400001D01*
X111773796Y-40424505D01*
X111770196Y-40448773D01*
X111764235Y-40472572D01*
X111755970Y-40495671D01*
X111745480Y-40517850D01*
X111732868Y-40538893D01*
X111718253Y-40558599D01*
X111701777Y-40576777D01*
X111683599Y-40593253D01*
X111663893Y-40607868D01*
X111642850Y-40620480D01*
X111620671Y-40630970D01*
X111597572Y-40639235D01*
X111573773Y-40645196D01*
X111549505Y-40648796D01*
X111525001Y-40650000D01*
X110874999Y-40650000D01*
X110850495Y-40648796D01*
X110826227Y-40645196D01*
X110802428Y-40639235D01*
X110779329Y-40630970D01*
X110757150Y-40620480D01*
X110736107Y-40607868D01*
X110716401Y-40593253D01*
X110698223Y-40576777D01*
X110681747Y-40558599D01*
X110667132Y-40538893D01*
X110654520Y-40517850D01*
X110644030Y-40495671D01*
X110635765Y-40472572D01*
X110629804Y-40448773D01*
X110626204Y-40424505D01*
X110625000Y-40400001D01*
X110625000Y-39499999D01*
X110626204Y-39475495D01*
X110629804Y-39451227D01*
X110635765Y-39427428D01*
X110644030Y-39404329D01*
X110654520Y-39382150D01*
X110667132Y-39361107D01*
X110681747Y-39341401D01*
X110698223Y-39323223D01*
X110716401Y-39306747D01*
X110736107Y-39292132D01*
X110757150Y-39279520D01*
X110779329Y-39269030D01*
X110802428Y-39260765D01*
X110826227Y-39254804D01*
X110850495Y-39251204D01*
X110874999Y-39250000D01*
X111525001Y-39250000D01*
X111549505Y-39251204D01*
X111549505Y-39251204D01*
G37*
D11*
X111200000Y-39950000D03*
D10*
G36*
X113599505Y-39251204D02*
X113623773Y-39254804D01*
X113647572Y-39260765D01*
X113670671Y-39269030D01*
X113692850Y-39279520D01*
X113713893Y-39292132D01*
X113733599Y-39306747D01*
X113751777Y-39323223D01*
X113768253Y-39341401D01*
X113782868Y-39361107D01*
X113795480Y-39382150D01*
X113805970Y-39404329D01*
X113814235Y-39427428D01*
X113820196Y-39451227D01*
X113823796Y-39475495D01*
X113825000Y-39499999D01*
X113825000Y-40400001D01*
X113823796Y-40424505D01*
X113820196Y-40448773D01*
X113814235Y-40472572D01*
X113805970Y-40495671D01*
X113795480Y-40517850D01*
X113782868Y-40538893D01*
X113768253Y-40558599D01*
X113751777Y-40576777D01*
X113733599Y-40593253D01*
X113713893Y-40607868D01*
X113692850Y-40620480D01*
X113670671Y-40630970D01*
X113647572Y-40639235D01*
X113623773Y-40645196D01*
X113599505Y-40648796D01*
X113575001Y-40650000D01*
X112924999Y-40650000D01*
X112900495Y-40648796D01*
X112876227Y-40645196D01*
X112852428Y-40639235D01*
X112829329Y-40630970D01*
X112807150Y-40620480D01*
X112786107Y-40607868D01*
X112766401Y-40593253D01*
X112748223Y-40576777D01*
X112731747Y-40558599D01*
X112717132Y-40538893D01*
X112704520Y-40517850D01*
X112694030Y-40495671D01*
X112685765Y-40472572D01*
X112679804Y-40448773D01*
X112676204Y-40424505D01*
X112675000Y-40400001D01*
X112675000Y-39499999D01*
X112676204Y-39475495D01*
X112679804Y-39451227D01*
X112685765Y-39427428D01*
X112694030Y-39404329D01*
X112704520Y-39382150D01*
X112717132Y-39361107D01*
X112731747Y-39341401D01*
X112748223Y-39323223D01*
X112766401Y-39306747D01*
X112786107Y-39292132D01*
X112807150Y-39279520D01*
X112829329Y-39269030D01*
X112852428Y-39260765D01*
X112876227Y-39254804D01*
X112900495Y-39251204D01*
X112924999Y-39250000D01*
X113575001Y-39250000D01*
X113599505Y-39251204D01*
X113599505Y-39251204D01*
G37*
D11*
X113250000Y-39950000D03*
G04 #@! TD*
D10*
G04 #@! TO.C,R44*
G36*
X109574505Y-27626204D02*
X109598773Y-27629804D01*
X109622572Y-27635765D01*
X109645671Y-27644030D01*
X109667850Y-27654520D01*
X109688893Y-27667132D01*
X109708599Y-27681747D01*
X109726777Y-27698223D01*
X109743253Y-27716401D01*
X109757868Y-27736107D01*
X109770480Y-27757150D01*
X109780970Y-27779329D01*
X109789235Y-27802428D01*
X109795196Y-27826227D01*
X109798796Y-27850495D01*
X109800000Y-27874999D01*
X109800000Y-28525001D01*
X109798796Y-28549505D01*
X109795196Y-28573773D01*
X109789235Y-28597572D01*
X109780970Y-28620671D01*
X109770480Y-28642850D01*
X109757868Y-28663893D01*
X109743253Y-28683599D01*
X109726777Y-28701777D01*
X109708599Y-28718253D01*
X109688893Y-28732868D01*
X109667850Y-28745480D01*
X109645671Y-28755970D01*
X109622572Y-28764235D01*
X109598773Y-28770196D01*
X109574505Y-28773796D01*
X109550001Y-28775000D01*
X108649999Y-28775000D01*
X108625495Y-28773796D01*
X108601227Y-28770196D01*
X108577428Y-28764235D01*
X108554329Y-28755970D01*
X108532150Y-28745480D01*
X108511107Y-28732868D01*
X108491401Y-28718253D01*
X108473223Y-28701777D01*
X108456747Y-28683599D01*
X108442132Y-28663893D01*
X108429520Y-28642850D01*
X108419030Y-28620671D01*
X108410765Y-28597572D01*
X108404804Y-28573773D01*
X108401204Y-28549505D01*
X108400000Y-28525001D01*
X108400000Y-27874999D01*
X108401204Y-27850495D01*
X108404804Y-27826227D01*
X108410765Y-27802428D01*
X108419030Y-27779329D01*
X108429520Y-27757150D01*
X108442132Y-27736107D01*
X108456747Y-27716401D01*
X108473223Y-27698223D01*
X108491401Y-27681747D01*
X108511107Y-27667132D01*
X108532150Y-27654520D01*
X108554329Y-27644030D01*
X108577428Y-27635765D01*
X108601227Y-27629804D01*
X108625495Y-27626204D01*
X108649999Y-27625000D01*
X109550001Y-27625000D01*
X109574505Y-27626204D01*
X109574505Y-27626204D01*
G37*
D11*
X109100000Y-28200000D03*
D10*
G36*
X109574505Y-29676204D02*
X109598773Y-29679804D01*
X109622572Y-29685765D01*
X109645671Y-29694030D01*
X109667850Y-29704520D01*
X109688893Y-29717132D01*
X109708599Y-29731747D01*
X109726777Y-29748223D01*
X109743253Y-29766401D01*
X109757868Y-29786107D01*
X109770480Y-29807150D01*
X109780970Y-29829329D01*
X109789235Y-29852428D01*
X109795196Y-29876227D01*
X109798796Y-29900495D01*
X109800000Y-29924999D01*
X109800000Y-30575001D01*
X109798796Y-30599505D01*
X109795196Y-30623773D01*
X109789235Y-30647572D01*
X109780970Y-30670671D01*
X109770480Y-30692850D01*
X109757868Y-30713893D01*
X109743253Y-30733599D01*
X109726777Y-30751777D01*
X109708599Y-30768253D01*
X109688893Y-30782868D01*
X109667850Y-30795480D01*
X109645671Y-30805970D01*
X109622572Y-30814235D01*
X109598773Y-30820196D01*
X109574505Y-30823796D01*
X109550001Y-30825000D01*
X108649999Y-30825000D01*
X108625495Y-30823796D01*
X108601227Y-30820196D01*
X108577428Y-30814235D01*
X108554329Y-30805970D01*
X108532150Y-30795480D01*
X108511107Y-30782868D01*
X108491401Y-30768253D01*
X108473223Y-30751777D01*
X108456747Y-30733599D01*
X108442132Y-30713893D01*
X108429520Y-30692850D01*
X108419030Y-30670671D01*
X108410765Y-30647572D01*
X108404804Y-30623773D01*
X108401204Y-30599505D01*
X108400000Y-30575001D01*
X108400000Y-29924999D01*
X108401204Y-29900495D01*
X108404804Y-29876227D01*
X108410765Y-29852428D01*
X108419030Y-29829329D01*
X108429520Y-29807150D01*
X108442132Y-29786107D01*
X108456747Y-29766401D01*
X108473223Y-29748223D01*
X108491401Y-29731747D01*
X108511107Y-29717132D01*
X108532150Y-29704520D01*
X108554329Y-29694030D01*
X108577428Y-29685765D01*
X108601227Y-29679804D01*
X108625495Y-29676204D01*
X108649999Y-29675000D01*
X109550001Y-29675000D01*
X109574505Y-29676204D01*
X109574505Y-29676204D01*
G37*
D11*
X109100000Y-30250000D03*
G04 #@! TD*
D10*
G04 #@! TO.C,R45*
G36*
X106424505Y-81176204D02*
X106448773Y-81179804D01*
X106472572Y-81185765D01*
X106495671Y-81194030D01*
X106517850Y-81204520D01*
X106538893Y-81217132D01*
X106558599Y-81231747D01*
X106576777Y-81248223D01*
X106593253Y-81266401D01*
X106607868Y-81286107D01*
X106620480Y-81307150D01*
X106630970Y-81329329D01*
X106639235Y-81352428D01*
X106645196Y-81376227D01*
X106648796Y-81400495D01*
X106650000Y-81424999D01*
X106650000Y-82075001D01*
X106648796Y-82099505D01*
X106645196Y-82123773D01*
X106639235Y-82147572D01*
X106630970Y-82170671D01*
X106620480Y-82192850D01*
X106607868Y-82213893D01*
X106593253Y-82233599D01*
X106576777Y-82251777D01*
X106558599Y-82268253D01*
X106538893Y-82282868D01*
X106517850Y-82295480D01*
X106495671Y-82305970D01*
X106472572Y-82314235D01*
X106448773Y-82320196D01*
X106424505Y-82323796D01*
X106400001Y-82325000D01*
X105499999Y-82325000D01*
X105475495Y-82323796D01*
X105451227Y-82320196D01*
X105427428Y-82314235D01*
X105404329Y-82305970D01*
X105382150Y-82295480D01*
X105361107Y-82282868D01*
X105341401Y-82268253D01*
X105323223Y-82251777D01*
X105306747Y-82233599D01*
X105292132Y-82213893D01*
X105279520Y-82192850D01*
X105269030Y-82170671D01*
X105260765Y-82147572D01*
X105254804Y-82123773D01*
X105251204Y-82099505D01*
X105250000Y-82075001D01*
X105250000Y-81424999D01*
X105251204Y-81400495D01*
X105254804Y-81376227D01*
X105260765Y-81352428D01*
X105269030Y-81329329D01*
X105279520Y-81307150D01*
X105292132Y-81286107D01*
X105306747Y-81266401D01*
X105323223Y-81248223D01*
X105341401Y-81231747D01*
X105361107Y-81217132D01*
X105382150Y-81204520D01*
X105404329Y-81194030D01*
X105427428Y-81185765D01*
X105451227Y-81179804D01*
X105475495Y-81176204D01*
X105499999Y-81175000D01*
X106400001Y-81175000D01*
X106424505Y-81176204D01*
X106424505Y-81176204D01*
G37*
D11*
X105950000Y-81750000D03*
D10*
G36*
X106424505Y-79126204D02*
X106448773Y-79129804D01*
X106472572Y-79135765D01*
X106495671Y-79144030D01*
X106517850Y-79154520D01*
X106538893Y-79167132D01*
X106558599Y-79181747D01*
X106576777Y-79198223D01*
X106593253Y-79216401D01*
X106607868Y-79236107D01*
X106620480Y-79257150D01*
X106630970Y-79279329D01*
X106639235Y-79302428D01*
X106645196Y-79326227D01*
X106648796Y-79350495D01*
X106650000Y-79374999D01*
X106650000Y-80025001D01*
X106648796Y-80049505D01*
X106645196Y-80073773D01*
X106639235Y-80097572D01*
X106630970Y-80120671D01*
X106620480Y-80142850D01*
X106607868Y-80163893D01*
X106593253Y-80183599D01*
X106576777Y-80201777D01*
X106558599Y-80218253D01*
X106538893Y-80232868D01*
X106517850Y-80245480D01*
X106495671Y-80255970D01*
X106472572Y-80264235D01*
X106448773Y-80270196D01*
X106424505Y-80273796D01*
X106400001Y-80275000D01*
X105499999Y-80275000D01*
X105475495Y-80273796D01*
X105451227Y-80270196D01*
X105427428Y-80264235D01*
X105404329Y-80255970D01*
X105382150Y-80245480D01*
X105361107Y-80232868D01*
X105341401Y-80218253D01*
X105323223Y-80201777D01*
X105306747Y-80183599D01*
X105292132Y-80163893D01*
X105279520Y-80142850D01*
X105269030Y-80120671D01*
X105260765Y-80097572D01*
X105254804Y-80073773D01*
X105251204Y-80049505D01*
X105250000Y-80025001D01*
X105250000Y-79374999D01*
X105251204Y-79350495D01*
X105254804Y-79326227D01*
X105260765Y-79302428D01*
X105269030Y-79279329D01*
X105279520Y-79257150D01*
X105292132Y-79236107D01*
X105306747Y-79216401D01*
X105323223Y-79198223D01*
X105341401Y-79181747D01*
X105361107Y-79167132D01*
X105382150Y-79154520D01*
X105404329Y-79144030D01*
X105427428Y-79135765D01*
X105451227Y-79129804D01*
X105475495Y-79126204D01*
X105499999Y-79125000D01*
X106400001Y-79125000D01*
X106424505Y-79126204D01*
X106424505Y-79126204D01*
G37*
D11*
X105950000Y-79700000D03*
G04 #@! TD*
D10*
G04 #@! TO.C,R46*
G36*
X104474505Y-79126204D02*
X104498773Y-79129804D01*
X104522572Y-79135765D01*
X104545671Y-79144030D01*
X104567850Y-79154520D01*
X104588893Y-79167132D01*
X104608599Y-79181747D01*
X104626777Y-79198223D01*
X104643253Y-79216401D01*
X104657868Y-79236107D01*
X104670480Y-79257150D01*
X104680970Y-79279329D01*
X104689235Y-79302428D01*
X104695196Y-79326227D01*
X104698796Y-79350495D01*
X104700000Y-79374999D01*
X104700000Y-80025001D01*
X104698796Y-80049505D01*
X104695196Y-80073773D01*
X104689235Y-80097572D01*
X104680970Y-80120671D01*
X104670480Y-80142850D01*
X104657868Y-80163893D01*
X104643253Y-80183599D01*
X104626777Y-80201777D01*
X104608599Y-80218253D01*
X104588893Y-80232868D01*
X104567850Y-80245480D01*
X104545671Y-80255970D01*
X104522572Y-80264235D01*
X104498773Y-80270196D01*
X104474505Y-80273796D01*
X104450001Y-80275000D01*
X103549999Y-80275000D01*
X103525495Y-80273796D01*
X103501227Y-80270196D01*
X103477428Y-80264235D01*
X103454329Y-80255970D01*
X103432150Y-80245480D01*
X103411107Y-80232868D01*
X103391401Y-80218253D01*
X103373223Y-80201777D01*
X103356747Y-80183599D01*
X103342132Y-80163893D01*
X103329520Y-80142850D01*
X103319030Y-80120671D01*
X103310765Y-80097572D01*
X103304804Y-80073773D01*
X103301204Y-80049505D01*
X103300000Y-80025001D01*
X103300000Y-79374999D01*
X103301204Y-79350495D01*
X103304804Y-79326227D01*
X103310765Y-79302428D01*
X103319030Y-79279329D01*
X103329520Y-79257150D01*
X103342132Y-79236107D01*
X103356747Y-79216401D01*
X103373223Y-79198223D01*
X103391401Y-79181747D01*
X103411107Y-79167132D01*
X103432150Y-79154520D01*
X103454329Y-79144030D01*
X103477428Y-79135765D01*
X103501227Y-79129804D01*
X103525495Y-79126204D01*
X103549999Y-79125000D01*
X104450001Y-79125000D01*
X104474505Y-79126204D01*
X104474505Y-79126204D01*
G37*
D11*
X104000000Y-79700000D03*
D10*
G36*
X104474505Y-81176204D02*
X104498773Y-81179804D01*
X104522572Y-81185765D01*
X104545671Y-81194030D01*
X104567850Y-81204520D01*
X104588893Y-81217132D01*
X104608599Y-81231747D01*
X104626777Y-81248223D01*
X104643253Y-81266401D01*
X104657868Y-81286107D01*
X104670480Y-81307150D01*
X104680970Y-81329329D01*
X104689235Y-81352428D01*
X104695196Y-81376227D01*
X104698796Y-81400495D01*
X104700000Y-81424999D01*
X104700000Y-82075001D01*
X104698796Y-82099505D01*
X104695196Y-82123773D01*
X104689235Y-82147572D01*
X104680970Y-82170671D01*
X104670480Y-82192850D01*
X104657868Y-82213893D01*
X104643253Y-82233599D01*
X104626777Y-82251777D01*
X104608599Y-82268253D01*
X104588893Y-82282868D01*
X104567850Y-82295480D01*
X104545671Y-82305970D01*
X104522572Y-82314235D01*
X104498773Y-82320196D01*
X104474505Y-82323796D01*
X104450001Y-82325000D01*
X103549999Y-82325000D01*
X103525495Y-82323796D01*
X103501227Y-82320196D01*
X103477428Y-82314235D01*
X103454329Y-82305970D01*
X103432150Y-82295480D01*
X103411107Y-82282868D01*
X103391401Y-82268253D01*
X103373223Y-82251777D01*
X103356747Y-82233599D01*
X103342132Y-82213893D01*
X103329520Y-82192850D01*
X103319030Y-82170671D01*
X103310765Y-82147572D01*
X103304804Y-82123773D01*
X103301204Y-82099505D01*
X103300000Y-82075001D01*
X103300000Y-81424999D01*
X103301204Y-81400495D01*
X103304804Y-81376227D01*
X103310765Y-81352428D01*
X103319030Y-81329329D01*
X103329520Y-81307150D01*
X103342132Y-81286107D01*
X103356747Y-81266401D01*
X103373223Y-81248223D01*
X103391401Y-81231747D01*
X103411107Y-81217132D01*
X103432150Y-81204520D01*
X103454329Y-81194030D01*
X103477428Y-81185765D01*
X103501227Y-81179804D01*
X103525495Y-81176204D01*
X103549999Y-81175000D01*
X104450001Y-81175000D01*
X104474505Y-81176204D01*
X104474505Y-81176204D01*
G37*
D11*
X104000000Y-81750000D03*
G04 #@! TD*
D10*
G04 #@! TO.C,R58*
G36*
X98428266Y-105445453D02*
X98451927Y-105448963D01*
X98475131Y-105454775D01*
X98497653Y-105462833D01*
X98519277Y-105473061D01*
X98539794Y-105485358D01*
X98559007Y-105499608D01*
X98576731Y-105515672D01*
X98592795Y-105533396D01*
X98607045Y-105552609D01*
X98619342Y-105573126D01*
X98629570Y-105594750D01*
X98637628Y-105617272D01*
X98643440Y-105640476D01*
X98646950Y-105664137D01*
X98648124Y-105688029D01*
X98648124Y-106175529D01*
X98646950Y-106199421D01*
X98643440Y-106223082D01*
X98637628Y-106246286D01*
X98629570Y-106268808D01*
X98619342Y-106290432D01*
X98607045Y-106310949D01*
X98592795Y-106330162D01*
X98576731Y-106347886D01*
X98559007Y-106363950D01*
X98539794Y-106378200D01*
X98519277Y-106390497D01*
X98497653Y-106400725D01*
X98475131Y-106408783D01*
X98451927Y-106414595D01*
X98428266Y-106418105D01*
X98404374Y-106419279D01*
X97491874Y-106419279D01*
X97467982Y-106418105D01*
X97444321Y-106414595D01*
X97421117Y-106408783D01*
X97398595Y-106400725D01*
X97376971Y-106390497D01*
X97356454Y-106378200D01*
X97337241Y-106363950D01*
X97319517Y-106347886D01*
X97303453Y-106330162D01*
X97289203Y-106310949D01*
X97276906Y-106290432D01*
X97266678Y-106268808D01*
X97258620Y-106246286D01*
X97252808Y-106223082D01*
X97249298Y-106199421D01*
X97248124Y-106175529D01*
X97248124Y-105688029D01*
X97249298Y-105664137D01*
X97252808Y-105640476D01*
X97258620Y-105617272D01*
X97266678Y-105594750D01*
X97276906Y-105573126D01*
X97289203Y-105552609D01*
X97303453Y-105533396D01*
X97319517Y-105515672D01*
X97337241Y-105499608D01*
X97356454Y-105485358D01*
X97376971Y-105473061D01*
X97398595Y-105462833D01*
X97421117Y-105454775D01*
X97444321Y-105448963D01*
X97467982Y-105445453D01*
X97491874Y-105444279D01*
X98404374Y-105444279D01*
X98428266Y-105445453D01*
X98428266Y-105445453D01*
G37*
D12*
X97948124Y-105931779D03*
D10*
G36*
X98428266Y-107320453D02*
X98451927Y-107323963D01*
X98475131Y-107329775D01*
X98497653Y-107337833D01*
X98519277Y-107348061D01*
X98539794Y-107360358D01*
X98559007Y-107374608D01*
X98576731Y-107390672D01*
X98592795Y-107408396D01*
X98607045Y-107427609D01*
X98619342Y-107448126D01*
X98629570Y-107469750D01*
X98637628Y-107492272D01*
X98643440Y-107515476D01*
X98646950Y-107539137D01*
X98648124Y-107563029D01*
X98648124Y-108050529D01*
X98646950Y-108074421D01*
X98643440Y-108098082D01*
X98637628Y-108121286D01*
X98629570Y-108143808D01*
X98619342Y-108165432D01*
X98607045Y-108185949D01*
X98592795Y-108205162D01*
X98576731Y-108222886D01*
X98559007Y-108238950D01*
X98539794Y-108253200D01*
X98519277Y-108265497D01*
X98497653Y-108275725D01*
X98475131Y-108283783D01*
X98451927Y-108289595D01*
X98428266Y-108293105D01*
X98404374Y-108294279D01*
X97491874Y-108294279D01*
X97467982Y-108293105D01*
X97444321Y-108289595D01*
X97421117Y-108283783D01*
X97398595Y-108275725D01*
X97376971Y-108265497D01*
X97356454Y-108253200D01*
X97337241Y-108238950D01*
X97319517Y-108222886D01*
X97303453Y-108205162D01*
X97289203Y-108185949D01*
X97276906Y-108165432D01*
X97266678Y-108143808D01*
X97258620Y-108121286D01*
X97252808Y-108098082D01*
X97249298Y-108074421D01*
X97248124Y-108050529D01*
X97248124Y-107563029D01*
X97249298Y-107539137D01*
X97252808Y-107515476D01*
X97258620Y-107492272D01*
X97266678Y-107469750D01*
X97276906Y-107448126D01*
X97289203Y-107427609D01*
X97303453Y-107408396D01*
X97319517Y-107390672D01*
X97337241Y-107374608D01*
X97356454Y-107360358D01*
X97376971Y-107348061D01*
X97398595Y-107337833D01*
X97421117Y-107329775D01*
X97444321Y-107323963D01*
X97467982Y-107320453D01*
X97491874Y-107319279D01*
X98404374Y-107319279D01*
X98428266Y-107320453D01*
X98428266Y-107320453D01*
G37*
D12*
X97948124Y-107806779D03*
G04 #@! TD*
D13*
G04 #@! TO.C,U14*
X99748124Y-110636779D03*
X99748124Y-111906779D03*
X99748124Y-113176779D03*
X99748124Y-114446779D03*
X92348124Y-114446779D03*
X92348124Y-113176779D03*
X92348124Y-111906779D03*
X92348124Y-110636779D03*
G04 #@! TD*
D14*
G04 #@! TO.C,U15*
X85298124Y-113806779D03*
X85298124Y-114756779D03*
X85298124Y-115706779D03*
X82598124Y-115706779D03*
X82598124Y-113806779D03*
G04 #@! TD*
D10*
G04 #@! TO.C,C76*
G36*
X63649505Y-107601204D02*
X63673773Y-107604804D01*
X63697572Y-107610765D01*
X63720671Y-107619030D01*
X63742850Y-107629520D01*
X63763893Y-107642132D01*
X63783599Y-107656747D01*
X63801777Y-107673223D01*
X63818253Y-107691401D01*
X63832868Y-107711107D01*
X63845480Y-107732150D01*
X63855970Y-107754329D01*
X63864235Y-107777428D01*
X63870196Y-107801227D01*
X63873796Y-107825495D01*
X63875000Y-107849999D01*
X63875000Y-108750001D01*
X63873796Y-108774505D01*
X63870196Y-108798773D01*
X63864235Y-108822572D01*
X63855970Y-108845671D01*
X63845480Y-108867850D01*
X63832868Y-108888893D01*
X63818253Y-108908599D01*
X63801777Y-108926777D01*
X63783599Y-108943253D01*
X63763893Y-108957868D01*
X63742850Y-108970480D01*
X63720671Y-108980970D01*
X63697572Y-108989235D01*
X63673773Y-108995196D01*
X63649505Y-108998796D01*
X63625001Y-109000000D01*
X62974999Y-109000000D01*
X62950495Y-108998796D01*
X62926227Y-108995196D01*
X62902428Y-108989235D01*
X62879329Y-108980970D01*
X62857150Y-108970480D01*
X62836107Y-108957868D01*
X62816401Y-108943253D01*
X62798223Y-108926777D01*
X62781747Y-108908599D01*
X62767132Y-108888893D01*
X62754520Y-108867850D01*
X62744030Y-108845671D01*
X62735765Y-108822572D01*
X62729804Y-108798773D01*
X62726204Y-108774505D01*
X62725000Y-108750001D01*
X62725000Y-107849999D01*
X62726204Y-107825495D01*
X62729804Y-107801227D01*
X62735765Y-107777428D01*
X62744030Y-107754329D01*
X62754520Y-107732150D01*
X62767132Y-107711107D01*
X62781747Y-107691401D01*
X62798223Y-107673223D01*
X62816401Y-107656747D01*
X62836107Y-107642132D01*
X62857150Y-107629520D01*
X62879329Y-107619030D01*
X62902428Y-107610765D01*
X62926227Y-107604804D01*
X62950495Y-107601204D01*
X62974999Y-107600000D01*
X63625001Y-107600000D01*
X63649505Y-107601204D01*
X63649505Y-107601204D01*
G37*
D11*
X63300000Y-108300000D03*
D10*
G36*
X65699505Y-107601204D02*
X65723773Y-107604804D01*
X65747572Y-107610765D01*
X65770671Y-107619030D01*
X65792850Y-107629520D01*
X65813893Y-107642132D01*
X65833599Y-107656747D01*
X65851777Y-107673223D01*
X65868253Y-107691401D01*
X65882868Y-107711107D01*
X65895480Y-107732150D01*
X65905970Y-107754329D01*
X65914235Y-107777428D01*
X65920196Y-107801227D01*
X65923796Y-107825495D01*
X65925000Y-107849999D01*
X65925000Y-108750001D01*
X65923796Y-108774505D01*
X65920196Y-108798773D01*
X65914235Y-108822572D01*
X65905970Y-108845671D01*
X65895480Y-108867850D01*
X65882868Y-108888893D01*
X65868253Y-108908599D01*
X65851777Y-108926777D01*
X65833599Y-108943253D01*
X65813893Y-108957868D01*
X65792850Y-108970480D01*
X65770671Y-108980970D01*
X65747572Y-108989235D01*
X65723773Y-108995196D01*
X65699505Y-108998796D01*
X65675001Y-109000000D01*
X65024999Y-109000000D01*
X65000495Y-108998796D01*
X64976227Y-108995196D01*
X64952428Y-108989235D01*
X64929329Y-108980970D01*
X64907150Y-108970480D01*
X64886107Y-108957868D01*
X64866401Y-108943253D01*
X64848223Y-108926777D01*
X64831747Y-108908599D01*
X64817132Y-108888893D01*
X64804520Y-108867850D01*
X64794030Y-108845671D01*
X64785765Y-108822572D01*
X64779804Y-108798773D01*
X64776204Y-108774505D01*
X64775000Y-108750001D01*
X64775000Y-107849999D01*
X64776204Y-107825495D01*
X64779804Y-107801227D01*
X64785765Y-107777428D01*
X64794030Y-107754329D01*
X64804520Y-107732150D01*
X64817132Y-107711107D01*
X64831747Y-107691401D01*
X64848223Y-107673223D01*
X64866401Y-107656747D01*
X64886107Y-107642132D01*
X64907150Y-107629520D01*
X64929329Y-107619030D01*
X64952428Y-107610765D01*
X64976227Y-107604804D01*
X65000495Y-107601204D01*
X65024999Y-107600000D01*
X65675001Y-107600000D01*
X65699505Y-107601204D01*
X65699505Y-107601204D01*
G37*
D11*
X65350000Y-108300000D03*
G04 #@! TD*
M02*
