G04 #@! TF.GenerationSoftware,KiCad,Pcbnew,(5.0.2)-1*
G04 #@! TF.CreationDate,2019-08-15T12:32:10+02:00*
G04 #@! TF.ProjectId,ADS1298_FINAL,41445331-3239-4385-9f46-494e414c2e6b,rev?*
G04 #@! TF.SameCoordinates,Original*
G04 #@! TF.FileFunction,Copper,L3,Inr*
G04 #@! TF.FilePolarity,Positive*
%FSLAX46Y46*%
G04 Gerber Fmt 4.6, Leading zero omitted, Abs format (unit mm)*
G04 Created by KiCad (PCBNEW (5.0.2)-1) date 15-8-2019 12:32:10*
%MOMM*%
%LPD*%
G01*
G04 APERTURE LIST*
G04 #@! TA.AperFunction,ViaPad*
%ADD10O,1.700000X1.700000*%
G04 #@! TD*
G04 #@! TA.AperFunction,ViaPad*
%ADD11R,1.700000X1.700000*%
G04 #@! TD*
G04 #@! TA.AperFunction,ViaPad*
%ADD12R,3.000000X3.000000*%
G04 #@! TD*
G04 #@! TA.AperFunction,ViaPad*
%ADD13C,3.000000*%
G04 #@! TD*
G04 #@! TA.AperFunction,ViaPad*
%ADD14R,1.500000X1.500000*%
G04 #@! TD*
G04 #@! TA.AperFunction,ViaPad*
%ADD15O,2.000000X1.000000*%
G04 #@! TD*
G04 #@! TA.AperFunction,ViaPad*
%ADD16C,1.400000*%
G04 #@! TD*
G04 #@! TA.AperFunction,ViaPad*
%ADD17C,0.800000*%
G04 #@! TD*
G04 #@! TA.AperFunction,Conductor*
%ADD18C,0.250000*%
G04 #@! TD*
G04 #@! TA.AperFunction,Conductor*
%ADD19C,0.254000*%
G04 #@! TD*
G04 APERTURE END LIST*
D10*
G04 #@! TO.N,AD-DC1*
G04 #@! TO.C,J5*
X105150000Y-66060000D03*
D11*
G04 #@! TO.N,FR1*
X105150000Y-68600000D03*
G04 #@! TD*
G04 #@! TO.N,REF_OUT_AD8232*
G04 #@! TO.C,J6*
X114700000Y-69700000D03*
G04 #@! TD*
G04 #@! TO.N,/sheet794AF31F/EMG_OUT*
G04 #@! TO.C,J7*
X113950000Y-63500000D03*
G04 #@! TD*
G04 #@! TO.N,Net-(J8-Pad1)*
G04 #@! TO.C,J8*
X49700000Y-55900000D03*
G04 #@! TD*
G04 #@! TO.N,Net-(C31-Pad2)*
G04 #@! TO.C,J9*
X57950000Y-67900000D03*
G04 #@! TD*
G04 #@! TO.N,Net-(C20-Pad2)*
G04 #@! TO.C,J10*
X64750000Y-88050000D03*
G04 #@! TD*
G04 #@! TO.N,Net-(J11-Pad1)*
G04 #@! TO.C,J11*
X82050000Y-76850000D03*
G04 #@! TD*
D10*
G04 #@! TO.N,RLD_REF1*
G04 #@! TO.C,J12*
X69000000Y-47930000D03*
G04 #@! TO.N,RLDINV*
X69000000Y-50470000D03*
G04 #@! TO.N,RLDIN1*
X69000000Y-53010000D03*
D11*
G04 #@! TO.N,RLDOUT1*
X69000000Y-55550000D03*
G04 #@! TD*
G04 #@! TO.N,OFFSET_AD8232*
G04 #@! TO.C,J13*
X94700000Y-63900000D03*
G04 #@! TD*
D12*
G04 #@! TO.N,+5V*
G04 #@! TO.C,J14*
X110150000Y-114330000D03*
D13*
G04 #@! TO.N,DGND*
X110150000Y-109250000D03*
G04 #@! TD*
D11*
G04 #@! TO.N,GPIO_4*
G04 #@! TO.C,J15*
X81000000Y-26000000D03*
D10*
G04 #@! TO.N,GPIO_3*
X83540000Y-26000000D03*
G04 #@! TO.N,GPIO_2*
X86080000Y-26000000D03*
G04 #@! TO.N,GPIO_1*
X88620000Y-26000000D03*
G04 #@! TD*
D11*
G04 #@! TO.N,START*
G04 #@! TO.C,J16*
X109250000Y-26050000D03*
D10*
G04 #@! TO.N,CLK*
X111790000Y-26050000D03*
G04 #@! TD*
D11*
G04 #@! TO.N,DGND*
G04 #@! TO.C,J17*
X105250000Y-26050000D03*
D10*
G04 #@! TO.N,DIN*
X102710000Y-26050000D03*
G04 #@! TO.N,CS*
X100170000Y-26050000D03*
G04 #@! TO.N,SCLK*
X97630000Y-26050000D03*
G04 #@! TO.N,DOUT*
X95090000Y-26050000D03*
G04 #@! TO.N,DRDY*
X92550000Y-26050000D03*
G04 #@! TD*
D11*
G04 #@! TO.N,CLKSEL*
G04 #@! TO.C,J18*
X116050000Y-39900000D03*
D10*
G04 #@! TO.N,PWDN*
X116050000Y-37360000D03*
G04 #@! TO.N,RESET*
X116050000Y-34820000D03*
G04 #@! TO.N,DAISY_CON_1*
X116050000Y-32280000D03*
G04 #@! TO.N,DGND*
X116050000Y-29740000D03*
G04 #@! TD*
D11*
G04 #@! TO.N,DGND*
G04 #@! TO.C,J19*
X39860000Y-22960000D03*
D10*
X39860000Y-25500000D03*
G04 #@! TO.N,AVSS*
X42400000Y-22960000D03*
X42400000Y-25500000D03*
G04 #@! TD*
G04 #@! TO.N,AVDD*
G04 #@! TO.C,J20*
X112540000Y-100160000D03*
X110000000Y-100160000D03*
G04 #@! TO.N,DGND*
X112540000Y-102700000D03*
D11*
X110000000Y-102700000D03*
G04 #@! TD*
G04 #@! TO.N,DGND*
G04 #@! TO.C,J21*
X70760000Y-22860000D03*
D10*
X70760000Y-25400000D03*
G04 #@! TO.N,DVDD*
X73300000Y-22860000D03*
X73300000Y-25400000D03*
G04 #@! TD*
D11*
G04 #@! TO.N,IN-5*
G04 #@! TO.C,J22*
X26300000Y-80000000D03*
D10*
G04 #@! TO.N,IN+5*
X28840000Y-80000000D03*
G04 #@! TO.N,IN-4*
X26300000Y-77460000D03*
G04 #@! TO.N,IN+4*
X28840000Y-77460000D03*
G04 #@! TO.N,IN-3*
X26300000Y-74920000D03*
G04 #@! TO.N,IN+3*
X28840000Y-74920000D03*
G04 #@! TO.N,IN-2*
X26300000Y-72380000D03*
G04 #@! TO.N,IN+2*
X28840000Y-72380000D03*
G04 #@! TD*
D11*
G04 #@! TO.N,DVDD*
G04 #@! TO.C,J23*
X85200000Y-101700000D03*
G04 #@! TD*
G04 #@! TO.N,AVDD*
G04 #@! TO.C,J24*
X90500000Y-104200000D03*
G04 #@! TD*
G04 #@! TO.N,AVSS*
G04 #@! TO.C,J25*
X77250000Y-114700000D03*
G04 #@! TD*
D14*
G04 #@! TO.N,Net-(JP16-Pad1)*
G04 #@! TO.C,TP1*
X45750000Y-86550000D03*
G04 #@! TD*
G04 #@! TO.N,Net-(JP17-Pad1)*
G04 #@! TO.C,TP2*
X44300000Y-76250000D03*
G04 #@! TD*
G04 #@! TO.N,Net-(JP16-Pad2)*
G04 #@! TO.C,TP3*
X48400000Y-86550000D03*
G04 #@! TD*
G04 #@! TO.N,Net-(JP17-Pad2)*
G04 #@! TO.C,TP4*
X46900000Y-76250000D03*
G04 #@! TD*
G04 #@! TO.N,Net-(C28-Pad2)*
G04 #@! TO.C,TP5*
X50300000Y-68500000D03*
G04 #@! TD*
G04 #@! TO.N,Net-(C22-Pad2)*
G04 #@! TO.C,TP6*
X64400000Y-77250000D03*
G04 #@! TD*
G04 #@! TO.N,Net-(C32-Pad1)*
G04 #@! TO.C,TP7*
X67100000Y-77250000D03*
G04 #@! TD*
G04 #@! TO.N,Net-(C73-Pad1)*
G04 #@! TO.C,TP10*
X113650000Y-82700000D03*
G04 #@! TD*
G04 #@! TO.N,Net-(JP27-Pad1)*
G04 #@! TO.C,TP11*
X115150000Y-73200000D03*
G04 #@! TD*
G04 #@! TO.N,/sheet794AF31F/EMG_OUT*
G04 #@! TO.C,TP12*
X110450000Y-65550000D03*
G04 #@! TD*
G04 #@! TO.N,Net-(JP28-Pad1)*
G04 #@! TO.C,TP13*
X100850000Y-75050000D03*
G04 #@! TD*
D15*
G04 #@! TO.N,Net-(J1-Pad3)*
G04 #@! TO.C,J1*
X31700000Y-28750000D03*
G04 #@! TO.N,Net-(J1-Pad2)*
X23700000Y-28750000D03*
G04 #@! TO.N,Net-(J1-Pad1)*
X31700000Y-35150000D03*
G04 #@! TO.N,Net-(J1-Pad2)*
X23700000Y-35150000D03*
G04 #@! TD*
G04 #@! TO.N,IN+8*
G04 #@! TO.C,J2*
X116450000Y-90550000D03*
G04 #@! TO.N,Net-(J2-Pad1)*
X108450000Y-90550000D03*
G04 #@! TO.N,IN+8*
X116450000Y-96950000D03*
G04 #@! TO.N,IN-8*
X108450000Y-96950000D03*
G04 #@! TD*
D16*
G04 #@! TO.N,AVDD*
G04 #@! TO.C,J3*
X115070000Y-49260000D03*
G04 #@! TO.N,DGND*
X113800000Y-51800000D03*
G04 #@! TO.N,AVSS*
X112530000Y-49260000D03*
G04 #@! TO.N,IN7*
X111260000Y-51800000D03*
G04 #@! TD*
G04 #@! TO.N,IN6*
G04 #@! TO.C,J4*
X111390000Y-57840000D03*
G04 #@! TO.N,AVSS*
X112660000Y-55300000D03*
G04 #@! TO.N,DGND*
X113930000Y-57840000D03*
G04 #@! TO.N,AVDD*
X115200000Y-55300000D03*
G04 #@! TD*
D11*
G04 #@! TO.N,START*
G04 #@! TO.C,J26*
X109210000Y-22300000D03*
D10*
G04 #@! TO.N,CLK*
X111750000Y-22300000D03*
G04 #@! TD*
D11*
G04 #@! TO.N,DGND*
G04 #@! TO.C,J27*
X105300000Y-22350000D03*
D10*
G04 #@! TO.N,DIN*
X102760000Y-22350000D03*
G04 #@! TO.N,CS*
X100220000Y-22350000D03*
G04 #@! TO.N,SCLK*
X97680000Y-22350000D03*
G04 #@! TO.N,DOUT*
X95140000Y-22350000D03*
G04 #@! TO.N,DRDY*
X92600000Y-22350000D03*
G04 #@! TD*
D11*
G04 #@! TO.N,Net-(C62-Pad2)*
G04 #@! TO.C,J28*
X41800000Y-100100000D03*
G04 #@! TD*
D15*
G04 #@! TO.N,IN-9*
G04 #@! TO.C,J29*
X31600000Y-91600000D03*
G04 #@! TO.N,IN+9*
X23600000Y-91600000D03*
G04 #@! TO.N,DGND*
X31600000Y-98000000D03*
G04 #@! TO.N,IN+9*
X23600000Y-98000000D03*
G04 #@! TD*
D11*
G04 #@! TO.N,Net-(C79-Pad1)*
G04 #@! TO.C,J30*
X70500000Y-107400000D03*
D10*
G04 #@! TO.N,Net-(C79-Pad2)*
X70500000Y-109940000D03*
G04 #@! TD*
D14*
G04 #@! TO.N,Net-(JP25-Pad1)*
G04 #@! TO.C,TP15*
X33500000Y-101900000D03*
G04 #@! TD*
G04 #@! TO.N,Net-(JP25-Pad2)*
G04 #@! TO.C,TP16*
X36100000Y-101900000D03*
G04 #@! TD*
D11*
G04 #@! TO.N,Net-(J31-Pad1)*
G04 #@! TO.C,J31*
X50300000Y-108200000D03*
G04 #@! TD*
D17*
G04 #@! TO.N,IN1P*
X83650000Y-60000000D03*
X31850000Y-43350000D03*
G04 #@! TO.N,AVSS*
X35600000Y-82100000D03*
X38700000Y-73700000D03*
X37475000Y-57700000D03*
X35400000Y-91900000D03*
X55050000Y-81400000D03*
X56550000Y-92050000D03*
X32650000Y-50950000D03*
X38650000Y-47500000D03*
X31600000Y-45600000D03*
X27500000Y-55600000D03*
X88100000Y-49475000D03*
X77950000Y-49350000D03*
X84750000Y-55450000D03*
X89250000Y-47700004D03*
X105200000Y-52100000D03*
X104900000Y-48150000D03*
X74500000Y-81750000D03*
X42900000Y-107300000D03*
X25000000Y-109400000D03*
G04 #@! TO.N,IN1N*
X83750000Y-57800000D03*
X32100000Y-49300000D03*
G04 #@! TO.N,DGND*
X105450000Y-75350000D03*
X102500000Y-64900000D03*
X40800000Y-82150000D03*
X45200000Y-73700000D03*
X43250000Y-58500000D03*
X41600000Y-92400000D03*
X99850000Y-88050000D03*
X56450000Y-93900000D03*
X74500000Y-83800000D03*
X77200000Y-76000000D03*
X61000000Y-84550000D03*
X49750000Y-73250000D03*
X32850000Y-52500000D03*
X36500000Y-34200000D03*
X37300000Y-61400000D03*
X93350000Y-52650000D03*
X80900000Y-23000000D03*
X95000000Y-45400000D03*
X103400000Y-38800000D03*
X99950000Y-57250000D03*
X42650000Y-40900000D03*
X42800000Y-109200000D03*
X65300000Y-106500000D03*
X31100000Y-108000000D03*
X50700000Y-100100000D03*
X79700000Y-105400000D03*
X87900000Y-107200000D03*
X93200000Y-105200000D03*
G04 #@! TO.N,AVDD*
X47350000Y-68900000D03*
X40750000Y-62500000D03*
X43700000Y-87350000D03*
X42350000Y-76900000D03*
X56850000Y-76200000D03*
X80450000Y-79300000D03*
X58850000Y-86400000D03*
X42750000Y-46450000D03*
X37950000Y-49300000D03*
X30000000Y-36600000D03*
X28300000Y-47300000D03*
X46300000Y-53200000D03*
X105200000Y-54000000D03*
X50900000Y-102500000D03*
X31100000Y-102200000D03*
G04 #@! TO.N,Net-(C8-Pad1)*
X42900000Y-64200000D03*
X33600000Y-65550000D03*
G04 #@! TO.N,RLD1*
X41400000Y-63400000D03*
X44300000Y-47800000D03*
G04 #@! TO.N,/sheet794AF31F/3V_IN*
X98500000Y-85900000D03*
X99800000Y-70900000D03*
G04 #@! TO.N,DVDD*
X83850000Y-45000000D03*
X101700000Y-32550000D03*
X111600000Y-33150000D03*
X87925000Y-41200000D03*
G04 #@! TO.N,REF_OUT_AD8232*
X111450000Y-76200000D03*
X99300000Y-72850000D03*
X102350000Y-81750000D03*
G04 #@! TO.N,Net-(C72-Pad1)*
X100750000Y-73200000D03*
X101850000Y-71700000D03*
G04 #@! TO.N,Net-(C73-Pad1)*
X99100000Y-81000000D03*
X112250000Y-80100000D03*
G04 #@! TO.N,DIN*
X97450000Y-38700000D03*
G04 #@! TO.N,DAISY_CON_1*
X91425000Y-38750000D03*
G04 #@! TO.N,GPIO_1*
X91150000Y-28650000D03*
X91450000Y-45250000D03*
G04 #@! TO.N,GPIO_2*
X90100010Y-30020010D03*
X91800000Y-34200000D03*
G04 #@! TO.N,GPIO_3*
X88340000Y-30800000D03*
X90900000Y-35200000D03*
G04 #@! TO.N,GPIO_4*
X85850000Y-30850000D03*
X89550000Y-35200000D03*
G04 #@! TO.N,CLKSEL*
X90337429Y-46997803D03*
G04 #@! TO.N,Net-(JP26-Pad2)*
X98500000Y-83950000D03*
G04 #@! TO.N,Net-(JP29-Pad2)*
X108750000Y-77300000D03*
X108750000Y-77300000D03*
X99050000Y-79550000D03*
G04 #@! TO.N,IN+8*
X107400000Y-82950000D03*
G04 #@! TO.N,IN-8*
X103400000Y-83350000D03*
G04 #@! TO.N,Net-(C76-Pad1)*
X60700000Y-108400000D03*
G04 #@! TD*
D18*
G04 #@! TO.N,DVDD*
X87925000Y-40025000D02*
X73300000Y-25400000D01*
X87925000Y-41200000D02*
X87925000Y-40025000D01*
X72450001Y-24550001D02*
X73300000Y-25400000D01*
X72450001Y-23709999D02*
X72450001Y-24550001D01*
X73300000Y-22860000D02*
X72450001Y-23709999D01*
G04 #@! TO.N,DAISY_CON_1*
X91425000Y-38750000D02*
X92725000Y-40050000D01*
X92725000Y-40050000D02*
X103350000Y-40050000D01*
X111120000Y-32280000D02*
X116050000Y-32280000D01*
X103350000Y-40050000D02*
X111120000Y-32280000D01*
G04 #@! TO.N,CLKSEL*
X116050000Y-39900000D02*
X108700000Y-39900000D01*
X101602197Y-46997803D02*
X90337429Y-46997803D01*
X108700000Y-39900000D02*
X101602197Y-46997803D01*
G04 #@! TD*
D19*
G04 #@! TO.N,AVSS*
G36*
X91529375Y-21279375D02*
X91201161Y-21770582D01*
X91085908Y-22350000D01*
X91201161Y-22929418D01*
X91529375Y-23420625D01*
X92020582Y-23748839D01*
X92453744Y-23835000D01*
X92746256Y-23835000D01*
X93179418Y-23748839D01*
X93670625Y-23420625D01*
X93870000Y-23122239D01*
X94069375Y-23420625D01*
X94560582Y-23748839D01*
X94993744Y-23835000D01*
X95286256Y-23835000D01*
X95719418Y-23748839D01*
X96210625Y-23420625D01*
X96410000Y-23122239D01*
X96609375Y-23420625D01*
X97100582Y-23748839D01*
X97533744Y-23835000D01*
X97826256Y-23835000D01*
X98259418Y-23748839D01*
X98750625Y-23420625D01*
X98950000Y-23122239D01*
X99149375Y-23420625D01*
X99640582Y-23748839D01*
X100073744Y-23835000D01*
X100366256Y-23835000D01*
X100799418Y-23748839D01*
X101290625Y-23420625D01*
X101490000Y-23122239D01*
X101689375Y-23420625D01*
X102180582Y-23748839D01*
X102613744Y-23835000D01*
X102906256Y-23835000D01*
X103339418Y-23748839D01*
X103830625Y-23420625D01*
X103842816Y-23402381D01*
X103851843Y-23447765D01*
X103992191Y-23657809D01*
X104202235Y-23798157D01*
X104450000Y-23847440D01*
X106150000Y-23847440D01*
X106397765Y-23798157D01*
X106607809Y-23657809D01*
X106748157Y-23447765D01*
X106797440Y-23200000D01*
X106797440Y-21500000D01*
X106748157Y-21252235D01*
X106664477Y-21127000D01*
X107812114Y-21127000D01*
X107761843Y-21202235D01*
X107712560Y-21450000D01*
X107712560Y-23150000D01*
X107761843Y-23397765D01*
X107902191Y-23607809D01*
X108112235Y-23748157D01*
X108360000Y-23797440D01*
X110060000Y-23797440D01*
X110307765Y-23748157D01*
X110517809Y-23607809D01*
X110658157Y-23397765D01*
X110667184Y-23352381D01*
X110679375Y-23370625D01*
X111170582Y-23698839D01*
X111603744Y-23785000D01*
X111896256Y-23785000D01*
X112329418Y-23698839D01*
X112820625Y-23370625D01*
X113148839Y-22879418D01*
X113264092Y-22300000D01*
X113148839Y-21720582D01*
X112820625Y-21229375D01*
X112667410Y-21127000D01*
X118665000Y-21127000D01*
X118665001Y-92753803D01*
X118635410Y-92724212D01*
X118190684Y-92540000D01*
X117709316Y-92540000D01*
X117264590Y-92724212D01*
X116924212Y-93064590D01*
X116740000Y-93509316D01*
X116740000Y-93990684D01*
X116924212Y-94435410D01*
X117264590Y-94775788D01*
X117709316Y-94960000D01*
X118190684Y-94960000D01*
X118635410Y-94775788D01*
X118665001Y-94746197D01*
X118665001Y-118873000D01*
X21127000Y-118873000D01*
X21127000Y-114985750D01*
X75765000Y-114985750D01*
X75765000Y-115676310D01*
X75861673Y-115909699D01*
X76040302Y-116088327D01*
X76273691Y-116185000D01*
X76964250Y-116185000D01*
X77123000Y-116026250D01*
X77123000Y-114827000D01*
X77377000Y-114827000D01*
X77377000Y-116026250D01*
X77535750Y-116185000D01*
X78226309Y-116185000D01*
X78459698Y-116088327D01*
X78638327Y-115909699D01*
X78735000Y-115676310D01*
X78735000Y-114985750D01*
X78576250Y-114827000D01*
X77377000Y-114827000D01*
X77123000Y-114827000D01*
X75923750Y-114827000D01*
X75765000Y-114985750D01*
X21127000Y-114985750D01*
X21127000Y-113723690D01*
X75765000Y-113723690D01*
X75765000Y-114414250D01*
X75923750Y-114573000D01*
X77123000Y-114573000D01*
X77123000Y-113373750D01*
X77377000Y-113373750D01*
X77377000Y-114573000D01*
X78576250Y-114573000D01*
X78735000Y-114414250D01*
X78735000Y-113723690D01*
X78638327Y-113490301D01*
X78459698Y-113311673D01*
X78226309Y-113215000D01*
X77535750Y-113215000D01*
X77377000Y-113373750D01*
X77123000Y-113373750D01*
X76964250Y-113215000D01*
X76273691Y-113215000D01*
X76040302Y-113311673D01*
X75861673Y-113490301D01*
X75765000Y-113723690D01*
X21127000Y-113723690D01*
X21127000Y-112830000D01*
X108002560Y-112830000D01*
X108002560Y-115830000D01*
X108051843Y-116077765D01*
X108192191Y-116287809D01*
X108402235Y-116428157D01*
X108650000Y-116477440D01*
X111650000Y-116477440D01*
X111897765Y-116428157D01*
X112107809Y-116287809D01*
X112248157Y-116077765D01*
X112297440Y-115830000D01*
X112297440Y-112830000D01*
X112248157Y-112582235D01*
X112107809Y-112372191D01*
X111897765Y-112231843D01*
X111650000Y-112182560D01*
X108650000Y-112182560D01*
X108402235Y-112231843D01*
X108192191Y-112372191D01*
X108051843Y-112582235D01*
X108002560Y-112830000D01*
X21127000Y-112830000D01*
X21127000Y-107794126D01*
X30065000Y-107794126D01*
X30065000Y-108205874D01*
X30222569Y-108586280D01*
X30513720Y-108877431D01*
X30894126Y-109035000D01*
X31305874Y-109035000D01*
X31404552Y-108994126D01*
X41765000Y-108994126D01*
X41765000Y-109405874D01*
X41922569Y-109786280D01*
X42213720Y-110077431D01*
X42594126Y-110235000D01*
X43005874Y-110235000D01*
X43386280Y-110077431D01*
X43523711Y-109940000D01*
X68985908Y-109940000D01*
X69101161Y-110519418D01*
X69429375Y-111010625D01*
X69920582Y-111338839D01*
X70353744Y-111425000D01*
X70646256Y-111425000D01*
X71079418Y-111338839D01*
X71570625Y-111010625D01*
X71898839Y-110519418D01*
X72014092Y-109940000D01*
X71898839Y-109360582D01*
X71570625Y-108869375D01*
X71552381Y-108857184D01*
X71597765Y-108848157D01*
X71631939Y-108825322D01*
X108015000Y-108825322D01*
X108015000Y-109674678D01*
X108340034Y-110459380D01*
X108940620Y-111059966D01*
X109725322Y-111385000D01*
X110574678Y-111385000D01*
X111359380Y-111059966D01*
X111959966Y-110459380D01*
X112285000Y-109674678D01*
X112285000Y-108825322D01*
X111959966Y-108040620D01*
X111359380Y-107440034D01*
X110574678Y-107115000D01*
X109725322Y-107115000D01*
X108940620Y-107440034D01*
X108340034Y-108040620D01*
X108015000Y-108825322D01*
X71631939Y-108825322D01*
X71807809Y-108707809D01*
X71948157Y-108497765D01*
X71997440Y-108250000D01*
X71997440Y-106994126D01*
X86865000Y-106994126D01*
X86865000Y-107405874D01*
X87022569Y-107786280D01*
X87313720Y-108077431D01*
X87694126Y-108235000D01*
X88105874Y-108235000D01*
X88486280Y-108077431D01*
X88777431Y-107786280D01*
X88935000Y-107405874D01*
X88935000Y-106994126D01*
X88777431Y-106613720D01*
X88486280Y-106322569D01*
X88105874Y-106165000D01*
X87694126Y-106165000D01*
X87313720Y-106322569D01*
X87022569Y-106613720D01*
X86865000Y-106994126D01*
X71997440Y-106994126D01*
X71997440Y-106550000D01*
X71948157Y-106302235D01*
X71807809Y-106092191D01*
X71597765Y-105951843D01*
X71350000Y-105902560D01*
X69650000Y-105902560D01*
X69402235Y-105951843D01*
X69192191Y-106092191D01*
X69051843Y-106302235D01*
X69002560Y-106550000D01*
X69002560Y-108250000D01*
X69051843Y-108497765D01*
X69192191Y-108707809D01*
X69402235Y-108848157D01*
X69447619Y-108857184D01*
X69429375Y-108869375D01*
X69101161Y-109360582D01*
X68985908Y-109940000D01*
X43523711Y-109940000D01*
X43677431Y-109786280D01*
X43835000Y-109405874D01*
X43835000Y-108994126D01*
X43677431Y-108613720D01*
X43386280Y-108322569D01*
X43005874Y-108165000D01*
X42594126Y-108165000D01*
X42213720Y-108322569D01*
X41922569Y-108613720D01*
X41765000Y-108994126D01*
X31404552Y-108994126D01*
X31686280Y-108877431D01*
X31977431Y-108586280D01*
X32135000Y-108205874D01*
X32135000Y-107794126D01*
X31977431Y-107413720D01*
X31913711Y-107350000D01*
X48802560Y-107350000D01*
X48802560Y-109050000D01*
X48851843Y-109297765D01*
X48992191Y-109507809D01*
X49202235Y-109648157D01*
X49450000Y-109697440D01*
X51150000Y-109697440D01*
X51397765Y-109648157D01*
X51607809Y-109507809D01*
X51748157Y-109297765D01*
X51797440Y-109050000D01*
X51797440Y-108194126D01*
X59665000Y-108194126D01*
X59665000Y-108605874D01*
X59822569Y-108986280D01*
X60113720Y-109277431D01*
X60494126Y-109435000D01*
X60905874Y-109435000D01*
X61286280Y-109277431D01*
X61577431Y-108986280D01*
X61735000Y-108605874D01*
X61735000Y-108194126D01*
X61577431Y-107813720D01*
X61286280Y-107522569D01*
X60905874Y-107365000D01*
X60494126Y-107365000D01*
X60113720Y-107522569D01*
X59822569Y-107813720D01*
X59665000Y-108194126D01*
X51797440Y-108194126D01*
X51797440Y-107350000D01*
X51748157Y-107102235D01*
X51607809Y-106892191D01*
X51397765Y-106751843D01*
X51150000Y-106702560D01*
X49450000Y-106702560D01*
X49202235Y-106751843D01*
X48992191Y-106892191D01*
X48851843Y-107102235D01*
X48802560Y-107350000D01*
X31913711Y-107350000D01*
X31686280Y-107122569D01*
X31305874Y-106965000D01*
X30894126Y-106965000D01*
X30513720Y-107122569D01*
X30222569Y-107413720D01*
X30065000Y-107794126D01*
X21127000Y-107794126D01*
X21127000Y-106294126D01*
X64265000Y-106294126D01*
X64265000Y-106705874D01*
X64422569Y-107086280D01*
X64713720Y-107377431D01*
X65094126Y-107535000D01*
X65505874Y-107535000D01*
X65886280Y-107377431D01*
X66177431Y-107086280D01*
X66335000Y-106705874D01*
X66335000Y-106294126D01*
X66177431Y-105913720D01*
X65886280Y-105622569D01*
X65505874Y-105465000D01*
X65094126Y-105465000D01*
X64713720Y-105622569D01*
X64422569Y-105913720D01*
X64265000Y-106294126D01*
X21127000Y-106294126D01*
X21127000Y-105194126D01*
X78665000Y-105194126D01*
X78665000Y-105605874D01*
X78822569Y-105986280D01*
X79113720Y-106277431D01*
X79494126Y-106435000D01*
X79905874Y-106435000D01*
X80286280Y-106277431D01*
X80577431Y-105986280D01*
X80735000Y-105605874D01*
X80735000Y-105194126D01*
X80577431Y-104813720D01*
X80286280Y-104522569D01*
X79905874Y-104365000D01*
X79494126Y-104365000D01*
X79113720Y-104522569D01*
X78822569Y-104813720D01*
X78665000Y-105194126D01*
X21127000Y-105194126D01*
X21127000Y-101994126D01*
X30065000Y-101994126D01*
X30065000Y-102405874D01*
X30222569Y-102786280D01*
X30513720Y-103077431D01*
X30894126Y-103235000D01*
X31305874Y-103235000D01*
X31686280Y-103077431D01*
X31977431Y-102786280D01*
X32102560Y-102484191D01*
X32102560Y-102650000D01*
X32151843Y-102897765D01*
X32292191Y-103107809D01*
X32502235Y-103248157D01*
X32750000Y-103297440D01*
X34250000Y-103297440D01*
X34497765Y-103248157D01*
X34707809Y-103107809D01*
X34800000Y-102969836D01*
X34892191Y-103107809D01*
X35102235Y-103248157D01*
X35350000Y-103297440D01*
X36850000Y-103297440D01*
X37097765Y-103248157D01*
X37307809Y-103107809D01*
X37448157Y-102897765D01*
X37497440Y-102650000D01*
X37497440Y-102294126D01*
X49865000Y-102294126D01*
X49865000Y-102705874D01*
X50022569Y-103086280D01*
X50313720Y-103377431D01*
X50694126Y-103535000D01*
X51105874Y-103535000D01*
X51486280Y-103377431D01*
X51513711Y-103350000D01*
X89002560Y-103350000D01*
X89002560Y-105050000D01*
X89051843Y-105297765D01*
X89192191Y-105507809D01*
X89402235Y-105648157D01*
X89650000Y-105697440D01*
X91350000Y-105697440D01*
X91597765Y-105648157D01*
X91807809Y-105507809D01*
X91948157Y-105297765D01*
X91997440Y-105050000D01*
X91997440Y-104994126D01*
X92165000Y-104994126D01*
X92165000Y-105405874D01*
X92322569Y-105786280D01*
X92613720Y-106077431D01*
X92994126Y-106235000D01*
X93405874Y-106235000D01*
X93786280Y-106077431D01*
X94077431Y-105786280D01*
X94235000Y-105405874D01*
X94235000Y-104994126D01*
X94077431Y-104613720D01*
X93786280Y-104322569D01*
X93405874Y-104165000D01*
X92994126Y-104165000D01*
X92613720Y-104322569D01*
X92322569Y-104613720D01*
X92165000Y-104994126D01*
X91997440Y-104994126D01*
X91997440Y-103350000D01*
X91948157Y-103102235D01*
X91807809Y-102892191D01*
X91597765Y-102751843D01*
X91350000Y-102702560D01*
X89650000Y-102702560D01*
X89402235Y-102751843D01*
X89192191Y-102892191D01*
X89051843Y-103102235D01*
X89002560Y-103350000D01*
X51513711Y-103350000D01*
X51777431Y-103086280D01*
X51935000Y-102705874D01*
X51935000Y-102294126D01*
X51777431Y-101913720D01*
X51486280Y-101622569D01*
X51105874Y-101465000D01*
X50694126Y-101465000D01*
X50313720Y-101622569D01*
X50022569Y-101913720D01*
X49865000Y-102294126D01*
X37497440Y-102294126D01*
X37497440Y-101150000D01*
X37448157Y-100902235D01*
X37307809Y-100692191D01*
X37097765Y-100551843D01*
X36850000Y-100502560D01*
X35350000Y-100502560D01*
X35102235Y-100551843D01*
X34892191Y-100692191D01*
X34800000Y-100830164D01*
X34707809Y-100692191D01*
X34497765Y-100551843D01*
X34250000Y-100502560D01*
X32750000Y-100502560D01*
X32502235Y-100551843D01*
X32292191Y-100692191D01*
X32151843Y-100902235D01*
X32102560Y-101150000D01*
X32102560Y-101915809D01*
X31977431Y-101613720D01*
X31686280Y-101322569D01*
X31305874Y-101165000D01*
X30894126Y-101165000D01*
X30513720Y-101322569D01*
X30222569Y-101613720D01*
X30065000Y-101994126D01*
X21127000Y-101994126D01*
X21127000Y-99250000D01*
X40302560Y-99250000D01*
X40302560Y-100950000D01*
X40351843Y-101197765D01*
X40492191Y-101407809D01*
X40702235Y-101548157D01*
X40950000Y-101597440D01*
X42650000Y-101597440D01*
X42897765Y-101548157D01*
X43107809Y-101407809D01*
X43248157Y-101197765D01*
X43297440Y-100950000D01*
X43297440Y-99894126D01*
X49665000Y-99894126D01*
X49665000Y-100305874D01*
X49822569Y-100686280D01*
X50113720Y-100977431D01*
X50494126Y-101135000D01*
X50905874Y-101135000D01*
X51286280Y-100977431D01*
X51413711Y-100850000D01*
X83702560Y-100850000D01*
X83702560Y-102550000D01*
X83751843Y-102797765D01*
X83892191Y-103007809D01*
X84102235Y-103148157D01*
X84350000Y-103197440D01*
X86050000Y-103197440D01*
X86297765Y-103148157D01*
X86507809Y-103007809D01*
X86648157Y-102797765D01*
X86697440Y-102550000D01*
X86697440Y-100850000D01*
X86648157Y-100602235D01*
X86507809Y-100392191D01*
X86297765Y-100251843D01*
X86050000Y-100202560D01*
X84350000Y-100202560D01*
X84102235Y-100251843D01*
X83892191Y-100392191D01*
X83751843Y-100602235D01*
X83702560Y-100850000D01*
X51413711Y-100850000D01*
X51577431Y-100686280D01*
X51735000Y-100305874D01*
X51735000Y-100160000D01*
X108485908Y-100160000D01*
X108601161Y-100739418D01*
X108929375Y-101230625D01*
X108947619Y-101242816D01*
X108902235Y-101251843D01*
X108692191Y-101392191D01*
X108551843Y-101602235D01*
X108502560Y-101850000D01*
X108502560Y-103550000D01*
X108551843Y-103797765D01*
X108692191Y-104007809D01*
X108902235Y-104148157D01*
X109150000Y-104197440D01*
X110850000Y-104197440D01*
X111097765Y-104148157D01*
X111307809Y-104007809D01*
X111448157Y-103797765D01*
X111457184Y-103752381D01*
X111469375Y-103770625D01*
X111960582Y-104098839D01*
X112393744Y-104185000D01*
X112686256Y-104185000D01*
X113119418Y-104098839D01*
X113610625Y-103770625D01*
X113938839Y-103279418D01*
X114054092Y-102700000D01*
X113938839Y-102120582D01*
X113610625Y-101629375D01*
X113312239Y-101430000D01*
X113610625Y-101230625D01*
X113938839Y-100739418D01*
X114054092Y-100160000D01*
X113938839Y-99580582D01*
X113610625Y-99089375D01*
X113119418Y-98761161D01*
X112686256Y-98675000D01*
X112393744Y-98675000D01*
X111960582Y-98761161D01*
X111469375Y-99089375D01*
X111270000Y-99387761D01*
X111070625Y-99089375D01*
X110579418Y-98761161D01*
X110146256Y-98675000D01*
X109853744Y-98675000D01*
X109420582Y-98761161D01*
X108929375Y-99089375D01*
X108601161Y-99580582D01*
X108485908Y-100160000D01*
X51735000Y-100160000D01*
X51735000Y-99894126D01*
X51577431Y-99513720D01*
X51286280Y-99222569D01*
X50905874Y-99065000D01*
X50494126Y-99065000D01*
X50113720Y-99222569D01*
X49822569Y-99513720D01*
X49665000Y-99894126D01*
X43297440Y-99894126D01*
X43297440Y-99250000D01*
X43248157Y-99002235D01*
X43107809Y-98792191D01*
X42897765Y-98651843D01*
X42650000Y-98602560D01*
X40950000Y-98602560D01*
X40702235Y-98651843D01*
X40492191Y-98792191D01*
X40351843Y-99002235D01*
X40302560Y-99250000D01*
X21127000Y-99250000D01*
X21127000Y-98000000D01*
X21942765Y-98000000D01*
X22030854Y-98442855D01*
X22281711Y-98818289D01*
X22657145Y-99069146D01*
X22988217Y-99135000D01*
X24211783Y-99135000D01*
X24542855Y-99069146D01*
X24918289Y-98818289D01*
X25169146Y-98442855D01*
X25257235Y-98000000D01*
X29942765Y-98000000D01*
X30030854Y-98442855D01*
X30281711Y-98818289D01*
X30657145Y-99069146D01*
X30988217Y-99135000D01*
X32211783Y-99135000D01*
X32542855Y-99069146D01*
X32918289Y-98818289D01*
X33169146Y-98442855D01*
X33257235Y-98000000D01*
X33169146Y-97557145D01*
X32918289Y-97181711D01*
X32571510Y-96950000D01*
X106792765Y-96950000D01*
X106880854Y-97392855D01*
X107131711Y-97768289D01*
X107507145Y-98019146D01*
X107838217Y-98085000D01*
X109061783Y-98085000D01*
X109392855Y-98019146D01*
X109768289Y-97768289D01*
X110019146Y-97392855D01*
X110107235Y-96950000D01*
X114792765Y-96950000D01*
X114880854Y-97392855D01*
X115131711Y-97768289D01*
X115507145Y-98019146D01*
X115838217Y-98085000D01*
X117061783Y-98085000D01*
X117392855Y-98019146D01*
X117768289Y-97768289D01*
X118019146Y-97392855D01*
X118107235Y-96950000D01*
X118019146Y-96507145D01*
X117768289Y-96131711D01*
X117392855Y-95880854D01*
X117061783Y-95815000D01*
X115838217Y-95815000D01*
X115507145Y-95880854D01*
X115131711Y-96131711D01*
X114880854Y-96507145D01*
X114792765Y-96950000D01*
X110107235Y-96950000D01*
X110019146Y-96507145D01*
X109768289Y-96131711D01*
X109392855Y-95880854D01*
X109061783Y-95815000D01*
X107838217Y-95815000D01*
X107507145Y-95880854D01*
X107131711Y-96131711D01*
X106880854Y-96507145D01*
X106792765Y-96950000D01*
X32571510Y-96950000D01*
X32542855Y-96930854D01*
X32211783Y-96865000D01*
X30988217Y-96865000D01*
X30657145Y-96930854D01*
X30281711Y-97181711D01*
X30030854Y-97557145D01*
X29942765Y-98000000D01*
X25257235Y-98000000D01*
X25169146Y-97557145D01*
X24918289Y-97181711D01*
X24542855Y-96930854D01*
X24211783Y-96865000D01*
X22988217Y-96865000D01*
X22657145Y-96930854D01*
X22281711Y-97181711D01*
X22030854Y-97557145D01*
X21942765Y-98000000D01*
X21127000Y-98000000D01*
X21127000Y-95538198D01*
X21414590Y-95825788D01*
X21859316Y-96010000D01*
X22340684Y-96010000D01*
X22785410Y-95825788D01*
X23125788Y-95485410D01*
X23310000Y-95040684D01*
X23310000Y-94559316D01*
X27890000Y-94559316D01*
X27890000Y-95040684D01*
X28074212Y-95485410D01*
X28414590Y-95825788D01*
X28859316Y-96010000D01*
X29340684Y-96010000D01*
X29785410Y-95825788D01*
X30125788Y-95485410D01*
X30310000Y-95040684D01*
X30310000Y-94559316D01*
X30125788Y-94114590D01*
X29785410Y-93774212D01*
X29592066Y-93694126D01*
X55415000Y-93694126D01*
X55415000Y-94105874D01*
X55572569Y-94486280D01*
X55863720Y-94777431D01*
X56244126Y-94935000D01*
X56655874Y-94935000D01*
X57036280Y-94777431D01*
X57327431Y-94486280D01*
X57485000Y-94105874D01*
X57485000Y-93694126D01*
X57408450Y-93509316D01*
X109740000Y-93509316D01*
X109740000Y-93990684D01*
X109924212Y-94435410D01*
X110264590Y-94775788D01*
X110709316Y-94960000D01*
X111190684Y-94960000D01*
X111635410Y-94775788D01*
X111975788Y-94435410D01*
X112160000Y-93990684D01*
X112160000Y-93509316D01*
X111975788Y-93064590D01*
X111635410Y-92724212D01*
X111190684Y-92540000D01*
X110709316Y-92540000D01*
X110264590Y-92724212D01*
X109924212Y-93064590D01*
X109740000Y-93509316D01*
X57408450Y-93509316D01*
X57327431Y-93313720D01*
X57036280Y-93022569D01*
X56655874Y-92865000D01*
X56244126Y-92865000D01*
X55863720Y-93022569D01*
X55572569Y-93313720D01*
X55415000Y-93694126D01*
X29592066Y-93694126D01*
X29340684Y-93590000D01*
X28859316Y-93590000D01*
X28414590Y-93774212D01*
X28074212Y-94114590D01*
X27890000Y-94559316D01*
X23310000Y-94559316D01*
X23125788Y-94114590D01*
X22785410Y-93774212D01*
X22340684Y-93590000D01*
X21859316Y-93590000D01*
X21414590Y-93774212D01*
X21127000Y-94061802D01*
X21127000Y-91600000D01*
X21942765Y-91600000D01*
X22030854Y-92042855D01*
X22281711Y-92418289D01*
X22657145Y-92669146D01*
X22988217Y-92735000D01*
X24211783Y-92735000D01*
X24542855Y-92669146D01*
X24918289Y-92418289D01*
X25169146Y-92042855D01*
X25257235Y-91600000D01*
X29942765Y-91600000D01*
X30030854Y-92042855D01*
X30281711Y-92418289D01*
X30657145Y-92669146D01*
X30988217Y-92735000D01*
X32211783Y-92735000D01*
X32542855Y-92669146D01*
X32918289Y-92418289D01*
X33068069Y-92194126D01*
X40565000Y-92194126D01*
X40565000Y-92605874D01*
X40722569Y-92986280D01*
X41013720Y-93277431D01*
X41394126Y-93435000D01*
X41805874Y-93435000D01*
X42186280Y-93277431D01*
X42477431Y-92986280D01*
X42635000Y-92605874D01*
X42635000Y-92194126D01*
X42477431Y-91813720D01*
X42186280Y-91522569D01*
X41805874Y-91365000D01*
X41394126Y-91365000D01*
X41013720Y-91522569D01*
X40722569Y-91813720D01*
X40565000Y-92194126D01*
X33068069Y-92194126D01*
X33169146Y-92042855D01*
X33257235Y-91600000D01*
X33169146Y-91157145D01*
X32918289Y-90781711D01*
X32571510Y-90550000D01*
X106792765Y-90550000D01*
X106880854Y-90992855D01*
X107131711Y-91368289D01*
X107507145Y-91619146D01*
X107838217Y-91685000D01*
X109061783Y-91685000D01*
X109392855Y-91619146D01*
X109768289Y-91368289D01*
X110019146Y-90992855D01*
X110107235Y-90550000D01*
X114792765Y-90550000D01*
X114880854Y-90992855D01*
X115131711Y-91368289D01*
X115507145Y-91619146D01*
X115838217Y-91685000D01*
X117061783Y-91685000D01*
X117392855Y-91619146D01*
X117768289Y-91368289D01*
X118019146Y-90992855D01*
X118107235Y-90550000D01*
X118019146Y-90107145D01*
X117768289Y-89731711D01*
X117392855Y-89480854D01*
X117061783Y-89415000D01*
X115838217Y-89415000D01*
X115507145Y-89480854D01*
X115131711Y-89731711D01*
X114880854Y-90107145D01*
X114792765Y-90550000D01*
X110107235Y-90550000D01*
X110019146Y-90107145D01*
X109768289Y-89731711D01*
X109392855Y-89480854D01*
X109061783Y-89415000D01*
X107838217Y-89415000D01*
X107507145Y-89480854D01*
X107131711Y-89731711D01*
X106880854Y-90107145D01*
X106792765Y-90550000D01*
X32571510Y-90550000D01*
X32542855Y-90530854D01*
X32211783Y-90465000D01*
X30988217Y-90465000D01*
X30657145Y-90530854D01*
X30281711Y-90781711D01*
X30030854Y-91157145D01*
X29942765Y-91600000D01*
X25257235Y-91600000D01*
X25169146Y-91157145D01*
X24918289Y-90781711D01*
X24542855Y-90530854D01*
X24211783Y-90465000D01*
X22988217Y-90465000D01*
X22657145Y-90530854D01*
X22281711Y-90781711D01*
X22030854Y-91157145D01*
X21942765Y-91600000D01*
X21127000Y-91600000D01*
X21127000Y-87144126D01*
X42665000Y-87144126D01*
X42665000Y-87555874D01*
X42822569Y-87936280D01*
X43113720Y-88227431D01*
X43494126Y-88385000D01*
X43905874Y-88385000D01*
X44286280Y-88227431D01*
X44577431Y-87936280D01*
X44627692Y-87814939D01*
X44752235Y-87898157D01*
X45000000Y-87947440D01*
X46500000Y-87947440D01*
X46747765Y-87898157D01*
X46957809Y-87757809D01*
X47075000Y-87582422D01*
X47192191Y-87757809D01*
X47402235Y-87898157D01*
X47650000Y-87947440D01*
X49150000Y-87947440D01*
X49397765Y-87898157D01*
X49607809Y-87757809D01*
X49748157Y-87547765D01*
X49797440Y-87300000D01*
X49797440Y-86194126D01*
X57815000Y-86194126D01*
X57815000Y-86605874D01*
X57972569Y-86986280D01*
X58263720Y-87277431D01*
X58644126Y-87435000D01*
X59055874Y-87435000D01*
X59436280Y-87277431D01*
X59513711Y-87200000D01*
X63252560Y-87200000D01*
X63252560Y-88900000D01*
X63301843Y-89147765D01*
X63442191Y-89357809D01*
X63652235Y-89498157D01*
X63900000Y-89547440D01*
X65600000Y-89547440D01*
X65847765Y-89498157D01*
X66057809Y-89357809D01*
X66198157Y-89147765D01*
X66247440Y-88900000D01*
X66247440Y-87844126D01*
X98815000Y-87844126D01*
X98815000Y-88255874D01*
X98972569Y-88636280D01*
X99263720Y-88927431D01*
X99644126Y-89085000D01*
X100055874Y-89085000D01*
X100436280Y-88927431D01*
X100727431Y-88636280D01*
X100885000Y-88255874D01*
X100885000Y-87844126D01*
X100727431Y-87463720D01*
X100436280Y-87172569D01*
X100055874Y-87015000D01*
X99644126Y-87015000D01*
X99263720Y-87172569D01*
X98972569Y-87463720D01*
X98815000Y-87844126D01*
X66247440Y-87844126D01*
X66247440Y-87200000D01*
X66198157Y-86952235D01*
X66057809Y-86742191D01*
X65847765Y-86601843D01*
X65600000Y-86552560D01*
X63900000Y-86552560D01*
X63652235Y-86601843D01*
X63442191Y-86742191D01*
X63301843Y-86952235D01*
X63252560Y-87200000D01*
X59513711Y-87200000D01*
X59727431Y-86986280D01*
X59885000Y-86605874D01*
X59885000Y-86194126D01*
X59727431Y-85813720D01*
X59436280Y-85522569D01*
X59055874Y-85365000D01*
X58644126Y-85365000D01*
X58263720Y-85522569D01*
X57972569Y-85813720D01*
X57815000Y-86194126D01*
X49797440Y-86194126D01*
X49797440Y-85800000D01*
X49748157Y-85552235D01*
X49607809Y-85342191D01*
X49397765Y-85201843D01*
X49150000Y-85152560D01*
X47650000Y-85152560D01*
X47402235Y-85201843D01*
X47192191Y-85342191D01*
X47075000Y-85517578D01*
X46957809Y-85342191D01*
X46747765Y-85201843D01*
X46500000Y-85152560D01*
X45000000Y-85152560D01*
X44752235Y-85201843D01*
X44542191Y-85342191D01*
X44401843Y-85552235D01*
X44352560Y-85800000D01*
X44352560Y-86538849D01*
X44286280Y-86472569D01*
X43905874Y-86315000D01*
X43494126Y-86315000D01*
X43113720Y-86472569D01*
X42822569Y-86763720D01*
X42665000Y-87144126D01*
X21127000Y-87144126D01*
X21127000Y-84344126D01*
X59965000Y-84344126D01*
X59965000Y-84755874D01*
X60122569Y-85136280D01*
X60413720Y-85427431D01*
X60794126Y-85585000D01*
X61205874Y-85585000D01*
X61586280Y-85427431D01*
X61877431Y-85136280D01*
X62035000Y-84755874D01*
X62035000Y-84344126D01*
X61877431Y-83963720D01*
X61586280Y-83672569D01*
X61396902Y-83594126D01*
X73465000Y-83594126D01*
X73465000Y-84005874D01*
X73622569Y-84386280D01*
X73913720Y-84677431D01*
X74294126Y-84835000D01*
X74705874Y-84835000D01*
X75086280Y-84677431D01*
X75377431Y-84386280D01*
X75535000Y-84005874D01*
X75535000Y-83744126D01*
X97465000Y-83744126D01*
X97465000Y-84155874D01*
X97622569Y-84536280D01*
X97913720Y-84827431D01*
X98149273Y-84925000D01*
X97913720Y-85022569D01*
X97622569Y-85313720D01*
X97465000Y-85694126D01*
X97465000Y-86105874D01*
X97622569Y-86486280D01*
X97913720Y-86777431D01*
X98294126Y-86935000D01*
X98705874Y-86935000D01*
X99086280Y-86777431D01*
X99377431Y-86486280D01*
X99535000Y-86105874D01*
X99535000Y-85694126D01*
X99377431Y-85313720D01*
X99086280Y-85022569D01*
X98850727Y-84925000D01*
X99086280Y-84827431D01*
X99377431Y-84536280D01*
X99535000Y-84155874D01*
X99535000Y-83744126D01*
X99377431Y-83363720D01*
X99086280Y-83072569D01*
X98705874Y-82915000D01*
X98294126Y-82915000D01*
X97913720Y-83072569D01*
X97622569Y-83363720D01*
X97465000Y-83744126D01*
X75535000Y-83744126D01*
X75535000Y-83594126D01*
X75377431Y-83213720D01*
X75086280Y-82922569D01*
X74705874Y-82765000D01*
X74294126Y-82765000D01*
X73913720Y-82922569D01*
X73622569Y-83213720D01*
X73465000Y-83594126D01*
X61396902Y-83594126D01*
X61205874Y-83515000D01*
X60794126Y-83515000D01*
X60413720Y-83672569D01*
X60122569Y-83963720D01*
X59965000Y-84344126D01*
X21127000Y-84344126D01*
X21127000Y-81944126D01*
X39765000Y-81944126D01*
X39765000Y-82355874D01*
X39922569Y-82736280D01*
X40213720Y-83027431D01*
X40594126Y-83185000D01*
X41005874Y-83185000D01*
X41386280Y-83027431D01*
X41677431Y-82736280D01*
X41835000Y-82355874D01*
X41835000Y-81944126D01*
X41677431Y-81563720D01*
X41386280Y-81272569D01*
X41005874Y-81115000D01*
X40594126Y-81115000D01*
X40213720Y-81272569D01*
X39922569Y-81563720D01*
X39765000Y-81944126D01*
X21127000Y-81944126D01*
X21127000Y-72380000D01*
X24785908Y-72380000D01*
X24901161Y-72959418D01*
X25229375Y-73450625D01*
X25527761Y-73650000D01*
X25229375Y-73849375D01*
X24901161Y-74340582D01*
X24785908Y-74920000D01*
X24901161Y-75499418D01*
X25229375Y-75990625D01*
X25527761Y-76190000D01*
X25229375Y-76389375D01*
X24901161Y-76880582D01*
X24785908Y-77460000D01*
X24901161Y-78039418D01*
X25229375Y-78530625D01*
X25247619Y-78542816D01*
X25202235Y-78551843D01*
X24992191Y-78692191D01*
X24851843Y-78902235D01*
X24802560Y-79150000D01*
X24802560Y-80850000D01*
X24851843Y-81097765D01*
X24992191Y-81307809D01*
X25202235Y-81448157D01*
X25450000Y-81497440D01*
X27150000Y-81497440D01*
X27397765Y-81448157D01*
X27607809Y-81307809D01*
X27748157Y-81097765D01*
X27757184Y-81052381D01*
X27769375Y-81070625D01*
X28260582Y-81398839D01*
X28693744Y-81485000D01*
X28986256Y-81485000D01*
X29419418Y-81398839D01*
X29910625Y-81070625D01*
X30238839Y-80579418D01*
X30354092Y-80000000D01*
X30238839Y-79420582D01*
X30020709Y-79094126D01*
X79415000Y-79094126D01*
X79415000Y-79505874D01*
X79572569Y-79886280D01*
X79863720Y-80177431D01*
X80244126Y-80335000D01*
X80655874Y-80335000D01*
X81036280Y-80177431D01*
X81327431Y-79886280D01*
X81485000Y-79505874D01*
X81485000Y-79344126D01*
X98015000Y-79344126D01*
X98015000Y-79755874D01*
X98172569Y-80136280D01*
X98336289Y-80300000D01*
X98222569Y-80413720D01*
X98065000Y-80794126D01*
X98065000Y-81205874D01*
X98222569Y-81586280D01*
X98513720Y-81877431D01*
X98894126Y-82035000D01*
X99305874Y-82035000D01*
X99686280Y-81877431D01*
X99977431Y-81586280D01*
X99994891Y-81544126D01*
X101315000Y-81544126D01*
X101315000Y-81955874D01*
X101472569Y-82336280D01*
X101763720Y-82627431D01*
X102144126Y-82785000D01*
X102513755Y-82785000D01*
X102365000Y-83144126D01*
X102365000Y-83555874D01*
X102522569Y-83936280D01*
X102813720Y-84227431D01*
X103194126Y-84385000D01*
X103605874Y-84385000D01*
X103986280Y-84227431D01*
X104277431Y-83936280D01*
X104435000Y-83555874D01*
X104435000Y-83144126D01*
X104277431Y-82763720D01*
X104257837Y-82744126D01*
X106365000Y-82744126D01*
X106365000Y-83155874D01*
X106522569Y-83536280D01*
X106813720Y-83827431D01*
X107194126Y-83985000D01*
X107605874Y-83985000D01*
X107986280Y-83827431D01*
X108277431Y-83536280D01*
X108435000Y-83155874D01*
X108435000Y-82744126D01*
X108277431Y-82363720D01*
X107986280Y-82072569D01*
X107690372Y-81950000D01*
X112252560Y-81950000D01*
X112252560Y-83450000D01*
X112301843Y-83697765D01*
X112442191Y-83907809D01*
X112652235Y-84048157D01*
X112900000Y-84097440D01*
X114400000Y-84097440D01*
X114647765Y-84048157D01*
X114857809Y-83907809D01*
X114998157Y-83697765D01*
X115047440Y-83450000D01*
X115047440Y-81950000D01*
X114998157Y-81702235D01*
X114857809Y-81492191D01*
X114647765Y-81351843D01*
X114400000Y-81302560D01*
X112900000Y-81302560D01*
X112652235Y-81351843D01*
X112442191Y-81492191D01*
X112301843Y-81702235D01*
X112252560Y-81950000D01*
X107690372Y-81950000D01*
X107605874Y-81915000D01*
X107194126Y-81915000D01*
X106813720Y-82072569D01*
X106522569Y-82363720D01*
X106365000Y-82744126D01*
X104257837Y-82744126D01*
X103986280Y-82472569D01*
X103605874Y-82315000D01*
X103236245Y-82315000D01*
X103385000Y-81955874D01*
X103385000Y-81544126D01*
X103227431Y-81163720D01*
X102936280Y-80872569D01*
X102555874Y-80715000D01*
X102144126Y-80715000D01*
X101763720Y-80872569D01*
X101472569Y-81163720D01*
X101315000Y-81544126D01*
X99994891Y-81544126D01*
X100135000Y-81205874D01*
X100135000Y-80794126D01*
X99977431Y-80413720D01*
X99813711Y-80250000D01*
X99927431Y-80136280D01*
X100027734Y-79894126D01*
X111215000Y-79894126D01*
X111215000Y-80305874D01*
X111372569Y-80686280D01*
X111663720Y-80977431D01*
X112044126Y-81135000D01*
X112455874Y-81135000D01*
X112836280Y-80977431D01*
X113127431Y-80686280D01*
X113285000Y-80305874D01*
X113285000Y-79894126D01*
X113127431Y-79513720D01*
X112836280Y-79222569D01*
X112455874Y-79065000D01*
X112044126Y-79065000D01*
X111663720Y-79222569D01*
X111372569Y-79513720D01*
X111215000Y-79894126D01*
X100027734Y-79894126D01*
X100085000Y-79755874D01*
X100085000Y-79344126D01*
X99927431Y-78963720D01*
X99636280Y-78672569D01*
X99255874Y-78515000D01*
X98844126Y-78515000D01*
X98463720Y-78672569D01*
X98172569Y-78963720D01*
X98015000Y-79344126D01*
X81485000Y-79344126D01*
X81485000Y-79094126D01*
X81327431Y-78713720D01*
X81036280Y-78422569D01*
X80655874Y-78265000D01*
X80244126Y-78265000D01*
X79863720Y-78422569D01*
X79572569Y-78713720D01*
X79415000Y-79094126D01*
X30020709Y-79094126D01*
X29910625Y-78929375D01*
X29612239Y-78730000D01*
X29910625Y-78530625D01*
X30238839Y-78039418D01*
X30354092Y-77460000D01*
X30238839Y-76880582D01*
X30114254Y-76694126D01*
X41315000Y-76694126D01*
X41315000Y-77105874D01*
X41472569Y-77486280D01*
X41763720Y-77777431D01*
X42144126Y-77935000D01*
X42555874Y-77935000D01*
X42936280Y-77777431D01*
X43190328Y-77523383D01*
X43302235Y-77598157D01*
X43550000Y-77647440D01*
X45050000Y-77647440D01*
X45297765Y-77598157D01*
X45507809Y-77457809D01*
X45600000Y-77319836D01*
X45692191Y-77457809D01*
X45902235Y-77598157D01*
X46150000Y-77647440D01*
X47650000Y-77647440D01*
X47897765Y-77598157D01*
X48107809Y-77457809D01*
X48248157Y-77247765D01*
X48297440Y-77000000D01*
X48297440Y-75994126D01*
X55815000Y-75994126D01*
X55815000Y-76405874D01*
X55972569Y-76786280D01*
X56263720Y-77077431D01*
X56644126Y-77235000D01*
X57055874Y-77235000D01*
X57436280Y-77077431D01*
X57727431Y-76786280D01*
X57846011Y-76500000D01*
X63002560Y-76500000D01*
X63002560Y-78000000D01*
X63051843Y-78247765D01*
X63192191Y-78457809D01*
X63402235Y-78598157D01*
X63650000Y-78647440D01*
X65150000Y-78647440D01*
X65397765Y-78598157D01*
X65607809Y-78457809D01*
X65748157Y-78247765D01*
X65750000Y-78238500D01*
X65751843Y-78247765D01*
X65892191Y-78457809D01*
X66102235Y-78598157D01*
X66350000Y-78647440D01*
X67850000Y-78647440D01*
X68097765Y-78598157D01*
X68307809Y-78457809D01*
X68448157Y-78247765D01*
X68497440Y-78000000D01*
X68497440Y-76500000D01*
X68448157Y-76252235D01*
X68307809Y-76042191D01*
X68097765Y-75901843D01*
X67850000Y-75852560D01*
X66350000Y-75852560D01*
X66102235Y-75901843D01*
X65892191Y-76042191D01*
X65751843Y-76252235D01*
X65750000Y-76261500D01*
X65748157Y-76252235D01*
X65607809Y-76042191D01*
X65397765Y-75901843D01*
X65150000Y-75852560D01*
X63650000Y-75852560D01*
X63402235Y-75901843D01*
X63192191Y-76042191D01*
X63051843Y-76252235D01*
X63002560Y-76500000D01*
X57846011Y-76500000D01*
X57885000Y-76405874D01*
X57885000Y-75994126D01*
X57802158Y-75794126D01*
X76165000Y-75794126D01*
X76165000Y-76205874D01*
X76322569Y-76586280D01*
X76613720Y-76877431D01*
X76994126Y-77035000D01*
X77405874Y-77035000D01*
X77786280Y-76877431D01*
X78077431Y-76586280D01*
X78235000Y-76205874D01*
X78235000Y-76000000D01*
X80552560Y-76000000D01*
X80552560Y-77700000D01*
X80601843Y-77947765D01*
X80742191Y-78157809D01*
X80952235Y-78298157D01*
X81200000Y-78347440D01*
X82900000Y-78347440D01*
X83147765Y-78298157D01*
X83357809Y-78157809D01*
X83498157Y-77947765D01*
X83547440Y-77700000D01*
X83547440Y-77094126D01*
X107715000Y-77094126D01*
X107715000Y-77505874D01*
X107872569Y-77886280D01*
X108163720Y-78177431D01*
X108544126Y-78335000D01*
X108955874Y-78335000D01*
X109336280Y-78177431D01*
X109627431Y-77886280D01*
X109785000Y-77505874D01*
X109785000Y-77094126D01*
X109627431Y-76713720D01*
X109336280Y-76422569D01*
X108955874Y-76265000D01*
X108544126Y-76265000D01*
X108163720Y-76422569D01*
X107872569Y-76713720D01*
X107715000Y-77094126D01*
X83547440Y-77094126D01*
X83547440Y-76000000D01*
X83498157Y-75752235D01*
X83357809Y-75542191D01*
X83147765Y-75401843D01*
X82900000Y-75352560D01*
X81200000Y-75352560D01*
X80952235Y-75401843D01*
X80742191Y-75542191D01*
X80601843Y-75752235D01*
X80552560Y-76000000D01*
X78235000Y-76000000D01*
X78235000Y-75794126D01*
X78077431Y-75413720D01*
X77786280Y-75122569D01*
X77405874Y-74965000D01*
X76994126Y-74965000D01*
X76613720Y-75122569D01*
X76322569Y-75413720D01*
X76165000Y-75794126D01*
X57802158Y-75794126D01*
X57727431Y-75613720D01*
X57436280Y-75322569D01*
X57055874Y-75165000D01*
X56644126Y-75165000D01*
X56263720Y-75322569D01*
X55972569Y-75613720D01*
X55815000Y-75994126D01*
X48297440Y-75994126D01*
X48297440Y-75500000D01*
X48248157Y-75252235D01*
X48107809Y-75042191D01*
X47897765Y-74901843D01*
X47650000Y-74852560D01*
X46150000Y-74852560D01*
X45902235Y-74901843D01*
X45692191Y-75042191D01*
X45600000Y-75180164D01*
X45507809Y-75042191D01*
X45297765Y-74901843D01*
X45050000Y-74852560D01*
X43550000Y-74852560D01*
X43302235Y-74901843D01*
X43092191Y-75042191D01*
X42951843Y-75252235D01*
X42902560Y-75500000D01*
X42902560Y-76008602D01*
X42555874Y-75865000D01*
X42144126Y-75865000D01*
X41763720Y-76022569D01*
X41472569Y-76313720D01*
X41315000Y-76694126D01*
X30114254Y-76694126D01*
X29910625Y-76389375D01*
X29612239Y-76190000D01*
X29910625Y-75990625D01*
X30238839Y-75499418D01*
X30354092Y-74920000D01*
X30238839Y-74340582D01*
X29910625Y-73849375D01*
X29612239Y-73650000D01*
X29845521Y-73494126D01*
X44165000Y-73494126D01*
X44165000Y-73905874D01*
X44322569Y-74286280D01*
X44613720Y-74577431D01*
X44994126Y-74735000D01*
X45405874Y-74735000D01*
X45786280Y-74577431D01*
X46077431Y-74286280D01*
X46235000Y-73905874D01*
X46235000Y-73494126D01*
X46077431Y-73113720D01*
X46007837Y-73044126D01*
X48715000Y-73044126D01*
X48715000Y-73455874D01*
X48872569Y-73836280D01*
X49163720Y-74127431D01*
X49544126Y-74285000D01*
X49955874Y-74285000D01*
X50336280Y-74127431D01*
X50627431Y-73836280D01*
X50785000Y-73455874D01*
X50785000Y-73044126D01*
X50627431Y-72663720D01*
X50607837Y-72644126D01*
X98265000Y-72644126D01*
X98265000Y-73055874D01*
X98422569Y-73436280D01*
X98713720Y-73727431D01*
X99094126Y-73885000D01*
X99505874Y-73885000D01*
X99695958Y-73806265D01*
X99642191Y-73842191D01*
X99501843Y-74052235D01*
X99452560Y-74300000D01*
X99452560Y-75800000D01*
X99501843Y-76047765D01*
X99642191Y-76257809D01*
X99852235Y-76398157D01*
X100100000Y-76447440D01*
X101600000Y-76447440D01*
X101847765Y-76398157D01*
X102057809Y-76257809D01*
X102198157Y-76047765D01*
X102247440Y-75800000D01*
X102247440Y-75144126D01*
X104415000Y-75144126D01*
X104415000Y-75555874D01*
X104572569Y-75936280D01*
X104863720Y-76227431D01*
X105244126Y-76385000D01*
X105655874Y-76385000D01*
X106036280Y-76227431D01*
X106269585Y-75994126D01*
X110415000Y-75994126D01*
X110415000Y-76405874D01*
X110572569Y-76786280D01*
X110863720Y-77077431D01*
X111244126Y-77235000D01*
X111655874Y-77235000D01*
X112036280Y-77077431D01*
X112327431Y-76786280D01*
X112485000Y-76405874D01*
X112485000Y-75994126D01*
X112327431Y-75613720D01*
X112036280Y-75322569D01*
X111655874Y-75165000D01*
X111244126Y-75165000D01*
X110863720Y-75322569D01*
X110572569Y-75613720D01*
X110415000Y-75994126D01*
X106269585Y-75994126D01*
X106327431Y-75936280D01*
X106485000Y-75555874D01*
X106485000Y-75144126D01*
X106327431Y-74763720D01*
X106036280Y-74472569D01*
X105655874Y-74315000D01*
X105244126Y-74315000D01*
X104863720Y-74472569D01*
X104572569Y-74763720D01*
X104415000Y-75144126D01*
X102247440Y-75144126D01*
X102247440Y-74300000D01*
X102198157Y-74052235D01*
X102057809Y-73842191D01*
X101847765Y-73701843D01*
X101676515Y-73667780D01*
X101785000Y-73405874D01*
X101785000Y-72994126D01*
X101677667Y-72735000D01*
X102055874Y-72735000D01*
X102436280Y-72577431D01*
X102563711Y-72450000D01*
X113752560Y-72450000D01*
X113752560Y-73950000D01*
X113801843Y-74197765D01*
X113942191Y-74407809D01*
X114152235Y-74548157D01*
X114400000Y-74597440D01*
X115900000Y-74597440D01*
X116147765Y-74548157D01*
X116357809Y-74407809D01*
X116498157Y-74197765D01*
X116547440Y-73950000D01*
X116547440Y-72450000D01*
X116498157Y-72202235D01*
X116357809Y-71992191D01*
X116147765Y-71851843D01*
X115900000Y-71802560D01*
X114400000Y-71802560D01*
X114152235Y-71851843D01*
X113942191Y-71992191D01*
X113801843Y-72202235D01*
X113752560Y-72450000D01*
X102563711Y-72450000D01*
X102727431Y-72286280D01*
X102885000Y-71905874D01*
X102885000Y-71494126D01*
X102727431Y-71113720D01*
X102436280Y-70822569D01*
X102055874Y-70665000D01*
X101644126Y-70665000D01*
X101263720Y-70822569D01*
X100972569Y-71113720D01*
X100815000Y-71494126D01*
X100815000Y-71905874D01*
X100922333Y-72165000D01*
X100544126Y-72165000D01*
X100196229Y-72309103D01*
X100177431Y-72263720D01*
X99886280Y-71972569D01*
X99795580Y-71935000D01*
X100005874Y-71935000D01*
X100386280Y-71777431D01*
X100677431Y-71486280D01*
X100835000Y-71105874D01*
X100835000Y-70694126D01*
X100677431Y-70313720D01*
X100386280Y-70022569D01*
X100005874Y-69865000D01*
X99594126Y-69865000D01*
X99213720Y-70022569D01*
X98922569Y-70313720D01*
X98765000Y-70694126D01*
X98765000Y-71105874D01*
X98922569Y-71486280D01*
X99213720Y-71777431D01*
X99304420Y-71815000D01*
X99094126Y-71815000D01*
X98713720Y-71972569D01*
X98422569Y-72263720D01*
X98265000Y-72644126D01*
X50607837Y-72644126D01*
X50336280Y-72372569D01*
X49955874Y-72215000D01*
X49544126Y-72215000D01*
X49163720Y-72372569D01*
X48872569Y-72663720D01*
X48715000Y-73044126D01*
X46007837Y-73044126D01*
X45786280Y-72822569D01*
X45405874Y-72665000D01*
X44994126Y-72665000D01*
X44613720Y-72822569D01*
X44322569Y-73113720D01*
X44165000Y-73494126D01*
X29845521Y-73494126D01*
X29910625Y-73450625D01*
X30238839Y-72959418D01*
X30354092Y-72380000D01*
X30238839Y-71800582D01*
X29910625Y-71309375D01*
X29419418Y-70981161D01*
X28986256Y-70895000D01*
X28693744Y-70895000D01*
X28260582Y-70981161D01*
X27769375Y-71309375D01*
X27570000Y-71607761D01*
X27370625Y-71309375D01*
X26879418Y-70981161D01*
X26446256Y-70895000D01*
X26153744Y-70895000D01*
X25720582Y-70981161D01*
X25229375Y-71309375D01*
X24901161Y-71800582D01*
X24785908Y-72380000D01*
X21127000Y-72380000D01*
X21127000Y-68694126D01*
X46315000Y-68694126D01*
X46315000Y-69105874D01*
X46472569Y-69486280D01*
X46763720Y-69777431D01*
X47144126Y-69935000D01*
X47555874Y-69935000D01*
X47936280Y-69777431D01*
X48227431Y-69486280D01*
X48385000Y-69105874D01*
X48385000Y-68694126D01*
X48227431Y-68313720D01*
X47936280Y-68022569D01*
X47555874Y-67865000D01*
X47144126Y-67865000D01*
X46763720Y-68022569D01*
X46472569Y-68313720D01*
X46315000Y-68694126D01*
X21127000Y-68694126D01*
X21127000Y-67750000D01*
X48902560Y-67750000D01*
X48902560Y-69250000D01*
X48951843Y-69497765D01*
X49092191Y-69707809D01*
X49302235Y-69848157D01*
X49550000Y-69897440D01*
X51050000Y-69897440D01*
X51297765Y-69848157D01*
X51507809Y-69707809D01*
X51648157Y-69497765D01*
X51697440Y-69250000D01*
X51697440Y-67750000D01*
X51648157Y-67502235D01*
X51507809Y-67292191D01*
X51297765Y-67151843D01*
X51050000Y-67102560D01*
X49550000Y-67102560D01*
X49302235Y-67151843D01*
X49092191Y-67292191D01*
X48951843Y-67502235D01*
X48902560Y-67750000D01*
X21127000Y-67750000D01*
X21127000Y-67050000D01*
X56452560Y-67050000D01*
X56452560Y-68750000D01*
X56501843Y-68997765D01*
X56642191Y-69207809D01*
X56852235Y-69348157D01*
X57100000Y-69397440D01*
X58800000Y-69397440D01*
X59047765Y-69348157D01*
X59257809Y-69207809D01*
X59398157Y-68997765D01*
X59447440Y-68750000D01*
X59447440Y-67050000D01*
X59398157Y-66802235D01*
X59257809Y-66592191D01*
X59047765Y-66451843D01*
X58800000Y-66402560D01*
X57100000Y-66402560D01*
X56852235Y-66451843D01*
X56642191Y-66592191D01*
X56501843Y-66802235D01*
X56452560Y-67050000D01*
X21127000Y-67050000D01*
X21127000Y-65344126D01*
X32565000Y-65344126D01*
X32565000Y-65755874D01*
X32722569Y-66136280D01*
X33013720Y-66427431D01*
X33394126Y-66585000D01*
X33805874Y-66585000D01*
X34186280Y-66427431D01*
X34477431Y-66136280D01*
X34509027Y-66060000D01*
X103635908Y-66060000D01*
X103751161Y-66639418D01*
X104079375Y-67130625D01*
X104097619Y-67142816D01*
X104052235Y-67151843D01*
X103842191Y-67292191D01*
X103701843Y-67502235D01*
X103652560Y-67750000D01*
X103652560Y-69450000D01*
X103701843Y-69697765D01*
X103842191Y-69907809D01*
X104052235Y-70048157D01*
X104300000Y-70097440D01*
X106000000Y-70097440D01*
X106247765Y-70048157D01*
X106457809Y-69907809D01*
X106598157Y-69697765D01*
X106647440Y-69450000D01*
X106647440Y-68850000D01*
X113202560Y-68850000D01*
X113202560Y-70550000D01*
X113251843Y-70797765D01*
X113392191Y-71007809D01*
X113602235Y-71148157D01*
X113850000Y-71197440D01*
X115550000Y-71197440D01*
X115797765Y-71148157D01*
X116007809Y-71007809D01*
X116148157Y-70797765D01*
X116197440Y-70550000D01*
X116197440Y-68850000D01*
X116148157Y-68602235D01*
X116007809Y-68392191D01*
X115797765Y-68251843D01*
X115550000Y-68202560D01*
X113850000Y-68202560D01*
X113602235Y-68251843D01*
X113392191Y-68392191D01*
X113251843Y-68602235D01*
X113202560Y-68850000D01*
X106647440Y-68850000D01*
X106647440Y-67750000D01*
X106598157Y-67502235D01*
X106457809Y-67292191D01*
X106247765Y-67151843D01*
X106202381Y-67142816D01*
X106220625Y-67130625D01*
X106548839Y-66639418D01*
X106664092Y-66060000D01*
X106548839Y-65480582D01*
X106220625Y-64989375D01*
X105937206Y-64800000D01*
X109052560Y-64800000D01*
X109052560Y-66300000D01*
X109101843Y-66547765D01*
X109242191Y-66757809D01*
X109452235Y-66898157D01*
X109700000Y-66947440D01*
X111200000Y-66947440D01*
X111447765Y-66898157D01*
X111657809Y-66757809D01*
X111798157Y-66547765D01*
X111847440Y-66300000D01*
X111847440Y-64800000D01*
X111798157Y-64552235D01*
X111657809Y-64342191D01*
X111447765Y-64201843D01*
X111200000Y-64152560D01*
X109700000Y-64152560D01*
X109452235Y-64201843D01*
X109242191Y-64342191D01*
X109101843Y-64552235D01*
X109052560Y-64800000D01*
X105937206Y-64800000D01*
X105729418Y-64661161D01*
X105296256Y-64575000D01*
X105003744Y-64575000D01*
X104570582Y-64661161D01*
X104079375Y-64989375D01*
X103751161Y-65480582D01*
X103635908Y-66060000D01*
X34509027Y-66060000D01*
X34635000Y-65755874D01*
X34635000Y-65344126D01*
X34477431Y-64963720D01*
X34186280Y-64672569D01*
X33805874Y-64515000D01*
X33394126Y-64515000D01*
X33013720Y-64672569D01*
X32722569Y-64963720D01*
X32565000Y-65344126D01*
X21127000Y-65344126D01*
X21127000Y-61194126D01*
X36265000Y-61194126D01*
X36265000Y-61605874D01*
X36422569Y-61986280D01*
X36713720Y-62277431D01*
X37094126Y-62435000D01*
X37505874Y-62435000D01*
X37845974Y-62294126D01*
X39715000Y-62294126D01*
X39715000Y-62705874D01*
X39872569Y-63086280D01*
X40163720Y-63377431D01*
X40365000Y-63460804D01*
X40365000Y-63605874D01*
X40522569Y-63986280D01*
X40813720Y-64277431D01*
X41194126Y-64435000D01*
X41605874Y-64435000D01*
X41865000Y-64327667D01*
X41865000Y-64405874D01*
X42022569Y-64786280D01*
X42313720Y-65077431D01*
X42694126Y-65235000D01*
X43105874Y-65235000D01*
X43486280Y-65077431D01*
X43777431Y-64786280D01*
X43935000Y-64405874D01*
X43935000Y-63994126D01*
X43777431Y-63613720D01*
X43486280Y-63322569D01*
X43105874Y-63165000D01*
X42694126Y-63165000D01*
X42435000Y-63272333D01*
X42435000Y-63194126D01*
X42375302Y-63050000D01*
X93202560Y-63050000D01*
X93202560Y-64750000D01*
X93251843Y-64997765D01*
X93392191Y-65207809D01*
X93602235Y-65348157D01*
X93850000Y-65397440D01*
X95550000Y-65397440D01*
X95797765Y-65348157D01*
X96007809Y-65207809D01*
X96148157Y-64997765D01*
X96197440Y-64750000D01*
X96197440Y-64694126D01*
X101465000Y-64694126D01*
X101465000Y-65105874D01*
X101622569Y-65486280D01*
X101913720Y-65777431D01*
X102294126Y-65935000D01*
X102705874Y-65935000D01*
X103086280Y-65777431D01*
X103377431Y-65486280D01*
X103535000Y-65105874D01*
X103535000Y-64694126D01*
X103377431Y-64313720D01*
X103086280Y-64022569D01*
X102705874Y-63865000D01*
X102294126Y-63865000D01*
X101913720Y-64022569D01*
X101622569Y-64313720D01*
X101465000Y-64694126D01*
X96197440Y-64694126D01*
X96197440Y-63050000D01*
X96148157Y-62802235D01*
X96046437Y-62650000D01*
X112452560Y-62650000D01*
X112452560Y-64350000D01*
X112501843Y-64597765D01*
X112642191Y-64807809D01*
X112852235Y-64948157D01*
X113100000Y-64997440D01*
X114800000Y-64997440D01*
X115047765Y-64948157D01*
X115257809Y-64807809D01*
X115398157Y-64597765D01*
X115447440Y-64350000D01*
X115447440Y-62650000D01*
X115398157Y-62402235D01*
X115257809Y-62192191D01*
X115047765Y-62051843D01*
X114800000Y-62002560D01*
X113100000Y-62002560D01*
X112852235Y-62051843D01*
X112642191Y-62192191D01*
X112501843Y-62402235D01*
X112452560Y-62650000D01*
X96046437Y-62650000D01*
X96007809Y-62592191D01*
X95797765Y-62451843D01*
X95550000Y-62402560D01*
X93850000Y-62402560D01*
X93602235Y-62451843D01*
X93392191Y-62592191D01*
X93251843Y-62802235D01*
X93202560Y-63050000D01*
X42375302Y-63050000D01*
X42277431Y-62813720D01*
X41986280Y-62522569D01*
X41785000Y-62439196D01*
X41785000Y-62294126D01*
X41627431Y-61913720D01*
X41336280Y-61622569D01*
X40955874Y-61465000D01*
X40544126Y-61465000D01*
X40163720Y-61622569D01*
X39872569Y-61913720D01*
X39715000Y-62294126D01*
X37845974Y-62294126D01*
X37886280Y-62277431D01*
X38177431Y-61986280D01*
X38335000Y-61605874D01*
X38335000Y-61194126D01*
X38177431Y-60813720D01*
X37886280Y-60522569D01*
X37505874Y-60365000D01*
X37094126Y-60365000D01*
X36713720Y-60522569D01*
X36422569Y-60813720D01*
X36265000Y-61194126D01*
X21127000Y-61194126D01*
X21127000Y-59794126D01*
X82615000Y-59794126D01*
X82615000Y-60205874D01*
X82772569Y-60586280D01*
X83063720Y-60877431D01*
X83444126Y-61035000D01*
X83855874Y-61035000D01*
X84236280Y-60877431D01*
X84527431Y-60586280D01*
X84685000Y-60205874D01*
X84685000Y-59794126D01*
X84527431Y-59413720D01*
X84236280Y-59122569D01*
X83855874Y-58965000D01*
X83444126Y-58965000D01*
X83063720Y-59122569D01*
X82772569Y-59413720D01*
X82615000Y-59794126D01*
X21127000Y-59794126D01*
X21127000Y-58294126D01*
X42215000Y-58294126D01*
X42215000Y-58705874D01*
X42372569Y-59086280D01*
X42663720Y-59377431D01*
X43044126Y-59535000D01*
X43455874Y-59535000D01*
X43836280Y-59377431D01*
X44127431Y-59086280D01*
X44285000Y-58705874D01*
X44285000Y-58294126D01*
X44127431Y-57913720D01*
X43836280Y-57622569D01*
X43767613Y-57594126D01*
X82715000Y-57594126D01*
X82715000Y-58005874D01*
X82872569Y-58386280D01*
X83163720Y-58677431D01*
X83544126Y-58835000D01*
X83955874Y-58835000D01*
X84336280Y-58677431D01*
X84627431Y-58386280D01*
X84785000Y-58005874D01*
X84785000Y-57594126D01*
X84627431Y-57213720D01*
X84457837Y-57044126D01*
X98915000Y-57044126D01*
X98915000Y-57455874D01*
X99072569Y-57836280D01*
X99363720Y-58127431D01*
X99744126Y-58285000D01*
X100155874Y-58285000D01*
X100536280Y-58127431D01*
X100827431Y-57836280D01*
X100935883Y-57574452D01*
X110055000Y-57574452D01*
X110055000Y-58105548D01*
X110258242Y-58596217D01*
X110633783Y-58971758D01*
X111124452Y-59175000D01*
X111655548Y-59175000D01*
X112146217Y-58971758D01*
X112521758Y-58596217D01*
X112660000Y-58262472D01*
X112798242Y-58596217D01*
X113173783Y-58971758D01*
X113664452Y-59175000D01*
X114195548Y-59175000D01*
X114686217Y-58971758D01*
X115061758Y-58596217D01*
X115265000Y-58105548D01*
X115265000Y-57574452D01*
X115061758Y-57083783D01*
X114686217Y-56708242D01*
X114195548Y-56505000D01*
X113664452Y-56505000D01*
X113173783Y-56708242D01*
X112798242Y-57083783D01*
X112660000Y-57417528D01*
X112521758Y-57083783D01*
X112146217Y-56708242D01*
X111655548Y-56505000D01*
X111124452Y-56505000D01*
X110633783Y-56708242D01*
X110258242Y-57083783D01*
X110055000Y-57574452D01*
X100935883Y-57574452D01*
X100985000Y-57455874D01*
X100985000Y-57044126D01*
X100827431Y-56663720D01*
X100536280Y-56372569D01*
X100204823Y-56235275D01*
X111904331Y-56235275D01*
X111966169Y-56471042D01*
X112467122Y-56647419D01*
X112997440Y-56618664D01*
X113353831Y-56471042D01*
X113415669Y-56235275D01*
X112660000Y-55479605D01*
X111904331Y-56235275D01*
X100204823Y-56235275D01*
X100155874Y-56215000D01*
X99744126Y-56215000D01*
X99363720Y-56372569D01*
X99072569Y-56663720D01*
X98915000Y-57044126D01*
X84457837Y-57044126D01*
X84336280Y-56922569D01*
X83955874Y-56765000D01*
X83544126Y-56765000D01*
X83163720Y-56922569D01*
X82872569Y-57213720D01*
X82715000Y-57594126D01*
X43767613Y-57594126D01*
X43455874Y-57465000D01*
X43044126Y-57465000D01*
X42663720Y-57622569D01*
X42372569Y-57913720D01*
X42215000Y-58294126D01*
X21127000Y-58294126D01*
X21127000Y-55050000D01*
X48202560Y-55050000D01*
X48202560Y-56750000D01*
X48251843Y-56997765D01*
X48392191Y-57207809D01*
X48602235Y-57348157D01*
X48850000Y-57397440D01*
X50550000Y-57397440D01*
X50797765Y-57348157D01*
X51007809Y-57207809D01*
X51148157Y-56997765D01*
X51197440Y-56750000D01*
X51197440Y-55050000D01*
X51148157Y-54802235D01*
X51007809Y-54592191D01*
X50797765Y-54451843D01*
X50550000Y-54402560D01*
X48850000Y-54402560D01*
X48602235Y-54451843D01*
X48392191Y-54592191D01*
X48251843Y-54802235D01*
X48202560Y-55050000D01*
X21127000Y-55050000D01*
X21127000Y-52294126D01*
X31815000Y-52294126D01*
X31815000Y-52705874D01*
X31972569Y-53086280D01*
X32263720Y-53377431D01*
X32644126Y-53535000D01*
X33055874Y-53535000D01*
X33436280Y-53377431D01*
X33727431Y-53086280D01*
X33765602Y-52994126D01*
X45265000Y-52994126D01*
X45265000Y-53405874D01*
X45422569Y-53786280D01*
X45713720Y-54077431D01*
X46094126Y-54235000D01*
X46505874Y-54235000D01*
X46886280Y-54077431D01*
X47177431Y-53786280D01*
X47335000Y-53405874D01*
X47335000Y-52994126D01*
X47177431Y-52613720D01*
X46886280Y-52322569D01*
X46505874Y-52165000D01*
X46094126Y-52165000D01*
X45713720Y-52322569D01*
X45422569Y-52613720D01*
X45265000Y-52994126D01*
X33765602Y-52994126D01*
X33885000Y-52705874D01*
X33885000Y-52294126D01*
X33727431Y-51913720D01*
X33436280Y-51622569D01*
X33055874Y-51465000D01*
X32644126Y-51465000D01*
X32263720Y-51622569D01*
X31972569Y-51913720D01*
X31815000Y-52294126D01*
X21127000Y-52294126D01*
X21127000Y-49094126D01*
X31065000Y-49094126D01*
X31065000Y-49505874D01*
X31222569Y-49886280D01*
X31513720Y-50177431D01*
X31894126Y-50335000D01*
X32305874Y-50335000D01*
X32686280Y-50177431D01*
X32977431Y-49886280D01*
X33135000Y-49505874D01*
X33135000Y-49094126D01*
X36915000Y-49094126D01*
X36915000Y-49505874D01*
X37072569Y-49886280D01*
X37363720Y-50177431D01*
X37744126Y-50335000D01*
X38155874Y-50335000D01*
X38536280Y-50177431D01*
X38827431Y-49886280D01*
X38985000Y-49505874D01*
X38985000Y-49094126D01*
X38827431Y-48713720D01*
X38536280Y-48422569D01*
X38155874Y-48265000D01*
X37744126Y-48265000D01*
X37363720Y-48422569D01*
X37072569Y-48713720D01*
X36915000Y-49094126D01*
X33135000Y-49094126D01*
X32977431Y-48713720D01*
X32686280Y-48422569D01*
X32305874Y-48265000D01*
X31894126Y-48265000D01*
X31513720Y-48422569D01*
X31222569Y-48713720D01*
X31065000Y-49094126D01*
X21127000Y-49094126D01*
X21127000Y-47094126D01*
X27265000Y-47094126D01*
X27265000Y-47505874D01*
X27422569Y-47886280D01*
X27713720Y-48177431D01*
X28094126Y-48335000D01*
X28505874Y-48335000D01*
X28886280Y-48177431D01*
X29177431Y-47886280D01*
X29335000Y-47505874D01*
X29335000Y-47094126D01*
X29177431Y-46713720D01*
X28886280Y-46422569D01*
X28505874Y-46265000D01*
X28094126Y-46265000D01*
X27713720Y-46422569D01*
X27422569Y-46713720D01*
X27265000Y-47094126D01*
X21127000Y-47094126D01*
X21127000Y-46244126D01*
X41715000Y-46244126D01*
X41715000Y-46655874D01*
X41872569Y-47036280D01*
X42163720Y-47327431D01*
X42544126Y-47485000D01*
X42955874Y-47485000D01*
X43336280Y-47327431D01*
X43403179Y-47260532D01*
X43265000Y-47594126D01*
X43265000Y-48005874D01*
X43422569Y-48386280D01*
X43713720Y-48677431D01*
X44094126Y-48835000D01*
X44505874Y-48835000D01*
X44886280Y-48677431D01*
X45177431Y-48386280D01*
X45335000Y-48005874D01*
X45335000Y-47930000D01*
X67485908Y-47930000D01*
X67601161Y-48509418D01*
X67929375Y-49000625D01*
X68227761Y-49200000D01*
X67929375Y-49399375D01*
X67601161Y-49890582D01*
X67485908Y-50470000D01*
X67601161Y-51049418D01*
X67929375Y-51540625D01*
X68227761Y-51740000D01*
X67929375Y-51939375D01*
X67601161Y-52430582D01*
X67485908Y-53010000D01*
X67601161Y-53589418D01*
X67929375Y-54080625D01*
X67947619Y-54092816D01*
X67902235Y-54101843D01*
X67692191Y-54242191D01*
X67551843Y-54452235D01*
X67502560Y-54700000D01*
X67502560Y-56400000D01*
X67551843Y-56647765D01*
X67692191Y-56857809D01*
X67902235Y-56998157D01*
X68150000Y-57047440D01*
X69850000Y-57047440D01*
X70097765Y-56998157D01*
X70307809Y-56857809D01*
X70448157Y-56647765D01*
X70497440Y-56400000D01*
X70497440Y-55107122D01*
X111312581Y-55107122D01*
X111341336Y-55637440D01*
X111488958Y-55993831D01*
X111724725Y-56055669D01*
X112480395Y-55300000D01*
X112839605Y-55300000D01*
X113595275Y-56055669D01*
X113831042Y-55993831D01*
X113928153Y-55718013D01*
X114068242Y-56056217D01*
X114443783Y-56431758D01*
X114934452Y-56635000D01*
X115465548Y-56635000D01*
X115956217Y-56431758D01*
X116331758Y-56056217D01*
X116535000Y-55565548D01*
X116535000Y-55034452D01*
X116331758Y-54543783D01*
X115956217Y-54168242D01*
X115465548Y-53965000D01*
X114934452Y-53965000D01*
X114443783Y-54168242D01*
X114068242Y-54543783D01*
X113936721Y-54861302D01*
X113831042Y-54606169D01*
X113595275Y-54544331D01*
X112839605Y-55300000D01*
X112480395Y-55300000D01*
X111724725Y-54544331D01*
X111488958Y-54606169D01*
X111312581Y-55107122D01*
X70497440Y-55107122D01*
X70497440Y-54700000D01*
X70448157Y-54452235D01*
X70307809Y-54242191D01*
X70097765Y-54101843D01*
X70052381Y-54092816D01*
X70070625Y-54080625D01*
X70262057Y-53794126D01*
X104165000Y-53794126D01*
X104165000Y-54205874D01*
X104322569Y-54586280D01*
X104613720Y-54877431D01*
X104994126Y-55035000D01*
X105405874Y-55035000D01*
X105786280Y-54877431D01*
X106077431Y-54586280D01*
X106169201Y-54364725D01*
X111904331Y-54364725D01*
X112660000Y-55120395D01*
X113415669Y-54364725D01*
X113353831Y-54128958D01*
X112852878Y-53952581D01*
X112322560Y-53981336D01*
X111966169Y-54128958D01*
X111904331Y-54364725D01*
X106169201Y-54364725D01*
X106235000Y-54205874D01*
X106235000Y-53794126D01*
X106077431Y-53413720D01*
X105786280Y-53122569D01*
X105405874Y-52965000D01*
X104994126Y-52965000D01*
X104613720Y-53122569D01*
X104322569Y-53413720D01*
X104165000Y-53794126D01*
X70262057Y-53794126D01*
X70398839Y-53589418D01*
X70514092Y-53010000D01*
X70401534Y-52444126D01*
X92315000Y-52444126D01*
X92315000Y-52855874D01*
X92472569Y-53236280D01*
X92763720Y-53527431D01*
X93144126Y-53685000D01*
X93555874Y-53685000D01*
X93936280Y-53527431D01*
X94227431Y-53236280D01*
X94385000Y-52855874D01*
X94385000Y-52444126D01*
X94227431Y-52063720D01*
X93936280Y-51772569D01*
X93555874Y-51615000D01*
X93144126Y-51615000D01*
X92763720Y-51772569D01*
X92472569Y-52063720D01*
X92315000Y-52444126D01*
X70401534Y-52444126D01*
X70398839Y-52430582D01*
X70070625Y-51939375D01*
X69772239Y-51740000D01*
X70070625Y-51540625D01*
X70074749Y-51534452D01*
X109925000Y-51534452D01*
X109925000Y-52065548D01*
X110128242Y-52556217D01*
X110503783Y-52931758D01*
X110994452Y-53135000D01*
X111525548Y-53135000D01*
X112016217Y-52931758D01*
X112391758Y-52556217D01*
X112530000Y-52222472D01*
X112668242Y-52556217D01*
X113043783Y-52931758D01*
X113534452Y-53135000D01*
X114065548Y-53135000D01*
X114556217Y-52931758D01*
X114931758Y-52556217D01*
X115135000Y-52065548D01*
X115135000Y-51534452D01*
X114931758Y-51043783D01*
X114556217Y-50668242D01*
X114065548Y-50465000D01*
X113534452Y-50465000D01*
X113043783Y-50668242D01*
X112668242Y-51043783D01*
X112530000Y-51377528D01*
X112391758Y-51043783D01*
X112016217Y-50668242D01*
X111525548Y-50465000D01*
X110994452Y-50465000D01*
X110503783Y-50668242D01*
X110128242Y-51043783D01*
X109925000Y-51534452D01*
X70074749Y-51534452D01*
X70398839Y-51049418D01*
X70514092Y-50470000D01*
X70459446Y-50195275D01*
X111774331Y-50195275D01*
X111836169Y-50431042D01*
X112337122Y-50607419D01*
X112867440Y-50578664D01*
X113223831Y-50431042D01*
X113285669Y-50195275D01*
X112530000Y-49439605D01*
X111774331Y-50195275D01*
X70459446Y-50195275D01*
X70398839Y-49890582D01*
X70070625Y-49399375D01*
X69772239Y-49200000D01*
X69971105Y-49067122D01*
X111182581Y-49067122D01*
X111211336Y-49597440D01*
X111358958Y-49953831D01*
X111594725Y-50015669D01*
X112350395Y-49260000D01*
X112709605Y-49260000D01*
X113465275Y-50015669D01*
X113701042Y-49953831D01*
X113798153Y-49678013D01*
X113938242Y-50016217D01*
X114313783Y-50391758D01*
X114804452Y-50595000D01*
X115335548Y-50595000D01*
X115826217Y-50391758D01*
X116201758Y-50016217D01*
X116405000Y-49525548D01*
X116405000Y-48994452D01*
X116201758Y-48503783D01*
X115826217Y-48128242D01*
X115335548Y-47925000D01*
X114804452Y-47925000D01*
X114313783Y-48128242D01*
X113938242Y-48503783D01*
X113806721Y-48821302D01*
X113701042Y-48566169D01*
X113465275Y-48504331D01*
X112709605Y-49260000D01*
X112350395Y-49260000D01*
X111594725Y-48504331D01*
X111358958Y-48566169D01*
X111182581Y-49067122D01*
X69971105Y-49067122D01*
X70070625Y-49000625D01*
X70398839Y-48509418D01*
X70435576Y-48324725D01*
X111774331Y-48324725D01*
X112530000Y-49080395D01*
X113285669Y-48324725D01*
X113223831Y-48088958D01*
X112722878Y-47912581D01*
X112192560Y-47941336D01*
X111836169Y-48088958D01*
X111774331Y-48324725D01*
X70435576Y-48324725D01*
X70514092Y-47930000D01*
X70398839Y-47350582D01*
X70070625Y-46859375D01*
X69969685Y-46791929D01*
X89302429Y-46791929D01*
X89302429Y-47203677D01*
X89459998Y-47584083D01*
X89751149Y-47875234D01*
X90131555Y-48032803D01*
X90543303Y-48032803D01*
X90923709Y-47875234D01*
X91041140Y-47757803D01*
X101527350Y-47757803D01*
X101602197Y-47772691D01*
X101677044Y-47757803D01*
X101677049Y-47757803D01*
X101898734Y-47713707D01*
X102150126Y-47545732D01*
X102192528Y-47482273D01*
X109014802Y-40660000D01*
X114552560Y-40660000D01*
X114552560Y-40750000D01*
X114601843Y-40997765D01*
X114742191Y-41207809D01*
X114952235Y-41348157D01*
X115200000Y-41397440D01*
X116900000Y-41397440D01*
X117147765Y-41348157D01*
X117357809Y-41207809D01*
X117498157Y-40997765D01*
X117547440Y-40750000D01*
X117547440Y-39050000D01*
X117498157Y-38802235D01*
X117357809Y-38592191D01*
X117147765Y-38451843D01*
X117102381Y-38442816D01*
X117120625Y-38430625D01*
X117448839Y-37939418D01*
X117564092Y-37360000D01*
X117448839Y-36780582D01*
X117120625Y-36289375D01*
X116822239Y-36090000D01*
X117120625Y-35890625D01*
X117448839Y-35399418D01*
X117564092Y-34820000D01*
X117448839Y-34240582D01*
X117120625Y-33749375D01*
X116822239Y-33550000D01*
X117120625Y-33350625D01*
X117448839Y-32859418D01*
X117564092Y-32280000D01*
X117448839Y-31700582D01*
X117120625Y-31209375D01*
X116822239Y-31010000D01*
X117120625Y-30810625D01*
X117448839Y-30319418D01*
X117564092Y-29740000D01*
X117448839Y-29160582D01*
X117120625Y-28669375D01*
X116629418Y-28341161D01*
X116196256Y-28255000D01*
X115903744Y-28255000D01*
X115470582Y-28341161D01*
X114979375Y-28669375D01*
X114651161Y-29160582D01*
X114535908Y-29740000D01*
X114651161Y-30319418D01*
X114979375Y-30810625D01*
X115277761Y-31010000D01*
X114979375Y-31209375D01*
X114771822Y-31520000D01*
X111194846Y-31520000D01*
X111119999Y-31505112D01*
X111045152Y-31520000D01*
X111045148Y-31520000D01*
X110823463Y-31564096D01*
X110823461Y-31564097D01*
X110823462Y-31564097D01*
X110635526Y-31689671D01*
X110635524Y-31689673D01*
X110572071Y-31732071D01*
X110529673Y-31795524D01*
X104194455Y-38130744D01*
X103986280Y-37922569D01*
X103605874Y-37765000D01*
X103194126Y-37765000D01*
X102813720Y-37922569D01*
X102522569Y-38213720D01*
X102365000Y-38594126D01*
X102365000Y-39005874D01*
X102482689Y-39290000D01*
X98323711Y-39290000D01*
X98327431Y-39286280D01*
X98485000Y-38905874D01*
X98485000Y-38494126D01*
X98327431Y-38113720D01*
X98036280Y-37822569D01*
X97655874Y-37665000D01*
X97244126Y-37665000D01*
X96863720Y-37822569D01*
X96572569Y-38113720D01*
X96415000Y-38494126D01*
X96415000Y-38905874D01*
X96572569Y-39286280D01*
X96576289Y-39290000D01*
X93039802Y-39290000D01*
X92460000Y-38710199D01*
X92460000Y-38544126D01*
X92302431Y-38163720D01*
X92011280Y-37872569D01*
X91630874Y-37715000D01*
X91219126Y-37715000D01*
X90838720Y-37872569D01*
X90547569Y-38163720D01*
X90390000Y-38544126D01*
X90390000Y-38955874D01*
X90547569Y-39336280D01*
X90838720Y-39627431D01*
X91219126Y-39785000D01*
X91385199Y-39785000D01*
X92134671Y-40534473D01*
X92177071Y-40597929D01*
X92428463Y-40765904D01*
X92650148Y-40810000D01*
X92650152Y-40810000D01*
X92725000Y-40824888D01*
X92799848Y-40810000D01*
X103275153Y-40810000D01*
X103350000Y-40824888D01*
X103424847Y-40810000D01*
X103424852Y-40810000D01*
X103646537Y-40765904D01*
X103897929Y-40597929D01*
X103940331Y-40534470D01*
X110730546Y-33744257D01*
X111013720Y-34027431D01*
X111394126Y-34185000D01*
X111805874Y-34185000D01*
X112186280Y-34027431D01*
X112477431Y-33736280D01*
X112635000Y-33355874D01*
X112635000Y-33040000D01*
X114771822Y-33040000D01*
X114979375Y-33350625D01*
X115277761Y-33550000D01*
X114979375Y-33749375D01*
X114651161Y-34240582D01*
X114535908Y-34820000D01*
X114651161Y-35399418D01*
X114979375Y-35890625D01*
X115277761Y-36090000D01*
X114979375Y-36289375D01*
X114651161Y-36780582D01*
X114535908Y-37360000D01*
X114651161Y-37939418D01*
X114979375Y-38430625D01*
X114997619Y-38442816D01*
X114952235Y-38451843D01*
X114742191Y-38592191D01*
X114601843Y-38802235D01*
X114552560Y-39050000D01*
X114552560Y-39140000D01*
X108774846Y-39140000D01*
X108699999Y-39125112D01*
X108625152Y-39140000D01*
X108625148Y-39140000D01*
X108403463Y-39184096D01*
X108152071Y-39352071D01*
X108109671Y-39415527D01*
X101287396Y-46237803D01*
X95625908Y-46237803D01*
X95877431Y-45986280D01*
X96035000Y-45605874D01*
X96035000Y-45194126D01*
X95877431Y-44813720D01*
X95586280Y-44522569D01*
X95205874Y-44365000D01*
X94794126Y-44365000D01*
X94413720Y-44522569D01*
X94122569Y-44813720D01*
X93965000Y-45194126D01*
X93965000Y-45605874D01*
X94122569Y-45986280D01*
X94374092Y-46237803D01*
X91769818Y-46237803D01*
X92036280Y-46127431D01*
X92327431Y-45836280D01*
X92485000Y-45455874D01*
X92485000Y-45044126D01*
X92327431Y-44663720D01*
X92036280Y-44372569D01*
X91655874Y-44215000D01*
X91244126Y-44215000D01*
X90863720Y-44372569D01*
X90572569Y-44663720D01*
X90415000Y-45044126D01*
X90415000Y-45455874D01*
X90572569Y-45836280D01*
X90809251Y-46072962D01*
X90543303Y-45962803D01*
X90131555Y-45962803D01*
X89751149Y-46120372D01*
X89459998Y-46411523D01*
X89302429Y-46791929D01*
X69969685Y-46791929D01*
X69579418Y-46531161D01*
X69146256Y-46445000D01*
X68853744Y-46445000D01*
X68420582Y-46531161D01*
X67929375Y-46859375D01*
X67601161Y-47350582D01*
X67485908Y-47930000D01*
X45335000Y-47930000D01*
X45335000Y-47594126D01*
X45177431Y-47213720D01*
X44886280Y-46922569D01*
X44505874Y-46765000D01*
X44094126Y-46765000D01*
X43713720Y-46922569D01*
X43646821Y-46989468D01*
X43785000Y-46655874D01*
X43785000Y-46244126D01*
X43627431Y-45863720D01*
X43336280Y-45572569D01*
X42955874Y-45415000D01*
X42544126Y-45415000D01*
X42163720Y-45572569D01*
X41872569Y-45863720D01*
X41715000Y-46244126D01*
X21127000Y-46244126D01*
X21127000Y-44794126D01*
X82815000Y-44794126D01*
X82815000Y-45205874D01*
X82972569Y-45586280D01*
X83263720Y-45877431D01*
X83644126Y-46035000D01*
X84055874Y-46035000D01*
X84436280Y-45877431D01*
X84727431Y-45586280D01*
X84885000Y-45205874D01*
X84885000Y-44794126D01*
X84727431Y-44413720D01*
X84436280Y-44122569D01*
X84055874Y-43965000D01*
X83644126Y-43965000D01*
X83263720Y-44122569D01*
X82972569Y-44413720D01*
X82815000Y-44794126D01*
X21127000Y-44794126D01*
X21127000Y-43144126D01*
X30815000Y-43144126D01*
X30815000Y-43555874D01*
X30972569Y-43936280D01*
X31263720Y-44227431D01*
X31644126Y-44385000D01*
X32055874Y-44385000D01*
X32436280Y-44227431D01*
X32727431Y-43936280D01*
X32885000Y-43555874D01*
X32885000Y-43144126D01*
X32727431Y-42763720D01*
X32436280Y-42472569D01*
X32055874Y-42315000D01*
X31644126Y-42315000D01*
X31263720Y-42472569D01*
X30972569Y-42763720D01*
X30815000Y-43144126D01*
X21127000Y-43144126D01*
X21127000Y-40694126D01*
X41615000Y-40694126D01*
X41615000Y-41105874D01*
X41772569Y-41486280D01*
X42063720Y-41777431D01*
X42444126Y-41935000D01*
X42855874Y-41935000D01*
X43236280Y-41777431D01*
X43527431Y-41486280D01*
X43685000Y-41105874D01*
X43685000Y-40694126D01*
X43527431Y-40313720D01*
X43236280Y-40022569D01*
X42855874Y-39865000D01*
X42444126Y-39865000D01*
X42063720Y-40022569D01*
X41772569Y-40313720D01*
X41615000Y-40694126D01*
X21127000Y-40694126D01*
X21127000Y-36394126D01*
X28965000Y-36394126D01*
X28965000Y-36805874D01*
X29122569Y-37186280D01*
X29413720Y-37477431D01*
X29794126Y-37635000D01*
X30205874Y-37635000D01*
X30586280Y-37477431D01*
X30877431Y-37186280D01*
X31035000Y-36805874D01*
X31035000Y-36394126D01*
X30980962Y-36263666D01*
X31088217Y-36285000D01*
X32311783Y-36285000D01*
X32642855Y-36219146D01*
X33018289Y-35968289D01*
X33269146Y-35592855D01*
X33357235Y-35150000D01*
X33269146Y-34707145D01*
X33018289Y-34331711D01*
X32642855Y-34080854D01*
X32311783Y-34015000D01*
X31088217Y-34015000D01*
X30757145Y-34080854D01*
X30381711Y-34331711D01*
X30130854Y-34707145D01*
X30042765Y-35150000D01*
X30125313Y-35565000D01*
X29794126Y-35565000D01*
X29413720Y-35722569D01*
X29122569Y-36013720D01*
X28965000Y-36394126D01*
X21127000Y-36394126D01*
X21127000Y-35150000D01*
X22042765Y-35150000D01*
X22130854Y-35592855D01*
X22381711Y-35968289D01*
X22757145Y-36219146D01*
X23088217Y-36285000D01*
X24311783Y-36285000D01*
X24642855Y-36219146D01*
X25018289Y-35968289D01*
X25269146Y-35592855D01*
X25357235Y-35150000D01*
X25269146Y-34707145D01*
X25018289Y-34331711D01*
X24642855Y-34080854D01*
X24311783Y-34015000D01*
X23088217Y-34015000D01*
X22757145Y-34080854D01*
X22381711Y-34331711D01*
X22130854Y-34707145D01*
X22042765Y-35150000D01*
X21127000Y-35150000D01*
X21127000Y-33994126D01*
X35465000Y-33994126D01*
X35465000Y-34405874D01*
X35622569Y-34786280D01*
X35913720Y-35077431D01*
X36294126Y-35235000D01*
X36705874Y-35235000D01*
X37086280Y-35077431D01*
X37377431Y-34786280D01*
X37535000Y-34405874D01*
X37535000Y-33994126D01*
X37377431Y-33613720D01*
X37086280Y-33322569D01*
X36705874Y-33165000D01*
X36294126Y-33165000D01*
X35913720Y-33322569D01*
X35622569Y-33613720D01*
X35465000Y-33994126D01*
X21127000Y-33994126D01*
X21127000Y-32521430D01*
X21174212Y-32635410D01*
X21514590Y-32975788D01*
X21959316Y-33160000D01*
X22440684Y-33160000D01*
X22885410Y-32975788D01*
X23225788Y-32635410D01*
X23410000Y-32190684D01*
X23410000Y-31709316D01*
X27990000Y-31709316D01*
X27990000Y-32190684D01*
X28174212Y-32635410D01*
X28514590Y-32975788D01*
X28959316Y-33160000D01*
X29440684Y-33160000D01*
X29885410Y-32975788D01*
X30225788Y-32635410D01*
X30410000Y-32190684D01*
X30410000Y-31709316D01*
X30225788Y-31264590D01*
X29885410Y-30924212D01*
X29440684Y-30740000D01*
X28959316Y-30740000D01*
X28514590Y-30924212D01*
X28174212Y-31264590D01*
X27990000Y-31709316D01*
X23410000Y-31709316D01*
X23225788Y-31264590D01*
X22885410Y-30924212D01*
X22440684Y-30740000D01*
X21959316Y-30740000D01*
X21514590Y-30924212D01*
X21174212Y-31264590D01*
X21127000Y-31378570D01*
X21127000Y-28750000D01*
X22042765Y-28750000D01*
X22130854Y-29192855D01*
X22381711Y-29568289D01*
X22757145Y-29819146D01*
X23088217Y-29885000D01*
X24311783Y-29885000D01*
X24642855Y-29819146D01*
X25018289Y-29568289D01*
X25269146Y-29192855D01*
X25357235Y-28750000D01*
X30042765Y-28750000D01*
X30130854Y-29192855D01*
X30381711Y-29568289D01*
X30757145Y-29819146D01*
X31088217Y-29885000D01*
X32311783Y-29885000D01*
X32642855Y-29819146D01*
X33018289Y-29568289D01*
X33269146Y-29192855D01*
X33357235Y-28750000D01*
X33269146Y-28307145D01*
X33018289Y-27931711D01*
X32642855Y-27680854D01*
X32311783Y-27615000D01*
X31088217Y-27615000D01*
X30757145Y-27680854D01*
X30381711Y-27931711D01*
X30130854Y-28307145D01*
X30042765Y-28750000D01*
X25357235Y-28750000D01*
X25269146Y-28307145D01*
X25018289Y-27931711D01*
X24642855Y-27680854D01*
X24311783Y-27615000D01*
X23088217Y-27615000D01*
X22757145Y-27680854D01*
X22381711Y-27931711D01*
X22130854Y-28307145D01*
X22042765Y-28750000D01*
X21127000Y-28750000D01*
X21127000Y-25500000D01*
X38345908Y-25500000D01*
X38461161Y-26079418D01*
X38789375Y-26570625D01*
X39280582Y-26898839D01*
X39713744Y-26985000D01*
X40006256Y-26985000D01*
X40439418Y-26898839D01*
X40930625Y-26570625D01*
X41143843Y-26251522D01*
X41204817Y-26381358D01*
X41633076Y-26771645D01*
X42043110Y-26941476D01*
X42273000Y-26820155D01*
X42273000Y-25627000D01*
X42527000Y-25627000D01*
X42527000Y-26820155D01*
X42756890Y-26941476D01*
X43166924Y-26771645D01*
X43595183Y-26381358D01*
X43841486Y-25856892D01*
X43720819Y-25627000D01*
X42527000Y-25627000D01*
X42273000Y-25627000D01*
X42253000Y-25627000D01*
X42253000Y-25400000D01*
X69245908Y-25400000D01*
X69361161Y-25979418D01*
X69689375Y-26470625D01*
X70180582Y-26798839D01*
X70613744Y-26885000D01*
X70906256Y-26885000D01*
X71339418Y-26798839D01*
X71830625Y-26470625D01*
X72030000Y-26172239D01*
X72229375Y-26470625D01*
X72720582Y-26798839D01*
X73153744Y-26885000D01*
X73446256Y-26885000D01*
X73666408Y-26841209D01*
X87165001Y-40339804D01*
X87165001Y-40496288D01*
X87047569Y-40613720D01*
X86890000Y-40994126D01*
X86890000Y-41405874D01*
X87047569Y-41786280D01*
X87338720Y-42077431D01*
X87719126Y-42235000D01*
X88130874Y-42235000D01*
X88511280Y-42077431D01*
X88802431Y-41786280D01*
X88960000Y-41405874D01*
X88960000Y-40994126D01*
X88802431Y-40613720D01*
X88685000Y-40496289D01*
X88685000Y-40099846D01*
X88699888Y-40024999D01*
X88685000Y-39950152D01*
X88685000Y-39950148D01*
X88640904Y-39728463D01*
X88599102Y-39665902D01*
X88515329Y-39540526D01*
X88515327Y-39540524D01*
X88472929Y-39477071D01*
X88409476Y-39434673D01*
X83968929Y-34994126D01*
X88515000Y-34994126D01*
X88515000Y-35405874D01*
X88672569Y-35786280D01*
X88963720Y-36077431D01*
X89344126Y-36235000D01*
X89755874Y-36235000D01*
X90136280Y-36077431D01*
X90225000Y-35988711D01*
X90313720Y-36077431D01*
X90694126Y-36235000D01*
X91105874Y-36235000D01*
X91486280Y-36077431D01*
X91777431Y-35786280D01*
X91935000Y-35405874D01*
X91935000Y-35235000D01*
X92005874Y-35235000D01*
X92386280Y-35077431D01*
X92677431Y-34786280D01*
X92835000Y-34405874D01*
X92835000Y-33994126D01*
X92677431Y-33613720D01*
X92386280Y-33322569D01*
X92005874Y-33165000D01*
X91594126Y-33165000D01*
X91213720Y-33322569D01*
X90922569Y-33613720D01*
X90765000Y-33994126D01*
X90765000Y-34165000D01*
X90694126Y-34165000D01*
X90313720Y-34322569D01*
X90225000Y-34411289D01*
X90136280Y-34322569D01*
X89755874Y-34165000D01*
X89344126Y-34165000D01*
X88963720Y-34322569D01*
X88672569Y-34613720D01*
X88515000Y-34994126D01*
X83968929Y-34994126D01*
X81318929Y-32344126D01*
X100665000Y-32344126D01*
X100665000Y-32755874D01*
X100822569Y-33136280D01*
X101113720Y-33427431D01*
X101494126Y-33585000D01*
X101905874Y-33585000D01*
X102286280Y-33427431D01*
X102577431Y-33136280D01*
X102735000Y-32755874D01*
X102735000Y-32344126D01*
X102577431Y-31963720D01*
X102286280Y-31672569D01*
X101905874Y-31515000D01*
X101494126Y-31515000D01*
X101113720Y-31672569D01*
X100822569Y-31963720D01*
X100665000Y-32344126D01*
X81318929Y-32344126D01*
X79618928Y-30644126D01*
X84815000Y-30644126D01*
X84815000Y-31055874D01*
X84972569Y-31436280D01*
X85263720Y-31727431D01*
X85644126Y-31885000D01*
X86055874Y-31885000D01*
X86436280Y-31727431D01*
X86727431Y-31436280D01*
X86885000Y-31055874D01*
X86885000Y-30644126D01*
X86864290Y-30594126D01*
X87305000Y-30594126D01*
X87305000Y-31005874D01*
X87462569Y-31386280D01*
X87753720Y-31677431D01*
X88134126Y-31835000D01*
X88545874Y-31835000D01*
X88926280Y-31677431D01*
X89217431Y-31386280D01*
X89375000Y-31005874D01*
X89375000Y-30758711D01*
X89513730Y-30897441D01*
X89894136Y-31055010D01*
X90305884Y-31055010D01*
X90686290Y-30897441D01*
X90977441Y-30606290D01*
X91135010Y-30225884D01*
X91135010Y-29814136D01*
X91081520Y-29685000D01*
X91355874Y-29685000D01*
X91736280Y-29527431D01*
X92027431Y-29236280D01*
X92185000Y-28855874D01*
X92185000Y-28444126D01*
X92027431Y-28063720D01*
X91736280Y-27772569D01*
X91355874Y-27615000D01*
X90944126Y-27615000D01*
X90563720Y-27772569D01*
X90272569Y-28063720D01*
X90115000Y-28444126D01*
X90115000Y-28855874D01*
X90168490Y-28985010D01*
X89894136Y-28985010D01*
X89513730Y-29142579D01*
X89222579Y-29433730D01*
X89065010Y-29814136D01*
X89065010Y-30061299D01*
X88926280Y-29922569D01*
X88545874Y-29765000D01*
X88134126Y-29765000D01*
X87753720Y-29922569D01*
X87462569Y-30213720D01*
X87305000Y-30594126D01*
X86864290Y-30594126D01*
X86727431Y-30263720D01*
X86436280Y-29972569D01*
X86055874Y-29815000D01*
X85644126Y-29815000D01*
X85263720Y-29972569D01*
X84972569Y-30263720D01*
X84815000Y-30644126D01*
X79618928Y-30644126D01*
X74741209Y-25766408D01*
X74814092Y-25400000D01*
X74764365Y-25150000D01*
X79502560Y-25150000D01*
X79502560Y-26850000D01*
X79551843Y-27097765D01*
X79692191Y-27307809D01*
X79902235Y-27448157D01*
X80150000Y-27497440D01*
X81850000Y-27497440D01*
X82097765Y-27448157D01*
X82307809Y-27307809D01*
X82448157Y-27097765D01*
X82457184Y-27052381D01*
X82469375Y-27070625D01*
X82960582Y-27398839D01*
X83393744Y-27485000D01*
X83686256Y-27485000D01*
X84119418Y-27398839D01*
X84610625Y-27070625D01*
X84810000Y-26772239D01*
X85009375Y-27070625D01*
X85500582Y-27398839D01*
X85933744Y-27485000D01*
X86226256Y-27485000D01*
X86659418Y-27398839D01*
X87150625Y-27070625D01*
X87350000Y-26772239D01*
X87549375Y-27070625D01*
X88040582Y-27398839D01*
X88473744Y-27485000D01*
X88766256Y-27485000D01*
X89199418Y-27398839D01*
X89690625Y-27070625D01*
X90018839Y-26579418D01*
X90124146Y-26050000D01*
X91035908Y-26050000D01*
X91151161Y-26629418D01*
X91479375Y-27120625D01*
X91970582Y-27448839D01*
X92403744Y-27535000D01*
X92696256Y-27535000D01*
X93129418Y-27448839D01*
X93620625Y-27120625D01*
X93820000Y-26822239D01*
X94019375Y-27120625D01*
X94510582Y-27448839D01*
X94943744Y-27535000D01*
X95236256Y-27535000D01*
X95669418Y-27448839D01*
X96160625Y-27120625D01*
X96360000Y-26822239D01*
X96559375Y-27120625D01*
X97050582Y-27448839D01*
X97483744Y-27535000D01*
X97776256Y-27535000D01*
X98209418Y-27448839D01*
X98700625Y-27120625D01*
X98900000Y-26822239D01*
X99099375Y-27120625D01*
X99590582Y-27448839D01*
X100023744Y-27535000D01*
X100316256Y-27535000D01*
X100749418Y-27448839D01*
X101240625Y-27120625D01*
X101440000Y-26822239D01*
X101639375Y-27120625D01*
X102130582Y-27448839D01*
X102563744Y-27535000D01*
X102856256Y-27535000D01*
X103289418Y-27448839D01*
X103780625Y-27120625D01*
X103792816Y-27102381D01*
X103801843Y-27147765D01*
X103942191Y-27357809D01*
X104152235Y-27498157D01*
X104400000Y-27547440D01*
X106100000Y-27547440D01*
X106347765Y-27498157D01*
X106557809Y-27357809D01*
X106698157Y-27147765D01*
X106747440Y-26900000D01*
X106747440Y-25200000D01*
X107752560Y-25200000D01*
X107752560Y-26900000D01*
X107801843Y-27147765D01*
X107942191Y-27357809D01*
X108152235Y-27498157D01*
X108400000Y-27547440D01*
X110100000Y-27547440D01*
X110347765Y-27498157D01*
X110557809Y-27357809D01*
X110698157Y-27147765D01*
X110707184Y-27102381D01*
X110719375Y-27120625D01*
X111210582Y-27448839D01*
X111643744Y-27535000D01*
X111936256Y-27535000D01*
X112369418Y-27448839D01*
X112860625Y-27120625D01*
X113188839Y-26629418D01*
X113304092Y-26050000D01*
X113188839Y-25470582D01*
X112860625Y-24979375D01*
X112369418Y-24651161D01*
X111936256Y-24565000D01*
X111643744Y-24565000D01*
X111210582Y-24651161D01*
X110719375Y-24979375D01*
X110707184Y-24997619D01*
X110698157Y-24952235D01*
X110557809Y-24742191D01*
X110347765Y-24601843D01*
X110100000Y-24552560D01*
X108400000Y-24552560D01*
X108152235Y-24601843D01*
X107942191Y-24742191D01*
X107801843Y-24952235D01*
X107752560Y-25200000D01*
X106747440Y-25200000D01*
X106698157Y-24952235D01*
X106557809Y-24742191D01*
X106347765Y-24601843D01*
X106100000Y-24552560D01*
X104400000Y-24552560D01*
X104152235Y-24601843D01*
X103942191Y-24742191D01*
X103801843Y-24952235D01*
X103792816Y-24997619D01*
X103780625Y-24979375D01*
X103289418Y-24651161D01*
X102856256Y-24565000D01*
X102563744Y-24565000D01*
X102130582Y-24651161D01*
X101639375Y-24979375D01*
X101440000Y-25277761D01*
X101240625Y-24979375D01*
X100749418Y-24651161D01*
X100316256Y-24565000D01*
X100023744Y-24565000D01*
X99590582Y-24651161D01*
X99099375Y-24979375D01*
X98900000Y-25277761D01*
X98700625Y-24979375D01*
X98209418Y-24651161D01*
X97776256Y-24565000D01*
X97483744Y-24565000D01*
X97050582Y-24651161D01*
X96559375Y-24979375D01*
X96360000Y-25277761D01*
X96160625Y-24979375D01*
X95669418Y-24651161D01*
X95236256Y-24565000D01*
X94943744Y-24565000D01*
X94510582Y-24651161D01*
X94019375Y-24979375D01*
X93820000Y-25277761D01*
X93620625Y-24979375D01*
X93129418Y-24651161D01*
X92696256Y-24565000D01*
X92403744Y-24565000D01*
X91970582Y-24651161D01*
X91479375Y-24979375D01*
X91151161Y-25470582D01*
X91035908Y-26050000D01*
X90124146Y-26050000D01*
X90134092Y-26000000D01*
X90018839Y-25420582D01*
X89690625Y-24929375D01*
X89199418Y-24601161D01*
X88766256Y-24515000D01*
X88473744Y-24515000D01*
X88040582Y-24601161D01*
X87549375Y-24929375D01*
X87350000Y-25227761D01*
X87150625Y-24929375D01*
X86659418Y-24601161D01*
X86226256Y-24515000D01*
X85933744Y-24515000D01*
X85500582Y-24601161D01*
X85009375Y-24929375D01*
X84810000Y-25227761D01*
X84610625Y-24929375D01*
X84119418Y-24601161D01*
X83686256Y-24515000D01*
X83393744Y-24515000D01*
X82960582Y-24601161D01*
X82469375Y-24929375D01*
X82457184Y-24947619D01*
X82448157Y-24902235D01*
X82307809Y-24692191D01*
X82097765Y-24551843D01*
X81850000Y-24502560D01*
X80150000Y-24502560D01*
X79902235Y-24551843D01*
X79692191Y-24692191D01*
X79551843Y-24902235D01*
X79502560Y-25150000D01*
X74764365Y-25150000D01*
X74698839Y-24820582D01*
X74370625Y-24329375D01*
X74072239Y-24130000D01*
X74370625Y-23930625D01*
X74698839Y-23439418D01*
X74814092Y-22860000D01*
X74800989Y-22794126D01*
X79865000Y-22794126D01*
X79865000Y-23205874D01*
X80022569Y-23586280D01*
X80313720Y-23877431D01*
X80694126Y-24035000D01*
X81105874Y-24035000D01*
X81486280Y-23877431D01*
X81777431Y-23586280D01*
X81935000Y-23205874D01*
X81935000Y-22794126D01*
X81777431Y-22413720D01*
X81486280Y-22122569D01*
X81105874Y-21965000D01*
X80694126Y-21965000D01*
X80313720Y-22122569D01*
X80022569Y-22413720D01*
X79865000Y-22794126D01*
X74800989Y-22794126D01*
X74698839Y-22280582D01*
X74370625Y-21789375D01*
X73879418Y-21461161D01*
X73446256Y-21375000D01*
X73153744Y-21375000D01*
X72720582Y-21461161D01*
X72229375Y-21789375D01*
X72217184Y-21807619D01*
X72208157Y-21762235D01*
X72067809Y-21552191D01*
X71857765Y-21411843D01*
X71610000Y-21362560D01*
X69910000Y-21362560D01*
X69662235Y-21411843D01*
X69452191Y-21552191D01*
X69311843Y-21762235D01*
X69262560Y-22010000D01*
X69262560Y-23710000D01*
X69311843Y-23957765D01*
X69452191Y-24167809D01*
X69662235Y-24308157D01*
X69707619Y-24317184D01*
X69689375Y-24329375D01*
X69361161Y-24820582D01*
X69245908Y-25400000D01*
X42253000Y-25400000D01*
X42253000Y-25373000D01*
X42273000Y-25373000D01*
X42273000Y-23087000D01*
X42527000Y-23087000D01*
X42527000Y-25373000D01*
X43720819Y-25373000D01*
X43841486Y-25143108D01*
X43595183Y-24618642D01*
X43168729Y-24230000D01*
X43595183Y-23841358D01*
X43841486Y-23316892D01*
X43720819Y-23087000D01*
X42527000Y-23087000D01*
X42273000Y-23087000D01*
X42253000Y-23087000D01*
X42253000Y-22833000D01*
X42273000Y-22833000D01*
X42273000Y-21639845D01*
X42527000Y-21639845D01*
X42527000Y-22833000D01*
X43720819Y-22833000D01*
X43841486Y-22603108D01*
X43595183Y-22078642D01*
X43166924Y-21688355D01*
X42756890Y-21518524D01*
X42527000Y-21639845D01*
X42273000Y-21639845D01*
X42043110Y-21518524D01*
X41633076Y-21688355D01*
X41328739Y-21965708D01*
X41308157Y-21862235D01*
X41167809Y-21652191D01*
X40957765Y-21511843D01*
X40710000Y-21462560D01*
X39010000Y-21462560D01*
X38762235Y-21511843D01*
X38552191Y-21652191D01*
X38411843Y-21862235D01*
X38362560Y-22110000D01*
X38362560Y-23810000D01*
X38411843Y-24057765D01*
X38552191Y-24267809D01*
X38762235Y-24408157D01*
X38807619Y-24417184D01*
X38789375Y-24429375D01*
X38461161Y-24920582D01*
X38345908Y-25500000D01*
X21127000Y-25500000D01*
X21127000Y-21127000D01*
X91757420Y-21127000D01*
X91529375Y-21279375D01*
X91529375Y-21279375D01*
G37*
X91529375Y-21279375D02*
X91201161Y-21770582D01*
X91085908Y-22350000D01*
X91201161Y-22929418D01*
X91529375Y-23420625D01*
X92020582Y-23748839D01*
X92453744Y-23835000D01*
X92746256Y-23835000D01*
X93179418Y-23748839D01*
X93670625Y-23420625D01*
X93870000Y-23122239D01*
X94069375Y-23420625D01*
X94560582Y-23748839D01*
X94993744Y-23835000D01*
X95286256Y-23835000D01*
X95719418Y-23748839D01*
X96210625Y-23420625D01*
X96410000Y-23122239D01*
X96609375Y-23420625D01*
X97100582Y-23748839D01*
X97533744Y-23835000D01*
X97826256Y-23835000D01*
X98259418Y-23748839D01*
X98750625Y-23420625D01*
X98950000Y-23122239D01*
X99149375Y-23420625D01*
X99640582Y-23748839D01*
X100073744Y-23835000D01*
X100366256Y-23835000D01*
X100799418Y-23748839D01*
X101290625Y-23420625D01*
X101490000Y-23122239D01*
X101689375Y-23420625D01*
X102180582Y-23748839D01*
X102613744Y-23835000D01*
X102906256Y-23835000D01*
X103339418Y-23748839D01*
X103830625Y-23420625D01*
X103842816Y-23402381D01*
X103851843Y-23447765D01*
X103992191Y-23657809D01*
X104202235Y-23798157D01*
X104450000Y-23847440D01*
X106150000Y-23847440D01*
X106397765Y-23798157D01*
X106607809Y-23657809D01*
X106748157Y-23447765D01*
X106797440Y-23200000D01*
X106797440Y-21500000D01*
X106748157Y-21252235D01*
X106664477Y-21127000D01*
X107812114Y-21127000D01*
X107761843Y-21202235D01*
X107712560Y-21450000D01*
X107712560Y-23150000D01*
X107761843Y-23397765D01*
X107902191Y-23607809D01*
X108112235Y-23748157D01*
X108360000Y-23797440D01*
X110060000Y-23797440D01*
X110307765Y-23748157D01*
X110517809Y-23607809D01*
X110658157Y-23397765D01*
X110667184Y-23352381D01*
X110679375Y-23370625D01*
X111170582Y-23698839D01*
X111603744Y-23785000D01*
X111896256Y-23785000D01*
X112329418Y-23698839D01*
X112820625Y-23370625D01*
X113148839Y-22879418D01*
X113264092Y-22300000D01*
X113148839Y-21720582D01*
X112820625Y-21229375D01*
X112667410Y-21127000D01*
X118665000Y-21127000D01*
X118665001Y-92753803D01*
X118635410Y-92724212D01*
X118190684Y-92540000D01*
X117709316Y-92540000D01*
X117264590Y-92724212D01*
X116924212Y-93064590D01*
X116740000Y-93509316D01*
X116740000Y-93990684D01*
X116924212Y-94435410D01*
X117264590Y-94775788D01*
X117709316Y-94960000D01*
X118190684Y-94960000D01*
X118635410Y-94775788D01*
X118665001Y-94746197D01*
X118665001Y-118873000D01*
X21127000Y-118873000D01*
X21127000Y-114985750D01*
X75765000Y-114985750D01*
X75765000Y-115676310D01*
X75861673Y-115909699D01*
X76040302Y-116088327D01*
X76273691Y-116185000D01*
X76964250Y-116185000D01*
X77123000Y-116026250D01*
X77123000Y-114827000D01*
X77377000Y-114827000D01*
X77377000Y-116026250D01*
X77535750Y-116185000D01*
X78226309Y-116185000D01*
X78459698Y-116088327D01*
X78638327Y-115909699D01*
X78735000Y-115676310D01*
X78735000Y-114985750D01*
X78576250Y-114827000D01*
X77377000Y-114827000D01*
X77123000Y-114827000D01*
X75923750Y-114827000D01*
X75765000Y-114985750D01*
X21127000Y-114985750D01*
X21127000Y-113723690D01*
X75765000Y-113723690D01*
X75765000Y-114414250D01*
X75923750Y-114573000D01*
X77123000Y-114573000D01*
X77123000Y-113373750D01*
X77377000Y-113373750D01*
X77377000Y-114573000D01*
X78576250Y-114573000D01*
X78735000Y-114414250D01*
X78735000Y-113723690D01*
X78638327Y-113490301D01*
X78459698Y-113311673D01*
X78226309Y-113215000D01*
X77535750Y-113215000D01*
X77377000Y-113373750D01*
X77123000Y-113373750D01*
X76964250Y-113215000D01*
X76273691Y-113215000D01*
X76040302Y-113311673D01*
X75861673Y-113490301D01*
X75765000Y-113723690D01*
X21127000Y-113723690D01*
X21127000Y-112830000D01*
X108002560Y-112830000D01*
X108002560Y-115830000D01*
X108051843Y-116077765D01*
X108192191Y-116287809D01*
X108402235Y-116428157D01*
X108650000Y-116477440D01*
X111650000Y-116477440D01*
X111897765Y-116428157D01*
X112107809Y-116287809D01*
X112248157Y-116077765D01*
X112297440Y-115830000D01*
X112297440Y-112830000D01*
X112248157Y-112582235D01*
X112107809Y-112372191D01*
X111897765Y-112231843D01*
X111650000Y-112182560D01*
X108650000Y-112182560D01*
X108402235Y-112231843D01*
X108192191Y-112372191D01*
X108051843Y-112582235D01*
X108002560Y-112830000D01*
X21127000Y-112830000D01*
X21127000Y-107794126D01*
X30065000Y-107794126D01*
X30065000Y-108205874D01*
X30222569Y-108586280D01*
X30513720Y-108877431D01*
X30894126Y-109035000D01*
X31305874Y-109035000D01*
X31404552Y-108994126D01*
X41765000Y-108994126D01*
X41765000Y-109405874D01*
X41922569Y-109786280D01*
X42213720Y-110077431D01*
X42594126Y-110235000D01*
X43005874Y-110235000D01*
X43386280Y-110077431D01*
X43523711Y-109940000D01*
X68985908Y-109940000D01*
X69101161Y-110519418D01*
X69429375Y-111010625D01*
X69920582Y-111338839D01*
X70353744Y-111425000D01*
X70646256Y-111425000D01*
X71079418Y-111338839D01*
X71570625Y-111010625D01*
X71898839Y-110519418D01*
X72014092Y-109940000D01*
X71898839Y-109360582D01*
X71570625Y-108869375D01*
X71552381Y-108857184D01*
X71597765Y-108848157D01*
X71631939Y-108825322D01*
X108015000Y-108825322D01*
X108015000Y-109674678D01*
X108340034Y-110459380D01*
X108940620Y-111059966D01*
X109725322Y-111385000D01*
X110574678Y-111385000D01*
X111359380Y-111059966D01*
X111959966Y-110459380D01*
X112285000Y-109674678D01*
X112285000Y-108825322D01*
X111959966Y-108040620D01*
X111359380Y-107440034D01*
X110574678Y-107115000D01*
X109725322Y-107115000D01*
X108940620Y-107440034D01*
X108340034Y-108040620D01*
X108015000Y-108825322D01*
X71631939Y-108825322D01*
X71807809Y-108707809D01*
X71948157Y-108497765D01*
X71997440Y-108250000D01*
X71997440Y-106994126D01*
X86865000Y-106994126D01*
X86865000Y-107405874D01*
X87022569Y-107786280D01*
X87313720Y-108077431D01*
X87694126Y-108235000D01*
X88105874Y-108235000D01*
X88486280Y-108077431D01*
X88777431Y-107786280D01*
X88935000Y-107405874D01*
X88935000Y-106994126D01*
X88777431Y-106613720D01*
X88486280Y-106322569D01*
X88105874Y-106165000D01*
X87694126Y-106165000D01*
X87313720Y-106322569D01*
X87022569Y-106613720D01*
X86865000Y-106994126D01*
X71997440Y-106994126D01*
X71997440Y-106550000D01*
X71948157Y-106302235D01*
X71807809Y-106092191D01*
X71597765Y-105951843D01*
X71350000Y-105902560D01*
X69650000Y-105902560D01*
X69402235Y-105951843D01*
X69192191Y-106092191D01*
X69051843Y-106302235D01*
X69002560Y-106550000D01*
X69002560Y-108250000D01*
X69051843Y-108497765D01*
X69192191Y-108707809D01*
X69402235Y-108848157D01*
X69447619Y-108857184D01*
X69429375Y-108869375D01*
X69101161Y-109360582D01*
X68985908Y-109940000D01*
X43523711Y-109940000D01*
X43677431Y-109786280D01*
X43835000Y-109405874D01*
X43835000Y-108994126D01*
X43677431Y-108613720D01*
X43386280Y-108322569D01*
X43005874Y-108165000D01*
X42594126Y-108165000D01*
X42213720Y-108322569D01*
X41922569Y-108613720D01*
X41765000Y-108994126D01*
X31404552Y-108994126D01*
X31686280Y-108877431D01*
X31977431Y-108586280D01*
X32135000Y-108205874D01*
X32135000Y-107794126D01*
X31977431Y-107413720D01*
X31913711Y-107350000D01*
X48802560Y-107350000D01*
X48802560Y-109050000D01*
X48851843Y-109297765D01*
X48992191Y-109507809D01*
X49202235Y-109648157D01*
X49450000Y-109697440D01*
X51150000Y-109697440D01*
X51397765Y-109648157D01*
X51607809Y-109507809D01*
X51748157Y-109297765D01*
X51797440Y-109050000D01*
X51797440Y-108194126D01*
X59665000Y-108194126D01*
X59665000Y-108605874D01*
X59822569Y-108986280D01*
X60113720Y-109277431D01*
X60494126Y-109435000D01*
X60905874Y-109435000D01*
X61286280Y-109277431D01*
X61577431Y-108986280D01*
X61735000Y-108605874D01*
X61735000Y-108194126D01*
X61577431Y-107813720D01*
X61286280Y-107522569D01*
X60905874Y-107365000D01*
X60494126Y-107365000D01*
X60113720Y-107522569D01*
X59822569Y-107813720D01*
X59665000Y-108194126D01*
X51797440Y-108194126D01*
X51797440Y-107350000D01*
X51748157Y-107102235D01*
X51607809Y-106892191D01*
X51397765Y-106751843D01*
X51150000Y-106702560D01*
X49450000Y-106702560D01*
X49202235Y-106751843D01*
X48992191Y-106892191D01*
X48851843Y-107102235D01*
X48802560Y-107350000D01*
X31913711Y-107350000D01*
X31686280Y-107122569D01*
X31305874Y-106965000D01*
X30894126Y-106965000D01*
X30513720Y-107122569D01*
X30222569Y-107413720D01*
X30065000Y-107794126D01*
X21127000Y-107794126D01*
X21127000Y-106294126D01*
X64265000Y-106294126D01*
X64265000Y-106705874D01*
X64422569Y-107086280D01*
X64713720Y-107377431D01*
X65094126Y-107535000D01*
X65505874Y-107535000D01*
X65886280Y-107377431D01*
X66177431Y-107086280D01*
X66335000Y-106705874D01*
X66335000Y-106294126D01*
X66177431Y-105913720D01*
X65886280Y-105622569D01*
X65505874Y-105465000D01*
X65094126Y-105465000D01*
X64713720Y-105622569D01*
X64422569Y-105913720D01*
X64265000Y-106294126D01*
X21127000Y-106294126D01*
X21127000Y-105194126D01*
X78665000Y-105194126D01*
X78665000Y-105605874D01*
X78822569Y-105986280D01*
X79113720Y-106277431D01*
X79494126Y-106435000D01*
X79905874Y-106435000D01*
X80286280Y-106277431D01*
X80577431Y-105986280D01*
X80735000Y-105605874D01*
X80735000Y-105194126D01*
X80577431Y-104813720D01*
X80286280Y-104522569D01*
X79905874Y-104365000D01*
X79494126Y-104365000D01*
X79113720Y-104522569D01*
X78822569Y-104813720D01*
X78665000Y-105194126D01*
X21127000Y-105194126D01*
X21127000Y-101994126D01*
X30065000Y-101994126D01*
X30065000Y-102405874D01*
X30222569Y-102786280D01*
X30513720Y-103077431D01*
X30894126Y-103235000D01*
X31305874Y-103235000D01*
X31686280Y-103077431D01*
X31977431Y-102786280D01*
X32102560Y-102484191D01*
X32102560Y-102650000D01*
X32151843Y-102897765D01*
X32292191Y-103107809D01*
X32502235Y-103248157D01*
X32750000Y-103297440D01*
X34250000Y-103297440D01*
X34497765Y-103248157D01*
X34707809Y-103107809D01*
X34800000Y-102969836D01*
X34892191Y-103107809D01*
X35102235Y-103248157D01*
X35350000Y-103297440D01*
X36850000Y-103297440D01*
X37097765Y-103248157D01*
X37307809Y-103107809D01*
X37448157Y-102897765D01*
X37497440Y-102650000D01*
X37497440Y-102294126D01*
X49865000Y-102294126D01*
X49865000Y-102705874D01*
X50022569Y-103086280D01*
X50313720Y-103377431D01*
X50694126Y-103535000D01*
X51105874Y-103535000D01*
X51486280Y-103377431D01*
X51513711Y-103350000D01*
X89002560Y-103350000D01*
X89002560Y-105050000D01*
X89051843Y-105297765D01*
X89192191Y-105507809D01*
X89402235Y-105648157D01*
X89650000Y-105697440D01*
X91350000Y-105697440D01*
X91597765Y-105648157D01*
X91807809Y-105507809D01*
X91948157Y-105297765D01*
X91997440Y-105050000D01*
X91997440Y-104994126D01*
X92165000Y-104994126D01*
X92165000Y-105405874D01*
X92322569Y-105786280D01*
X92613720Y-106077431D01*
X92994126Y-106235000D01*
X93405874Y-106235000D01*
X93786280Y-106077431D01*
X94077431Y-105786280D01*
X94235000Y-105405874D01*
X94235000Y-104994126D01*
X94077431Y-104613720D01*
X93786280Y-104322569D01*
X93405874Y-104165000D01*
X92994126Y-104165000D01*
X92613720Y-104322569D01*
X92322569Y-104613720D01*
X92165000Y-104994126D01*
X91997440Y-104994126D01*
X91997440Y-103350000D01*
X91948157Y-103102235D01*
X91807809Y-102892191D01*
X91597765Y-102751843D01*
X91350000Y-102702560D01*
X89650000Y-102702560D01*
X89402235Y-102751843D01*
X89192191Y-102892191D01*
X89051843Y-103102235D01*
X89002560Y-103350000D01*
X51513711Y-103350000D01*
X51777431Y-103086280D01*
X51935000Y-102705874D01*
X51935000Y-102294126D01*
X51777431Y-101913720D01*
X51486280Y-101622569D01*
X51105874Y-101465000D01*
X50694126Y-101465000D01*
X50313720Y-101622569D01*
X50022569Y-101913720D01*
X49865000Y-102294126D01*
X37497440Y-102294126D01*
X37497440Y-101150000D01*
X37448157Y-100902235D01*
X37307809Y-100692191D01*
X37097765Y-100551843D01*
X36850000Y-100502560D01*
X35350000Y-100502560D01*
X35102235Y-100551843D01*
X34892191Y-100692191D01*
X34800000Y-100830164D01*
X34707809Y-100692191D01*
X34497765Y-100551843D01*
X34250000Y-100502560D01*
X32750000Y-100502560D01*
X32502235Y-100551843D01*
X32292191Y-100692191D01*
X32151843Y-100902235D01*
X32102560Y-101150000D01*
X32102560Y-101915809D01*
X31977431Y-101613720D01*
X31686280Y-101322569D01*
X31305874Y-101165000D01*
X30894126Y-101165000D01*
X30513720Y-101322569D01*
X30222569Y-101613720D01*
X30065000Y-101994126D01*
X21127000Y-101994126D01*
X21127000Y-99250000D01*
X40302560Y-99250000D01*
X40302560Y-100950000D01*
X40351843Y-101197765D01*
X40492191Y-101407809D01*
X40702235Y-101548157D01*
X40950000Y-101597440D01*
X42650000Y-101597440D01*
X42897765Y-101548157D01*
X43107809Y-101407809D01*
X43248157Y-101197765D01*
X43297440Y-100950000D01*
X43297440Y-99894126D01*
X49665000Y-99894126D01*
X49665000Y-100305874D01*
X49822569Y-100686280D01*
X50113720Y-100977431D01*
X50494126Y-101135000D01*
X50905874Y-101135000D01*
X51286280Y-100977431D01*
X51413711Y-100850000D01*
X83702560Y-100850000D01*
X83702560Y-102550000D01*
X83751843Y-102797765D01*
X83892191Y-103007809D01*
X84102235Y-103148157D01*
X84350000Y-103197440D01*
X86050000Y-103197440D01*
X86297765Y-103148157D01*
X86507809Y-103007809D01*
X86648157Y-102797765D01*
X86697440Y-102550000D01*
X86697440Y-100850000D01*
X86648157Y-100602235D01*
X86507809Y-100392191D01*
X86297765Y-100251843D01*
X86050000Y-100202560D01*
X84350000Y-100202560D01*
X84102235Y-100251843D01*
X83892191Y-100392191D01*
X83751843Y-100602235D01*
X83702560Y-100850000D01*
X51413711Y-100850000D01*
X51577431Y-100686280D01*
X51735000Y-100305874D01*
X51735000Y-100160000D01*
X108485908Y-100160000D01*
X108601161Y-100739418D01*
X108929375Y-101230625D01*
X108947619Y-101242816D01*
X108902235Y-101251843D01*
X108692191Y-101392191D01*
X108551843Y-101602235D01*
X108502560Y-101850000D01*
X108502560Y-103550000D01*
X108551843Y-103797765D01*
X108692191Y-104007809D01*
X108902235Y-104148157D01*
X109150000Y-104197440D01*
X110850000Y-104197440D01*
X111097765Y-104148157D01*
X111307809Y-104007809D01*
X111448157Y-103797765D01*
X111457184Y-103752381D01*
X111469375Y-103770625D01*
X111960582Y-104098839D01*
X112393744Y-104185000D01*
X112686256Y-104185000D01*
X113119418Y-104098839D01*
X113610625Y-103770625D01*
X113938839Y-103279418D01*
X114054092Y-102700000D01*
X113938839Y-102120582D01*
X113610625Y-101629375D01*
X113312239Y-101430000D01*
X113610625Y-101230625D01*
X113938839Y-100739418D01*
X114054092Y-100160000D01*
X113938839Y-99580582D01*
X113610625Y-99089375D01*
X113119418Y-98761161D01*
X112686256Y-98675000D01*
X112393744Y-98675000D01*
X111960582Y-98761161D01*
X111469375Y-99089375D01*
X111270000Y-99387761D01*
X111070625Y-99089375D01*
X110579418Y-98761161D01*
X110146256Y-98675000D01*
X109853744Y-98675000D01*
X109420582Y-98761161D01*
X108929375Y-99089375D01*
X108601161Y-99580582D01*
X108485908Y-100160000D01*
X51735000Y-100160000D01*
X51735000Y-99894126D01*
X51577431Y-99513720D01*
X51286280Y-99222569D01*
X50905874Y-99065000D01*
X50494126Y-99065000D01*
X50113720Y-99222569D01*
X49822569Y-99513720D01*
X49665000Y-99894126D01*
X43297440Y-99894126D01*
X43297440Y-99250000D01*
X43248157Y-99002235D01*
X43107809Y-98792191D01*
X42897765Y-98651843D01*
X42650000Y-98602560D01*
X40950000Y-98602560D01*
X40702235Y-98651843D01*
X40492191Y-98792191D01*
X40351843Y-99002235D01*
X40302560Y-99250000D01*
X21127000Y-99250000D01*
X21127000Y-98000000D01*
X21942765Y-98000000D01*
X22030854Y-98442855D01*
X22281711Y-98818289D01*
X22657145Y-99069146D01*
X22988217Y-99135000D01*
X24211783Y-99135000D01*
X24542855Y-99069146D01*
X24918289Y-98818289D01*
X25169146Y-98442855D01*
X25257235Y-98000000D01*
X29942765Y-98000000D01*
X30030854Y-98442855D01*
X30281711Y-98818289D01*
X30657145Y-99069146D01*
X30988217Y-99135000D01*
X32211783Y-99135000D01*
X32542855Y-99069146D01*
X32918289Y-98818289D01*
X33169146Y-98442855D01*
X33257235Y-98000000D01*
X33169146Y-97557145D01*
X32918289Y-97181711D01*
X32571510Y-96950000D01*
X106792765Y-96950000D01*
X106880854Y-97392855D01*
X107131711Y-97768289D01*
X107507145Y-98019146D01*
X107838217Y-98085000D01*
X109061783Y-98085000D01*
X109392855Y-98019146D01*
X109768289Y-97768289D01*
X110019146Y-97392855D01*
X110107235Y-96950000D01*
X114792765Y-96950000D01*
X114880854Y-97392855D01*
X115131711Y-97768289D01*
X115507145Y-98019146D01*
X115838217Y-98085000D01*
X117061783Y-98085000D01*
X117392855Y-98019146D01*
X117768289Y-97768289D01*
X118019146Y-97392855D01*
X118107235Y-96950000D01*
X118019146Y-96507145D01*
X117768289Y-96131711D01*
X117392855Y-95880854D01*
X117061783Y-95815000D01*
X115838217Y-95815000D01*
X115507145Y-95880854D01*
X115131711Y-96131711D01*
X114880854Y-96507145D01*
X114792765Y-96950000D01*
X110107235Y-96950000D01*
X110019146Y-96507145D01*
X109768289Y-96131711D01*
X109392855Y-95880854D01*
X109061783Y-95815000D01*
X107838217Y-95815000D01*
X107507145Y-95880854D01*
X107131711Y-96131711D01*
X106880854Y-96507145D01*
X106792765Y-96950000D01*
X32571510Y-96950000D01*
X32542855Y-96930854D01*
X32211783Y-96865000D01*
X30988217Y-96865000D01*
X30657145Y-96930854D01*
X30281711Y-97181711D01*
X30030854Y-97557145D01*
X29942765Y-98000000D01*
X25257235Y-98000000D01*
X25169146Y-97557145D01*
X24918289Y-97181711D01*
X24542855Y-96930854D01*
X24211783Y-96865000D01*
X22988217Y-96865000D01*
X22657145Y-96930854D01*
X22281711Y-97181711D01*
X22030854Y-97557145D01*
X21942765Y-98000000D01*
X21127000Y-98000000D01*
X21127000Y-95538198D01*
X21414590Y-95825788D01*
X21859316Y-96010000D01*
X22340684Y-96010000D01*
X22785410Y-95825788D01*
X23125788Y-95485410D01*
X23310000Y-95040684D01*
X23310000Y-94559316D01*
X27890000Y-94559316D01*
X27890000Y-95040684D01*
X28074212Y-95485410D01*
X28414590Y-95825788D01*
X28859316Y-96010000D01*
X29340684Y-96010000D01*
X29785410Y-95825788D01*
X30125788Y-95485410D01*
X30310000Y-95040684D01*
X30310000Y-94559316D01*
X30125788Y-94114590D01*
X29785410Y-93774212D01*
X29592066Y-93694126D01*
X55415000Y-93694126D01*
X55415000Y-94105874D01*
X55572569Y-94486280D01*
X55863720Y-94777431D01*
X56244126Y-94935000D01*
X56655874Y-94935000D01*
X57036280Y-94777431D01*
X57327431Y-94486280D01*
X57485000Y-94105874D01*
X57485000Y-93694126D01*
X57408450Y-93509316D01*
X109740000Y-93509316D01*
X109740000Y-93990684D01*
X109924212Y-94435410D01*
X110264590Y-94775788D01*
X110709316Y-94960000D01*
X111190684Y-94960000D01*
X111635410Y-94775788D01*
X111975788Y-94435410D01*
X112160000Y-93990684D01*
X112160000Y-93509316D01*
X111975788Y-93064590D01*
X111635410Y-92724212D01*
X111190684Y-92540000D01*
X110709316Y-92540000D01*
X110264590Y-92724212D01*
X109924212Y-93064590D01*
X109740000Y-93509316D01*
X57408450Y-93509316D01*
X57327431Y-93313720D01*
X57036280Y-93022569D01*
X56655874Y-92865000D01*
X56244126Y-92865000D01*
X55863720Y-93022569D01*
X55572569Y-93313720D01*
X55415000Y-93694126D01*
X29592066Y-93694126D01*
X29340684Y-93590000D01*
X28859316Y-93590000D01*
X28414590Y-93774212D01*
X28074212Y-94114590D01*
X27890000Y-94559316D01*
X23310000Y-94559316D01*
X23125788Y-94114590D01*
X22785410Y-93774212D01*
X22340684Y-93590000D01*
X21859316Y-93590000D01*
X21414590Y-93774212D01*
X21127000Y-94061802D01*
X21127000Y-91600000D01*
X21942765Y-91600000D01*
X22030854Y-92042855D01*
X22281711Y-92418289D01*
X22657145Y-92669146D01*
X22988217Y-92735000D01*
X24211783Y-92735000D01*
X24542855Y-92669146D01*
X24918289Y-92418289D01*
X25169146Y-92042855D01*
X25257235Y-91600000D01*
X29942765Y-91600000D01*
X30030854Y-92042855D01*
X30281711Y-92418289D01*
X30657145Y-92669146D01*
X30988217Y-92735000D01*
X32211783Y-92735000D01*
X32542855Y-92669146D01*
X32918289Y-92418289D01*
X33068069Y-92194126D01*
X40565000Y-92194126D01*
X40565000Y-92605874D01*
X40722569Y-92986280D01*
X41013720Y-93277431D01*
X41394126Y-93435000D01*
X41805874Y-93435000D01*
X42186280Y-93277431D01*
X42477431Y-92986280D01*
X42635000Y-92605874D01*
X42635000Y-92194126D01*
X42477431Y-91813720D01*
X42186280Y-91522569D01*
X41805874Y-91365000D01*
X41394126Y-91365000D01*
X41013720Y-91522569D01*
X40722569Y-91813720D01*
X40565000Y-92194126D01*
X33068069Y-92194126D01*
X33169146Y-92042855D01*
X33257235Y-91600000D01*
X33169146Y-91157145D01*
X32918289Y-90781711D01*
X32571510Y-90550000D01*
X106792765Y-90550000D01*
X106880854Y-90992855D01*
X107131711Y-91368289D01*
X107507145Y-91619146D01*
X107838217Y-91685000D01*
X109061783Y-91685000D01*
X109392855Y-91619146D01*
X109768289Y-91368289D01*
X110019146Y-90992855D01*
X110107235Y-90550000D01*
X114792765Y-90550000D01*
X114880854Y-90992855D01*
X115131711Y-91368289D01*
X115507145Y-91619146D01*
X115838217Y-91685000D01*
X117061783Y-91685000D01*
X117392855Y-91619146D01*
X117768289Y-91368289D01*
X118019146Y-90992855D01*
X118107235Y-90550000D01*
X118019146Y-90107145D01*
X117768289Y-89731711D01*
X117392855Y-89480854D01*
X117061783Y-89415000D01*
X115838217Y-89415000D01*
X115507145Y-89480854D01*
X115131711Y-89731711D01*
X114880854Y-90107145D01*
X114792765Y-90550000D01*
X110107235Y-90550000D01*
X110019146Y-90107145D01*
X109768289Y-89731711D01*
X109392855Y-89480854D01*
X109061783Y-89415000D01*
X107838217Y-89415000D01*
X107507145Y-89480854D01*
X107131711Y-89731711D01*
X106880854Y-90107145D01*
X106792765Y-90550000D01*
X32571510Y-90550000D01*
X32542855Y-90530854D01*
X32211783Y-90465000D01*
X30988217Y-90465000D01*
X30657145Y-90530854D01*
X30281711Y-90781711D01*
X30030854Y-91157145D01*
X29942765Y-91600000D01*
X25257235Y-91600000D01*
X25169146Y-91157145D01*
X24918289Y-90781711D01*
X24542855Y-90530854D01*
X24211783Y-90465000D01*
X22988217Y-90465000D01*
X22657145Y-90530854D01*
X22281711Y-90781711D01*
X22030854Y-91157145D01*
X21942765Y-91600000D01*
X21127000Y-91600000D01*
X21127000Y-87144126D01*
X42665000Y-87144126D01*
X42665000Y-87555874D01*
X42822569Y-87936280D01*
X43113720Y-88227431D01*
X43494126Y-88385000D01*
X43905874Y-88385000D01*
X44286280Y-88227431D01*
X44577431Y-87936280D01*
X44627692Y-87814939D01*
X44752235Y-87898157D01*
X45000000Y-87947440D01*
X46500000Y-87947440D01*
X46747765Y-87898157D01*
X46957809Y-87757809D01*
X47075000Y-87582422D01*
X47192191Y-87757809D01*
X47402235Y-87898157D01*
X47650000Y-87947440D01*
X49150000Y-87947440D01*
X49397765Y-87898157D01*
X49607809Y-87757809D01*
X49748157Y-87547765D01*
X49797440Y-87300000D01*
X49797440Y-86194126D01*
X57815000Y-86194126D01*
X57815000Y-86605874D01*
X57972569Y-86986280D01*
X58263720Y-87277431D01*
X58644126Y-87435000D01*
X59055874Y-87435000D01*
X59436280Y-87277431D01*
X59513711Y-87200000D01*
X63252560Y-87200000D01*
X63252560Y-88900000D01*
X63301843Y-89147765D01*
X63442191Y-89357809D01*
X63652235Y-89498157D01*
X63900000Y-89547440D01*
X65600000Y-89547440D01*
X65847765Y-89498157D01*
X66057809Y-89357809D01*
X66198157Y-89147765D01*
X66247440Y-88900000D01*
X66247440Y-87844126D01*
X98815000Y-87844126D01*
X98815000Y-88255874D01*
X98972569Y-88636280D01*
X99263720Y-88927431D01*
X99644126Y-89085000D01*
X100055874Y-89085000D01*
X100436280Y-88927431D01*
X100727431Y-88636280D01*
X100885000Y-88255874D01*
X100885000Y-87844126D01*
X100727431Y-87463720D01*
X100436280Y-87172569D01*
X100055874Y-87015000D01*
X99644126Y-87015000D01*
X99263720Y-87172569D01*
X98972569Y-87463720D01*
X98815000Y-87844126D01*
X66247440Y-87844126D01*
X66247440Y-87200000D01*
X66198157Y-86952235D01*
X66057809Y-86742191D01*
X65847765Y-86601843D01*
X65600000Y-86552560D01*
X63900000Y-86552560D01*
X63652235Y-86601843D01*
X63442191Y-86742191D01*
X63301843Y-86952235D01*
X63252560Y-87200000D01*
X59513711Y-87200000D01*
X59727431Y-86986280D01*
X59885000Y-86605874D01*
X59885000Y-86194126D01*
X59727431Y-85813720D01*
X59436280Y-85522569D01*
X59055874Y-85365000D01*
X58644126Y-85365000D01*
X58263720Y-85522569D01*
X57972569Y-85813720D01*
X57815000Y-86194126D01*
X49797440Y-86194126D01*
X49797440Y-85800000D01*
X49748157Y-85552235D01*
X49607809Y-85342191D01*
X49397765Y-85201843D01*
X49150000Y-85152560D01*
X47650000Y-85152560D01*
X47402235Y-85201843D01*
X47192191Y-85342191D01*
X47075000Y-85517578D01*
X46957809Y-85342191D01*
X46747765Y-85201843D01*
X46500000Y-85152560D01*
X45000000Y-85152560D01*
X44752235Y-85201843D01*
X44542191Y-85342191D01*
X44401843Y-85552235D01*
X44352560Y-85800000D01*
X44352560Y-86538849D01*
X44286280Y-86472569D01*
X43905874Y-86315000D01*
X43494126Y-86315000D01*
X43113720Y-86472569D01*
X42822569Y-86763720D01*
X42665000Y-87144126D01*
X21127000Y-87144126D01*
X21127000Y-84344126D01*
X59965000Y-84344126D01*
X59965000Y-84755874D01*
X60122569Y-85136280D01*
X60413720Y-85427431D01*
X60794126Y-85585000D01*
X61205874Y-85585000D01*
X61586280Y-85427431D01*
X61877431Y-85136280D01*
X62035000Y-84755874D01*
X62035000Y-84344126D01*
X61877431Y-83963720D01*
X61586280Y-83672569D01*
X61396902Y-83594126D01*
X73465000Y-83594126D01*
X73465000Y-84005874D01*
X73622569Y-84386280D01*
X73913720Y-84677431D01*
X74294126Y-84835000D01*
X74705874Y-84835000D01*
X75086280Y-84677431D01*
X75377431Y-84386280D01*
X75535000Y-84005874D01*
X75535000Y-83744126D01*
X97465000Y-83744126D01*
X97465000Y-84155874D01*
X97622569Y-84536280D01*
X97913720Y-84827431D01*
X98149273Y-84925000D01*
X97913720Y-85022569D01*
X97622569Y-85313720D01*
X97465000Y-85694126D01*
X97465000Y-86105874D01*
X97622569Y-86486280D01*
X97913720Y-86777431D01*
X98294126Y-86935000D01*
X98705874Y-86935000D01*
X99086280Y-86777431D01*
X99377431Y-86486280D01*
X99535000Y-86105874D01*
X99535000Y-85694126D01*
X99377431Y-85313720D01*
X99086280Y-85022569D01*
X98850727Y-84925000D01*
X99086280Y-84827431D01*
X99377431Y-84536280D01*
X99535000Y-84155874D01*
X99535000Y-83744126D01*
X99377431Y-83363720D01*
X99086280Y-83072569D01*
X98705874Y-82915000D01*
X98294126Y-82915000D01*
X97913720Y-83072569D01*
X97622569Y-83363720D01*
X97465000Y-83744126D01*
X75535000Y-83744126D01*
X75535000Y-83594126D01*
X75377431Y-83213720D01*
X75086280Y-82922569D01*
X74705874Y-82765000D01*
X74294126Y-82765000D01*
X73913720Y-82922569D01*
X73622569Y-83213720D01*
X73465000Y-83594126D01*
X61396902Y-83594126D01*
X61205874Y-83515000D01*
X60794126Y-83515000D01*
X60413720Y-83672569D01*
X60122569Y-83963720D01*
X59965000Y-84344126D01*
X21127000Y-84344126D01*
X21127000Y-81944126D01*
X39765000Y-81944126D01*
X39765000Y-82355874D01*
X39922569Y-82736280D01*
X40213720Y-83027431D01*
X40594126Y-83185000D01*
X41005874Y-83185000D01*
X41386280Y-83027431D01*
X41677431Y-82736280D01*
X41835000Y-82355874D01*
X41835000Y-81944126D01*
X41677431Y-81563720D01*
X41386280Y-81272569D01*
X41005874Y-81115000D01*
X40594126Y-81115000D01*
X40213720Y-81272569D01*
X39922569Y-81563720D01*
X39765000Y-81944126D01*
X21127000Y-81944126D01*
X21127000Y-72380000D01*
X24785908Y-72380000D01*
X24901161Y-72959418D01*
X25229375Y-73450625D01*
X25527761Y-73650000D01*
X25229375Y-73849375D01*
X24901161Y-74340582D01*
X24785908Y-74920000D01*
X24901161Y-75499418D01*
X25229375Y-75990625D01*
X25527761Y-76190000D01*
X25229375Y-76389375D01*
X24901161Y-76880582D01*
X24785908Y-77460000D01*
X24901161Y-78039418D01*
X25229375Y-78530625D01*
X25247619Y-78542816D01*
X25202235Y-78551843D01*
X24992191Y-78692191D01*
X24851843Y-78902235D01*
X24802560Y-79150000D01*
X24802560Y-80850000D01*
X24851843Y-81097765D01*
X24992191Y-81307809D01*
X25202235Y-81448157D01*
X25450000Y-81497440D01*
X27150000Y-81497440D01*
X27397765Y-81448157D01*
X27607809Y-81307809D01*
X27748157Y-81097765D01*
X27757184Y-81052381D01*
X27769375Y-81070625D01*
X28260582Y-81398839D01*
X28693744Y-81485000D01*
X28986256Y-81485000D01*
X29419418Y-81398839D01*
X29910625Y-81070625D01*
X30238839Y-80579418D01*
X30354092Y-80000000D01*
X30238839Y-79420582D01*
X30020709Y-79094126D01*
X79415000Y-79094126D01*
X79415000Y-79505874D01*
X79572569Y-79886280D01*
X79863720Y-80177431D01*
X80244126Y-80335000D01*
X80655874Y-80335000D01*
X81036280Y-80177431D01*
X81327431Y-79886280D01*
X81485000Y-79505874D01*
X81485000Y-79344126D01*
X98015000Y-79344126D01*
X98015000Y-79755874D01*
X98172569Y-80136280D01*
X98336289Y-80300000D01*
X98222569Y-80413720D01*
X98065000Y-80794126D01*
X98065000Y-81205874D01*
X98222569Y-81586280D01*
X98513720Y-81877431D01*
X98894126Y-82035000D01*
X99305874Y-82035000D01*
X99686280Y-81877431D01*
X99977431Y-81586280D01*
X99994891Y-81544126D01*
X101315000Y-81544126D01*
X101315000Y-81955874D01*
X101472569Y-82336280D01*
X101763720Y-82627431D01*
X102144126Y-82785000D01*
X102513755Y-82785000D01*
X102365000Y-83144126D01*
X102365000Y-83555874D01*
X102522569Y-83936280D01*
X102813720Y-84227431D01*
X103194126Y-84385000D01*
X103605874Y-84385000D01*
X103986280Y-84227431D01*
X104277431Y-83936280D01*
X104435000Y-83555874D01*
X104435000Y-83144126D01*
X104277431Y-82763720D01*
X104257837Y-82744126D01*
X106365000Y-82744126D01*
X106365000Y-83155874D01*
X106522569Y-83536280D01*
X106813720Y-83827431D01*
X107194126Y-83985000D01*
X107605874Y-83985000D01*
X107986280Y-83827431D01*
X108277431Y-83536280D01*
X108435000Y-83155874D01*
X108435000Y-82744126D01*
X108277431Y-82363720D01*
X107986280Y-82072569D01*
X107690372Y-81950000D01*
X112252560Y-81950000D01*
X112252560Y-83450000D01*
X112301843Y-83697765D01*
X112442191Y-83907809D01*
X112652235Y-84048157D01*
X112900000Y-84097440D01*
X114400000Y-84097440D01*
X114647765Y-84048157D01*
X114857809Y-83907809D01*
X114998157Y-83697765D01*
X115047440Y-83450000D01*
X115047440Y-81950000D01*
X114998157Y-81702235D01*
X114857809Y-81492191D01*
X114647765Y-81351843D01*
X114400000Y-81302560D01*
X112900000Y-81302560D01*
X112652235Y-81351843D01*
X112442191Y-81492191D01*
X112301843Y-81702235D01*
X112252560Y-81950000D01*
X107690372Y-81950000D01*
X107605874Y-81915000D01*
X107194126Y-81915000D01*
X106813720Y-82072569D01*
X106522569Y-82363720D01*
X106365000Y-82744126D01*
X104257837Y-82744126D01*
X103986280Y-82472569D01*
X103605874Y-82315000D01*
X103236245Y-82315000D01*
X103385000Y-81955874D01*
X103385000Y-81544126D01*
X103227431Y-81163720D01*
X102936280Y-80872569D01*
X102555874Y-80715000D01*
X102144126Y-80715000D01*
X101763720Y-80872569D01*
X101472569Y-81163720D01*
X101315000Y-81544126D01*
X99994891Y-81544126D01*
X100135000Y-81205874D01*
X100135000Y-80794126D01*
X99977431Y-80413720D01*
X99813711Y-80250000D01*
X99927431Y-80136280D01*
X100027734Y-79894126D01*
X111215000Y-79894126D01*
X111215000Y-80305874D01*
X111372569Y-80686280D01*
X111663720Y-80977431D01*
X112044126Y-81135000D01*
X112455874Y-81135000D01*
X112836280Y-80977431D01*
X113127431Y-80686280D01*
X113285000Y-80305874D01*
X113285000Y-79894126D01*
X113127431Y-79513720D01*
X112836280Y-79222569D01*
X112455874Y-79065000D01*
X112044126Y-79065000D01*
X111663720Y-79222569D01*
X111372569Y-79513720D01*
X111215000Y-79894126D01*
X100027734Y-79894126D01*
X100085000Y-79755874D01*
X100085000Y-79344126D01*
X99927431Y-78963720D01*
X99636280Y-78672569D01*
X99255874Y-78515000D01*
X98844126Y-78515000D01*
X98463720Y-78672569D01*
X98172569Y-78963720D01*
X98015000Y-79344126D01*
X81485000Y-79344126D01*
X81485000Y-79094126D01*
X81327431Y-78713720D01*
X81036280Y-78422569D01*
X80655874Y-78265000D01*
X80244126Y-78265000D01*
X79863720Y-78422569D01*
X79572569Y-78713720D01*
X79415000Y-79094126D01*
X30020709Y-79094126D01*
X29910625Y-78929375D01*
X29612239Y-78730000D01*
X29910625Y-78530625D01*
X30238839Y-78039418D01*
X30354092Y-77460000D01*
X30238839Y-76880582D01*
X30114254Y-76694126D01*
X41315000Y-76694126D01*
X41315000Y-77105874D01*
X41472569Y-77486280D01*
X41763720Y-77777431D01*
X42144126Y-77935000D01*
X42555874Y-77935000D01*
X42936280Y-77777431D01*
X43190328Y-77523383D01*
X43302235Y-77598157D01*
X43550000Y-77647440D01*
X45050000Y-77647440D01*
X45297765Y-77598157D01*
X45507809Y-77457809D01*
X45600000Y-77319836D01*
X45692191Y-77457809D01*
X45902235Y-77598157D01*
X46150000Y-77647440D01*
X47650000Y-77647440D01*
X47897765Y-77598157D01*
X48107809Y-77457809D01*
X48248157Y-77247765D01*
X48297440Y-77000000D01*
X48297440Y-75994126D01*
X55815000Y-75994126D01*
X55815000Y-76405874D01*
X55972569Y-76786280D01*
X56263720Y-77077431D01*
X56644126Y-77235000D01*
X57055874Y-77235000D01*
X57436280Y-77077431D01*
X57727431Y-76786280D01*
X57846011Y-76500000D01*
X63002560Y-76500000D01*
X63002560Y-78000000D01*
X63051843Y-78247765D01*
X63192191Y-78457809D01*
X63402235Y-78598157D01*
X63650000Y-78647440D01*
X65150000Y-78647440D01*
X65397765Y-78598157D01*
X65607809Y-78457809D01*
X65748157Y-78247765D01*
X65750000Y-78238500D01*
X65751843Y-78247765D01*
X65892191Y-78457809D01*
X66102235Y-78598157D01*
X66350000Y-78647440D01*
X67850000Y-78647440D01*
X68097765Y-78598157D01*
X68307809Y-78457809D01*
X68448157Y-78247765D01*
X68497440Y-78000000D01*
X68497440Y-76500000D01*
X68448157Y-76252235D01*
X68307809Y-76042191D01*
X68097765Y-75901843D01*
X67850000Y-75852560D01*
X66350000Y-75852560D01*
X66102235Y-75901843D01*
X65892191Y-76042191D01*
X65751843Y-76252235D01*
X65750000Y-76261500D01*
X65748157Y-76252235D01*
X65607809Y-76042191D01*
X65397765Y-75901843D01*
X65150000Y-75852560D01*
X63650000Y-75852560D01*
X63402235Y-75901843D01*
X63192191Y-76042191D01*
X63051843Y-76252235D01*
X63002560Y-76500000D01*
X57846011Y-76500000D01*
X57885000Y-76405874D01*
X57885000Y-75994126D01*
X57802158Y-75794126D01*
X76165000Y-75794126D01*
X76165000Y-76205874D01*
X76322569Y-76586280D01*
X76613720Y-76877431D01*
X76994126Y-77035000D01*
X77405874Y-77035000D01*
X77786280Y-76877431D01*
X78077431Y-76586280D01*
X78235000Y-76205874D01*
X78235000Y-76000000D01*
X80552560Y-76000000D01*
X80552560Y-77700000D01*
X80601843Y-77947765D01*
X80742191Y-78157809D01*
X80952235Y-78298157D01*
X81200000Y-78347440D01*
X82900000Y-78347440D01*
X83147765Y-78298157D01*
X83357809Y-78157809D01*
X83498157Y-77947765D01*
X83547440Y-77700000D01*
X83547440Y-77094126D01*
X107715000Y-77094126D01*
X107715000Y-77505874D01*
X107872569Y-77886280D01*
X108163720Y-78177431D01*
X108544126Y-78335000D01*
X108955874Y-78335000D01*
X109336280Y-78177431D01*
X109627431Y-77886280D01*
X109785000Y-77505874D01*
X109785000Y-77094126D01*
X109627431Y-76713720D01*
X109336280Y-76422569D01*
X108955874Y-76265000D01*
X108544126Y-76265000D01*
X108163720Y-76422569D01*
X107872569Y-76713720D01*
X107715000Y-77094126D01*
X83547440Y-77094126D01*
X83547440Y-76000000D01*
X83498157Y-75752235D01*
X83357809Y-75542191D01*
X83147765Y-75401843D01*
X82900000Y-75352560D01*
X81200000Y-75352560D01*
X80952235Y-75401843D01*
X80742191Y-75542191D01*
X80601843Y-75752235D01*
X80552560Y-76000000D01*
X78235000Y-76000000D01*
X78235000Y-75794126D01*
X78077431Y-75413720D01*
X77786280Y-75122569D01*
X77405874Y-74965000D01*
X76994126Y-74965000D01*
X76613720Y-75122569D01*
X76322569Y-75413720D01*
X76165000Y-75794126D01*
X57802158Y-75794126D01*
X57727431Y-75613720D01*
X57436280Y-75322569D01*
X57055874Y-75165000D01*
X56644126Y-75165000D01*
X56263720Y-75322569D01*
X55972569Y-75613720D01*
X55815000Y-75994126D01*
X48297440Y-75994126D01*
X48297440Y-75500000D01*
X48248157Y-75252235D01*
X48107809Y-75042191D01*
X47897765Y-74901843D01*
X47650000Y-74852560D01*
X46150000Y-74852560D01*
X45902235Y-74901843D01*
X45692191Y-75042191D01*
X45600000Y-75180164D01*
X45507809Y-75042191D01*
X45297765Y-74901843D01*
X45050000Y-74852560D01*
X43550000Y-74852560D01*
X43302235Y-74901843D01*
X43092191Y-75042191D01*
X42951843Y-75252235D01*
X42902560Y-75500000D01*
X42902560Y-76008602D01*
X42555874Y-75865000D01*
X42144126Y-75865000D01*
X41763720Y-76022569D01*
X41472569Y-76313720D01*
X41315000Y-76694126D01*
X30114254Y-76694126D01*
X29910625Y-76389375D01*
X29612239Y-76190000D01*
X29910625Y-75990625D01*
X30238839Y-75499418D01*
X30354092Y-74920000D01*
X30238839Y-74340582D01*
X29910625Y-73849375D01*
X29612239Y-73650000D01*
X29845521Y-73494126D01*
X44165000Y-73494126D01*
X44165000Y-73905874D01*
X44322569Y-74286280D01*
X44613720Y-74577431D01*
X44994126Y-74735000D01*
X45405874Y-74735000D01*
X45786280Y-74577431D01*
X46077431Y-74286280D01*
X46235000Y-73905874D01*
X46235000Y-73494126D01*
X46077431Y-73113720D01*
X46007837Y-73044126D01*
X48715000Y-73044126D01*
X48715000Y-73455874D01*
X48872569Y-73836280D01*
X49163720Y-74127431D01*
X49544126Y-74285000D01*
X49955874Y-74285000D01*
X50336280Y-74127431D01*
X50627431Y-73836280D01*
X50785000Y-73455874D01*
X50785000Y-73044126D01*
X50627431Y-72663720D01*
X50607837Y-72644126D01*
X98265000Y-72644126D01*
X98265000Y-73055874D01*
X98422569Y-73436280D01*
X98713720Y-73727431D01*
X99094126Y-73885000D01*
X99505874Y-73885000D01*
X99695958Y-73806265D01*
X99642191Y-73842191D01*
X99501843Y-74052235D01*
X99452560Y-74300000D01*
X99452560Y-75800000D01*
X99501843Y-76047765D01*
X99642191Y-76257809D01*
X99852235Y-76398157D01*
X100100000Y-76447440D01*
X101600000Y-76447440D01*
X101847765Y-76398157D01*
X102057809Y-76257809D01*
X102198157Y-76047765D01*
X102247440Y-75800000D01*
X102247440Y-75144126D01*
X104415000Y-75144126D01*
X104415000Y-75555874D01*
X104572569Y-75936280D01*
X104863720Y-76227431D01*
X105244126Y-76385000D01*
X105655874Y-76385000D01*
X106036280Y-76227431D01*
X106269585Y-75994126D01*
X110415000Y-75994126D01*
X110415000Y-76405874D01*
X110572569Y-76786280D01*
X110863720Y-77077431D01*
X111244126Y-77235000D01*
X111655874Y-77235000D01*
X112036280Y-77077431D01*
X112327431Y-76786280D01*
X112485000Y-76405874D01*
X112485000Y-75994126D01*
X112327431Y-75613720D01*
X112036280Y-75322569D01*
X111655874Y-75165000D01*
X111244126Y-75165000D01*
X110863720Y-75322569D01*
X110572569Y-75613720D01*
X110415000Y-75994126D01*
X106269585Y-75994126D01*
X106327431Y-75936280D01*
X106485000Y-75555874D01*
X106485000Y-75144126D01*
X106327431Y-74763720D01*
X106036280Y-74472569D01*
X105655874Y-74315000D01*
X105244126Y-74315000D01*
X104863720Y-74472569D01*
X104572569Y-74763720D01*
X104415000Y-75144126D01*
X102247440Y-75144126D01*
X102247440Y-74300000D01*
X102198157Y-74052235D01*
X102057809Y-73842191D01*
X101847765Y-73701843D01*
X101676515Y-73667780D01*
X101785000Y-73405874D01*
X101785000Y-72994126D01*
X101677667Y-72735000D01*
X102055874Y-72735000D01*
X102436280Y-72577431D01*
X102563711Y-72450000D01*
X113752560Y-72450000D01*
X113752560Y-73950000D01*
X113801843Y-74197765D01*
X113942191Y-74407809D01*
X114152235Y-74548157D01*
X114400000Y-74597440D01*
X115900000Y-74597440D01*
X116147765Y-74548157D01*
X116357809Y-74407809D01*
X116498157Y-74197765D01*
X116547440Y-73950000D01*
X116547440Y-72450000D01*
X116498157Y-72202235D01*
X116357809Y-71992191D01*
X116147765Y-71851843D01*
X115900000Y-71802560D01*
X114400000Y-71802560D01*
X114152235Y-71851843D01*
X113942191Y-71992191D01*
X113801843Y-72202235D01*
X113752560Y-72450000D01*
X102563711Y-72450000D01*
X102727431Y-72286280D01*
X102885000Y-71905874D01*
X102885000Y-71494126D01*
X102727431Y-71113720D01*
X102436280Y-70822569D01*
X102055874Y-70665000D01*
X101644126Y-70665000D01*
X101263720Y-70822569D01*
X100972569Y-71113720D01*
X100815000Y-71494126D01*
X100815000Y-71905874D01*
X100922333Y-72165000D01*
X100544126Y-72165000D01*
X100196229Y-72309103D01*
X100177431Y-72263720D01*
X99886280Y-71972569D01*
X99795580Y-71935000D01*
X100005874Y-71935000D01*
X100386280Y-71777431D01*
X100677431Y-71486280D01*
X100835000Y-71105874D01*
X100835000Y-70694126D01*
X100677431Y-70313720D01*
X100386280Y-70022569D01*
X100005874Y-69865000D01*
X99594126Y-69865000D01*
X99213720Y-70022569D01*
X98922569Y-70313720D01*
X98765000Y-70694126D01*
X98765000Y-71105874D01*
X98922569Y-71486280D01*
X99213720Y-71777431D01*
X99304420Y-71815000D01*
X99094126Y-71815000D01*
X98713720Y-71972569D01*
X98422569Y-72263720D01*
X98265000Y-72644126D01*
X50607837Y-72644126D01*
X50336280Y-72372569D01*
X49955874Y-72215000D01*
X49544126Y-72215000D01*
X49163720Y-72372569D01*
X48872569Y-72663720D01*
X48715000Y-73044126D01*
X46007837Y-73044126D01*
X45786280Y-72822569D01*
X45405874Y-72665000D01*
X44994126Y-72665000D01*
X44613720Y-72822569D01*
X44322569Y-73113720D01*
X44165000Y-73494126D01*
X29845521Y-73494126D01*
X29910625Y-73450625D01*
X30238839Y-72959418D01*
X30354092Y-72380000D01*
X30238839Y-71800582D01*
X29910625Y-71309375D01*
X29419418Y-70981161D01*
X28986256Y-70895000D01*
X28693744Y-70895000D01*
X28260582Y-70981161D01*
X27769375Y-71309375D01*
X27570000Y-71607761D01*
X27370625Y-71309375D01*
X26879418Y-70981161D01*
X26446256Y-70895000D01*
X26153744Y-70895000D01*
X25720582Y-70981161D01*
X25229375Y-71309375D01*
X24901161Y-71800582D01*
X24785908Y-72380000D01*
X21127000Y-72380000D01*
X21127000Y-68694126D01*
X46315000Y-68694126D01*
X46315000Y-69105874D01*
X46472569Y-69486280D01*
X46763720Y-69777431D01*
X47144126Y-69935000D01*
X47555874Y-69935000D01*
X47936280Y-69777431D01*
X48227431Y-69486280D01*
X48385000Y-69105874D01*
X48385000Y-68694126D01*
X48227431Y-68313720D01*
X47936280Y-68022569D01*
X47555874Y-67865000D01*
X47144126Y-67865000D01*
X46763720Y-68022569D01*
X46472569Y-68313720D01*
X46315000Y-68694126D01*
X21127000Y-68694126D01*
X21127000Y-67750000D01*
X48902560Y-67750000D01*
X48902560Y-69250000D01*
X48951843Y-69497765D01*
X49092191Y-69707809D01*
X49302235Y-69848157D01*
X49550000Y-69897440D01*
X51050000Y-69897440D01*
X51297765Y-69848157D01*
X51507809Y-69707809D01*
X51648157Y-69497765D01*
X51697440Y-69250000D01*
X51697440Y-67750000D01*
X51648157Y-67502235D01*
X51507809Y-67292191D01*
X51297765Y-67151843D01*
X51050000Y-67102560D01*
X49550000Y-67102560D01*
X49302235Y-67151843D01*
X49092191Y-67292191D01*
X48951843Y-67502235D01*
X48902560Y-67750000D01*
X21127000Y-67750000D01*
X21127000Y-67050000D01*
X56452560Y-67050000D01*
X56452560Y-68750000D01*
X56501843Y-68997765D01*
X56642191Y-69207809D01*
X56852235Y-69348157D01*
X57100000Y-69397440D01*
X58800000Y-69397440D01*
X59047765Y-69348157D01*
X59257809Y-69207809D01*
X59398157Y-68997765D01*
X59447440Y-68750000D01*
X59447440Y-67050000D01*
X59398157Y-66802235D01*
X59257809Y-66592191D01*
X59047765Y-66451843D01*
X58800000Y-66402560D01*
X57100000Y-66402560D01*
X56852235Y-66451843D01*
X56642191Y-66592191D01*
X56501843Y-66802235D01*
X56452560Y-67050000D01*
X21127000Y-67050000D01*
X21127000Y-65344126D01*
X32565000Y-65344126D01*
X32565000Y-65755874D01*
X32722569Y-66136280D01*
X33013720Y-66427431D01*
X33394126Y-66585000D01*
X33805874Y-66585000D01*
X34186280Y-66427431D01*
X34477431Y-66136280D01*
X34509027Y-66060000D01*
X103635908Y-66060000D01*
X103751161Y-66639418D01*
X104079375Y-67130625D01*
X104097619Y-67142816D01*
X104052235Y-67151843D01*
X103842191Y-67292191D01*
X103701843Y-67502235D01*
X103652560Y-67750000D01*
X103652560Y-69450000D01*
X103701843Y-69697765D01*
X103842191Y-69907809D01*
X104052235Y-70048157D01*
X104300000Y-70097440D01*
X106000000Y-70097440D01*
X106247765Y-70048157D01*
X106457809Y-69907809D01*
X106598157Y-69697765D01*
X106647440Y-69450000D01*
X106647440Y-68850000D01*
X113202560Y-68850000D01*
X113202560Y-70550000D01*
X113251843Y-70797765D01*
X113392191Y-71007809D01*
X113602235Y-71148157D01*
X113850000Y-71197440D01*
X115550000Y-71197440D01*
X115797765Y-71148157D01*
X116007809Y-71007809D01*
X116148157Y-70797765D01*
X116197440Y-70550000D01*
X116197440Y-68850000D01*
X116148157Y-68602235D01*
X116007809Y-68392191D01*
X115797765Y-68251843D01*
X115550000Y-68202560D01*
X113850000Y-68202560D01*
X113602235Y-68251843D01*
X113392191Y-68392191D01*
X113251843Y-68602235D01*
X113202560Y-68850000D01*
X106647440Y-68850000D01*
X106647440Y-67750000D01*
X106598157Y-67502235D01*
X106457809Y-67292191D01*
X106247765Y-67151843D01*
X106202381Y-67142816D01*
X106220625Y-67130625D01*
X106548839Y-66639418D01*
X106664092Y-66060000D01*
X106548839Y-65480582D01*
X106220625Y-64989375D01*
X105937206Y-64800000D01*
X109052560Y-64800000D01*
X109052560Y-66300000D01*
X109101843Y-66547765D01*
X109242191Y-66757809D01*
X109452235Y-66898157D01*
X109700000Y-66947440D01*
X111200000Y-66947440D01*
X111447765Y-66898157D01*
X111657809Y-66757809D01*
X111798157Y-66547765D01*
X111847440Y-66300000D01*
X111847440Y-64800000D01*
X111798157Y-64552235D01*
X111657809Y-64342191D01*
X111447765Y-64201843D01*
X111200000Y-64152560D01*
X109700000Y-64152560D01*
X109452235Y-64201843D01*
X109242191Y-64342191D01*
X109101843Y-64552235D01*
X109052560Y-64800000D01*
X105937206Y-64800000D01*
X105729418Y-64661161D01*
X105296256Y-64575000D01*
X105003744Y-64575000D01*
X104570582Y-64661161D01*
X104079375Y-64989375D01*
X103751161Y-65480582D01*
X103635908Y-66060000D01*
X34509027Y-66060000D01*
X34635000Y-65755874D01*
X34635000Y-65344126D01*
X34477431Y-64963720D01*
X34186280Y-64672569D01*
X33805874Y-64515000D01*
X33394126Y-64515000D01*
X33013720Y-64672569D01*
X32722569Y-64963720D01*
X32565000Y-65344126D01*
X21127000Y-65344126D01*
X21127000Y-61194126D01*
X36265000Y-61194126D01*
X36265000Y-61605874D01*
X36422569Y-61986280D01*
X36713720Y-62277431D01*
X37094126Y-62435000D01*
X37505874Y-62435000D01*
X37845974Y-62294126D01*
X39715000Y-62294126D01*
X39715000Y-62705874D01*
X39872569Y-63086280D01*
X40163720Y-63377431D01*
X40365000Y-63460804D01*
X40365000Y-63605874D01*
X40522569Y-63986280D01*
X40813720Y-64277431D01*
X41194126Y-64435000D01*
X41605874Y-64435000D01*
X41865000Y-64327667D01*
X41865000Y-64405874D01*
X42022569Y-64786280D01*
X42313720Y-65077431D01*
X42694126Y-65235000D01*
X43105874Y-65235000D01*
X43486280Y-65077431D01*
X43777431Y-64786280D01*
X43935000Y-64405874D01*
X43935000Y-63994126D01*
X43777431Y-63613720D01*
X43486280Y-63322569D01*
X43105874Y-63165000D01*
X42694126Y-63165000D01*
X42435000Y-63272333D01*
X42435000Y-63194126D01*
X42375302Y-63050000D01*
X93202560Y-63050000D01*
X93202560Y-64750000D01*
X93251843Y-64997765D01*
X93392191Y-65207809D01*
X93602235Y-65348157D01*
X93850000Y-65397440D01*
X95550000Y-65397440D01*
X95797765Y-65348157D01*
X96007809Y-65207809D01*
X96148157Y-64997765D01*
X96197440Y-64750000D01*
X96197440Y-64694126D01*
X101465000Y-64694126D01*
X101465000Y-65105874D01*
X101622569Y-65486280D01*
X101913720Y-65777431D01*
X102294126Y-65935000D01*
X102705874Y-65935000D01*
X103086280Y-65777431D01*
X103377431Y-65486280D01*
X103535000Y-65105874D01*
X103535000Y-64694126D01*
X103377431Y-64313720D01*
X103086280Y-64022569D01*
X102705874Y-63865000D01*
X102294126Y-63865000D01*
X101913720Y-64022569D01*
X101622569Y-64313720D01*
X101465000Y-64694126D01*
X96197440Y-64694126D01*
X96197440Y-63050000D01*
X96148157Y-62802235D01*
X96046437Y-62650000D01*
X112452560Y-62650000D01*
X112452560Y-64350000D01*
X112501843Y-64597765D01*
X112642191Y-64807809D01*
X112852235Y-64948157D01*
X113100000Y-64997440D01*
X114800000Y-64997440D01*
X115047765Y-64948157D01*
X115257809Y-64807809D01*
X115398157Y-64597765D01*
X115447440Y-64350000D01*
X115447440Y-62650000D01*
X115398157Y-62402235D01*
X115257809Y-62192191D01*
X115047765Y-62051843D01*
X114800000Y-62002560D01*
X113100000Y-62002560D01*
X112852235Y-62051843D01*
X112642191Y-62192191D01*
X112501843Y-62402235D01*
X112452560Y-62650000D01*
X96046437Y-62650000D01*
X96007809Y-62592191D01*
X95797765Y-62451843D01*
X95550000Y-62402560D01*
X93850000Y-62402560D01*
X93602235Y-62451843D01*
X93392191Y-62592191D01*
X93251843Y-62802235D01*
X93202560Y-63050000D01*
X42375302Y-63050000D01*
X42277431Y-62813720D01*
X41986280Y-62522569D01*
X41785000Y-62439196D01*
X41785000Y-62294126D01*
X41627431Y-61913720D01*
X41336280Y-61622569D01*
X40955874Y-61465000D01*
X40544126Y-61465000D01*
X40163720Y-61622569D01*
X39872569Y-61913720D01*
X39715000Y-62294126D01*
X37845974Y-62294126D01*
X37886280Y-62277431D01*
X38177431Y-61986280D01*
X38335000Y-61605874D01*
X38335000Y-61194126D01*
X38177431Y-60813720D01*
X37886280Y-60522569D01*
X37505874Y-60365000D01*
X37094126Y-60365000D01*
X36713720Y-60522569D01*
X36422569Y-60813720D01*
X36265000Y-61194126D01*
X21127000Y-61194126D01*
X21127000Y-59794126D01*
X82615000Y-59794126D01*
X82615000Y-60205874D01*
X82772569Y-60586280D01*
X83063720Y-60877431D01*
X83444126Y-61035000D01*
X83855874Y-61035000D01*
X84236280Y-60877431D01*
X84527431Y-60586280D01*
X84685000Y-60205874D01*
X84685000Y-59794126D01*
X84527431Y-59413720D01*
X84236280Y-59122569D01*
X83855874Y-58965000D01*
X83444126Y-58965000D01*
X83063720Y-59122569D01*
X82772569Y-59413720D01*
X82615000Y-59794126D01*
X21127000Y-59794126D01*
X21127000Y-58294126D01*
X42215000Y-58294126D01*
X42215000Y-58705874D01*
X42372569Y-59086280D01*
X42663720Y-59377431D01*
X43044126Y-59535000D01*
X43455874Y-59535000D01*
X43836280Y-59377431D01*
X44127431Y-59086280D01*
X44285000Y-58705874D01*
X44285000Y-58294126D01*
X44127431Y-57913720D01*
X43836280Y-57622569D01*
X43767613Y-57594126D01*
X82715000Y-57594126D01*
X82715000Y-58005874D01*
X82872569Y-58386280D01*
X83163720Y-58677431D01*
X83544126Y-58835000D01*
X83955874Y-58835000D01*
X84336280Y-58677431D01*
X84627431Y-58386280D01*
X84785000Y-58005874D01*
X84785000Y-57594126D01*
X84627431Y-57213720D01*
X84457837Y-57044126D01*
X98915000Y-57044126D01*
X98915000Y-57455874D01*
X99072569Y-57836280D01*
X99363720Y-58127431D01*
X99744126Y-58285000D01*
X100155874Y-58285000D01*
X100536280Y-58127431D01*
X100827431Y-57836280D01*
X100935883Y-57574452D01*
X110055000Y-57574452D01*
X110055000Y-58105548D01*
X110258242Y-58596217D01*
X110633783Y-58971758D01*
X111124452Y-59175000D01*
X111655548Y-59175000D01*
X112146217Y-58971758D01*
X112521758Y-58596217D01*
X112660000Y-58262472D01*
X112798242Y-58596217D01*
X113173783Y-58971758D01*
X113664452Y-59175000D01*
X114195548Y-59175000D01*
X114686217Y-58971758D01*
X115061758Y-58596217D01*
X115265000Y-58105548D01*
X115265000Y-57574452D01*
X115061758Y-57083783D01*
X114686217Y-56708242D01*
X114195548Y-56505000D01*
X113664452Y-56505000D01*
X113173783Y-56708242D01*
X112798242Y-57083783D01*
X112660000Y-57417528D01*
X112521758Y-57083783D01*
X112146217Y-56708242D01*
X111655548Y-56505000D01*
X111124452Y-56505000D01*
X110633783Y-56708242D01*
X110258242Y-57083783D01*
X110055000Y-57574452D01*
X100935883Y-57574452D01*
X100985000Y-57455874D01*
X100985000Y-57044126D01*
X100827431Y-56663720D01*
X100536280Y-56372569D01*
X100204823Y-56235275D01*
X111904331Y-56235275D01*
X111966169Y-56471042D01*
X112467122Y-56647419D01*
X112997440Y-56618664D01*
X113353831Y-56471042D01*
X113415669Y-56235275D01*
X112660000Y-55479605D01*
X111904331Y-56235275D01*
X100204823Y-56235275D01*
X100155874Y-56215000D01*
X99744126Y-56215000D01*
X99363720Y-56372569D01*
X99072569Y-56663720D01*
X98915000Y-57044126D01*
X84457837Y-57044126D01*
X84336280Y-56922569D01*
X83955874Y-56765000D01*
X83544126Y-56765000D01*
X83163720Y-56922569D01*
X82872569Y-57213720D01*
X82715000Y-57594126D01*
X43767613Y-57594126D01*
X43455874Y-57465000D01*
X43044126Y-57465000D01*
X42663720Y-57622569D01*
X42372569Y-57913720D01*
X42215000Y-58294126D01*
X21127000Y-58294126D01*
X21127000Y-55050000D01*
X48202560Y-55050000D01*
X48202560Y-56750000D01*
X48251843Y-56997765D01*
X48392191Y-57207809D01*
X48602235Y-57348157D01*
X48850000Y-57397440D01*
X50550000Y-57397440D01*
X50797765Y-57348157D01*
X51007809Y-57207809D01*
X51148157Y-56997765D01*
X51197440Y-56750000D01*
X51197440Y-55050000D01*
X51148157Y-54802235D01*
X51007809Y-54592191D01*
X50797765Y-54451843D01*
X50550000Y-54402560D01*
X48850000Y-54402560D01*
X48602235Y-54451843D01*
X48392191Y-54592191D01*
X48251843Y-54802235D01*
X48202560Y-55050000D01*
X21127000Y-55050000D01*
X21127000Y-52294126D01*
X31815000Y-52294126D01*
X31815000Y-52705874D01*
X31972569Y-53086280D01*
X32263720Y-53377431D01*
X32644126Y-53535000D01*
X33055874Y-53535000D01*
X33436280Y-53377431D01*
X33727431Y-53086280D01*
X33765602Y-52994126D01*
X45265000Y-52994126D01*
X45265000Y-53405874D01*
X45422569Y-53786280D01*
X45713720Y-54077431D01*
X46094126Y-54235000D01*
X46505874Y-54235000D01*
X46886280Y-54077431D01*
X47177431Y-53786280D01*
X47335000Y-53405874D01*
X47335000Y-52994126D01*
X47177431Y-52613720D01*
X46886280Y-52322569D01*
X46505874Y-52165000D01*
X46094126Y-52165000D01*
X45713720Y-52322569D01*
X45422569Y-52613720D01*
X45265000Y-52994126D01*
X33765602Y-52994126D01*
X33885000Y-52705874D01*
X33885000Y-52294126D01*
X33727431Y-51913720D01*
X33436280Y-51622569D01*
X33055874Y-51465000D01*
X32644126Y-51465000D01*
X32263720Y-51622569D01*
X31972569Y-51913720D01*
X31815000Y-52294126D01*
X21127000Y-52294126D01*
X21127000Y-49094126D01*
X31065000Y-49094126D01*
X31065000Y-49505874D01*
X31222569Y-49886280D01*
X31513720Y-50177431D01*
X31894126Y-50335000D01*
X32305874Y-50335000D01*
X32686280Y-50177431D01*
X32977431Y-49886280D01*
X33135000Y-49505874D01*
X33135000Y-49094126D01*
X36915000Y-49094126D01*
X36915000Y-49505874D01*
X37072569Y-49886280D01*
X37363720Y-50177431D01*
X37744126Y-50335000D01*
X38155874Y-50335000D01*
X38536280Y-50177431D01*
X38827431Y-49886280D01*
X38985000Y-49505874D01*
X38985000Y-49094126D01*
X38827431Y-48713720D01*
X38536280Y-48422569D01*
X38155874Y-48265000D01*
X37744126Y-48265000D01*
X37363720Y-48422569D01*
X37072569Y-48713720D01*
X36915000Y-49094126D01*
X33135000Y-49094126D01*
X32977431Y-48713720D01*
X32686280Y-48422569D01*
X32305874Y-48265000D01*
X31894126Y-48265000D01*
X31513720Y-48422569D01*
X31222569Y-48713720D01*
X31065000Y-49094126D01*
X21127000Y-49094126D01*
X21127000Y-47094126D01*
X27265000Y-47094126D01*
X27265000Y-47505874D01*
X27422569Y-47886280D01*
X27713720Y-48177431D01*
X28094126Y-48335000D01*
X28505874Y-48335000D01*
X28886280Y-48177431D01*
X29177431Y-47886280D01*
X29335000Y-47505874D01*
X29335000Y-47094126D01*
X29177431Y-46713720D01*
X28886280Y-46422569D01*
X28505874Y-46265000D01*
X28094126Y-46265000D01*
X27713720Y-46422569D01*
X27422569Y-46713720D01*
X27265000Y-47094126D01*
X21127000Y-47094126D01*
X21127000Y-46244126D01*
X41715000Y-46244126D01*
X41715000Y-46655874D01*
X41872569Y-47036280D01*
X42163720Y-47327431D01*
X42544126Y-47485000D01*
X42955874Y-47485000D01*
X43336280Y-47327431D01*
X43403179Y-47260532D01*
X43265000Y-47594126D01*
X43265000Y-48005874D01*
X43422569Y-48386280D01*
X43713720Y-48677431D01*
X44094126Y-48835000D01*
X44505874Y-48835000D01*
X44886280Y-48677431D01*
X45177431Y-48386280D01*
X45335000Y-48005874D01*
X45335000Y-47930000D01*
X67485908Y-47930000D01*
X67601161Y-48509418D01*
X67929375Y-49000625D01*
X68227761Y-49200000D01*
X67929375Y-49399375D01*
X67601161Y-49890582D01*
X67485908Y-50470000D01*
X67601161Y-51049418D01*
X67929375Y-51540625D01*
X68227761Y-51740000D01*
X67929375Y-51939375D01*
X67601161Y-52430582D01*
X67485908Y-53010000D01*
X67601161Y-53589418D01*
X67929375Y-54080625D01*
X67947619Y-54092816D01*
X67902235Y-54101843D01*
X67692191Y-54242191D01*
X67551843Y-54452235D01*
X67502560Y-54700000D01*
X67502560Y-56400000D01*
X67551843Y-56647765D01*
X67692191Y-56857809D01*
X67902235Y-56998157D01*
X68150000Y-57047440D01*
X69850000Y-57047440D01*
X70097765Y-56998157D01*
X70307809Y-56857809D01*
X70448157Y-56647765D01*
X70497440Y-56400000D01*
X70497440Y-55107122D01*
X111312581Y-55107122D01*
X111341336Y-55637440D01*
X111488958Y-55993831D01*
X111724725Y-56055669D01*
X112480395Y-55300000D01*
X112839605Y-55300000D01*
X113595275Y-56055669D01*
X113831042Y-55993831D01*
X113928153Y-55718013D01*
X114068242Y-56056217D01*
X114443783Y-56431758D01*
X114934452Y-56635000D01*
X115465548Y-56635000D01*
X115956217Y-56431758D01*
X116331758Y-56056217D01*
X116535000Y-55565548D01*
X116535000Y-55034452D01*
X116331758Y-54543783D01*
X115956217Y-54168242D01*
X115465548Y-53965000D01*
X114934452Y-53965000D01*
X114443783Y-54168242D01*
X114068242Y-54543783D01*
X113936721Y-54861302D01*
X113831042Y-54606169D01*
X113595275Y-54544331D01*
X112839605Y-55300000D01*
X112480395Y-55300000D01*
X111724725Y-54544331D01*
X111488958Y-54606169D01*
X111312581Y-55107122D01*
X70497440Y-55107122D01*
X70497440Y-54700000D01*
X70448157Y-54452235D01*
X70307809Y-54242191D01*
X70097765Y-54101843D01*
X70052381Y-54092816D01*
X70070625Y-54080625D01*
X70262057Y-53794126D01*
X104165000Y-53794126D01*
X104165000Y-54205874D01*
X104322569Y-54586280D01*
X104613720Y-54877431D01*
X104994126Y-55035000D01*
X105405874Y-55035000D01*
X105786280Y-54877431D01*
X106077431Y-54586280D01*
X106169201Y-54364725D01*
X111904331Y-54364725D01*
X112660000Y-55120395D01*
X113415669Y-54364725D01*
X113353831Y-54128958D01*
X112852878Y-53952581D01*
X112322560Y-53981336D01*
X111966169Y-54128958D01*
X111904331Y-54364725D01*
X106169201Y-54364725D01*
X106235000Y-54205874D01*
X106235000Y-53794126D01*
X106077431Y-53413720D01*
X105786280Y-53122569D01*
X105405874Y-52965000D01*
X104994126Y-52965000D01*
X104613720Y-53122569D01*
X104322569Y-53413720D01*
X104165000Y-53794126D01*
X70262057Y-53794126D01*
X70398839Y-53589418D01*
X70514092Y-53010000D01*
X70401534Y-52444126D01*
X92315000Y-52444126D01*
X92315000Y-52855874D01*
X92472569Y-53236280D01*
X92763720Y-53527431D01*
X93144126Y-53685000D01*
X93555874Y-53685000D01*
X93936280Y-53527431D01*
X94227431Y-53236280D01*
X94385000Y-52855874D01*
X94385000Y-52444126D01*
X94227431Y-52063720D01*
X93936280Y-51772569D01*
X93555874Y-51615000D01*
X93144126Y-51615000D01*
X92763720Y-51772569D01*
X92472569Y-52063720D01*
X92315000Y-52444126D01*
X70401534Y-52444126D01*
X70398839Y-52430582D01*
X70070625Y-51939375D01*
X69772239Y-51740000D01*
X70070625Y-51540625D01*
X70074749Y-51534452D01*
X109925000Y-51534452D01*
X109925000Y-52065548D01*
X110128242Y-52556217D01*
X110503783Y-52931758D01*
X110994452Y-53135000D01*
X111525548Y-53135000D01*
X112016217Y-52931758D01*
X112391758Y-52556217D01*
X112530000Y-52222472D01*
X112668242Y-52556217D01*
X113043783Y-52931758D01*
X113534452Y-53135000D01*
X114065548Y-53135000D01*
X114556217Y-52931758D01*
X114931758Y-52556217D01*
X115135000Y-52065548D01*
X115135000Y-51534452D01*
X114931758Y-51043783D01*
X114556217Y-50668242D01*
X114065548Y-50465000D01*
X113534452Y-50465000D01*
X113043783Y-50668242D01*
X112668242Y-51043783D01*
X112530000Y-51377528D01*
X112391758Y-51043783D01*
X112016217Y-50668242D01*
X111525548Y-50465000D01*
X110994452Y-50465000D01*
X110503783Y-50668242D01*
X110128242Y-51043783D01*
X109925000Y-51534452D01*
X70074749Y-51534452D01*
X70398839Y-51049418D01*
X70514092Y-50470000D01*
X70459446Y-50195275D01*
X111774331Y-50195275D01*
X111836169Y-50431042D01*
X112337122Y-50607419D01*
X112867440Y-50578664D01*
X113223831Y-50431042D01*
X113285669Y-50195275D01*
X112530000Y-49439605D01*
X111774331Y-50195275D01*
X70459446Y-50195275D01*
X70398839Y-49890582D01*
X70070625Y-49399375D01*
X69772239Y-49200000D01*
X69971105Y-49067122D01*
X111182581Y-49067122D01*
X111211336Y-49597440D01*
X111358958Y-49953831D01*
X111594725Y-50015669D01*
X112350395Y-49260000D01*
X112709605Y-49260000D01*
X113465275Y-50015669D01*
X113701042Y-49953831D01*
X113798153Y-49678013D01*
X113938242Y-50016217D01*
X114313783Y-50391758D01*
X114804452Y-50595000D01*
X115335548Y-50595000D01*
X115826217Y-50391758D01*
X116201758Y-50016217D01*
X116405000Y-49525548D01*
X116405000Y-48994452D01*
X116201758Y-48503783D01*
X115826217Y-48128242D01*
X115335548Y-47925000D01*
X114804452Y-47925000D01*
X114313783Y-48128242D01*
X113938242Y-48503783D01*
X113806721Y-48821302D01*
X113701042Y-48566169D01*
X113465275Y-48504331D01*
X112709605Y-49260000D01*
X112350395Y-49260000D01*
X111594725Y-48504331D01*
X111358958Y-48566169D01*
X111182581Y-49067122D01*
X69971105Y-49067122D01*
X70070625Y-49000625D01*
X70398839Y-48509418D01*
X70435576Y-48324725D01*
X111774331Y-48324725D01*
X112530000Y-49080395D01*
X113285669Y-48324725D01*
X113223831Y-48088958D01*
X112722878Y-47912581D01*
X112192560Y-47941336D01*
X111836169Y-48088958D01*
X111774331Y-48324725D01*
X70435576Y-48324725D01*
X70514092Y-47930000D01*
X70398839Y-47350582D01*
X70070625Y-46859375D01*
X69969685Y-46791929D01*
X89302429Y-46791929D01*
X89302429Y-47203677D01*
X89459998Y-47584083D01*
X89751149Y-47875234D01*
X90131555Y-48032803D01*
X90543303Y-48032803D01*
X90923709Y-47875234D01*
X91041140Y-47757803D01*
X101527350Y-47757803D01*
X101602197Y-47772691D01*
X101677044Y-47757803D01*
X101677049Y-47757803D01*
X101898734Y-47713707D01*
X102150126Y-47545732D01*
X102192528Y-47482273D01*
X109014802Y-40660000D01*
X114552560Y-40660000D01*
X114552560Y-40750000D01*
X114601843Y-40997765D01*
X114742191Y-41207809D01*
X114952235Y-41348157D01*
X115200000Y-41397440D01*
X116900000Y-41397440D01*
X117147765Y-41348157D01*
X117357809Y-41207809D01*
X117498157Y-40997765D01*
X117547440Y-40750000D01*
X117547440Y-39050000D01*
X117498157Y-38802235D01*
X117357809Y-38592191D01*
X117147765Y-38451843D01*
X117102381Y-38442816D01*
X117120625Y-38430625D01*
X117448839Y-37939418D01*
X117564092Y-37360000D01*
X117448839Y-36780582D01*
X117120625Y-36289375D01*
X116822239Y-36090000D01*
X117120625Y-35890625D01*
X117448839Y-35399418D01*
X117564092Y-34820000D01*
X117448839Y-34240582D01*
X117120625Y-33749375D01*
X116822239Y-33550000D01*
X117120625Y-33350625D01*
X117448839Y-32859418D01*
X117564092Y-32280000D01*
X117448839Y-31700582D01*
X117120625Y-31209375D01*
X116822239Y-31010000D01*
X117120625Y-30810625D01*
X117448839Y-30319418D01*
X117564092Y-29740000D01*
X117448839Y-29160582D01*
X117120625Y-28669375D01*
X116629418Y-28341161D01*
X116196256Y-28255000D01*
X115903744Y-28255000D01*
X115470582Y-28341161D01*
X114979375Y-28669375D01*
X114651161Y-29160582D01*
X114535908Y-29740000D01*
X114651161Y-30319418D01*
X114979375Y-30810625D01*
X115277761Y-31010000D01*
X114979375Y-31209375D01*
X114771822Y-31520000D01*
X111194846Y-31520000D01*
X111119999Y-31505112D01*
X111045152Y-31520000D01*
X111045148Y-31520000D01*
X110823463Y-31564096D01*
X110823461Y-31564097D01*
X110823462Y-31564097D01*
X110635526Y-31689671D01*
X110635524Y-31689673D01*
X110572071Y-31732071D01*
X110529673Y-31795524D01*
X104194455Y-38130744D01*
X103986280Y-37922569D01*
X103605874Y-37765000D01*
X103194126Y-37765000D01*
X102813720Y-37922569D01*
X102522569Y-38213720D01*
X102365000Y-38594126D01*
X102365000Y-39005874D01*
X102482689Y-39290000D01*
X98323711Y-39290000D01*
X98327431Y-39286280D01*
X98485000Y-38905874D01*
X98485000Y-38494126D01*
X98327431Y-38113720D01*
X98036280Y-37822569D01*
X97655874Y-37665000D01*
X97244126Y-37665000D01*
X96863720Y-37822569D01*
X96572569Y-38113720D01*
X96415000Y-38494126D01*
X96415000Y-38905874D01*
X96572569Y-39286280D01*
X96576289Y-39290000D01*
X93039802Y-39290000D01*
X92460000Y-38710199D01*
X92460000Y-38544126D01*
X92302431Y-38163720D01*
X92011280Y-37872569D01*
X91630874Y-37715000D01*
X91219126Y-37715000D01*
X90838720Y-37872569D01*
X90547569Y-38163720D01*
X90390000Y-38544126D01*
X90390000Y-38955874D01*
X90547569Y-39336280D01*
X90838720Y-39627431D01*
X91219126Y-39785000D01*
X91385199Y-39785000D01*
X92134671Y-40534473D01*
X92177071Y-40597929D01*
X92428463Y-40765904D01*
X92650148Y-40810000D01*
X92650152Y-40810000D01*
X92725000Y-40824888D01*
X92799848Y-40810000D01*
X103275153Y-40810000D01*
X103350000Y-40824888D01*
X103424847Y-40810000D01*
X103424852Y-40810000D01*
X103646537Y-40765904D01*
X103897929Y-40597929D01*
X103940331Y-40534470D01*
X110730546Y-33744257D01*
X111013720Y-34027431D01*
X111394126Y-34185000D01*
X111805874Y-34185000D01*
X112186280Y-34027431D01*
X112477431Y-33736280D01*
X112635000Y-33355874D01*
X112635000Y-33040000D01*
X114771822Y-33040000D01*
X114979375Y-33350625D01*
X115277761Y-33550000D01*
X114979375Y-33749375D01*
X114651161Y-34240582D01*
X114535908Y-34820000D01*
X114651161Y-35399418D01*
X114979375Y-35890625D01*
X115277761Y-36090000D01*
X114979375Y-36289375D01*
X114651161Y-36780582D01*
X114535908Y-37360000D01*
X114651161Y-37939418D01*
X114979375Y-38430625D01*
X114997619Y-38442816D01*
X114952235Y-38451843D01*
X114742191Y-38592191D01*
X114601843Y-38802235D01*
X114552560Y-39050000D01*
X114552560Y-39140000D01*
X108774846Y-39140000D01*
X108699999Y-39125112D01*
X108625152Y-39140000D01*
X108625148Y-39140000D01*
X108403463Y-39184096D01*
X108152071Y-39352071D01*
X108109671Y-39415527D01*
X101287396Y-46237803D01*
X95625908Y-46237803D01*
X95877431Y-45986280D01*
X96035000Y-45605874D01*
X96035000Y-45194126D01*
X95877431Y-44813720D01*
X95586280Y-44522569D01*
X95205874Y-44365000D01*
X94794126Y-44365000D01*
X94413720Y-44522569D01*
X94122569Y-44813720D01*
X93965000Y-45194126D01*
X93965000Y-45605874D01*
X94122569Y-45986280D01*
X94374092Y-46237803D01*
X91769818Y-46237803D01*
X92036280Y-46127431D01*
X92327431Y-45836280D01*
X92485000Y-45455874D01*
X92485000Y-45044126D01*
X92327431Y-44663720D01*
X92036280Y-44372569D01*
X91655874Y-44215000D01*
X91244126Y-44215000D01*
X90863720Y-44372569D01*
X90572569Y-44663720D01*
X90415000Y-45044126D01*
X90415000Y-45455874D01*
X90572569Y-45836280D01*
X90809251Y-46072962D01*
X90543303Y-45962803D01*
X90131555Y-45962803D01*
X89751149Y-46120372D01*
X89459998Y-46411523D01*
X89302429Y-46791929D01*
X69969685Y-46791929D01*
X69579418Y-46531161D01*
X69146256Y-46445000D01*
X68853744Y-46445000D01*
X68420582Y-46531161D01*
X67929375Y-46859375D01*
X67601161Y-47350582D01*
X67485908Y-47930000D01*
X45335000Y-47930000D01*
X45335000Y-47594126D01*
X45177431Y-47213720D01*
X44886280Y-46922569D01*
X44505874Y-46765000D01*
X44094126Y-46765000D01*
X43713720Y-46922569D01*
X43646821Y-46989468D01*
X43785000Y-46655874D01*
X43785000Y-46244126D01*
X43627431Y-45863720D01*
X43336280Y-45572569D01*
X42955874Y-45415000D01*
X42544126Y-45415000D01*
X42163720Y-45572569D01*
X41872569Y-45863720D01*
X41715000Y-46244126D01*
X21127000Y-46244126D01*
X21127000Y-44794126D01*
X82815000Y-44794126D01*
X82815000Y-45205874D01*
X82972569Y-45586280D01*
X83263720Y-45877431D01*
X83644126Y-46035000D01*
X84055874Y-46035000D01*
X84436280Y-45877431D01*
X84727431Y-45586280D01*
X84885000Y-45205874D01*
X84885000Y-44794126D01*
X84727431Y-44413720D01*
X84436280Y-44122569D01*
X84055874Y-43965000D01*
X83644126Y-43965000D01*
X83263720Y-44122569D01*
X82972569Y-44413720D01*
X82815000Y-44794126D01*
X21127000Y-44794126D01*
X21127000Y-43144126D01*
X30815000Y-43144126D01*
X30815000Y-43555874D01*
X30972569Y-43936280D01*
X31263720Y-44227431D01*
X31644126Y-44385000D01*
X32055874Y-44385000D01*
X32436280Y-44227431D01*
X32727431Y-43936280D01*
X32885000Y-43555874D01*
X32885000Y-43144126D01*
X32727431Y-42763720D01*
X32436280Y-42472569D01*
X32055874Y-42315000D01*
X31644126Y-42315000D01*
X31263720Y-42472569D01*
X30972569Y-42763720D01*
X30815000Y-43144126D01*
X21127000Y-43144126D01*
X21127000Y-40694126D01*
X41615000Y-40694126D01*
X41615000Y-41105874D01*
X41772569Y-41486280D01*
X42063720Y-41777431D01*
X42444126Y-41935000D01*
X42855874Y-41935000D01*
X43236280Y-41777431D01*
X43527431Y-41486280D01*
X43685000Y-41105874D01*
X43685000Y-40694126D01*
X43527431Y-40313720D01*
X43236280Y-40022569D01*
X42855874Y-39865000D01*
X42444126Y-39865000D01*
X42063720Y-40022569D01*
X41772569Y-40313720D01*
X41615000Y-40694126D01*
X21127000Y-40694126D01*
X21127000Y-36394126D01*
X28965000Y-36394126D01*
X28965000Y-36805874D01*
X29122569Y-37186280D01*
X29413720Y-37477431D01*
X29794126Y-37635000D01*
X30205874Y-37635000D01*
X30586280Y-37477431D01*
X30877431Y-37186280D01*
X31035000Y-36805874D01*
X31035000Y-36394126D01*
X30980962Y-36263666D01*
X31088217Y-36285000D01*
X32311783Y-36285000D01*
X32642855Y-36219146D01*
X33018289Y-35968289D01*
X33269146Y-35592855D01*
X33357235Y-35150000D01*
X33269146Y-34707145D01*
X33018289Y-34331711D01*
X32642855Y-34080854D01*
X32311783Y-34015000D01*
X31088217Y-34015000D01*
X30757145Y-34080854D01*
X30381711Y-34331711D01*
X30130854Y-34707145D01*
X30042765Y-35150000D01*
X30125313Y-35565000D01*
X29794126Y-35565000D01*
X29413720Y-35722569D01*
X29122569Y-36013720D01*
X28965000Y-36394126D01*
X21127000Y-36394126D01*
X21127000Y-35150000D01*
X22042765Y-35150000D01*
X22130854Y-35592855D01*
X22381711Y-35968289D01*
X22757145Y-36219146D01*
X23088217Y-36285000D01*
X24311783Y-36285000D01*
X24642855Y-36219146D01*
X25018289Y-35968289D01*
X25269146Y-35592855D01*
X25357235Y-35150000D01*
X25269146Y-34707145D01*
X25018289Y-34331711D01*
X24642855Y-34080854D01*
X24311783Y-34015000D01*
X23088217Y-34015000D01*
X22757145Y-34080854D01*
X22381711Y-34331711D01*
X22130854Y-34707145D01*
X22042765Y-35150000D01*
X21127000Y-35150000D01*
X21127000Y-33994126D01*
X35465000Y-33994126D01*
X35465000Y-34405874D01*
X35622569Y-34786280D01*
X35913720Y-35077431D01*
X36294126Y-35235000D01*
X36705874Y-35235000D01*
X37086280Y-35077431D01*
X37377431Y-34786280D01*
X37535000Y-34405874D01*
X37535000Y-33994126D01*
X37377431Y-33613720D01*
X37086280Y-33322569D01*
X36705874Y-33165000D01*
X36294126Y-33165000D01*
X35913720Y-33322569D01*
X35622569Y-33613720D01*
X35465000Y-33994126D01*
X21127000Y-33994126D01*
X21127000Y-32521430D01*
X21174212Y-32635410D01*
X21514590Y-32975788D01*
X21959316Y-33160000D01*
X22440684Y-33160000D01*
X22885410Y-32975788D01*
X23225788Y-32635410D01*
X23410000Y-32190684D01*
X23410000Y-31709316D01*
X27990000Y-31709316D01*
X27990000Y-32190684D01*
X28174212Y-32635410D01*
X28514590Y-32975788D01*
X28959316Y-33160000D01*
X29440684Y-33160000D01*
X29885410Y-32975788D01*
X30225788Y-32635410D01*
X30410000Y-32190684D01*
X30410000Y-31709316D01*
X30225788Y-31264590D01*
X29885410Y-30924212D01*
X29440684Y-30740000D01*
X28959316Y-30740000D01*
X28514590Y-30924212D01*
X28174212Y-31264590D01*
X27990000Y-31709316D01*
X23410000Y-31709316D01*
X23225788Y-31264590D01*
X22885410Y-30924212D01*
X22440684Y-30740000D01*
X21959316Y-30740000D01*
X21514590Y-30924212D01*
X21174212Y-31264590D01*
X21127000Y-31378570D01*
X21127000Y-28750000D01*
X22042765Y-28750000D01*
X22130854Y-29192855D01*
X22381711Y-29568289D01*
X22757145Y-29819146D01*
X23088217Y-29885000D01*
X24311783Y-29885000D01*
X24642855Y-29819146D01*
X25018289Y-29568289D01*
X25269146Y-29192855D01*
X25357235Y-28750000D01*
X30042765Y-28750000D01*
X30130854Y-29192855D01*
X30381711Y-29568289D01*
X30757145Y-29819146D01*
X31088217Y-29885000D01*
X32311783Y-29885000D01*
X32642855Y-29819146D01*
X33018289Y-29568289D01*
X33269146Y-29192855D01*
X33357235Y-28750000D01*
X33269146Y-28307145D01*
X33018289Y-27931711D01*
X32642855Y-27680854D01*
X32311783Y-27615000D01*
X31088217Y-27615000D01*
X30757145Y-27680854D01*
X30381711Y-27931711D01*
X30130854Y-28307145D01*
X30042765Y-28750000D01*
X25357235Y-28750000D01*
X25269146Y-28307145D01*
X25018289Y-27931711D01*
X24642855Y-27680854D01*
X24311783Y-27615000D01*
X23088217Y-27615000D01*
X22757145Y-27680854D01*
X22381711Y-27931711D01*
X22130854Y-28307145D01*
X22042765Y-28750000D01*
X21127000Y-28750000D01*
X21127000Y-25500000D01*
X38345908Y-25500000D01*
X38461161Y-26079418D01*
X38789375Y-26570625D01*
X39280582Y-26898839D01*
X39713744Y-26985000D01*
X40006256Y-26985000D01*
X40439418Y-26898839D01*
X40930625Y-26570625D01*
X41143843Y-26251522D01*
X41204817Y-26381358D01*
X41633076Y-26771645D01*
X42043110Y-26941476D01*
X42273000Y-26820155D01*
X42273000Y-25627000D01*
X42527000Y-25627000D01*
X42527000Y-26820155D01*
X42756890Y-26941476D01*
X43166924Y-26771645D01*
X43595183Y-26381358D01*
X43841486Y-25856892D01*
X43720819Y-25627000D01*
X42527000Y-25627000D01*
X42273000Y-25627000D01*
X42253000Y-25627000D01*
X42253000Y-25400000D01*
X69245908Y-25400000D01*
X69361161Y-25979418D01*
X69689375Y-26470625D01*
X70180582Y-26798839D01*
X70613744Y-26885000D01*
X70906256Y-26885000D01*
X71339418Y-26798839D01*
X71830625Y-26470625D01*
X72030000Y-26172239D01*
X72229375Y-26470625D01*
X72720582Y-26798839D01*
X73153744Y-26885000D01*
X73446256Y-26885000D01*
X73666408Y-26841209D01*
X87165001Y-40339804D01*
X87165001Y-40496288D01*
X87047569Y-40613720D01*
X86890000Y-40994126D01*
X86890000Y-41405874D01*
X87047569Y-41786280D01*
X87338720Y-42077431D01*
X87719126Y-42235000D01*
X88130874Y-42235000D01*
X88511280Y-42077431D01*
X88802431Y-41786280D01*
X88960000Y-41405874D01*
X88960000Y-40994126D01*
X88802431Y-40613720D01*
X88685000Y-40496289D01*
X88685000Y-40099846D01*
X88699888Y-40024999D01*
X88685000Y-39950152D01*
X88685000Y-39950148D01*
X88640904Y-39728463D01*
X88599102Y-39665902D01*
X88515329Y-39540526D01*
X88515327Y-39540524D01*
X88472929Y-39477071D01*
X88409476Y-39434673D01*
X83968929Y-34994126D01*
X88515000Y-34994126D01*
X88515000Y-35405874D01*
X88672569Y-35786280D01*
X88963720Y-36077431D01*
X89344126Y-36235000D01*
X89755874Y-36235000D01*
X90136280Y-36077431D01*
X90225000Y-35988711D01*
X90313720Y-36077431D01*
X90694126Y-36235000D01*
X91105874Y-36235000D01*
X91486280Y-36077431D01*
X91777431Y-35786280D01*
X91935000Y-35405874D01*
X91935000Y-35235000D01*
X92005874Y-35235000D01*
X92386280Y-35077431D01*
X92677431Y-34786280D01*
X92835000Y-34405874D01*
X92835000Y-33994126D01*
X92677431Y-33613720D01*
X92386280Y-33322569D01*
X92005874Y-33165000D01*
X91594126Y-33165000D01*
X91213720Y-33322569D01*
X90922569Y-33613720D01*
X90765000Y-33994126D01*
X90765000Y-34165000D01*
X90694126Y-34165000D01*
X90313720Y-34322569D01*
X90225000Y-34411289D01*
X90136280Y-34322569D01*
X89755874Y-34165000D01*
X89344126Y-34165000D01*
X88963720Y-34322569D01*
X88672569Y-34613720D01*
X88515000Y-34994126D01*
X83968929Y-34994126D01*
X81318929Y-32344126D01*
X100665000Y-32344126D01*
X100665000Y-32755874D01*
X100822569Y-33136280D01*
X101113720Y-33427431D01*
X101494126Y-33585000D01*
X101905874Y-33585000D01*
X102286280Y-33427431D01*
X102577431Y-33136280D01*
X102735000Y-32755874D01*
X102735000Y-32344126D01*
X102577431Y-31963720D01*
X102286280Y-31672569D01*
X101905874Y-31515000D01*
X101494126Y-31515000D01*
X101113720Y-31672569D01*
X100822569Y-31963720D01*
X100665000Y-32344126D01*
X81318929Y-32344126D01*
X79618928Y-30644126D01*
X84815000Y-30644126D01*
X84815000Y-31055874D01*
X84972569Y-31436280D01*
X85263720Y-31727431D01*
X85644126Y-31885000D01*
X86055874Y-31885000D01*
X86436280Y-31727431D01*
X86727431Y-31436280D01*
X86885000Y-31055874D01*
X86885000Y-30644126D01*
X86864290Y-30594126D01*
X87305000Y-30594126D01*
X87305000Y-31005874D01*
X87462569Y-31386280D01*
X87753720Y-31677431D01*
X88134126Y-31835000D01*
X88545874Y-31835000D01*
X88926280Y-31677431D01*
X89217431Y-31386280D01*
X89375000Y-31005874D01*
X89375000Y-30758711D01*
X89513730Y-30897441D01*
X89894136Y-31055010D01*
X90305884Y-31055010D01*
X90686290Y-30897441D01*
X90977441Y-30606290D01*
X91135010Y-30225884D01*
X91135010Y-29814136D01*
X91081520Y-29685000D01*
X91355874Y-29685000D01*
X91736280Y-29527431D01*
X92027431Y-29236280D01*
X92185000Y-28855874D01*
X92185000Y-28444126D01*
X92027431Y-28063720D01*
X91736280Y-27772569D01*
X91355874Y-27615000D01*
X90944126Y-27615000D01*
X90563720Y-27772569D01*
X90272569Y-28063720D01*
X90115000Y-28444126D01*
X90115000Y-28855874D01*
X90168490Y-28985010D01*
X89894136Y-28985010D01*
X89513730Y-29142579D01*
X89222579Y-29433730D01*
X89065010Y-29814136D01*
X89065010Y-30061299D01*
X88926280Y-29922569D01*
X88545874Y-29765000D01*
X88134126Y-29765000D01*
X87753720Y-29922569D01*
X87462569Y-30213720D01*
X87305000Y-30594126D01*
X86864290Y-30594126D01*
X86727431Y-30263720D01*
X86436280Y-29972569D01*
X86055874Y-29815000D01*
X85644126Y-29815000D01*
X85263720Y-29972569D01*
X84972569Y-30263720D01*
X84815000Y-30644126D01*
X79618928Y-30644126D01*
X74741209Y-25766408D01*
X74814092Y-25400000D01*
X74764365Y-25150000D01*
X79502560Y-25150000D01*
X79502560Y-26850000D01*
X79551843Y-27097765D01*
X79692191Y-27307809D01*
X79902235Y-27448157D01*
X80150000Y-27497440D01*
X81850000Y-27497440D01*
X82097765Y-27448157D01*
X82307809Y-27307809D01*
X82448157Y-27097765D01*
X82457184Y-27052381D01*
X82469375Y-27070625D01*
X82960582Y-27398839D01*
X83393744Y-27485000D01*
X83686256Y-27485000D01*
X84119418Y-27398839D01*
X84610625Y-27070625D01*
X84810000Y-26772239D01*
X85009375Y-27070625D01*
X85500582Y-27398839D01*
X85933744Y-27485000D01*
X86226256Y-27485000D01*
X86659418Y-27398839D01*
X87150625Y-27070625D01*
X87350000Y-26772239D01*
X87549375Y-27070625D01*
X88040582Y-27398839D01*
X88473744Y-27485000D01*
X88766256Y-27485000D01*
X89199418Y-27398839D01*
X89690625Y-27070625D01*
X90018839Y-26579418D01*
X90124146Y-26050000D01*
X91035908Y-26050000D01*
X91151161Y-26629418D01*
X91479375Y-27120625D01*
X91970582Y-27448839D01*
X92403744Y-27535000D01*
X92696256Y-27535000D01*
X93129418Y-27448839D01*
X93620625Y-27120625D01*
X93820000Y-26822239D01*
X94019375Y-27120625D01*
X94510582Y-27448839D01*
X94943744Y-27535000D01*
X95236256Y-27535000D01*
X95669418Y-27448839D01*
X96160625Y-27120625D01*
X96360000Y-26822239D01*
X96559375Y-27120625D01*
X97050582Y-27448839D01*
X97483744Y-27535000D01*
X97776256Y-27535000D01*
X98209418Y-27448839D01*
X98700625Y-27120625D01*
X98900000Y-26822239D01*
X99099375Y-27120625D01*
X99590582Y-27448839D01*
X100023744Y-27535000D01*
X100316256Y-27535000D01*
X100749418Y-27448839D01*
X101240625Y-27120625D01*
X101440000Y-26822239D01*
X101639375Y-27120625D01*
X102130582Y-27448839D01*
X102563744Y-27535000D01*
X102856256Y-27535000D01*
X103289418Y-27448839D01*
X103780625Y-27120625D01*
X103792816Y-27102381D01*
X103801843Y-27147765D01*
X103942191Y-27357809D01*
X104152235Y-27498157D01*
X104400000Y-27547440D01*
X106100000Y-27547440D01*
X106347765Y-27498157D01*
X106557809Y-27357809D01*
X106698157Y-27147765D01*
X106747440Y-26900000D01*
X106747440Y-25200000D01*
X107752560Y-25200000D01*
X107752560Y-26900000D01*
X107801843Y-27147765D01*
X107942191Y-27357809D01*
X108152235Y-27498157D01*
X108400000Y-27547440D01*
X110100000Y-27547440D01*
X110347765Y-27498157D01*
X110557809Y-27357809D01*
X110698157Y-27147765D01*
X110707184Y-27102381D01*
X110719375Y-27120625D01*
X111210582Y-27448839D01*
X111643744Y-27535000D01*
X111936256Y-27535000D01*
X112369418Y-27448839D01*
X112860625Y-27120625D01*
X113188839Y-26629418D01*
X113304092Y-26050000D01*
X113188839Y-25470582D01*
X112860625Y-24979375D01*
X112369418Y-24651161D01*
X111936256Y-24565000D01*
X111643744Y-24565000D01*
X111210582Y-24651161D01*
X110719375Y-24979375D01*
X110707184Y-24997619D01*
X110698157Y-24952235D01*
X110557809Y-24742191D01*
X110347765Y-24601843D01*
X110100000Y-24552560D01*
X108400000Y-24552560D01*
X108152235Y-24601843D01*
X107942191Y-24742191D01*
X107801843Y-24952235D01*
X107752560Y-25200000D01*
X106747440Y-25200000D01*
X106698157Y-24952235D01*
X106557809Y-24742191D01*
X106347765Y-24601843D01*
X106100000Y-24552560D01*
X104400000Y-24552560D01*
X104152235Y-24601843D01*
X103942191Y-24742191D01*
X103801843Y-24952235D01*
X103792816Y-24997619D01*
X103780625Y-24979375D01*
X103289418Y-24651161D01*
X102856256Y-24565000D01*
X102563744Y-24565000D01*
X102130582Y-24651161D01*
X101639375Y-24979375D01*
X101440000Y-25277761D01*
X101240625Y-24979375D01*
X100749418Y-24651161D01*
X100316256Y-24565000D01*
X100023744Y-24565000D01*
X99590582Y-24651161D01*
X99099375Y-24979375D01*
X98900000Y-25277761D01*
X98700625Y-24979375D01*
X98209418Y-24651161D01*
X97776256Y-24565000D01*
X97483744Y-24565000D01*
X97050582Y-24651161D01*
X96559375Y-24979375D01*
X96360000Y-25277761D01*
X96160625Y-24979375D01*
X95669418Y-24651161D01*
X95236256Y-24565000D01*
X94943744Y-24565000D01*
X94510582Y-24651161D01*
X94019375Y-24979375D01*
X93820000Y-25277761D01*
X93620625Y-24979375D01*
X93129418Y-24651161D01*
X92696256Y-24565000D01*
X92403744Y-24565000D01*
X91970582Y-24651161D01*
X91479375Y-24979375D01*
X91151161Y-25470582D01*
X91035908Y-26050000D01*
X90124146Y-26050000D01*
X90134092Y-26000000D01*
X90018839Y-25420582D01*
X89690625Y-24929375D01*
X89199418Y-24601161D01*
X88766256Y-24515000D01*
X88473744Y-24515000D01*
X88040582Y-24601161D01*
X87549375Y-24929375D01*
X87350000Y-25227761D01*
X87150625Y-24929375D01*
X86659418Y-24601161D01*
X86226256Y-24515000D01*
X85933744Y-24515000D01*
X85500582Y-24601161D01*
X85009375Y-24929375D01*
X84810000Y-25227761D01*
X84610625Y-24929375D01*
X84119418Y-24601161D01*
X83686256Y-24515000D01*
X83393744Y-24515000D01*
X82960582Y-24601161D01*
X82469375Y-24929375D01*
X82457184Y-24947619D01*
X82448157Y-24902235D01*
X82307809Y-24692191D01*
X82097765Y-24551843D01*
X81850000Y-24502560D01*
X80150000Y-24502560D01*
X79902235Y-24551843D01*
X79692191Y-24692191D01*
X79551843Y-24902235D01*
X79502560Y-25150000D01*
X74764365Y-25150000D01*
X74698839Y-24820582D01*
X74370625Y-24329375D01*
X74072239Y-24130000D01*
X74370625Y-23930625D01*
X74698839Y-23439418D01*
X74814092Y-22860000D01*
X74800989Y-22794126D01*
X79865000Y-22794126D01*
X79865000Y-23205874D01*
X80022569Y-23586280D01*
X80313720Y-23877431D01*
X80694126Y-24035000D01*
X81105874Y-24035000D01*
X81486280Y-23877431D01*
X81777431Y-23586280D01*
X81935000Y-23205874D01*
X81935000Y-22794126D01*
X81777431Y-22413720D01*
X81486280Y-22122569D01*
X81105874Y-21965000D01*
X80694126Y-21965000D01*
X80313720Y-22122569D01*
X80022569Y-22413720D01*
X79865000Y-22794126D01*
X74800989Y-22794126D01*
X74698839Y-22280582D01*
X74370625Y-21789375D01*
X73879418Y-21461161D01*
X73446256Y-21375000D01*
X73153744Y-21375000D01*
X72720582Y-21461161D01*
X72229375Y-21789375D01*
X72217184Y-21807619D01*
X72208157Y-21762235D01*
X72067809Y-21552191D01*
X71857765Y-21411843D01*
X71610000Y-21362560D01*
X69910000Y-21362560D01*
X69662235Y-21411843D01*
X69452191Y-21552191D01*
X69311843Y-21762235D01*
X69262560Y-22010000D01*
X69262560Y-23710000D01*
X69311843Y-23957765D01*
X69452191Y-24167809D01*
X69662235Y-24308157D01*
X69707619Y-24317184D01*
X69689375Y-24329375D01*
X69361161Y-24820582D01*
X69245908Y-25400000D01*
X42253000Y-25400000D01*
X42253000Y-25373000D01*
X42273000Y-25373000D01*
X42273000Y-23087000D01*
X42527000Y-23087000D01*
X42527000Y-25373000D01*
X43720819Y-25373000D01*
X43841486Y-25143108D01*
X43595183Y-24618642D01*
X43168729Y-24230000D01*
X43595183Y-23841358D01*
X43841486Y-23316892D01*
X43720819Y-23087000D01*
X42527000Y-23087000D01*
X42273000Y-23087000D01*
X42253000Y-23087000D01*
X42253000Y-22833000D01*
X42273000Y-22833000D01*
X42273000Y-21639845D01*
X42527000Y-21639845D01*
X42527000Y-22833000D01*
X43720819Y-22833000D01*
X43841486Y-22603108D01*
X43595183Y-22078642D01*
X43166924Y-21688355D01*
X42756890Y-21518524D01*
X42527000Y-21639845D01*
X42273000Y-21639845D01*
X42043110Y-21518524D01*
X41633076Y-21688355D01*
X41328739Y-21965708D01*
X41308157Y-21862235D01*
X41167809Y-21652191D01*
X40957765Y-21511843D01*
X40710000Y-21462560D01*
X39010000Y-21462560D01*
X38762235Y-21511843D01*
X38552191Y-21652191D01*
X38411843Y-21862235D01*
X38362560Y-22110000D01*
X38362560Y-23810000D01*
X38411843Y-24057765D01*
X38552191Y-24267809D01*
X38762235Y-24408157D01*
X38807619Y-24417184D01*
X38789375Y-24429375D01*
X38461161Y-24920582D01*
X38345908Y-25500000D01*
X21127000Y-25500000D01*
X21127000Y-21127000D01*
X91757420Y-21127000D01*
X91529375Y-21279375D01*
G04 #@! TD*
M02*
