M48
; DRILL file {KiCad (5.1.4)-1} date 6-11-2019 21:27:38
; FORMAT={-:-/ absolute / metric / decimal}
; #@! TF.CreationDate,2019-11-06T21:27:38+01:00
; #@! TF.GenerationSoftware,Kicad,Pcbnew,(5.1.4)-1
; #@! TF.FileFunction,Plated,1,2,PTH
FMAT,2
METRIC
T1C0.400
T2C0.500
T3C1.000
T4C1.020
T5C1.520
%
G90
G05
T1
X35.34Y-103.84
X36.41Y-59.33
X39.965Y-86.115
X47.54Y-90.23
X47.84Y-73.73
X51.09Y-104.605
X51.54Y-84.33
X53.34Y-68.03
X54.34Y-97.63
X54.64Y-92.03
X57.94Y-107.03
X58.7Y-62.4
X58.94Y-85.63
X60.04Y-99.23
X61.14Y-76.03
X65.04Y-107.13
X65.34Y-70.13
X65.84Y-77.605
X66.64Y-93.83
X68.54Y-79.73
X68.54Y-79.73
X69.84Y-102.93
X70.44Y-89.43
X74.54Y-83.03
X75.04Y-97.13
X76.89Y-102.53
X76.94Y-88.23
X77.24Y-83.03
X78.04Y-72.53
X78.04Y-98.13
X78.33Y-102.26
X78.34Y-87.93
X79.54Y-67.23
X85.54Y-66.43
X85.74Y-73.73
X86.74Y-73.03
X111.62Y-102.48
X115.42Y-111.48
X117.82Y-80.28
X119.52Y-82.38
X119.599Y-95.801
X120.87Y-97.28
X121.72Y-93.98
X124.33Y-80.96
X125.54Y-114.398
X126.23Y-85.86
X126.66Y-136.86
X129.01Y-131.15
X129.73Y-86.56
X130.54Y-110.45
X132.0Y-117.73
X136.89Y-127.04
X141.88Y-133.51
X143.43Y-86.86
X143.43Y-93.66
X147.98Y-83.91
X149.23Y-134.81
X151.03Y-76.46
X151.08Y-88.96
X152.98Y-84.76
X155.28Y-87.31
X155.58Y-75.01
X158.83Y-136.86
X164.03Y-87.96
X164.53Y-76.06
X166.4Y-88.3
X166.6Y-82.5
T3
X43.86Y-62.4
X46.4Y-62.4
X48.94Y-62.4
X127.95Y-88.56
X130.49Y-88.56
X133.03Y-88.56
X153.93Y-79.56
X98.74Y-120.77
X98.74Y-123.31
X83.63Y-120.82
X83.63Y-123.36
X143.28Y-105.62
X143.28Y-108.16
X143.28Y-110.7
X143.63Y-74.22
X143.63Y-76.76
X143.63Y-79.3
X172.5Y-108.8
X172.5Y-111.34
X139.43Y-72.06
X139.43Y-74.6
X139.43Y-77.14
X139.43Y-79.68
X139.43Y-82.22
X139.43Y-84.76
X85.54Y-105.24
X88.08Y-105.24
X103.49Y-120.66
X103.49Y-123.2
X106.03Y-120.66
X106.03Y-123.2
X42.48Y-113.68
X42.48Y-116.22
X42.48Y-118.76
X56.22Y-118.1
X58.76Y-118.1
X61.3Y-118.1
X63.84Y-118.1
X139.43Y-88.86
X139.43Y-91.4
X139.43Y-93.94
X94.14Y-75.73
X96.68Y-75.73
X94.99Y-120.77
X94.99Y-123.31
X37.69Y-106.88
X40.23Y-106.88
X42.77Y-106.88
X166.53Y-79.66
X118.93Y-70.82
X118.93Y-73.36
X118.93Y-75.9
X164.23Y-57.76
X164.23Y-60.3
X173.1Y-68.9
X173.1Y-71.44
X173.1Y-73.98
X173.1Y-76.52
X173.1Y-79.06
X173.1Y-81.6
X173.1Y-84.14
X173.1Y-86.68
X118.93Y-67.06
X103.39Y-72.06
X105.93Y-72.06
X108.47Y-72.06
X111.01Y-72.06
X94.01Y-71.21
X96.55Y-71.21
X86.11Y-89.78
X88.65Y-89.78
X85.6Y-101.47
X88.14Y-101.47
X87.44Y-120.77
X87.44Y-123.31
X134.27Y-98.59
X136.81Y-98.59
X139.35Y-98.59
X91.24Y-120.77
X91.24Y-123.31
X86.1Y-85.96
X88.64Y-85.96
X29.35Y-64.48
X31.89Y-64.48
X34.43Y-64.48
X36.63Y-93.4
X39.17Y-93.4
X41.71Y-93.4
X91.16Y-131.8
X91.16Y-134.34
X93.7Y-131.8
X93.7Y-134.34
X142.29Y-115.16
X142.29Y-117.7
X144.83Y-115.16
X144.83Y-117.7
T4
X90.84Y-79.63
X71.38Y-77.12
X72.9Y-129.6
X48.1Y-111.0
X86.07Y-82.48
X72.9Y-124.2
X143.03Y-100.84
X85.52Y-108.72
X36.7Y-98.9
X72.14Y-71.03
X53.24Y-74.08
X41.36Y-54.71
X104.53Y-107.86
X117.8Y-106.9
X37.79Y-73.68
X142.83Y-124.26
X90.84Y-67.23
X86.19Y-93.2
X130.83Y-120.96
X31.91Y-67.93
X111.73Y-124.16
X57.19Y-71.18
X85.62Y-97.92
X121.87Y-103.43
T5
X172.3Y-56.52
X172.3Y-61.6
X106.75Y-132.76
X111.83Y-132.76
T2
G00X29.26Y-109.83
M15
G01X29.96Y-109.83
M16
G05
G00X29.26Y-116.23
M15
G01X29.96Y-116.23
M16
G05
G00X37.26Y-109.83
M15
G01X37.96Y-109.83
M16
G05
G00X37.26Y-116.23
M15
G01X37.96Y-116.23
M16
G05
G00X29.2Y-54.65
M15
G01X29.9Y-54.65
M16
G05
G00X29.2Y-61.05
M15
G01X29.9Y-61.05
M16
G05
G00X37.2Y-54.65
M15
G01X37.9Y-54.65
M16
G05
G00X37.2Y-61.05
M15
G01X37.9Y-61.05
M16
G05
T3
G00X165.8Y-98.5
M15
G01X165.8Y-96.5
M16
G05
G00X169.8Y-92.8
M15
G01X167.8Y-92.8
M16
G05
G00X171.8Y-98.5
M15
G01X171.8Y-96.5
M16
G05
T0
M30
